<svg width="1728" height="476" viewBox="0 0 1728 476" fill="none" xmlns="http://www.w3.org/2000/svg">
<g clip-path="url(#clip0_14734_9641)">
<rect width="1728" height="476" fill="#042F2B"/>
<g opacity="0.3">
<mask id="mask0_14734_9641" style="mask-type:alpha" maskUnits="userSpaceOnUse" x="543" y="-70" width="642" height="642">
<rect width="642" height="642" transform="translate(543 -70)" fill="url(#paint0_radial_14734_9641)"/>
</mask>
<g mask="url(#mask0_14734_9641)">
<g clip-path="url(#clip1_14734_9641)">
<g clip-path="url(#clip2_14734_9641)">
<line x1="543.223" y1="-70" x2="543.223" y2="572" stroke="#D0D5DD" stroke-width="0.445833"/>
<line x1="578.891" y1="-70" x2="578.891" y2="572" stroke="#D0D5DD" stroke-width="0.445833"/>
<line x1="614.555" y1="-70" x2="614.555" y2="572" stroke="#D0D5DD" stroke-width="0.445833"/>
<line x1="650.223" y1="-70" x2="650.223" y2="572" stroke="#D0D5DD" stroke-width="0.445833"/>
<line x1="685.891" y1="-70" x2="685.891" y2="572" stroke="#D0D5DD" stroke-width="0.445833"/>
<line x1="721.555" y1="-70" x2="721.555" y2="572" stroke="#D0D5DD" stroke-width="0.445833"/>
<line x1="757.223" y1="-70" x2="757.223" y2="572" stroke="#D0D5DD" stroke-width="0.445833"/>
<line x1="792.891" y1="-70" x2="792.891" y2="572" stroke="#D0D5DD" stroke-width="0.445833"/>
<line x1="828.555" y1="-70" x2="828.555" y2="572" stroke="#D0D5DD" stroke-width="0.445833"/>
<line x1="864.223" y1="-70" x2="864.223" y2="572" stroke="#D0D5DD" stroke-width="0.445833"/>
<line x1="899.891" y1="-70" x2="899.891" y2="572" stroke="#D0D5DD" stroke-width="0.445833"/>
<line x1="935.555" y1="-70" x2="935.555" y2="572" stroke="#D0D5DD" stroke-width="0.445833"/>
<line x1="971.223" y1="-70" x2="971.223" y2="572" stroke="#D0D5DD" stroke-width="0.445833"/>
<line x1="1006.89" y1="-70" x2="1006.89" y2="572" stroke="#D0D5DD" stroke-width="0.445833"/>
<line x1="1042.55" y1="-70" x2="1042.55" y2="572" stroke="#D0D5DD" stroke-width="0.445833"/>
<line x1="1078.22" y1="-70" x2="1078.22" y2="572" stroke="#D0D5DD" stroke-width="0.445833"/>
<line x1="1113.89" y1="-70" x2="1113.89" y2="572" stroke="#D0D5DD" stroke-width="0.445833"/>
<line x1="1149.55" y1="-70" x2="1149.55" y2="572" stroke="#D0D5DD" stroke-width="0.445833"/>
</g>
<g clip-path="url(#clip3_14734_9641)">
<line x1="436" y1="1.11041" x2="1292" y2="1.11041" stroke="#D0D5DD" stroke-width="0.445833"/>
<line x1="436" y1="36.7771" x2="1292" y2="36.7771" stroke="#D0D5DD" stroke-width="0.445833"/>
<line x1="436" y1="72.4437" x2="1292" y2="72.4437" stroke="#D0D5DD" stroke-width="0.445833"/>
<line x1="436" y1="108.11" x2="1292" y2="108.11" stroke="#D0D5DD" stroke-width="0.445833"/>
<line x1="436" y1="143.777" x2="1292" y2="143.777" stroke="#D0D5DD" stroke-width="0.445833"/>
<line x1="436" y1="179.444" x2="1292" y2="179.444" stroke="#D0D5DD" stroke-width="0.445833"/>
<line x1="436" y1="215.11" x2="1292" y2="215.11" stroke="#D0D5DD" stroke-width="0.445833"/>
<line x1="436" y1="250.777" x2="1292" y2="250.777" stroke="#D0D5DD" stroke-width="0.445833"/>
<line x1="436" y1="286.444" x2="1292" y2="286.444" stroke="#D0D5DD" stroke-width="0.445833"/>
<line x1="436" y1="322.11" x2="1292" y2="322.11" stroke="#D0D5DD" stroke-width="0.445833"/>
<line x1="436" y1="357.777" x2="1292" y2="357.777" stroke="#D0D5DD" stroke-width="0.445833"/>
<line x1="436" y1="393.444" x2="1292" y2="393.444" stroke="#D0D5DD" stroke-width="0.445833"/>
<line x1="436" y1="429.11" x2="1292" y2="429.11" stroke="#D0D5DD" stroke-width="0.445833"/>
<line x1="436" y1="464.777" x2="1292" y2="464.777" stroke="#D0D5DD" stroke-width="0.445833"/>
</g>
</g>
</g>
</g>
<rect width="1728" height="476" transform="matrix(1 0 0 -1 0 476)" fill="url(#paint1_radial_14734_9641)" fill-opacity="0.5"/>
</g>
<defs>
<radialGradient id="paint0_radial_14734_9641" cx="0" cy="0" r="1" gradientUnits="userSpaceOnUse" gradientTransform="translate(321 -7.65324e-05) rotate(90) scale(642 335.083)">
<stop/>
<stop offset="0.953125" stop-opacity="0"/>
</radialGradient>
<radialGradient id="paint1_radial_14734_9641" cx="0" cy="0" r="1" gradientUnits="userSpaceOnUse" gradientTransform="translate(874.506 523.254) rotate(-90) scale(383.22 853.494)">
<stop stop-color="#14B8A9" stop-opacity="0.8"/>
<stop offset="1" stop-color="#09524B" stop-opacity="0"/>
</radialGradient>
<clipPath id="clip0_14734_9641">
<rect width="1728" height="476" fill="white"/>
</clipPath>
<clipPath id="clip1_14734_9641">
<rect width="856" height="642" fill="white" transform="translate(436 -70)"/>
</clipPath>
<clipPath id="clip2_14734_9641">
<rect width="856" height="642" fill="white" transform="translate(436 -70)"/>
</clipPath>
<clipPath id="clip3_14734_9641">
<rect width="856" height="642" fill="white" transform="translate(436 -70)"/>
</clipPath>
</defs>
</svg>
