<svg width="42" height="15" viewBox="0 0 42 15" fill="none" xmlns="http://www.w3.org/2000/svg">
<rect width="42" height="15" rx="7.5" fill="#FF4F49"/>
<path d="M8.9146 11V3.72727H11.6987C12.2243 3.72727 12.661 3.81013 13.0091 3.97585C13.3594 4.1392 13.621 4.36293 13.7939 4.64702C13.969 4.93111 14.0566 5.25308 14.0566 5.61293C14.0566 5.90885 13.9998 6.16217 13.8862 6.37287C13.7725 6.5812 13.6199 6.75047 13.4281 6.88068C13.2363 7.01089 13.0221 7.1044 12.7853 7.16122V7.23224C13.0434 7.24645 13.2908 7.32576 13.5275 7.47017C13.7666 7.61222 13.9619 7.81345 14.1135 8.07386C14.265 8.33428 14.3407 8.64915 14.3407 9.01847C14.3407 9.39489 14.2496 9.73343 14.0673 10.0341C13.885 10.3324 13.6104 10.5679 13.2434 10.7408C12.8765 10.9136 12.4148 11 11.8585 11H8.9146ZM10.2321 9.89915H11.649C12.1272 9.89915 12.4717 9.808 12.6824 9.62571C12.8954 9.44105 13.002 9.20431 13.002 8.91548C13.002 8.70005 12.9487 8.50592 12.8422 8.3331C12.7356 8.15791 12.5841 8.0206 12.3876 7.92116C12.1911 7.81937 11.9567 7.76847 11.6845 7.76847H10.2321V9.89915ZM10.2321 6.82031H11.5353C11.7626 6.82031 11.9674 6.77888 12.1497 6.69602C12.332 6.6108 12.4752 6.49124 12.5794 6.33736C12.6859 6.18111 12.7392 5.99645 12.7392 5.78338C12.7392 5.50166 12.6397 5.26965 12.4409 5.08736C12.2444 4.90507 11.952 4.81392 11.5637 4.81392H10.2321V6.82031ZM15.4869 11V3.72727H20.217V4.83168H16.8043V6.80611H19.9719V7.91051H16.8043V9.8956H20.2454V11H15.4869ZM21.2415 4.83168V3.72727H27.044V4.83168H24.7962V11H23.4893V4.83168H21.2415ZM28.2177 11H26.8114L29.3718 3.72727H30.9982L33.5621 11H32.1559L30.2134 5.21875H30.1566L28.2177 11ZM28.2638 8.14844H32.0991V9.20668H28.2638V8.14844Z" fill="white"/>
</svg>
