<svg width="1728" height="212" viewBox="0 0 1728 212" fill="none" xmlns="http://www.w3.org/2000/svg">
<g clip-path="url(#clip0_14650_48349)">
<rect width="1728" height="212" fill="#042F2B"/>
<g opacity="0.3">
<mask id="mask0_14650_48349" style="mask-type:alpha" maskUnits="userSpaceOnUse" x="543" y="-334" width="642" height="642">
<rect width="642" height="642" transform="translate(543 -334)" fill="url(#paint0_radial_14650_48349)"/>
</mask>
<g mask="url(#mask0_14650_48349)">
<g clip-path="url(#clip1_14650_48349)">
<g clip-path="url(#clip2_14650_48349)">
<line x1="543.223" y1="-334" x2="543.223" y2="308" stroke="#D0D5DD" stroke-width="0.445833"/>
<line x1="578.889" y1="-334" x2="578.889" y2="308" stroke="#D0D5DD" stroke-width="0.445833"/>
<line x1="614.557" y1="-334" x2="614.557" y2="308" stroke="#D0D5DD" stroke-width="0.445833"/>
<line x1="650.223" y1="-334" x2="650.223" y2="308" stroke="#D0D5DD" stroke-width="0.445833"/>
<line x1="685.889" y1="-334" x2="685.889" y2="308" stroke="#D0D5DD" stroke-width="0.445833"/>
<line x1="721.557" y1="-334" x2="721.557" y2="308" stroke="#D0D5DD" stroke-width="0.445833"/>
<line x1="757.223" y1="-334" x2="757.223" y2="308" stroke="#D0D5DD" stroke-width="0.445833"/>
<line x1="792.889" y1="-334" x2="792.889" y2="308" stroke="#D0D5DD" stroke-width="0.445833"/>
<line x1="828.557" y1="-334" x2="828.557" y2="308" stroke="#D0D5DD" stroke-width="0.445833"/>
<line x1="864.223" y1="-334" x2="864.223" y2="308" stroke="#D0D5DD" stroke-width="0.445833"/>
<line x1="899.889" y1="-334" x2="899.889" y2="308" stroke="#D0D5DD" stroke-width="0.445833"/>
<line x1="935.557" y1="-334" x2="935.557" y2="308" stroke="#D0D5DD" stroke-width="0.445833"/>
<line x1="971.223" y1="-334" x2="971.223" y2="308" stroke="#D0D5DD" stroke-width="0.445833"/>
<line x1="1006.89" y1="-334" x2="1006.89" y2="308" stroke="#D0D5DD" stroke-width="0.445833"/>
<line x1="1042.56" y1="-334" x2="1042.56" y2="308" stroke="#D0D5DD" stroke-width="0.445833"/>
<line x1="1078.22" y1="-334" x2="1078.22" y2="308" stroke="#D0D5DD" stroke-width="0.445833"/>
<line x1="1113.89" y1="-334" x2="1113.89" y2="308" stroke="#D0D5DD" stroke-width="0.445833"/>
<line x1="1149.56" y1="-334" x2="1149.56" y2="308" stroke="#D0D5DD" stroke-width="0.445833"/>
</g>
<g clip-path="url(#clip3_14650_48349)">
<line x1="436" y1="22.4437" x2="1292" y2="22.4437" stroke="#D0D5DD" stroke-width="0.445833"/>
<line x1="436" y1="58.1104" x2="1292" y2="58.1104" stroke="#D0D5DD" stroke-width="0.445833"/>
<line x1="436" y1="93.7771" x2="1292" y2="93.7771" stroke="#D0D5DD" stroke-width="0.445833"/>
<line x1="436" y1="129.444" x2="1292" y2="129.444" stroke="#D0D5DD" stroke-width="0.445833"/>
<line x1="436" y1="165.11" x2="1292" y2="165.11" stroke="#D0D5DD" stroke-width="0.445833"/>
<line x1="436" y1="200.777" x2="1292" y2="200.777" stroke="#D0D5DD" stroke-width="0.445833"/>
</g>
</g>
</g>
</g>
<rect width="1728" height="212" transform="matrix(1 0 0 -1 0 212)" fill="url(#paint1_radial_14650_48349)" fill-opacity="0.5"/>
</g>
<defs>
<radialGradient id="paint0_radial_14650_48349" cx="0" cy="0" r="1" gradientUnits="userSpaceOnUse" gradientTransform="translate(321 -7.65324e-05) rotate(90) scale(642 335.083)">
<stop/>
<stop offset="0.953125" stop-opacity="0"/>
</radialGradient>
<radialGradient id="paint1_radial_14650_48349" cx="0" cy="0" r="1" gradientUnits="userSpaceOnUse" gradientTransform="translate(874.506 233.046) rotate(-90) scale(170.678 853.494)">
<stop stop-color="#14B8A9" stop-opacity="0.8"/>
<stop offset="1" stop-color="#09524B" stop-opacity="0"/>
</radialGradient>
<clipPath id="clip0_14650_48349">
<rect width="1728" height="212" fill="white"/>
</clipPath>
<clipPath id="clip1_14650_48349">
<rect width="856" height="642" fill="white" transform="translate(436 -334)"/>
</clipPath>
<clipPath id="clip2_14650_48349">
<rect width="856" height="642" fill="white" transform="translate(436 -334)"/>
</clipPath>
<clipPath id="clip3_14650_48349">
<rect width="856" height="642" fill="white" transform="translate(436 -334)"/>
</clipPath>
</defs>
</svg>
