<svg width="1922" height="910" viewBox="0 0 1922 910" fill="none" xmlns="http://www.w3.org/2000/svg">
<g clipPath="url(#clip0_20725_57334)">
<g clipPath="url(#clip1_20725_57334)">
<mask id="mask0_20725_57334" style="mask-type:alpha" maskUnits="userSpaceOnUse" x="522" y="-17" width="878" height="878">
<rect width="878" height="878" transform="translate(522 -17)" fill="url(#paint0_radial_20725_57334)"/>
</mask>
<g mask="url(#mask0_20725_57334)">
<g clipPath="url(#clip2_20725_57334)">
<mask id="path-3-inside-1_20725_57334" fill="white">
<path d="M492.733 -17L551.266 -17V41.5333L492.733 41.5333V-17Z"/>
</mask>
<path d="M551.266 41.5333V42.1431H551.876V41.5333H551.266ZM551.266 -17H550.657V41.5333H551.266H551.876V-17H551.266ZM551.266 41.5333V40.9236L492.733 40.9236V41.5333V42.1431L551.266 42.1431V41.5333Z" fill="#05B1A1" fill-opacity="0.5" mask="url(#path-3-inside-1_20725_57334)"/>
<mask id="path-5-inside-2_20725_57334" fill="white">
<path d="M551.267 -17L609.8 -17V41.5333L551.267 41.5333V-17Z"/>
</mask>
<path d="M609.8 41.5333V42.1431H610.41V41.5333H609.8ZM609.8 -17H609.19V41.5333H609.8H610.41V-17H609.8ZM609.8 41.5333V40.9236L551.267 40.9236V41.5333V42.1431L609.8 42.1431V41.5333Z" fill="#05B1A1" fill-opacity="0.5" mask="url(#path-5-inside-2_20725_57334)"/>
<mask id="path-7-inside-3_20725_57334" fill="white">
<path d="M609.8 -17L668.333 -17V41.5333L609.8 41.5333V-17Z"/>
</mask>
<path d="M668.333 41.5333V42.1431H668.943V41.5333H668.333ZM668.333 -17H667.723V41.5333H668.333H668.943V-17H668.333ZM668.333 41.5333V40.9236L609.8 40.9236V41.5333V42.1431L668.333 42.1431V41.5333Z" fill="#05B1A1" fill-opacity="0.5" mask="url(#path-7-inside-3_20725_57334)"/>
<mask id="path-9-inside-4_20725_57334" fill="white">
<path d="M668.333 -17L726.866 -17V41.5333L668.333 41.5333V-17Z"/>
</mask>
<path d="M726.866 41.5333V42.1431H727.476V41.5333H726.866ZM726.866 -17H726.257V41.5333H726.866H727.476V-17H726.866ZM726.866 41.5333V40.9236L668.333 40.9236V41.5333V42.1431L726.866 42.1431V41.5333Z" fill="#05B1A1" fill-opacity="0.5" mask="url(#path-9-inside-4_20725_57334)"/>
<mask id="path-11-inside-5_20725_57334" fill="white">
<path d="M726.866 -17L785.4 -17V41.5333L726.866 41.5333V-17Z"/>
</mask>
<path d="M785.4 41.5333V42.1431H786.009V41.5333H785.4ZM785.4 -17H784.79V41.5333H785.4H786.009V-17H785.4ZM785.4 41.5333V40.9236L726.866 40.9236V41.5333V42.1431L785.4 42.1431V41.5333Z" fill="#05B1A1" fill-opacity="0.5" mask="url(#path-11-inside-5_20725_57334)"/>
<mask id="path-13-inside-6_20725_57334" fill="white">
<path d="M785.4 -17L843.933 -17V41.5333L785.4 41.5333V-17Z"/>
</mask>
<path d="M843.933 41.5333V42.1431H844.543V41.5333H843.933ZM843.933 -17H843.324V41.5333H843.933H844.543V-17H843.933ZM843.933 41.5333V40.9236L785.4 40.9236V41.5333V42.1431L843.933 42.1431V41.5333Z" fill="#05B1A1" fill-opacity="0.5" mask="url(#path-13-inside-6_20725_57334)"/>
<mask id="path-15-inside-7_20725_57334" fill="white">
<path d="M843.933 -17L902.466 -17V41.5333L843.933 41.5333V-17Z"/>
</mask>
<path d="M902.466 41.5333V42.1431H903.076V41.5333H902.466ZM902.466 -17H901.857V41.5333H902.466H903.076V-17H902.466ZM902.466 41.5333V40.9236L843.933 40.9236V41.5333V42.1431L902.466 42.1431V41.5333Z" fill="#05B1A1" fill-opacity="0.5" mask="url(#path-15-inside-7_20725_57334)"/>
<mask id="path-17-inside-8_20725_57334" fill="white">
<path d="M902.466 -17L961 -17V41.5333L902.466 41.5333V-17Z"/>
</mask>
<path d="M961 41.5333V42.1431H961.609V41.5333H961ZM961 -17H960.39V41.5333H961H961.609V-17H961ZM961 41.5333V40.9236L902.466 40.9236V41.5333V42.1431L961 42.1431V41.5333Z" fill="#05B1A1" fill-opacity="0.5" mask="url(#path-17-inside-8_20725_57334)"/>
<mask id="path-19-inside-9_20725_57334" fill="white">
<path d="M961 -17L1019.53 -17V41.5333L961 41.5333V-17Z"/>
</mask>
<path d="M1019.53 41.5333V42.1431H1020.14V41.5333H1019.53ZM1019.53 -17H1018.92V41.5333H1019.53H1020.14V-17H1019.53ZM1019.53 41.5333V40.9236L961 40.9236V41.5333V42.1431L1019.53 42.1431V41.5333Z" fill="#05B1A1" fill-opacity="0.5" mask="url(#path-19-inside-9_20725_57334)"/>
<mask id="path-21-inside-10_20725_57334" fill="white">
<path d="M1019.53 -17L1078.07 -17V41.5333L1019.53 41.5333V-17Z"/>
</mask>
<path d="M1078.07 41.5333V42.1431H1078.68V41.5333H1078.07ZM1078.07 -17H1077.46V41.5333H1078.07H1078.68V-17H1078.07ZM1078.07 41.5333V40.9236L1019.53 40.9236V41.5333V42.1431L1078.07 42.1431V41.5333Z" fill="#05B1A1" fill-opacity="0.5" mask="url(#path-21-inside-10_20725_57334)"/>
<mask id="path-23-inside-11_20725_57334" fill="white">
<path d="M1078.07 -17L1136.6 -17V41.5333L1078.07 41.5333V-17Z"/>
</mask>
<path d="M1136.6 41.5333V42.1431H1137.21V41.5333H1136.6ZM1136.6 -17H1135.99V41.5333H1136.6H1137.21V-17H1136.6ZM1136.6 41.5333V40.9236L1078.07 40.9236V41.5333V42.1431L1136.6 42.1431V41.5333Z" fill="#05B1A1" fill-opacity="0.5" mask="url(#path-23-inside-11_20725_57334)"/>
<mask id="path-25-inside-12_20725_57334" fill="white">
<path d="M1136.6 -17L1195.13 -17V41.5333L1136.6 41.5333V-17Z"/>
</mask>
<path d="M1195.13 41.5333V42.1431H1195.74V41.5333H1195.13ZM1195.13 -17H1194.52V41.5333H1195.13H1195.74V-17H1195.13ZM1195.13 41.5333V40.9236L1136.6 40.9236V41.5333V42.1431L1195.13 42.1431V41.5333Z" fill="#05B1A1" fill-opacity="0.5" mask="url(#path-25-inside-12_20725_57334)"/>
<mask id="path-27-inside-13_20725_57334" fill="white">
<path d="M1195.13 -17L1253.67 -17V41.5333L1195.13 41.5333V-17Z"/>
</mask>
<path d="M1253.67 41.5333V42.1431H1254.28V41.5333H1253.67ZM1253.67 -17H1253.06V41.5333H1253.67H1254.28V-17H1253.67ZM1253.67 41.5333V40.9236L1195.13 40.9236V41.5333V42.1431L1253.67 42.1431V41.5333Z" fill="#05B1A1" fill-opacity="0.5" mask="url(#path-27-inside-13_20725_57334)"/>
<mask id="path-29-inside-14_20725_57334" fill="white">
<path d="M1253.67 -17L1312.2 -17V41.5333L1253.67 41.5333V-17Z"/>
</mask>
<path d="M1312.2 41.5333V42.1431H1312.81V41.5333H1312.2ZM1312.2 -17H1311.59V41.5333H1312.2H1312.81V-17H1312.2ZM1312.2 41.5333V40.9236L1253.67 40.9236V41.5333V42.1431L1312.2 42.1431V41.5333Z" fill="#05B1A1" fill-opacity="0.5" mask="url(#path-29-inside-14_20725_57334)"/>
<mask id="path-31-inside-15_20725_57334" fill="white">
<path d="M1312.2 -17L1370.73 -17V41.5333L1312.2 41.5333V-17Z"/>
</mask>
<path d="M1370.73 41.5333V42.1431H1371.34V41.5333H1370.73ZM1370.73 -17H1370.12V41.5333H1370.73H1371.34V-17H1370.73ZM1370.73 41.5333V40.9236L1312.2 40.9236V41.5333V42.1431L1370.73 42.1431V41.5333Z" fill="#05B1A1" fill-opacity="0.5" mask="url(#path-31-inside-15_20725_57334)"/>
<mask id="path-33-inside-16_20725_57334" fill="white">
<path d="M1370.73 -17L1429.27 -17V41.5333L1370.73 41.5333V-17Z"/>
</mask>
<path d="M1429.27 41.5333V42.1431H1429.88V41.5333H1429.27ZM1429.27 -17H1428.66V41.5333H1429.27H1429.88V-17H1429.27ZM1429.27 41.5333V40.9236L1370.73 40.9236V41.5333V42.1431L1429.27 42.1431V41.5333Z" fill="#05B1A1" fill-opacity="0.5" mask="url(#path-33-inside-16_20725_57334)"/>
<mask id="path-35-inside-17_20725_57334" fill="white">
<path d="M492.733 41.5333L551.266 41.5333V100.067L492.733 100.067V41.5333Z"/>
</mask>
<path d="M551.266 100.067V100.676H551.876V100.067H551.266ZM551.266 41.5333H550.657V100.067H551.266H551.876V41.5333H551.266ZM551.266 100.067V99.4569L492.733 99.4569V100.067V100.676L551.266 100.676V100.067Z" fill="#05B1A1" fill-opacity="0.5" mask="url(#path-35-inside-17_20725_57334)"/>
<mask id="path-37-inside-18_20725_57334" fill="white">
<path d="M551.267 41.5333L609.8 41.5333V100.067L551.267 100.067V41.5333Z"/>
</mask>
<path d="M609.8 100.067V100.676H610.41V100.067H609.8ZM609.8 41.5333H609.19V100.067H609.8H610.41V41.5333H609.8ZM609.8 100.067V99.4569L551.267 99.4569V100.067V100.676L609.8 100.676V100.067Z" fill="#05B1A1" fill-opacity="0.5" mask="url(#path-37-inside-18_20725_57334)"/>
<mask id="path-39-inside-19_20725_57334" fill="white">
<path d="M609.8 41.5333L668.333 41.5333V100.067L609.8 100.067V41.5333Z"/>
</mask>
<path d="M668.333 100.067V100.676H668.943V100.067H668.333ZM668.333 41.5333H667.723V100.067H668.333H668.943V41.5333H668.333ZM668.333 100.067V99.4569L609.8 99.4569V100.067V100.676L668.333 100.676V100.067Z" fill="#05B1A1" fill-opacity="0.5" mask="url(#path-39-inside-19_20725_57334)"/>
<mask id="path-41-inside-20_20725_57334" fill="white">
<path d="M668.333 41.5333L726.866 41.5333V100.067L668.333 100.067V41.5333Z"/>
</mask>
<path d="M668.333 41.5333L726.866 41.5333V100.067L668.333 100.067V41.5333Z" fill="#0C9E91" fill-opacity="0.8"/>
<path d="M726.866 100.067V100.676H727.476V100.067H726.866ZM726.866 41.5333H726.257V100.067H726.866H727.476V41.5333H726.866ZM726.866 100.067V99.4569L668.333 99.4569V100.067V100.676L726.866 100.676V100.067Z" fill="#05B1A1" fill-opacity="0.5" mask="url(#path-41-inside-20_20725_57334)"/>
<mask id="path-43-inside-21_20725_57334" fill="white">
<path d="M726.866 41.5333L785.4 41.5333V100.067L726.866 100.067V41.5333Z"/>
</mask>
<path d="M785.4 100.067V100.676H786.009V100.067H785.4ZM785.4 41.5333H784.79V100.067H785.4H786.009V41.5333H785.4ZM785.4 100.067V99.4569L726.866 99.4569V100.067V100.676L785.4 100.676V100.067Z" fill="#05B1A1" fill-opacity="0.5" mask="url(#path-43-inside-21_20725_57334)"/>
<mask id="path-45-inside-22_20725_57334" fill="white">
<path d="M785.4 41.5333L843.933 41.5333V100.067L785.4 100.067V41.5333Z"/>
</mask>
<path d="M843.933 100.067V100.676H844.543V100.067H843.933ZM843.933 41.5333H843.324V100.067H843.933H844.543V41.5333H843.933ZM843.933 100.067V99.4569L785.4 99.4569V100.067V100.676L843.933 100.676V100.067Z" fill="#05B1A1" fill-opacity="0.5" mask="url(#path-45-inside-22_20725_57334)"/>
<mask id="path-47-inside-23_20725_57334" fill="white">
<path d="M843.933 41.5333L902.466 41.5333V100.067L843.933 100.067V41.5333Z"/>
</mask>
<path d="M902.466 100.067V100.676H903.076V100.067H902.466ZM902.466 41.5333H901.857V100.067H902.466H903.076V41.5333H902.466ZM902.466 100.067V99.4569L843.933 99.4569V100.067V100.676L902.466 100.676V100.067Z" fill="#05B1A1" fill-opacity="0.5" mask="url(#path-47-inside-23_20725_57334)"/>
<mask id="path-49-inside-24_20725_57334" fill="white">
<path d="M902.466 41.5333L961 41.5333V100.067L902.466 100.067V41.5333Z"/>
</mask>
<path d="M961 100.067V100.676H961.609V100.067H961ZM961 41.5333H960.39V100.067H961H961.609V41.5333H961ZM961 100.067V99.4569L902.466 99.4569V100.067V100.676L961 100.676V100.067Z" fill="#05B1A1" fill-opacity="0.5" mask="url(#path-49-inside-24_20725_57334)"/>
<mask id="path-51-inside-25_20725_57334" fill="white">
<path d="M961 41.5333L1019.53 41.5333V100.067L961 100.067V41.5333Z"/>
</mask>
<path d="M1019.53 100.067V100.676H1020.14V100.067H1019.53ZM1019.53 41.5333H1018.92V100.067H1019.53H1020.14V41.5333H1019.53ZM1019.53 100.067V99.4569L961 99.4569V100.067V100.676L1019.53 100.676V100.067Z" fill="#05B1A1" fill-opacity="0.5" mask="url(#path-51-inside-25_20725_57334)"/>
<mask id="path-53-inside-26_20725_57334" fill="white">
<path d="M1019.53 41.5333L1078.07 41.5333V100.067L1019.53 100.067V41.5333Z"/>
</mask>
<path d="M1078.07 100.067V100.676H1078.68V100.067H1078.07ZM1078.07 41.5333H1077.46V100.067H1078.07H1078.68V41.5333H1078.07ZM1078.07 100.067V99.4569L1019.53 99.4569V100.067V100.676L1078.07 100.676V100.067Z" fill="#05B1A1" fill-opacity="0.5" mask="url(#path-53-inside-26_20725_57334)"/>
<mask id="path-55-inside-27_20725_57334" fill="white">
<path d="M1078.07 41.5333L1136.6 41.5333V100.067L1078.07 100.067V41.5333Z"/>
</mask>
<path d="M1136.6 100.067V100.676H1137.21V100.067H1136.6ZM1136.6 41.5333H1135.99V100.067H1136.6H1137.21V41.5333H1136.6ZM1136.6 100.067V99.4569L1078.07 99.4569V100.067V100.676L1136.6 100.676V100.067Z" fill="#05B1A1" fill-opacity="0.5" mask="url(#path-55-inside-27_20725_57334)"/>
<mask id="path-57-inside-28_20725_57334" fill="white">
<path d="M1136.6 41.5333L1195.13 41.5333V100.067L1136.6 100.067V41.5333Z"/>
</mask>
<path d="M1195.13 100.067V100.676H1195.74V100.067H1195.13ZM1195.13 41.5333H1194.52V100.067H1195.13H1195.74V41.5333H1195.13ZM1195.13 100.067V99.4569L1136.6 99.4569V100.067V100.676L1195.13 100.676V100.067Z" fill="#05B1A1" fill-opacity="0.5" mask="url(#path-57-inside-28_20725_57334)"/>
<mask id="path-59-inside-29_20725_57334" fill="white">
<path d="M1195.13 41.5333L1253.67 41.5333V100.067L1195.13 100.067V41.5333Z"/>
</mask>
<path d="M1195.13 41.5333L1253.67 41.5333V100.067L1195.13 100.067V41.5333Z" fill="#0C9E91" fill-opacity="0.8"/>
<path d="M1253.67 100.067V100.676H1254.28V100.067H1253.67ZM1253.67 41.5333H1253.06V100.067H1253.67H1254.28V41.5333H1253.67ZM1253.67 100.067V99.4569L1195.13 99.4569V100.067V100.676L1253.67 100.676V100.067Z" fill="#05B1A1" fill-opacity="0.5" mask="url(#path-59-inside-29_20725_57334)"/>
<mask id="path-61-inside-30_20725_57334" fill="white">
<path d="M1253.67 41.5333L1312.2 41.5333V100.067L1253.67 100.067V41.5333Z"/>
</mask>
<path d="M1312.2 100.067V100.676H1312.81V100.067H1312.2ZM1312.2 41.5333H1311.59V100.067H1312.2H1312.81V41.5333H1312.2ZM1312.2 100.067V99.4569L1253.67 99.4569V100.067V100.676L1312.2 100.676V100.067Z" fill="#05B1A1" fill-opacity="0.5" mask="url(#path-61-inside-30_20725_57334)"/>
<mask id="path-63-inside-31_20725_57334" fill="white">
<path d="M1312.2 41.5333L1370.73 41.5333V100.067L1312.2 100.067V41.5333Z"/>
</mask>
<path d="M1370.73 100.067V100.676H1371.34V100.067H1370.73ZM1370.73 41.5333H1370.12V100.067H1370.73H1371.34V41.5333H1370.73ZM1370.73 100.067V99.4569L1312.2 99.4569V100.067V100.676L1370.73 100.676V100.067Z" fill="#05B1A1" fill-opacity="0.5" mask="url(#path-63-inside-31_20725_57334)"/>
<mask id="path-65-inside-32_20725_57334" fill="white">
<path d="M1370.73 41.5333L1429.27 41.5333V100.067L1370.73 100.067V41.5333Z"/>
</mask>
<path d="M1429.27 100.067V100.676H1429.88V100.067H1429.27ZM1429.27 41.5333H1428.66V100.067H1429.27H1429.88V41.5333H1429.27ZM1429.27 100.067V99.4569L1370.73 99.4569V100.067V100.676L1429.27 100.676V100.067Z" fill="#05B1A1" fill-opacity="0.5" mask="url(#path-65-inside-32_20725_57334)"/>
<mask id="path-67-inside-33_20725_57334" fill="white">
<path d="M492.733 100.067L551.266 100.067V158.6H492.733V100.067Z"/>
</mask>
<path d="M551.266 158.6V159.21H551.876V158.6H551.266ZM551.266 100.067H550.657V158.6H551.266H551.876V100.067H551.266ZM551.266 158.6V157.99H492.733V158.6V159.21H551.266V158.6Z" fill="#05B1A1" fill-opacity="0.5" mask="url(#path-67-inside-33_20725_57334)"/>
<mask id="path-69-inside-34_20725_57334" fill="white">
<path d="M551.267 100.067L609.8 100.067V158.6H551.267V100.067Z"/>
</mask>
<path d="M609.8 158.6V159.21H610.41V158.6H609.8ZM609.8 100.067H609.19V158.6H609.8H610.41V100.067H609.8ZM609.8 158.6V157.99H551.267V158.6V159.21H609.8V158.6Z" fill="#05B1A1" fill-opacity="0.5" mask="url(#path-69-inside-34_20725_57334)"/>
<mask id="path-71-inside-35_20725_57334" fill="white">
<path d="M609.8 100.067L668.333 100.067V158.6H609.8V100.067Z"/>
</mask>
<path d="M668.333 158.6V159.21H668.943V158.6H668.333ZM668.333 100.067H667.723V158.6H668.333H668.943V100.067H668.333ZM668.333 158.6V157.99H609.8V158.6V159.21H668.333V158.6Z" fill="#05B1A1" fill-opacity="0.5" mask="url(#path-71-inside-35_20725_57334)"/>
<mask id="path-73-inside-36_20725_57334" fill="white">
<path d="M668.333 100.067L726.866 100.067V158.6H668.333V100.067Z"/>
</mask>
<path d="M726.866 158.6V159.21H727.476V158.6H726.866ZM726.866 100.067H726.257V158.6H726.866H727.476V100.067H726.866ZM726.866 158.6V157.99H668.333V158.6V159.21H726.866V158.6Z" fill="#05B1A1" fill-opacity="0.5" mask="url(#path-73-inside-36_20725_57334)"/>
<mask id="path-75-inside-37_20725_57334" fill="white">
<path d="M726.866 100.067L785.4 100.067V158.6H726.866V100.067Z"/>
</mask>
<path d="M785.4 158.6V159.21H786.009V158.6H785.4ZM785.4 100.067H784.79V158.6H785.4H786.009V100.067H785.4ZM785.4 158.6V157.99H726.866V158.6V159.21H785.4V158.6Z" fill="#05B1A1" fill-opacity="0.5" mask="url(#path-75-inside-37_20725_57334)"/>
<mask id="path-77-inside-38_20725_57334" fill="white">
<path d="M785.4 100.067L843.933 100.067V158.6H785.4V100.067Z"/>
</mask>
<path d="M785.4 100.067L843.933 100.067V158.6H785.4V100.067Z" fill="#0C9E91" fill-opacity="0.8"/>
<path d="M843.933 158.6V159.21H844.543V158.6H843.933ZM843.933 100.067H843.324V158.6H843.933H844.543V100.067H843.933ZM843.933 158.6V157.99H785.4V158.6V159.21H843.933V158.6Z" fill="#05B1A1" fill-opacity="0.5" mask="url(#path-77-inside-38_20725_57334)"/>
<mask id="path-79-inside-39_20725_57334" fill="white">
<path d="M843.933 100.067L902.466 100.067V158.6H843.933V100.067Z"/>
</mask>
<path d="M902.466 158.6V159.21H903.076V158.6H902.466ZM902.466 100.067H901.857V158.6H902.466H903.076V100.067H902.466ZM902.466 158.6V157.99H843.933V158.6V159.21H902.466V158.6Z" fill="#05B1A1" fill-opacity="0.5" mask="url(#path-79-inside-39_20725_57334)"/>
<mask id="path-81-inside-40_20725_57334" fill="white">
<path d="M902.466 100.067L961 100.067V158.6H902.466V100.067Z"/>
</mask>
<path d="M961 158.6V159.21H961.609V158.6H961ZM961 100.067H960.39V158.6H961H961.609V100.067H961ZM961 158.6V157.99H902.466V158.6V159.21H961V158.6Z" fill="#05B1A1" fill-opacity="0.5" mask="url(#path-81-inside-40_20725_57334)"/>
<mask id="path-83-inside-41_20725_57334" fill="white">
<path d="M961 100.067L1019.53 100.067V158.6H961V100.067Z"/>
</mask>
<path d="M1019.53 158.6V159.21H1020.14V158.6H1019.53ZM1019.53 100.067H1018.92V158.6H1019.53H1020.14V100.067H1019.53ZM1019.53 158.6V157.99H961V158.6V159.21H1019.53V158.6Z" fill="#05B1A1" fill-opacity="0.5" mask="url(#path-83-inside-41_20725_57334)"/>
<mask id="path-85-inside-42_20725_57334" fill="white">
<path d="M1019.53 100.067L1078.07 100.067V158.6H1019.53V100.067Z"/>
</mask>
<path d="M1019.53 100.067L1078.07 100.067V158.6H1019.53V100.067Z" fill="#0C9E91" fill-opacity="0.8"/>
<path d="M1078.07 158.6V159.21H1078.68V158.6H1078.07ZM1078.07 100.067H1077.46V158.6H1078.07H1078.68V100.067H1078.07ZM1078.07 158.6V157.99H1019.53V158.6V159.21H1078.07V158.6Z" fill="#05B1A1" fill-opacity="0.5" mask="url(#path-85-inside-42_20725_57334)"/>
<mask id="path-87-inside-43_20725_57334" fill="white">
<path d="M1078.07 100.067L1136.6 100.067V158.6H1078.07V100.067Z"/>
</mask>
<path d="M1136.6 158.6V159.21H1137.21V158.6H1136.6ZM1136.6 100.067H1135.99V158.6H1136.6H1137.21V100.067H1136.6ZM1136.6 158.6V157.99H1078.07V158.6V159.21H1136.6V158.6Z" fill="#05B1A1" fill-opacity="0.5" mask="url(#path-87-inside-43_20725_57334)"/>
<mask id="path-89-inside-44_20725_57334" fill="white">
<path d="M1136.6 100.067L1195.13 100.067V158.6H1136.6V100.067Z"/>
</mask>
<path d="M1195.13 158.6V159.21H1195.74V158.6H1195.13ZM1195.13 100.067H1194.52V158.6H1195.13H1195.74V100.067H1195.13ZM1195.13 158.6V157.99H1136.6V158.6V159.21H1195.13V158.6Z" fill="#05B1A1" fill-opacity="0.5" mask="url(#path-89-inside-44_20725_57334)"/>
<mask id="path-91-inside-45_20725_57334" fill="white">
<path d="M1195.13 100.067L1253.67 100.067V158.6H1195.13V100.067Z"/>
</mask>
<path d="M1253.67 158.6V159.21H1254.28V158.6H1253.67ZM1253.67 100.067H1253.06V158.6H1253.67H1254.28V100.067H1253.67ZM1253.67 158.6V157.99H1195.13V158.6V159.21H1253.67V158.6Z" fill="#05B1A1" fill-opacity="0.5" mask="url(#path-91-inside-45_20725_57334)"/>
<mask id="path-93-inside-46_20725_57334" fill="white">
<path d="M1253.67 100.067L1312.2 100.067V158.6H1253.67V100.067Z"/>
</mask>
<path d="M1312.2 158.6V159.21H1312.81V158.6H1312.2ZM1312.2 100.067H1311.59V158.6H1312.2H1312.81V100.067H1312.2ZM1312.2 158.6V157.99H1253.67V158.6V159.21H1312.2V158.6Z" fill="#05B1A1" fill-opacity="0.5" mask="url(#path-93-inside-46_20725_57334)"/>
<mask id="path-95-inside-47_20725_57334" fill="white">
<path d="M1312.2 100.067L1370.73 100.067V158.6H1312.2V100.067Z"/>
</mask>
<path d="M1370.73 158.6V159.21H1371.34V158.6H1370.73ZM1370.73 100.067H1370.12V158.6H1370.73H1371.34V100.067H1370.73ZM1370.73 158.6V157.99H1312.2V158.6V159.21H1370.73V158.6Z" fill="#05B1A1" fill-opacity="0.5" mask="url(#path-95-inside-47_20725_57334)"/>
<mask id="path-97-inside-48_20725_57334" fill="white">
<path d="M1370.73 100.067L1429.27 100.067V158.6H1370.73V100.067Z"/>
</mask>
<path d="M1429.27 158.6V159.21H1429.88V158.6H1429.27ZM1429.27 100.067H1428.66V158.6H1429.27H1429.88V100.067H1429.27ZM1429.27 158.6V157.99H1370.73V158.6V159.21H1429.27V158.6Z" fill="#05B1A1" fill-opacity="0.5" mask="url(#path-97-inside-48_20725_57334)"/>
<mask id="path-99-inside-49_20725_57334" fill="white">
<path d="M492.733 158.6L551.266 158.6V217.133H492.733V158.6Z"/>
</mask>
<path d="M492.733 158.6L551.266 158.6V217.133H492.733V158.6Z" fill="#0C9E91" fill-opacity="0.8"/>
<path d="M551.266 217.133V217.743H551.876V217.133H551.266ZM551.266 158.6H550.657V217.133H551.266H551.876V158.6H551.266ZM551.266 217.133V216.524H492.733V217.133V217.743H551.266V217.133Z" fill="#05B1A1" fill-opacity="0.5" mask="url(#path-99-inside-49_20725_57334)"/>
<mask id="path-101-inside-50_20725_57334" fill="white">
<path d="M551.267 158.6L609.8 158.6V217.133H551.267V158.6Z"/>
</mask>
<path d="M609.8 217.133V217.743H610.41V217.133H609.8ZM609.8 158.6H609.19V217.133H609.8H610.41V158.6H609.8ZM609.8 217.133V216.524H551.267V217.133V217.743H609.8V217.133Z" fill="#05B1A1" fill-opacity="0.5" mask="url(#path-101-inside-50_20725_57334)"/>
<mask id="path-103-inside-51_20725_57334" fill="white">
<path d="M609.8 158.6L668.333 158.6V217.133H609.8V158.6Z"/>
</mask>
<path d="M668.333 217.133V217.743H668.943V217.133H668.333ZM668.333 158.6H667.723V217.133H668.333H668.943V158.6H668.333ZM668.333 217.133V216.524H609.8V217.133V217.743H668.333V217.133Z" fill="#05B1A1" fill-opacity="0.5" mask="url(#path-103-inside-51_20725_57334)"/>
<mask id="path-105-inside-52_20725_57334" fill="white">
<path d="M668.333 158.6L726.866 158.6V217.133H668.333V158.6Z"/>
</mask>
<path d="M726.866 217.133V217.743H727.476V217.133H726.866ZM726.866 158.6H726.257V217.133H726.866H727.476V158.6H726.866ZM726.866 217.133V216.524H668.333V217.133V217.743H726.866V217.133Z" fill="#05B1A1" fill-opacity="0.5" mask="url(#path-105-inside-52_20725_57334)"/>
<mask id="path-107-inside-53_20725_57334" fill="white">
<path d="M726.866 158.6L785.4 158.6V217.133H726.866V158.6Z"/>
</mask>
<path d="M785.4 217.133V217.743H786.009V217.133H785.4ZM785.4 158.6H784.79V217.133H785.4H786.009V158.6H785.4ZM785.4 217.133V216.524H726.866V217.133V217.743H785.4V217.133Z" fill="#05B1A1" fill-opacity="0.5" mask="url(#path-107-inside-53_20725_57334)"/>
<mask id="path-109-inside-54_20725_57334" fill="white">
<path d="M785.4 158.6L843.933 158.6V217.133H785.4V158.6Z"/>
</mask>
<path d="M843.933 217.133V217.743H844.543V217.133H843.933ZM843.933 158.6H843.324V217.133H843.933H844.543V158.6H843.933ZM843.933 217.133V216.524H785.4V217.133V217.743H843.933V217.133Z" fill="#05B1A1" fill-opacity="0.5" mask="url(#path-109-inside-54_20725_57334)"/>
<mask id="path-111-inside-55_20725_57334" fill="white">
<path d="M843.933 158.6L902.466 158.6V217.133H843.933V158.6Z"/>
</mask>
<path d="M902.466 217.133V217.743H903.076V217.133H902.466ZM902.466 158.6H901.857V217.133H902.466H903.076V158.6H902.466ZM902.466 217.133V216.524H843.933V217.133V217.743H902.466V217.133Z" fill="#05B1A1" fill-opacity="0.5" mask="url(#path-111-inside-55_20725_57334)"/>
<mask id="path-113-inside-56_20725_57334" fill="white">
<path d="M902.466 158.6L961 158.6V217.133H902.466V158.6Z"/>
</mask>
<path d="M961 217.133V217.743H961.609V217.133H961ZM961 158.6H960.39V217.133H961H961.609V158.6H961ZM961 217.133V216.524H902.466V217.133V217.743H961V217.133Z" fill="#05B1A1" fill-opacity="0.5" mask="url(#path-113-inside-56_20725_57334)"/>
<mask id="path-115-inside-57_20725_57334" fill="white">
<path d="M961 158.6L1019.53 158.6V217.133H961V158.6Z"/>
</mask>
<path d="M1019.53 217.133V217.743H1020.14V217.133H1019.53ZM1019.53 158.6H1018.92V217.133H1019.53H1020.14V158.6H1019.53ZM1019.53 217.133V216.524H961V217.133V217.743H1019.53V217.133Z" fill="#05B1A1" fill-opacity="0.5" mask="url(#path-115-inside-57_20725_57334)"/>
<mask id="path-117-inside-58_20725_57334" fill="white">
<path d="M1019.53 158.6L1078.07 158.6V217.133H1019.53V158.6Z"/>
</mask>
<path d="M1078.07 217.133V217.743H1078.68V217.133H1078.07ZM1078.07 158.6H1077.46V217.133H1078.07H1078.68V158.6H1078.07ZM1078.07 217.133V216.524H1019.53V217.133V217.743H1078.07V217.133Z" fill="#05B1A1" fill-opacity="0.5" mask="url(#path-117-inside-58_20725_57334)"/>
<mask id="path-119-inside-59_20725_57334" fill="white">
<path d="M1078.07 158.6L1136.6 158.6V217.133H1078.07V158.6Z"/>
</mask>
<path d="M1136.6 217.133V217.743H1137.21V217.133H1136.6ZM1136.6 158.6H1135.99V217.133H1136.6H1137.21V158.6H1136.6ZM1136.6 217.133V216.524H1078.07V217.133V217.743H1136.6V217.133Z" fill="#05B1A1" fill-opacity="0.5" mask="url(#path-119-inside-59_20725_57334)"/>
<mask id="path-121-inside-60_20725_57334" fill="white">
<path d="M1136.6 158.6L1195.13 158.6V217.133H1136.6V158.6Z"/>
</mask>
<path d="M1195.13 217.133V217.743H1195.74V217.133H1195.13ZM1195.13 158.6H1194.52V217.133H1195.13H1195.74V158.6H1195.13ZM1195.13 217.133V216.524H1136.6V217.133V217.743H1195.13V217.133Z" fill="#05B1A1" fill-opacity="0.5" mask="url(#path-121-inside-60_20725_57334)"/>
<mask id="path-123-inside-61_20725_57334" fill="white">
<path d="M1195.13 158.6L1253.67 158.6V217.133H1195.13V158.6Z"/>
</mask>
<path d="M1195.13 158.6L1253.67 158.6V217.133H1195.13V158.6Z" fill="#0C9E91" fill-opacity="0.8"/>
<path d="M1253.67 217.133V217.743H1254.28V217.133H1253.67ZM1253.67 158.6H1253.06V217.133H1253.67H1254.28V158.6H1253.67ZM1253.67 217.133V216.524H1195.13V217.133V217.743H1253.67V217.133Z" fill="#05B1A1" fill-opacity="0.5" mask="url(#path-123-inside-61_20725_57334)"/>
<mask id="path-125-inside-62_20725_57334" fill="white">
<path d="M1253.67 158.6L1312.2 158.6V217.133H1253.67V158.6Z"/>
</mask>
<path d="M1312.2 217.133V217.743H1312.81V217.133H1312.2ZM1312.2 158.6H1311.59V217.133H1312.2H1312.81V158.6H1312.2ZM1312.2 217.133V216.524H1253.67V217.133V217.743H1312.2V217.133Z" fill="#05B1A1" fill-opacity="0.5" mask="url(#path-125-inside-62_20725_57334)"/>
<mask id="path-127-inside-63_20725_57334" fill="white">
<path d="M1312.2 158.6L1370.73 158.6V217.133H1312.2V158.6Z"/>
</mask>
<path d="M1370.73 217.133V217.743H1371.34V217.133H1370.73ZM1370.73 158.6H1370.12V217.133H1370.73H1371.34V158.6H1370.73ZM1370.73 217.133V216.524H1312.2V217.133V217.743H1370.73V217.133Z" fill="#05B1A1" fill-opacity="0.5" mask="url(#path-127-inside-63_20725_57334)"/>
<mask id="path-129-inside-64_20725_57334" fill="white">
<path d="M1370.73 158.6L1429.27 158.6V217.133H1370.73V158.6Z"/>
</mask>
<path d="M1429.27 217.133V217.743H1429.88V217.133H1429.27ZM1429.27 158.6H1428.66V217.133H1429.27H1429.88V158.6H1429.27ZM1429.27 217.133V216.524H1370.73V217.133V217.743H1429.27V217.133Z" fill="#05B1A1" fill-opacity="0.5" mask="url(#path-129-inside-64_20725_57334)"/>
<mask id="path-131-inside-65_20725_57334" fill="white">
<path d="M492.733 217.133L551.266 217.133V275.667H492.733V217.133Z"/>
</mask>
<path d="M551.266 275.667V276.276H551.876V275.667H551.266ZM551.266 217.133H550.657V275.667H551.266H551.876V217.133H551.266ZM551.266 275.667V275.057H492.733V275.667V276.276H551.266V275.667Z" fill="#05B1A1" fill-opacity="0.5" mask="url(#path-131-inside-65_20725_57334)"/>
<mask id="path-133-inside-66_20725_57334" fill="white">
<path d="M551.267 217.133L609.8 217.133V275.667H551.267V217.133Z"/>
</mask>
<path d="M609.8 275.667V276.276H610.41V275.667H609.8ZM609.8 217.133H609.19V275.667H609.8H610.41V217.133H609.8ZM609.8 275.667V275.057H551.267V275.667V276.276H609.8V275.667Z" fill="#05B1A1" fill-opacity="0.5" mask="url(#path-133-inside-66_20725_57334)"/>
<mask id="path-135-inside-67_20725_57334" fill="white">
<path d="M609.8 217.133L668.333 217.133V275.667H609.8V217.133Z"/>
</mask>
<path d="M668.333 275.667V276.276H668.943V275.667H668.333ZM668.333 217.133H667.723V275.667H668.333H668.943V217.133H668.333ZM668.333 275.667V275.057H609.8V275.667V276.276H668.333V275.667Z" fill="#05B1A1" fill-opacity="0.5" mask="url(#path-135-inside-67_20725_57334)"/>
<mask id="path-137-inside-68_20725_57334" fill="white">
<path d="M668.333 217.133L726.866 217.133V275.667H668.333V217.133Z"/>
</mask>
<path d="M726.866 275.667V276.276H727.476V275.667H726.866ZM726.866 217.133H726.257V275.667H726.866H727.476V217.133H726.866ZM726.866 275.667V275.057H668.333V275.667V276.276H726.866V275.667Z" fill="#05B1A1" fill-opacity="0.5" mask="url(#path-137-inside-68_20725_57334)"/>
<mask id="path-139-inside-69_20725_57334" fill="white">
<path d="M726.866 217.133L785.4 217.133V275.667H726.866V217.133Z"/>
</mask>
<path d="M785.4 275.667V276.276H786.009V275.667H785.4ZM785.4 217.133H784.79V275.667H785.4H786.009V217.133H785.4ZM785.4 275.667V275.057H726.866V275.667V276.276H785.4V275.667Z" fill="#05B1A1" fill-opacity="0.5" mask="url(#path-139-inside-69_20725_57334)"/>
<mask id="path-141-inside-70_20725_57334" fill="white">
<path d="M785.4 217.133L843.933 217.133V275.667H785.4V217.133Z"/>
</mask>
<path d="M843.933 275.667V276.276H844.543V275.667H843.933ZM843.933 217.133H843.324V275.667H843.933H844.543V217.133H843.933ZM843.933 275.667V275.057H785.4V275.667V276.276H843.933V275.667Z" fill="#05B1A1" fill-opacity="0.5" mask="url(#path-141-inside-70_20725_57334)"/>
<mask id="path-143-inside-71_20725_57334" fill="white">
<path d="M843.933 217.133L902.466 217.133V275.667H843.933V217.133Z"/>
</mask>
<path d="M843.933 217.133L902.466 217.133V275.667H843.933V217.133Z" fill="#0C9E91" fill-opacity="0.8"/>
<path d="M902.466 275.667V276.276H903.076V275.667H902.466ZM902.466 217.133H901.857V275.667H902.466H903.076V217.133H902.466ZM902.466 275.667V275.057H843.933V275.667V276.276H902.466V275.667Z" fill="#05B1A1" fill-opacity="0.5" mask="url(#path-143-inside-71_20725_57334)"/>
<mask id="path-145-inside-72_20725_57334" fill="white">
<path d="M902.466 217.133L961 217.133V275.667H902.466V217.133Z"/>
</mask>
<path d="M961 275.667V276.276H961.609V275.667H961ZM961 217.133H960.39V275.667H961H961.609V217.133H961ZM961 275.667V275.057H902.466V275.667V276.276H961V275.667Z" fill="#05B1A1" fill-opacity="0.5" mask="url(#path-145-inside-72_20725_57334)"/>
<mask id="path-147-inside-73_20725_57334" fill="white">
<path d="M961 217.133L1019.53 217.133V275.667H961V217.133Z"/>
</mask>
<path d="M1019.53 275.667V276.276H1020.14V275.667H1019.53ZM1019.53 217.133H1018.92V275.667H1019.53H1020.14V217.133H1019.53ZM1019.53 275.667V275.057H961V275.667V276.276H1019.53V275.667Z" fill="#05B1A1" fill-opacity="0.5" mask="url(#path-147-inside-73_20725_57334)"/>
<mask id="path-149-inside-74_20725_57334" fill="white">
<path d="M1019.53 217.133L1078.07 217.133V275.667H1019.53V217.133Z"/>
</mask>
<path d="M1078.07 275.667V276.276H1078.68V275.667H1078.07ZM1078.07 217.133H1077.46V275.667H1078.07H1078.68V217.133H1078.07ZM1078.07 275.667V275.057H1019.53V275.667V276.276H1078.07V275.667Z" fill="#05B1A1" fill-opacity="0.5" mask="url(#path-149-inside-74_20725_57334)"/>
<mask id="path-151-inside-75_20725_57334" fill="white">
<path d="M1078.07 217.133L1136.6 217.133V275.667H1078.07V217.133Z"/>
</mask>
<path d="M1136.6 275.667V276.276H1137.21V275.667H1136.6ZM1136.6 217.133H1135.99V275.667H1136.6H1137.21V217.133H1136.6ZM1136.6 275.667V275.057H1078.07V275.667V276.276H1136.6V275.667Z" fill="#05B1A1" fill-opacity="0.5" mask="url(#path-151-inside-75_20725_57334)"/>
<mask id="path-153-inside-76_20725_57334" fill="white">
<path d="M1136.6 217.133L1195.13 217.133V275.667H1136.6V217.133Z"/>
</mask>
<path d="M1195.13 275.667V276.276H1195.74V275.667H1195.13ZM1195.13 217.133H1194.52V275.667H1195.13H1195.74V217.133H1195.13ZM1195.13 275.667V275.057H1136.6V275.667V276.276H1195.13V275.667Z" fill="#05B1A1" fill-opacity="0.5" mask="url(#path-153-inside-76_20725_57334)"/>
<mask id="path-155-inside-77_20725_57334" fill="white">
<path d="M1195.13 217.133L1253.67 217.133V275.667H1195.13V217.133Z"/>
</mask>
<path d="M1253.67 275.667V276.276H1254.28V275.667H1253.67ZM1253.67 217.133H1253.06V275.667H1253.67H1254.28V217.133H1253.67ZM1253.67 275.667V275.057H1195.13V275.667V276.276H1253.67V275.667Z" fill="#05B1A1" fill-opacity="0.5" mask="url(#path-155-inside-77_20725_57334)"/>
<mask id="path-157-inside-78_20725_57334" fill="white">
<path d="M1253.67 217.133L1312.2 217.133V275.667H1253.67V217.133Z"/>
</mask>
<path d="M1312.2 275.667V276.276H1312.81V275.667H1312.2ZM1312.2 217.133H1311.59V275.667H1312.2H1312.81V217.133H1312.2ZM1312.2 275.667V275.057H1253.67V275.667V276.276H1312.2V275.667Z" fill="#05B1A1" fill-opacity="0.5" mask="url(#path-157-inside-78_20725_57334)"/>
<mask id="path-159-inside-79_20725_57334" fill="white">
<path d="M1312.2 217.133L1370.73 217.133V275.667H1312.2V217.133Z"/>
</mask>
<path d="M1370.73 275.667V276.276H1371.34V275.667H1370.73ZM1370.73 217.133H1370.12V275.667H1370.73H1371.34V217.133H1370.73ZM1370.73 275.667V275.057H1312.2V275.667V276.276H1370.73V275.667Z" fill="#05B1A1" fill-opacity="0.5" mask="url(#path-159-inside-79_20725_57334)"/>
<mask id="path-161-inside-80_20725_57334" fill="white">
<path d="M1370.73 217.133L1429.27 217.133V275.667H1370.73V217.133Z"/>
</mask>
<path d="M1429.27 275.667V276.276H1429.88V275.667H1429.27ZM1429.27 217.133H1428.66V275.667H1429.27H1429.88V217.133H1429.27ZM1429.27 275.667V275.057H1370.73V275.667V276.276H1429.27V275.667Z" fill="#05B1A1" fill-opacity="0.5" mask="url(#path-161-inside-80_20725_57334)"/>
<mask id="path-163-inside-81_20725_57334" fill="white">
<path d="M492.733 275.667H551.266V334.2H492.733V275.667Z"/>
</mask>
<path d="M551.266 334.2V334.81H551.876V334.2H551.266ZM551.266 275.667H550.657V334.2H551.266H551.876V275.667H551.266ZM551.266 334.2V333.59H492.733V334.2V334.81H551.266V334.2Z" fill="#05B1A1" fill-opacity="0.5" mask="url(#path-163-inside-81_20725_57334)"/>
<mask id="path-165-inside-82_20725_57334" fill="white">
<path d="M551.267 275.667H609.8V334.2H551.267V275.667Z"/>
</mask>
<path d="M609.8 334.2V334.81H610.41V334.2H609.8ZM609.8 275.667H609.19V334.2H609.8H610.41V275.667H609.8ZM609.8 334.2V333.59H551.267V334.2V334.81H609.8V334.2Z" fill="#05B1A1" fill-opacity="0.5" mask="url(#path-165-inside-82_20725_57334)"/>
<mask id="path-167-inside-83_20725_57334" fill="white">
<path d="M609.8 275.667H668.333V334.2H609.8V275.667Z"/>
</mask>
<path d="M668.333 334.2V334.81H668.943V334.2H668.333ZM668.333 275.667H667.723V334.2H668.333H668.943V275.667H668.333ZM668.333 334.2V333.59H609.8V334.2V334.81H668.333V334.2Z" fill="#05B1A1" fill-opacity="0.5" mask="url(#path-167-inside-83_20725_57334)"/>
<mask id="path-169-inside-84_20725_57334" fill="white">
<path d="M668.333 275.667H726.866V334.2H668.333V275.667Z"/>
</mask>
<path d="M668.333 275.667H726.866V334.2H668.333V275.667Z" fill="#0C9E91" fill-opacity="0.8"/>
<path d="M726.866 334.2V334.81H727.476V334.2H726.866ZM726.866 275.667H726.257V334.2H726.866H727.476V275.667H726.866ZM726.866 334.2V333.59H668.333V334.2V334.81H726.866V334.2Z" fill="#05B1A1" fill-opacity="0.5" mask="url(#path-169-inside-84_20725_57334)"/>
<mask id="path-171-inside-85_20725_57334" fill="white">
<path d="M726.866 275.667H785.4V334.2H726.866V275.667Z"/>
</mask>
<path d="M785.4 334.2V334.81H786.009V334.2H785.4ZM785.4 275.667H784.79V334.2H785.4H786.009V275.667H785.4ZM785.4 334.2V333.59H726.866V334.2V334.81H785.4V334.2Z" fill="#05B1A1" fill-opacity="0.5" mask="url(#path-171-inside-85_20725_57334)"/>
<mask id="path-173-inside-86_20725_57334" fill="white">
<path d="M785.4 275.667H843.933V334.2H785.4V275.667Z"/>
</mask>
<path d="M843.933 334.2V334.81H844.543V334.2H843.933ZM843.933 275.667H843.324V334.2H843.933H844.543V275.667H843.933ZM843.933 334.2V333.59H785.4V334.2V334.81H843.933V334.2Z" fill="#05B1A1" fill-opacity="0.5" mask="url(#path-173-inside-86_20725_57334)"/>
<mask id="path-175-inside-87_20725_57334" fill="white">
<path d="M843.933 275.667H902.466V334.2H843.933V275.667Z"/>
</mask>
<path d="M902.466 334.2V334.81H903.076V334.2H902.466ZM902.466 275.667H901.857V334.2H902.466H903.076V275.667H902.466ZM902.466 334.2V333.59H843.933V334.2V334.81H902.466V334.2Z" fill="#05B1A1" fill-opacity="0.5" mask="url(#path-175-inside-87_20725_57334)"/>
<mask id="path-177-inside-88_20725_57334" fill="white">
<path d="M902.466 275.667H961V334.2H902.466V275.667Z"/>
</mask>
<path d="M961 334.2V334.81H961.609V334.2H961ZM961 275.667H960.39V334.2H961H961.609V275.667H961ZM961 334.2V333.59H902.466V334.2V334.81H961V334.2Z" fill="#05B1A1" fill-opacity="0.5" mask="url(#path-177-inside-88_20725_57334)"/>
<mask id="path-179-inside-89_20725_57334" fill="white">
<path d="M961 275.667H1019.53V334.2H961V275.667Z"/>
</mask>
<path d="M1019.53 334.2V334.81H1020.14V334.2H1019.53ZM1019.53 275.667H1018.92V334.2H1019.53H1020.14V275.667H1019.53ZM1019.53 334.2V333.59H961V334.2V334.81H1019.53V334.2Z" fill="#05B1A1" fill-opacity="0.5" mask="url(#path-179-inside-89_20725_57334)"/>
<mask id="path-181-inside-90_20725_57334" fill="white">
<path d="M1019.53 275.667H1078.07V334.2H1019.53V275.667Z"/>
</mask>
<path d="M1019.53 275.667H1078.07V334.2H1019.53V275.667Z" fill="#0C9E91" fill-opacity="0.8"/>
<path d="M1078.07 334.2V334.81H1078.68V334.2H1078.07ZM1078.07 275.667H1077.46V334.2H1078.07H1078.68V275.667H1078.07ZM1078.07 334.2V333.59H1019.53V334.2V334.81H1078.07V334.2Z" fill="#05B1A1" fill-opacity="0.5" mask="url(#path-181-inside-90_20725_57334)"/>
<mask id="path-183-inside-91_20725_57334" fill="white">
<path d="M1078.07 275.667H1136.6V334.2H1078.07V275.667Z"/>
</mask>
<path d="M1136.6 334.2V334.81H1137.21V334.2H1136.6ZM1136.6 275.667H1135.99V334.2H1136.6H1137.21V275.667H1136.6ZM1136.6 334.2V333.59H1078.07V334.2V334.81H1136.6V334.2Z" fill="#05B1A1" fill-opacity="0.5" mask="url(#path-183-inside-91_20725_57334)"/>
<mask id="path-185-inside-92_20725_57334" fill="white">
<path d="M1136.6 275.667H1195.13V334.2H1136.6V275.667Z"/>
</mask>
<path d="M1195.13 334.2V334.81H1195.74V334.2H1195.13ZM1195.13 275.667H1194.52V334.2H1195.13H1195.74V275.667H1195.13ZM1195.13 334.2V333.59H1136.6V334.2V334.81H1195.13V334.2Z" fill="#05B1A1" fill-opacity="0.5" mask="url(#path-185-inside-92_20725_57334)"/>
<mask id="path-187-inside-93_20725_57334" fill="white">
<path d="M1195.13 275.667H1253.67V334.2H1195.13V275.667Z"/>
</mask>
<path d="M1253.67 334.2V334.81H1254.28V334.2H1253.67ZM1253.67 275.667H1253.06V334.2H1253.67H1254.28V275.667H1253.67ZM1253.67 334.2V333.59H1195.13V334.2V334.81H1253.67V334.2Z" fill="#05B1A1" fill-opacity="0.5" mask="url(#path-187-inside-93_20725_57334)"/>
<mask id="path-189-inside-94_20725_57334" fill="white">
<path d="M1253.67 275.667H1312.2V334.2H1253.67V275.667Z"/>
</mask>
<path d="M1312.2 334.2V334.81H1312.81V334.2H1312.2ZM1312.2 275.667H1311.59V334.2H1312.2H1312.81V275.667H1312.2ZM1312.2 334.2V333.59H1253.67V334.2V334.81H1312.2V334.2Z" fill="#05B1A1" fill-opacity="0.5" mask="url(#path-189-inside-94_20725_57334)"/>
<mask id="path-191-inside-95_20725_57334" fill="white">
<path d="M1312.2 275.667H1370.73V334.2H1312.2V275.667Z"/>
</mask>
<path d="M1370.73 334.2V334.81H1371.34V334.2H1370.73ZM1370.73 275.667H1370.12V334.2H1370.73H1371.34V275.667H1370.73ZM1370.73 334.2V333.59H1312.2V334.2V334.81H1370.73V334.2Z" fill="#05B1A1" fill-opacity="0.5" mask="url(#path-191-inside-95_20725_57334)"/>
<mask id="path-193-inside-96_20725_57334" fill="white">
<path d="M1370.73 275.667H1429.27V334.2H1370.73V275.667Z"/>
</mask>
<path d="M1429.27 334.2V334.81H1429.88V334.2H1429.27ZM1429.27 275.667H1428.66V334.2H1429.27H1429.88V275.667H1429.27ZM1429.27 334.2V333.59H1370.73V334.2V334.81H1429.27V334.2Z" fill="#05B1A1" fill-opacity="0.5" mask="url(#path-193-inside-96_20725_57334)"/>
<mask id="path-195-inside-97_20725_57334" fill="white">
<path d="M492.733 334.2H551.266V392.733H492.733V334.2Z"/>
</mask>
<path d="M551.266 392.733V393.343H551.876V392.733H551.266ZM551.266 334.2H550.657V392.733H551.266H551.876V334.2H551.266ZM551.266 392.733V392.124H492.733V392.733V393.343H551.266V392.733Z" fill="#05B1A1" fill-opacity="0.5" mask="url(#path-195-inside-97_20725_57334)"/>
<mask id="path-197-inside-98_20725_57334" fill="white">
<path d="M551.267 334.2H609.8V392.733H551.267V334.2Z"/>
</mask>
<path d="M551.267 334.2H609.8V392.733H551.267V334.2Z" fill="#0C9E91" fill-opacity="0.8"/>
<path d="M609.8 392.733V393.343H610.41V392.733H609.8ZM609.8 334.2H609.19V392.733H609.8H610.41V334.2H609.8ZM609.8 392.733V392.124H551.267V392.733V393.343H609.8V392.733Z" fill="#05B1A1" fill-opacity="0.5" mask="url(#path-197-inside-98_20725_57334)"/>
<mask id="path-199-inside-99_20725_57334" fill="white">
<path d="M609.8 334.2H668.333V392.733H609.8V334.2Z"/>
</mask>
<path d="M668.333 392.733V393.343H668.943V392.733H668.333ZM668.333 334.2H667.723V392.733H668.333H668.943V334.2H668.333ZM668.333 392.733V392.124H609.8V392.733V393.343H668.333V392.733Z" fill="#05B1A1" fill-opacity="0.5" mask="url(#path-199-inside-99_20725_57334)"/>
<mask id="path-201-inside-100_20725_57334" fill="white">
<path d="M668.333 334.2H726.866V392.733H668.333V334.2Z"/>
</mask>
<path d="M726.866 392.733V393.343H727.476V392.733H726.866ZM726.866 334.2H726.257V392.733H726.866H727.476V334.2H726.866ZM726.866 392.733V392.124H668.333V392.733V393.343H726.866V392.733Z" fill="#05B1A1" fill-opacity="0.5" mask="url(#path-201-inside-100_20725_57334)"/>
<mask id="path-203-inside-101_20725_57334" fill="white">
<path d="M726.866 334.2H785.4V392.733H726.866V334.2Z"/>
</mask>
<path d="M785.4 392.733V393.343H786.009V392.733H785.4ZM785.4 334.2H784.79V392.733H785.4H786.009V334.2H785.4ZM785.4 392.733V392.124H726.866V392.733V393.343H785.4V392.733Z" fill="#05B1A1" fill-opacity="0.5" mask="url(#path-203-inside-101_20725_57334)"/>
<mask id="path-205-inside-102_20725_57334" fill="white">
<path d="M785.4 334.2H843.933V392.733H785.4V334.2Z"/>
</mask>
<path d="M843.933 392.733V393.343H844.543V392.733H843.933ZM843.933 334.2H843.324V392.733H843.933H844.543V334.2H843.933ZM843.933 392.733V392.124H785.4V392.733V393.343H843.933V392.733Z" fill="#05B1A1" fill-opacity="0.5" mask="url(#path-205-inside-102_20725_57334)"/>
<mask id="path-207-inside-103_20725_57334" fill="white">
<path d="M843.933 334.2H902.466V392.733H843.933V334.2Z"/>
</mask>
<path d="M902.466 392.733V393.343H903.076V392.733H902.466ZM902.466 334.2H901.857V392.733H902.466H903.076V334.2H902.466ZM902.466 392.733V392.124H843.933V392.733V393.343H902.466V392.733Z" fill="#05B1A1" fill-opacity="0.5" mask="url(#path-207-inside-103_20725_57334)"/>
<mask id="path-209-inside-104_20725_57334" fill="white">
<path d="M902.466 334.2H961V392.733H902.466V334.2Z"/>
</mask>
<path d="M961 392.733V393.343H961.609V392.733H961ZM961 334.2H960.39V392.733H961H961.609V334.2H961ZM961 392.733V392.124H902.466V392.733V393.343H961V392.733Z" fill="#05B1A1" fill-opacity="0.5" mask="url(#path-209-inside-104_20725_57334)"/>
<mask id="path-211-inside-105_20725_57334" fill="white">
<path d="M961 334.2H1019.53V392.733H961V334.2Z"/>
</mask>
<path d="M1019.53 392.733V393.343H1020.14V392.733H1019.53ZM1019.53 334.2H1018.92V392.733H1019.53H1020.14V334.2H1019.53ZM1019.53 392.733V392.124H961V392.733V393.343H1019.53V392.733Z" fill="#05B1A1" fill-opacity="0.5" mask="url(#path-211-inside-105_20725_57334)"/>
<mask id="path-213-inside-106_20725_57334" fill="white">
<path d="M1019.53 334.2H1078.07V392.733H1019.53V334.2Z"/>
</mask>
<path d="M1078.07 392.733V393.343H1078.68V392.733H1078.07ZM1078.07 334.2H1077.46V392.733H1078.07H1078.68V334.2H1078.07ZM1078.07 392.733V392.124H1019.53V392.733V393.343H1078.07V392.733Z" fill="#05B1A1" fill-opacity="0.5" mask="url(#path-213-inside-106_20725_57334)"/>
<mask id="path-215-inside-107_20725_57334" fill="white">
<path d="M1078.07 334.2H1136.6V392.733H1078.07V334.2Z"/>
</mask>
<path d="M1136.6 392.733V393.343H1137.21V392.733H1136.6ZM1136.6 334.2H1135.99V392.733H1136.6H1137.21V334.2H1136.6ZM1136.6 392.733V392.124H1078.07V392.733V393.343H1136.6V392.733Z" fill="#05B1A1" fill-opacity="0.5" mask="url(#path-215-inside-107_20725_57334)"/>
<mask id="path-217-inside-108_20725_57334" fill="white">
<path d="M1136.6 334.2H1195.13V392.733H1136.6V334.2Z"/>
</mask>
<path d="M1195.13 392.733V393.343H1195.74V392.733H1195.13ZM1195.13 334.2H1194.52V392.733H1195.13H1195.74V334.2H1195.13ZM1195.13 392.733V392.124H1136.6V392.733V393.343H1195.13V392.733Z" fill="#05B1A1" fill-opacity="0.5" mask="url(#path-217-inside-108_20725_57334)"/>
<mask id="path-219-inside-109_20725_57334" fill="white">
<path d="M1195.13 334.2H1253.67V392.733H1195.13V334.2Z"/>
</mask>
<path d="M1253.67 392.733V393.343H1254.28V392.733H1253.67ZM1253.67 334.2H1253.06V392.733H1253.67H1254.28V334.2H1253.67ZM1253.67 392.733V392.124H1195.13V392.733V393.343H1253.67V392.733Z" fill="#05B1A1" fill-opacity="0.5" mask="url(#path-219-inside-109_20725_57334)"/>
<mask id="path-221-inside-110_20725_57334" fill="white">
<path d="M1253.67 334.2H1312.2V392.733H1253.67V334.2Z"/>
</mask>
<path d="M1312.2 392.733V393.343H1312.81V392.733H1312.2ZM1312.2 334.2H1311.59V392.733H1312.2H1312.81V334.2H1312.2ZM1312.2 392.733V392.124H1253.67V392.733V393.343H1312.2V392.733Z" fill="#05B1A1" fill-opacity="0.5" mask="url(#path-221-inside-110_20725_57334)"/>
<mask id="path-223-inside-111_20725_57334" fill="white">
<path d="M1312.2 334.2H1370.73V392.733H1312.2V334.2Z"/>
</mask>
<path d="M1312.2 334.2H1370.73V392.733H1312.2V334.2Z" fill="#0C9E91" fill-opacity="0.8"/>
<path d="M1370.73 392.733V393.343H1371.34V392.733H1370.73ZM1370.73 334.2H1370.12V392.733H1370.73H1371.34V334.2H1370.73ZM1370.73 392.733V392.124H1312.2V392.733V393.343H1370.73V392.733Z" fill="#05B1A1" fill-opacity="0.5" mask="url(#path-223-inside-111_20725_57334)"/>
<mask id="path-225-inside-112_20725_57334" fill="white">
<path d="M1370.73 334.2H1429.27V392.733H1370.73V334.2Z"/>
</mask>
<path d="M1429.27 392.733V393.343H1429.88V392.733H1429.27ZM1429.27 334.2H1428.66V392.733H1429.27H1429.88V334.2H1429.27ZM1429.27 392.733V392.124H1370.73V392.733V393.343H1429.27V392.733Z" fill="#05B1A1" fill-opacity="0.5" mask="url(#path-225-inside-112_20725_57334)"/>
<mask id="path-227-inside-113_20725_57334" fill="white">
<path d="M492.733 392.733H551.266V451.267H492.733V392.733Z"/>
</mask>
<path d="M551.266 451.267V451.876H551.876V451.267H551.266ZM551.266 392.733H550.657V451.267H551.266H551.876V392.733H551.266ZM551.266 451.267V450.657H492.733V451.267V451.876H551.266V451.267Z" fill="#05B1A1" fill-opacity="0.5" mask="url(#path-227-inside-113_20725_57334)"/>
<mask id="path-229-inside-114_20725_57334" fill="white">
<path d="M551.267 392.733H609.8V451.267H551.267V392.733Z"/>
</mask>
<path d="M609.8 451.267V451.876H610.41V451.267H609.8ZM609.8 392.733H609.19V451.267H609.8H610.41V392.733H609.8ZM609.8 451.267V450.657H551.267V451.267V451.876H609.8V451.267Z" fill="#05B1A1" fill-opacity="0.5" mask="url(#path-229-inside-114_20725_57334)"/>
<mask id="path-231-inside-115_20725_57334" fill="white">
<path d="M609.8 392.733H668.333V451.267H609.8V392.733Z"/>
</mask>
<path d="M668.333 451.267V451.876H668.943V451.267H668.333ZM668.333 392.733H667.723V451.267H668.333H668.943V392.733H668.333ZM668.333 451.267V450.657H609.8V451.267V451.876H668.333V451.267Z" fill="#05B1A1" fill-opacity="0.5" mask="url(#path-231-inside-115_20725_57334)"/>
<mask id="path-233-inside-116_20725_57334" fill="white">
<path d="M668.333 392.733H726.866V451.267H668.333V392.733Z"/>
</mask>
<path d="M726.866 451.267V451.876H727.476V451.267H726.866ZM726.866 392.733H726.257V451.267H726.866H727.476V392.733H726.866ZM726.866 451.267V450.657H668.333V451.267V451.876H726.866V451.267Z" fill="#05B1A1" fill-opacity="0.5" mask="url(#path-233-inside-116_20725_57334)"/>
<mask id="path-235-inside-117_20725_57334" fill="white">
<path d="M726.866 392.733H785.4V451.267H726.866V392.733Z"/>
</mask>
<path d="M785.4 451.267V451.876H786.009V451.267H785.4ZM785.4 392.733H784.79V451.267H785.4H786.009V392.733H785.4ZM785.4 451.267V450.657H726.866V451.267V451.876H785.4V451.267Z" fill="#05B1A1" fill-opacity="0.5" mask="url(#path-235-inside-117_20725_57334)"/>
<mask id="path-237-inside-118_20725_57334" fill="white">
<path d="M785.4 392.733H843.933V451.267H785.4V392.733Z"/>
</mask>
<path d="M843.933 451.267V451.876H844.543V451.267H843.933ZM843.933 392.733H843.324V451.267H843.933H844.543V392.733H843.933ZM843.933 451.267V450.657H785.4V451.267V451.876H843.933V451.267Z" fill="#05B1A1" fill-opacity="0.5" mask="url(#path-237-inside-118_20725_57334)"/>
<mask id="path-239-inside-119_20725_57334" fill="white">
<path d="M843.933 392.733H902.466V451.267H843.933V392.733Z"/>
</mask>
<path d="M843.933 392.733H902.466V451.267H843.933V392.733Z" fill="#0C9E91" fill-opacity="0.8"/>
<path d="M902.466 451.267V451.876H903.076V451.267H902.466ZM902.466 392.733H901.857V451.267H902.466H903.076V392.733H902.466ZM902.466 451.267V450.657H843.933V451.267V451.876H902.466V451.267Z" fill="#05B1A1" fill-opacity="0.5" mask="url(#path-239-inside-119_20725_57334)"/>
<mask id="path-241-inside-120_20725_57334" fill="white">
<path d="M902.466 392.733H961V451.267H902.466V392.733Z"/>
</mask>
<path d="M961 451.267V451.876H961.609V451.267H961ZM961 392.733H960.39V451.267H961H961.609V392.733H961ZM961 451.267V450.657H902.466V451.267V451.876H961V451.267Z" fill="#05B1A1" fill-opacity="0.5" mask="url(#path-241-inside-120_20725_57334)"/>
<mask id="path-243-inside-121_20725_57334" fill="white">
<path d="M961 392.733H1019.53V451.267H961V392.733Z"/>
</mask>
<path d="M1019.53 451.267V451.876H1020.14V451.267H1019.53ZM1019.53 392.733H1018.92V451.267H1019.53H1020.14V392.733H1019.53ZM1019.53 451.267V450.657H961V451.267V451.876H1019.53V451.267Z" fill="#05B1A1" fill-opacity="0.5" mask="url(#path-243-inside-121_20725_57334)"/>
<mask id="path-245-inside-122_20725_57334" fill="white">
<path d="M1019.53 392.733H1078.07V451.267H1019.53V392.733Z"/>
</mask>
<path d="M1078.07 451.267V451.876H1078.68V451.267H1078.07ZM1078.07 392.733H1077.46V451.267H1078.07H1078.68V392.733H1078.07ZM1078.07 451.267V450.657H1019.53V451.267V451.876H1078.07V451.267Z" fill="#05B1A1" fill-opacity="0.5" mask="url(#path-245-inside-122_20725_57334)"/>
<mask id="path-247-inside-123_20725_57334" fill="white">
<path d="M1078.07 392.733H1136.6V451.267H1078.07V392.733Z"/>
</mask>
<path d="M1136.6 451.267V451.876H1137.21V451.267H1136.6ZM1136.6 392.733H1135.99V451.267H1136.6H1137.21V392.733H1136.6ZM1136.6 451.267V450.657H1078.07V451.267V451.876H1136.6V451.267Z" fill="#05B1A1" fill-opacity="0.5" mask="url(#path-247-inside-123_20725_57334)"/>
<mask id="path-249-inside-124_20725_57334" fill="white">
<path d="M1136.6 392.733H1195.13V451.267H1136.6V392.733Z"/>
</mask>
<path d="M1195.13 451.267V451.876H1195.74V451.267H1195.13ZM1195.13 392.733H1194.52V451.267H1195.13H1195.74V392.733H1195.13ZM1195.13 451.267V450.657H1136.6V451.267V451.876H1195.13V451.267Z" fill="#05B1A1" fill-opacity="0.5" mask="url(#path-249-inside-124_20725_57334)"/>
<mask id="path-251-inside-125_20725_57334" fill="white">
<path d="M1195.13 392.733H1253.67V451.267H1195.13V392.733Z"/>
</mask>
<path d="M1195.13 392.733H1253.67V451.267H1195.13V392.733Z" fill="#0C9E91" fill-opacity="0.8"/>
<path d="M1253.67 451.267V451.876H1254.28V451.267H1253.67ZM1253.67 392.733H1253.06V451.267H1253.67H1254.28V392.733H1253.67ZM1253.67 451.267V450.657H1195.13V451.267V451.876H1253.67V451.267Z" fill="#05B1A1" fill-opacity="0.5" mask="url(#path-251-inside-125_20725_57334)"/>
<mask id="path-253-inside-126_20725_57334" fill="white">
<path d="M1253.67 392.733H1312.2V451.267H1253.67V392.733Z"/>
</mask>
<path d="M1312.2 451.267V451.876H1312.81V451.267H1312.2ZM1312.2 392.733H1311.59V451.267H1312.2H1312.81V392.733H1312.2ZM1312.2 451.267V450.657H1253.67V451.267V451.876H1312.2V451.267Z" fill="#05B1A1" fill-opacity="0.5" mask="url(#path-253-inside-126_20725_57334)"/>
<mask id="path-255-inside-127_20725_57334" fill="white">
<path d="M1312.2 392.733H1370.73V451.267H1312.2V392.733Z"/>
</mask>
<path d="M1370.73 451.267V451.876H1371.34V451.267H1370.73ZM1370.73 392.733H1370.12V451.267H1370.73H1371.34V392.733H1370.73ZM1370.73 451.267V450.657H1312.2V451.267V451.876H1370.73V451.267Z" fill="#05B1A1" fill-opacity="0.5" mask="url(#path-255-inside-127_20725_57334)"/>
<mask id="path-257-inside-128_20725_57334" fill="white">
<path d="M1370.73 392.733H1429.27V451.267H1370.73V392.733Z"/>
</mask>
<path d="M1429.27 451.267V451.876H1429.88V451.267H1429.27ZM1429.27 392.733H1428.66V451.267H1429.27H1429.88V392.733H1429.27ZM1429.27 451.267V450.657H1370.73V451.267V451.876H1429.27V451.267Z" fill="#05B1A1" fill-opacity="0.5" mask="url(#path-257-inside-128_20725_57334)"/>
<mask id="path-259-inside-129_20725_57334" fill="white">
<path d="M492.733 451.267H551.266V509.8H492.733V451.267Z"/>
</mask>
<path d="M551.266 509.8V510.41H551.876V509.8H551.266ZM551.266 451.267H550.657V509.8H551.266H551.876V451.267H551.266ZM551.266 509.8V509.19H492.733V509.8V510.41H551.266V509.8Z" fill="#05B1A1" fill-opacity="0.5" mask="url(#path-259-inside-129_20725_57334)"/>
<mask id="path-261-inside-130_20725_57334" fill="white">
<path d="M551.267 451.267H609.8V509.8H551.267V451.267Z"/>
</mask>
<path d="M609.8 509.8V510.41H610.41V509.8H609.8ZM609.8 451.267H609.19V509.8H609.8H610.41V451.267H609.8ZM609.8 509.8V509.19H551.267V509.8V510.41H609.8V509.8Z" fill="#05B1A1" fill-opacity="0.5" mask="url(#path-261-inside-130_20725_57334)"/>
<mask id="path-263-inside-131_20725_57334" fill="white">
<path d="M609.8 451.267H668.333V509.8H609.8V451.267Z"/>
</mask>
<path d="M668.333 509.8V510.41H668.943V509.8H668.333ZM668.333 451.267H667.723V509.8H668.333H668.943V451.267H668.333ZM668.333 509.8V509.19H609.8V509.8V510.41H668.333V509.8Z" fill="#05B1A1" fill-opacity="0.5" mask="url(#path-263-inside-131_20725_57334)"/>
<mask id="path-265-inside-132_20725_57334" fill="white">
<path d="M668.333 451.267H726.866V509.8H668.333V451.267Z"/>
</mask>
<path d="M668.333 451.267H726.866V509.8H668.333V451.267Z" fill="#0C9E91" fill-opacity="0.8"/>
<path d="M726.866 509.8V510.41H727.476V509.8H726.866ZM726.866 451.267H726.257V509.8H726.866H727.476V451.267H726.866ZM726.866 509.8V509.19H668.333V509.8V510.41H726.866V509.8Z" fill="#05B1A1" fill-opacity="0.5" mask="url(#path-265-inside-132_20725_57334)"/>
<mask id="path-267-inside-133_20725_57334" fill="white">
<path d="M726.866 451.267H785.4V509.8H726.866V451.267Z"/>
</mask>
<path d="M785.4 509.8V510.41H786.009V509.8H785.4ZM785.4 451.267H784.79V509.8H785.4H786.009V451.267H785.4ZM785.4 509.8V509.19H726.866V509.8V510.41H785.4V509.8Z" fill="#05B1A1" fill-opacity="0.5" mask="url(#path-267-inside-133_20725_57334)"/>
<mask id="path-269-inside-134_20725_57334" fill="white">
<path d="M785.4 451.267H843.933V509.8H785.4V451.267Z"/>
</mask>
<path d="M843.933 509.8V510.41H844.543V509.8H843.933ZM843.933 451.267H843.324V509.8H843.933H844.543V451.267H843.933ZM843.933 509.8V509.19H785.4V509.8V510.41H843.933V509.8Z" fill="#05B1A1" fill-opacity="0.5" mask="url(#path-269-inside-134_20725_57334)"/>
<mask id="path-271-inside-135_20725_57334" fill="white">
<path d="M843.933 451.267H902.466V509.8H843.933V451.267Z"/>
</mask>
<path d="M902.466 509.8V510.41H903.076V509.8H902.466ZM902.466 451.267H901.857V509.8H902.466H903.076V451.267H902.466ZM902.466 509.8V509.19H843.933V509.8V510.41H902.466V509.8Z" fill="#05B1A1" fill-opacity="0.5" mask="url(#path-271-inside-135_20725_57334)"/>
<mask id="path-273-inside-136_20725_57334" fill="white">
<path d="M902.466 451.267H961V509.8H902.466V451.267Z"/>
</mask>
<path d="M961 509.8V510.41H961.609V509.8H961ZM961 451.267H960.39V509.8H961H961.609V451.267H961ZM961 509.8V509.19H902.466V509.8V510.41H961V509.8Z" fill="#05B1A1" fill-opacity="0.5" mask="url(#path-273-inside-136_20725_57334)"/>
<mask id="path-275-inside-137_20725_57334" fill="white">
<path d="M961 451.267H1019.53V509.8H961V451.267Z"/>
</mask>
<path d="M1019.53 509.8V510.41H1020.14V509.8H1019.53ZM1019.53 451.267H1018.92V509.8H1019.53H1020.14V451.267H1019.53ZM1019.53 509.8V509.19H961V509.8V510.41H1019.53V509.8Z" fill="#05B1A1" fill-opacity="0.5" mask="url(#path-275-inside-137_20725_57334)"/>
<mask id="path-277-inside-138_20725_57334" fill="white">
<path d="M1019.53 451.267H1078.07V509.8H1019.53V451.267Z"/>
</mask>
<path d="M1019.53 451.267H1078.07V509.8H1019.53V451.267Z" fill="#0C9E91" fill-opacity="0.8"/>
<path d="M1078.07 509.8V510.41H1078.68V509.8H1078.07ZM1078.07 451.267H1077.46V509.8H1078.07H1078.68V451.267H1078.07ZM1078.07 509.8V509.19H1019.53V509.8V510.41H1078.07V509.8Z" fill="#05B1A1" fill-opacity="0.5" mask="url(#path-277-inside-138_20725_57334)"/>
<mask id="path-279-inside-139_20725_57334" fill="white">
<path d="M1078.07 451.267H1136.6V509.8H1078.07V451.267Z"/>
</mask>
<path d="M1136.6 509.8V510.41H1137.21V509.8H1136.6ZM1136.6 451.267H1135.99V509.8H1136.6H1137.21V451.267H1136.6ZM1136.6 509.8V509.19H1078.07V509.8V510.41H1136.6V509.8Z" fill="#05B1A1" fill-opacity="0.5" mask="url(#path-279-inside-139_20725_57334)"/>
<mask id="path-281-inside-140_20725_57334" fill="white">
<path d="M1136.6 451.267H1195.13V509.8H1136.6V451.267Z"/>
</mask>
<path d="M1195.13 509.8V510.41H1195.74V509.8H1195.13ZM1195.13 451.267H1194.52V509.8H1195.13H1195.74V451.267H1195.13ZM1195.13 509.8V509.19H1136.6V509.8V510.41H1195.13V509.8Z" fill="#05B1A1" fill-opacity="0.5" mask="url(#path-281-inside-140_20725_57334)"/>
<mask id="path-283-inside-141_20725_57334" fill="white">
<path d="M1195.13 451.267H1253.67V509.8H1195.13V451.267Z"/>
</mask>
<path d="M1253.67 509.8V510.41H1254.28V509.8H1253.67ZM1253.67 451.267H1253.06V509.8H1253.67H1254.28V451.267H1253.67ZM1253.67 509.8V509.19H1195.13V509.8V510.41H1253.67V509.8Z" fill="#05B1A1" fill-opacity="0.5" mask="url(#path-283-inside-141_20725_57334)"/>
<mask id="path-285-inside-142_20725_57334" fill="white">
<path d="M1253.67 451.267H1312.2V509.8H1253.67V451.267Z"/>
</mask>
<path d="M1312.2 509.8V510.41H1312.81V509.8H1312.2ZM1312.2 451.267H1311.59V509.8H1312.2H1312.81V451.267H1312.2ZM1312.2 509.8V509.19H1253.67V509.8V510.41H1312.2V509.8Z" fill="#05B1A1" fill-opacity="0.5" mask="url(#path-285-inside-142_20725_57334)"/>
<mask id="path-287-inside-143_20725_57334" fill="white">
<path d="M1312.2 451.267H1370.73V509.8H1312.2V451.267Z"/>
</mask>
<path d="M1370.73 509.8V510.41H1371.34V509.8H1370.73ZM1370.73 451.267H1370.12V509.8H1370.73H1371.34V451.267H1370.73ZM1370.73 509.8V509.19H1312.2V509.8V510.41H1370.73V509.8Z" fill="#05B1A1" fill-opacity="0.5" mask="url(#path-287-inside-143_20725_57334)"/>
<mask id="path-289-inside-144_20725_57334" fill="white">
<path d="M1370.73 451.267H1429.27V509.8H1370.73V451.267Z"/>
</mask>
<path d="M1429.27 509.8V510.41H1429.88V509.8H1429.27ZM1429.27 451.267H1428.66V509.8H1429.27H1429.88V451.267H1429.27ZM1429.27 509.8V509.19H1370.73V509.8V510.41H1429.27V509.8Z" fill="#05B1A1" fill-opacity="0.5" mask="url(#path-289-inside-144_20725_57334)"/>
<mask id="path-291-inside-145_20725_57334" fill="white">
<path d="M492.733 509.8H551.266V568.333H492.733V509.8Z"/>
</mask>
<path d="M551.266 568.333V568.943H551.876V568.333H551.266ZM551.266 509.8H550.657V568.333H551.266H551.876V509.8H551.266ZM551.266 568.333V567.724H492.733V568.333V568.943H551.266V568.333Z" fill="#05B1A1" fill-opacity="0.5" mask="url(#path-291-inside-145_20725_57334)"/>
<mask id="path-293-inside-146_20725_57334" fill="white">
<path d="M551.267 509.8H609.8V568.333H551.267V509.8Z"/>
</mask>
<path d="M609.8 568.333V568.943H610.41V568.333H609.8ZM609.8 509.8H609.19V568.333H609.8H610.41V509.8H609.8ZM609.8 568.333V567.724H551.267V568.333V568.943H609.8V568.333Z" fill="#05B1A1" fill-opacity="0.5" mask="url(#path-293-inside-146_20725_57334)"/>
<mask id="path-295-inside-147_20725_57334" fill="white">
<path d="M609.8 509.8H668.333V568.333H609.8V509.8Z"/>
</mask>
<path d="M668.333 568.333V568.943H668.943V568.333H668.333ZM668.333 509.8H667.723V568.333H668.333H668.943V509.8H668.333ZM668.333 568.333V567.724H609.8V568.333V568.943H668.333V568.333Z" fill="#05B1A1" fill-opacity="0.5" mask="url(#path-295-inside-147_20725_57334)"/>
<mask id="path-297-inside-148_20725_57334" fill="white">
<path d="M668.333 509.8H726.866V568.333H668.333V509.8Z"/>
</mask>
<path d="M726.866 568.333V568.943H727.476V568.333H726.866ZM726.866 509.8H726.257V568.333H726.866H727.476V509.8H726.866ZM726.866 568.333V567.724H668.333V568.333V568.943H726.866V568.333Z" fill="#05B1A1" fill-opacity="0.5" mask="url(#path-297-inside-148_20725_57334)"/>
<mask id="path-299-inside-149_20725_57334" fill="white">
<path d="M726.866 509.8H785.4V568.333H726.866V509.8Z"/>
</mask>
<path d="M785.4 568.333V568.943H786.009V568.333H785.4ZM785.4 509.8H784.79V568.333H785.4H786.009V509.8H785.4ZM785.4 568.333V567.724H726.866V568.333V568.943H785.4V568.333Z" fill="#05B1A1" fill-opacity="0.5" mask="url(#path-299-inside-149_20725_57334)"/>
<mask id="path-301-inside-150_20725_57334" fill="white">
<path d="M785.4 509.8H843.933V568.333H785.4V509.8Z"/>
</mask>
<path d="M843.933 568.333V568.943H844.543V568.333H843.933ZM843.933 509.8H843.324V568.333H843.933H844.543V509.8H843.933ZM843.933 568.333V567.724H785.4V568.333V568.943H843.933V568.333Z" fill="#05B1A1" fill-opacity="0.5" mask="url(#path-301-inside-150_20725_57334)"/>
<mask id="path-303-inside-151_20725_57334" fill="white">
<path d="M843.933 509.8H902.466V568.333H843.933V509.8Z"/>
</mask>
<path d="M902.466 568.333V568.943H903.076V568.333H902.466ZM902.466 509.8H901.857V568.333H902.466H903.076V509.8H902.466ZM902.466 568.333V567.724H843.933V568.333V568.943H902.466V568.333Z" fill="#05B1A1" fill-opacity="0.5" mask="url(#path-303-inside-151_20725_57334)"/>
<mask id="path-305-inside-152_20725_57334" fill="white">
<path d="M902.466 509.8H961V568.333H902.466V509.8Z"/>
</mask>
<path d="M961 568.333V568.943H961.609V568.333H961ZM961 509.8H960.39V568.333H961H961.609V509.8H961ZM961 568.333V567.724H902.466V568.333V568.943H961V568.333Z" fill="#05B1A1" fill-opacity="0.5" mask="url(#path-305-inside-152_20725_57334)"/>
<mask id="path-307-inside-153_20725_57334" fill="white">
<path d="M961 509.8H1019.53V568.333H961V509.8Z"/>
</mask>
<path d="M1019.53 568.333V568.943H1020.14V568.333H1019.53ZM1019.53 509.8H1018.92V568.333H1019.53H1020.14V509.8H1019.53ZM1019.53 568.333V567.724H961V568.333V568.943H1019.53V568.333Z" fill="#05B1A1" fill-opacity="0.5" mask="url(#path-307-inside-153_20725_57334)"/>
<mask id="path-309-inside-154_20725_57334" fill="white">
<path d="M1019.53 509.8H1078.07V568.333H1019.53V509.8Z"/>
</mask>
<path d="M1078.07 568.333V568.943H1078.68V568.333H1078.07ZM1078.07 509.8H1077.46V568.333H1078.07H1078.68V509.8H1078.07ZM1078.07 568.333V567.724H1019.53V568.333V568.943H1078.07V568.333Z" fill="#05B1A1" fill-opacity="0.5" mask="url(#path-309-inside-154_20725_57334)"/>
<mask id="path-311-inside-155_20725_57334" fill="white">
<path d="M1078.07 509.8H1136.6V568.333H1078.07V509.8Z"/>
</mask>
<path d="M1136.6 568.333V568.943H1137.21V568.333H1136.6ZM1136.6 509.8H1135.99V568.333H1136.6H1137.21V509.8H1136.6ZM1136.6 568.333V567.724H1078.07V568.333V568.943H1136.6V568.333Z" fill="#05B1A1" fill-opacity="0.5" mask="url(#path-311-inside-155_20725_57334)"/>
<mask id="path-313-inside-156_20725_57334" fill="white">
<path d="M1136.6 509.8H1195.13V568.333H1136.6V509.8Z"/>
</mask>
<path d="M1195.13 568.333V568.943H1195.74V568.333H1195.13ZM1195.13 509.8H1194.52V568.333H1195.13H1195.74V509.8H1195.13ZM1195.13 568.333V567.724H1136.6V568.333V568.943H1195.13V568.333Z" fill="#05B1A1" fill-opacity="0.5" mask="url(#path-313-inside-156_20725_57334)"/>
<mask id="path-315-inside-157_20725_57334" fill="white">
<path d="M1195.13 509.8H1253.67V568.333H1195.13V509.8Z"/>
</mask>
<path d="M1253.67 568.333V568.943H1254.28V568.333H1253.67ZM1253.67 509.8H1253.06V568.333H1253.67H1254.28V509.8H1253.67ZM1253.67 568.333V567.724H1195.13V568.333V568.943H1253.67V568.333Z" fill="#05B1A1" fill-opacity="0.5" mask="url(#path-315-inside-157_20725_57334)"/>
<mask id="path-317-inside-158_20725_57334" fill="white">
<path d="M1253.67 509.8H1312.2V568.333H1253.67V509.8Z"/>
</mask>
<path d="M1312.2 568.333V568.943H1312.81V568.333H1312.2ZM1312.2 509.8H1311.59V568.333H1312.2H1312.81V509.8H1312.2ZM1312.2 568.333V567.724H1253.67V568.333V568.943H1312.2V568.333Z" fill="#05B1A1" fill-opacity="0.5" mask="url(#path-317-inside-158_20725_57334)"/>
<mask id="path-319-inside-159_20725_57334" fill="white">
<path d="M1312.2 509.8H1370.73V568.333H1312.2V509.8Z"/>
</mask>
<path d="M1370.73 568.333V568.943H1371.34V568.333H1370.73ZM1370.73 509.8H1370.12V568.333H1370.73H1371.34V509.8H1370.73ZM1370.73 568.333V567.724H1312.2V568.333V568.943H1370.73V568.333Z" fill="#05B1A1" fill-opacity="0.5" mask="url(#path-319-inside-159_20725_57334)"/>
<mask id="path-321-inside-160_20725_57334" fill="white">
<path d="M1370.73 509.8H1429.27V568.333H1370.73V509.8Z"/>
</mask>
<path d="M1370.73 509.8H1429.27V568.333H1370.73V509.8Z" fill="#0C9E91" fill-opacity="0.8"/>
<path d="M1429.27 568.333V568.943H1429.88V568.333H1429.27ZM1429.27 509.8H1428.66V568.333H1429.27H1429.88V509.8H1429.27ZM1429.27 568.333V567.724H1370.73V568.333V568.943H1429.27V568.333Z" fill="#05B1A1" fill-opacity="0.5" mask="url(#path-321-inside-160_20725_57334)"/>
<mask id="path-323-inside-161_20725_57334" fill="white">
<path d="M492.733 568.333H551.266V626.867H492.733V568.333Z"/>
</mask>
<path d="M551.266 626.867V627.476H551.876V626.867H551.266ZM551.266 568.333H550.657V626.867H551.266H551.876V568.333H551.266ZM551.266 626.867V626.257H492.733V626.867V627.476H551.266V626.867Z" fill="#05B1A1" fill-opacity="0.5" mask="url(#path-323-inside-161_20725_57334)"/>
<mask id="path-325-inside-162_20725_57334" fill="white">
<path d="M551.267 568.333H609.8V626.867H551.267V568.333Z"/>
</mask>
<path d="M609.8 626.867V627.476H610.41V626.867H609.8ZM609.8 568.333H609.19V626.867H609.8H610.41V568.333H609.8ZM609.8 626.867V626.257H551.267V626.867V627.476H609.8V626.867Z" fill="#05B1A1" fill-opacity="0.5" mask="url(#path-325-inside-162_20725_57334)"/>
<mask id="path-327-inside-163_20725_57334" fill="white">
<path d="M609.8 568.333H668.333V626.867H609.8V568.333Z"/>
</mask>
<path d="M668.333 626.867V627.476H668.943V626.867H668.333ZM668.333 568.333H667.723V626.867H668.333H668.943V568.333H668.333ZM668.333 626.867V626.257H609.8V626.867V627.476H668.333V626.867Z" fill="#05B1A1" fill-opacity="0.5" mask="url(#path-327-inside-163_20725_57334)"/>
<mask id="path-329-inside-164_20725_57334" fill="white">
<path d="M668.333 568.333H726.866V626.867H668.333V568.333Z"/>
</mask>
<path d="M726.866 626.867V627.476H727.476V626.867H726.866ZM726.866 568.333H726.257V626.867H726.866H727.476V568.333H726.866ZM726.866 626.867V626.257H668.333V626.867V627.476H726.866V626.867Z" fill="#05B1A1" fill-opacity="0.5" mask="url(#path-329-inside-164_20725_57334)"/>
<mask id="path-331-inside-165_20725_57334" fill="white">
<path d="M726.866 568.333H785.4V626.867H726.866V568.333Z"/>
</mask>
<path d="M726.866 568.333H785.4V626.867H726.866V568.333Z" fill="#0C9E91" fill-opacity="0.8"/>
<path d="M785.4 626.867V627.476H786.009V626.867H785.4ZM785.4 568.333H784.79V626.867H785.4H786.009V568.333H785.4ZM785.4 626.867V626.257H726.866V626.867V627.476H785.4V626.867Z" fill="#05B1A1" fill-opacity="0.5" mask="url(#path-331-inside-165_20725_57334)"/>
<mask id="path-333-inside-166_20725_57334" fill="white">
<path d="M785.4 568.333H843.933V626.867H785.4V568.333Z"/>
</mask>
<path d="M843.933 626.867V627.476H844.543V626.867H843.933ZM843.933 568.333H843.324V626.867H843.933H844.543V568.333H843.933ZM843.933 626.867V626.257H785.4V626.867V627.476H843.933V626.867Z" fill="#05B1A1" fill-opacity="0.5" mask="url(#path-333-inside-166_20725_57334)"/>
<mask id="path-335-inside-167_20725_57334" fill="white">
<path d="M843.933 568.333H902.466V626.867H843.933V568.333Z"/>
</mask>
<path d="M902.466 626.867V627.476H903.076V626.867H902.466ZM902.466 568.333H901.857V626.867H902.466H903.076V568.333H902.466ZM902.466 626.867V626.257H843.933V626.867V627.476H902.466V626.867Z" fill="#05B1A1" fill-opacity="0.5" mask="url(#path-335-inside-167_20725_57334)"/>
<mask id="path-337-inside-168_20725_57334" fill="white">
<path d="M902.466 568.333H961V626.867H902.466V568.333Z"/>
</mask>
<path d="M961 626.867V627.476H961.609V626.867H961ZM961 568.333H960.39V626.867H961H961.609V568.333H961ZM961 626.867V626.257H902.466V626.867V627.476H961V626.867Z" fill="#05B1A1" fill-opacity="0.5" mask="url(#path-337-inside-168_20725_57334)"/>
<mask id="path-339-inside-169_20725_57334" fill="white">
<path d="M961 568.333H1019.53V626.867H961V568.333Z"/>
</mask>
<path d="M961 568.333H1019.53V626.867H961V568.333Z" fill="#0C9E91" fill-opacity="0.8"/>
<path d="M1019.53 626.867V627.476H1020.14V626.867H1019.53ZM1019.53 568.333H1018.92V626.867H1019.53H1020.14V568.333H1019.53ZM1019.53 626.867V626.257H961V626.867V627.476H1019.53V626.867Z" fill="#05B1A1" fill-opacity="0.5" mask="url(#path-339-inside-169_20725_57334)"/>
<mask id="path-341-inside-170_20725_57334" fill="white">
<path d="M1019.53 568.333H1078.07V626.867H1019.53V568.333Z"/>
</mask>
<path d="M1078.07 626.867V627.476H1078.68V626.867H1078.07ZM1078.07 568.333H1077.46V626.867H1078.07H1078.68V568.333H1078.07ZM1078.07 626.867V626.257H1019.53V626.867V627.476H1078.07V626.867Z" fill="#05B1A1" fill-opacity="0.5" mask="url(#path-341-inside-170_20725_57334)"/>
<mask id="path-343-inside-171_20725_57334" fill="white">
<path d="M1078.07 568.333H1136.6V626.867H1078.07V568.333Z"/>
</mask>
<path d="M1136.6 626.867V627.476H1137.21V626.867H1136.6ZM1136.6 568.333H1135.99V626.867H1136.6H1137.21V568.333H1136.6ZM1136.6 626.867V626.257H1078.07V626.867V627.476H1136.6V626.867Z" fill="#05B1A1" fill-opacity="0.5" mask="url(#path-343-inside-171_20725_57334)"/>
<mask id="path-345-inside-172_20725_57334" fill="white">
<path d="M1136.6 568.333H1195.13V626.867H1136.6V568.333Z"/>
</mask>
<path d="M1195.13 626.867V627.476H1195.74V626.867H1195.13ZM1195.13 568.333H1194.52V626.867H1195.13H1195.74V568.333H1195.13ZM1195.13 626.867V626.257H1136.6V626.867V627.476H1195.13V626.867Z" fill="#05B1A1" fill-opacity="0.5" mask="url(#path-345-inside-172_20725_57334)"/>
<mask id="path-347-inside-173_20725_57334" fill="white">
<path d="M1195.13 568.333H1253.67V626.867H1195.13V568.333Z"/>
</mask>
<path d="M1253.67 626.867V627.476H1254.28V626.867H1253.67ZM1253.67 568.333H1253.06V626.867H1253.67H1254.28V568.333H1253.67ZM1253.67 626.867V626.257H1195.13V626.867V627.476H1253.67V626.867Z" fill="#05B1A1" fill-opacity="0.5" mask="url(#path-347-inside-173_20725_57334)"/>
<mask id="path-349-inside-174_20725_57334" fill="white">
<path d="M1253.67 568.333H1312.2V626.867H1253.67V568.333Z"/>
</mask>
<path d="M1312.2 626.867V627.476H1312.81V626.867H1312.2ZM1312.2 568.333H1311.59V626.867H1312.2H1312.81V568.333H1312.2ZM1312.2 626.867V626.257H1253.67V626.867V627.476H1312.2V626.867Z" fill="#05B1A1" fill-opacity="0.5" mask="url(#path-349-inside-174_20725_57334)"/>
<mask id="path-351-inside-175_20725_57334" fill="white">
<path d="M1312.2 568.333H1370.73V626.867H1312.2V568.333Z"/>
</mask>
<path d="M1370.73 626.867V627.476H1371.34V626.867H1370.73ZM1370.73 568.333H1370.12V626.867H1370.73H1371.34V568.333H1370.73ZM1370.73 626.867V626.257H1312.2V626.867V627.476H1370.73V626.867Z" fill="#05B1A1" fill-opacity="0.5" mask="url(#path-351-inside-175_20725_57334)"/>
<mask id="path-353-inside-176_20725_57334" fill="white">
<path d="M1370.73 568.333H1429.27V626.867H1370.73V568.333Z"/>
</mask>
<path d="M1429.27 626.867V627.476H1429.88V626.867H1429.27ZM1429.27 568.333H1428.66V626.867H1429.27H1429.88V568.333H1429.27ZM1429.27 626.867V626.257H1370.73V626.867V627.476H1429.27V626.867Z" fill="#05B1A1" fill-opacity="0.5" mask="url(#path-353-inside-176_20725_57334)"/>
<mask id="path-355-inside-177_20725_57334" fill="white">
<path d="M492.733 626.867H551.266V685.4H492.733V626.867Z"/>
</mask>
<path d="M492.733 626.867H551.266V685.4H492.733V626.867Z" fill="#0C9E91" fill-opacity="0.8"/>
<path d="M551.266 685.4V686.01H551.876V685.4H551.266ZM551.266 626.867H550.657V685.4H551.266H551.876V626.867H551.266ZM551.266 685.4V684.79H492.733V685.4V686.01H551.266V685.4Z" fill="#05B1A1" fill-opacity="0.5" mask="url(#path-355-inside-177_20725_57334)"/>
<mask id="path-357-inside-178_20725_57334" fill="white">
<path d="M551.267 626.867H609.8V685.4H551.267V626.867Z"/>
</mask>
<path d="M609.8 685.4V686.01H610.41V685.4H609.8ZM609.8 626.867H609.19V685.4H609.8H610.41V626.867H609.8ZM609.8 685.4V684.79H551.267V685.4V686.01H609.8V685.4Z" fill="#05B1A1" fill-opacity="0.5" mask="url(#path-357-inside-178_20725_57334)"/>
<mask id="path-359-inside-179_20725_57334" fill="white">
<path d="M609.8 626.867H668.333V685.4H609.8V626.867Z"/>
</mask>
<path d="M668.333 685.4V686.01H668.943V685.4H668.333ZM668.333 626.867H667.723V685.4H668.333H668.943V626.867H668.333ZM668.333 685.4V684.79H609.8V685.4V686.01H668.333V685.4Z" fill="#05B1A1" fill-opacity="0.5" mask="url(#path-359-inside-179_20725_57334)"/>
<mask id="path-361-inside-180_20725_57334" fill="white">
<path d="M668.333 626.867H726.866V685.4H668.333V626.867Z"/>
</mask>
<path d="M726.866 685.4V686.01H727.476V685.4H726.866ZM726.866 626.867H726.257V685.4H726.866H727.476V626.867H726.866ZM726.866 685.4V684.79H668.333V685.4V686.01H726.866V685.4Z" fill="#05B1A1" fill-opacity="0.5" mask="url(#path-361-inside-180_20725_57334)"/>
<mask id="path-363-inside-181_20725_57334" fill="white">
<path d="M726.866 626.867H785.4V685.4H726.866V626.867Z"/>
</mask>
<path d="M785.4 685.4V686.01H786.009V685.4H785.4ZM785.4 626.867H784.79V685.4H785.4H786.009V626.867H785.4ZM785.4 685.4V684.79H726.866V685.4V686.01H785.4V685.4Z" fill="#05B1A1" fill-opacity="0.5" mask="url(#path-363-inside-181_20725_57334)"/>
<mask id="path-365-inside-182_20725_57334" fill="white">
<path d="M785.4 626.867H843.933V685.4H785.4V626.867Z"/>
</mask>
<path d="M843.933 685.4V686.01H844.543V685.4H843.933ZM843.933 626.867H843.324V685.4H843.933H844.543V626.867H843.933ZM843.933 685.4V684.79H785.4V685.4V686.01H843.933V685.4Z" fill="#05B1A1" fill-opacity="0.5" mask="url(#path-365-inside-182_20725_57334)"/>
<mask id="path-367-inside-183_20725_57334" fill="white">
<path d="M843.933 626.867H902.466V685.4H843.933V626.867Z"/>
</mask>
<path d="M902.466 685.4V686.01H903.076V685.4H902.466ZM902.466 626.867H901.857V685.4H902.466H903.076V626.867H902.466ZM902.466 685.4V684.79H843.933V685.4V686.01H902.466V685.4Z" fill="#05B1A1" fill-opacity="0.5" mask="url(#path-367-inside-183_20725_57334)"/>
<mask id="path-369-inside-184_20725_57334" fill="white">
<path d="M902.466 626.867H961V685.4H902.466V626.867Z"/>
</mask>
<path d="M961 685.4V686.01H961.609V685.4H961ZM961 626.867H960.39V685.4H961H961.609V626.867H961ZM961 685.4V684.79H902.466V685.4V686.01H961V685.4Z" fill="#05B1A1" fill-opacity="0.5" mask="url(#path-369-inside-184_20725_57334)"/>
<mask id="path-371-inside-185_20725_57334" fill="white">
<path d="M961 626.867H1019.53V685.4H961V626.867Z"/>
</mask>
<path d="M1019.53 685.4V686.01H1020.14V685.4H1019.53ZM1019.53 626.867H1018.92V685.4H1019.53H1020.14V626.867H1019.53ZM1019.53 685.4V684.79H961V685.4V686.01H1019.53V685.4Z" fill="#05B1A1" fill-opacity="0.5" mask="url(#path-371-inside-185_20725_57334)"/>
<mask id="path-373-inside-186_20725_57334" fill="white">
<path d="M1019.53 626.867H1078.07V685.4H1019.53V626.867Z"/>
</mask>
<path d="M1078.07 685.4V686.01H1078.68V685.4H1078.07ZM1078.07 626.867H1077.46V685.4H1078.07H1078.68V626.867H1078.07ZM1078.07 685.4V684.79H1019.53V685.4V686.01H1078.07V685.4Z" fill="#05B1A1" fill-opacity="0.5" mask="url(#path-373-inside-186_20725_57334)"/>
<mask id="path-375-inside-187_20725_57334" fill="white">
<path d="M1078.07 626.867H1136.6V685.4H1078.07V626.867Z"/>
</mask>
<path d="M1136.6 685.4V686.01H1137.21V685.4H1136.6ZM1136.6 626.867H1135.99V685.4H1136.6H1137.21V626.867H1136.6ZM1136.6 685.4V684.79H1078.07V685.4V686.01H1136.6V685.4Z" fill="#05B1A1" fill-opacity="0.5" mask="url(#path-375-inside-187_20725_57334)"/>
<mask id="path-377-inside-188_20725_57334" fill="white">
<path d="M1136.6 626.867H1195.13V685.4H1136.6V626.867Z"/>
</mask>
<path d="M1195.13 685.4V686.01H1195.74V685.4H1195.13ZM1195.13 626.867H1194.52V685.4H1195.13H1195.74V626.867H1195.13ZM1195.13 685.4V684.79H1136.6V685.4V686.01H1195.13V685.4Z" fill="#05B1A1" fill-opacity="0.5" mask="url(#path-377-inside-188_20725_57334)"/>
<mask id="path-379-inside-189_20725_57334" fill="white">
<path d="M1195.13 626.867H1253.67V685.4H1195.13V626.867Z"/>
</mask>
<path d="M1195.13 626.867H1253.67V685.4H1195.13V626.867Z" fill="#0C9E91" fill-opacity="0.8"/>
<path d="M1253.67 685.4V686.01H1254.28V685.4H1253.67ZM1253.67 626.867H1253.06V685.4H1253.67H1254.28V626.867H1253.67ZM1253.67 685.4V684.79H1195.13V685.4V686.01H1253.67V685.4Z" fill="#05B1A1" fill-opacity="0.5" mask="url(#path-379-inside-189_20725_57334)"/>
<mask id="path-381-inside-190_20725_57334" fill="white">
<path d="M1253.67 626.867H1312.2V685.4H1253.67V626.867Z"/>
</mask>
<path d="M1312.2 685.4V686.01H1312.81V685.4H1312.2ZM1312.2 626.867H1311.59V685.4H1312.2H1312.81V626.867H1312.2ZM1312.2 685.4V684.79H1253.67V685.4V686.01H1312.2V685.4Z" fill="#05B1A1" fill-opacity="0.5" mask="url(#path-381-inside-190_20725_57334)"/>
<mask id="path-383-inside-191_20725_57334" fill="white">
<path d="M1312.2 626.867H1370.73V685.4H1312.2V626.867Z"/>
</mask>
<path d="M1370.73 685.4V686.01H1371.34V685.4H1370.73ZM1370.73 626.867H1370.12V685.4H1370.73H1371.34V626.867H1370.73ZM1370.73 685.4V684.79H1312.2V685.4V686.01H1370.73V685.4Z" fill="#05B1A1" fill-opacity="0.5" mask="url(#path-383-inside-191_20725_57334)"/>
<mask id="path-385-inside-192_20725_57334" fill="white">
<path d="M1370.73 626.867H1429.27V685.4H1370.73V626.867Z"/>
</mask>
<path d="M1429.27 685.4V686.01H1429.88V685.4H1429.27ZM1429.27 626.867H1428.66V685.4H1429.27H1429.88V626.867H1429.27ZM1429.27 685.4V684.79H1370.73V685.4V686.01H1429.27V685.4Z" fill="#05B1A1" fill-opacity="0.5" mask="url(#path-385-inside-192_20725_57334)"/>
<mask id="path-387-inside-193_20725_57334" fill="white">
<path d="M492.733 685.4H551.266V743.933H492.733V685.4Z"/>
</mask>
<path d="M551.266 743.933V744.543H551.876V743.933H551.266ZM551.266 685.4H550.657V743.933H551.266H551.876V685.4H551.266ZM551.266 743.933V743.324H492.733V743.933V744.543H551.266V743.933Z" fill="#05B1A1" fill-opacity="0.5" mask="url(#path-387-inside-193_20725_57334)"/>
<mask id="path-389-inside-194_20725_57334" fill="white">
<path d="M551.267 685.4H609.8V743.933H551.267V685.4Z"/>
</mask>
<path d="M609.8 743.933V744.543H610.41V743.933H609.8ZM609.8 685.4H609.19V743.933H609.8H610.41V685.4H609.8ZM609.8 743.933V743.324H551.267V743.933V744.543H609.8V743.933Z" fill="#05B1A1" fill-opacity="0.5" mask="url(#path-389-inside-194_20725_57334)"/>
<mask id="path-391-inside-195_20725_57334" fill="white">
<path d="M609.8 685.4H668.333V743.933H609.8V685.4Z"/>
</mask>
<path d="M668.333 743.933V744.543H668.943V743.933H668.333ZM668.333 685.4H667.723V743.933H668.333H668.943V685.4H668.333ZM668.333 743.933V743.324H609.8V743.933V744.543H668.333V743.933Z" fill="#05B1A1" fill-opacity="0.5" mask="url(#path-391-inside-195_20725_57334)"/>
<mask id="path-393-inside-196_20725_57334" fill="white">
<path d="M668.333 685.4H726.866V743.933H668.333V685.4Z"/>
</mask>
<path d="M726.866 743.933V744.543H727.476V743.933H726.866ZM726.866 685.4H726.257V743.933H726.866H727.476V685.4H726.866ZM726.866 743.933V743.324H668.333V743.933V744.543H726.866V743.933Z" fill="#05B1A1" fill-opacity="0.5" mask="url(#path-393-inside-196_20725_57334)"/>
<mask id="path-395-inside-197_20725_57334" fill="white">
<path d="M726.866 685.4H785.4V743.933H726.866V685.4Z"/>
</mask>
<path d="M785.4 743.933V744.543H786.009V743.933H785.4ZM785.4 685.4H784.79V743.933H785.4H786.009V685.4H785.4ZM785.4 743.933V743.324H726.866V743.933V744.543H785.4V743.933Z" fill="#05B1A1" fill-opacity="0.5" mask="url(#path-395-inside-197_20725_57334)"/>
<mask id="path-397-inside-198_20725_57334" fill="white">
<path d="M785.4 685.4H843.933V743.933H785.4V685.4Z"/>
</mask>
<path d="M843.933 743.933V744.543H844.543V743.933H843.933ZM843.933 685.4H843.324V743.933H843.933H844.543V685.4H843.933ZM843.933 743.933V743.324H785.4V743.933V744.543H843.933V743.933Z" fill="#05B1A1" fill-opacity="0.5" mask="url(#path-397-inside-198_20725_57334)"/>
<mask id="path-399-inside-199_20725_57334" fill="white">
<path d="M843.933 685.4H902.466V743.933H843.933V685.4Z"/>
</mask>
<path d="M843.933 685.4H902.466V743.933H843.933V685.4Z" fill="#0C9E91" fill-opacity="0.8"/>
<path d="M902.466 743.933V744.543H903.076V743.933H902.466ZM902.466 685.4H901.857V743.933H902.466H903.076V685.4H902.466ZM902.466 743.933V743.324H843.933V743.933V744.543H902.466V743.933Z" fill="#05B1A1" fill-opacity="0.5" mask="url(#path-399-inside-199_20725_57334)"/>
<mask id="path-401-inside-200_20725_57334" fill="white">
<path d="M902.466 685.4H961V743.933H902.466V685.4Z"/>
</mask>
<path d="M961 743.933V744.543H961.609V743.933H961ZM961 685.4H960.39V743.933H961H961.609V685.4H961ZM961 743.933V743.324H902.466V743.933V744.543H961V743.933Z" fill="#05B1A1" fill-opacity="0.5" mask="url(#path-401-inside-200_20725_57334)"/>
<mask id="path-403-inside-201_20725_57334" fill="white">
<path d="M961 685.4H1019.53V743.933H961V685.4Z"/>
</mask>
<path d="M1019.53 743.933V744.543H1020.14V743.933H1019.53ZM1019.53 685.4H1018.92V743.933H1019.53H1020.14V685.4H1019.53ZM1019.53 743.933V743.324H961V743.933V744.543H1019.53V743.933Z" fill="#05B1A1" fill-opacity="0.5" mask="url(#path-403-inside-201_20725_57334)"/>
<mask id="path-405-inside-202_20725_57334" fill="white">
<path d="M1019.53 685.4H1078.07V743.933H1019.53V685.4Z"/>
</mask>
<path d="M1078.07 743.933V744.543H1078.68V743.933H1078.07ZM1078.07 685.4H1077.46V743.933H1078.07H1078.68V685.4H1078.07ZM1078.07 743.933V743.324H1019.53V743.933V744.543H1078.07V743.933Z" fill="#05B1A1" fill-opacity="0.5" mask="url(#path-405-inside-202_20725_57334)"/>
<mask id="path-407-inside-203_20725_57334" fill="white">
<path d="M1078.07 685.4H1136.6V743.933H1078.07V685.4Z"/>
</mask>
<path d="M1136.6 743.933V744.543H1137.21V743.933H1136.6ZM1136.6 685.4H1135.99V743.933H1136.6H1137.21V685.4H1136.6ZM1136.6 743.933V743.324H1078.07V743.933V744.543H1136.6V743.933Z" fill="#05B1A1" fill-opacity="0.5" mask="url(#path-407-inside-203_20725_57334)"/>
<mask id="path-409-inside-204_20725_57334" fill="white">
<path d="M1136.6 685.4H1195.13V743.933H1136.6V685.4Z"/>
</mask>
<path d="M1195.13 743.933V744.543H1195.74V743.933H1195.13ZM1195.13 685.4H1194.52V743.933H1195.13H1195.74V685.4H1195.13ZM1195.13 743.933V743.324H1136.6V743.933V744.543H1195.13V743.933Z" fill="#05B1A1" fill-opacity="0.5" mask="url(#path-409-inside-204_20725_57334)"/>
<mask id="path-411-inside-205_20725_57334" fill="white">
<path d="M1195.13 685.4H1253.67V743.933H1195.13V685.4Z"/>
</mask>
<path d="M1253.67 743.933V744.543H1254.28V743.933H1253.67ZM1253.67 685.4H1253.06V743.933H1253.67H1254.28V685.4H1253.67ZM1253.67 743.933V743.324H1195.13V743.933V744.543H1253.67V743.933Z" fill="#05B1A1" fill-opacity="0.5" mask="url(#path-411-inside-205_20725_57334)"/>
<mask id="path-413-inside-206_20725_57334" fill="white">
<path d="M1253.67 685.4H1312.2V743.933H1253.67V685.4Z"/>
</mask>
<path d="M1312.2 743.933V744.543H1312.81V743.933H1312.2ZM1312.2 685.4H1311.59V743.933H1312.2H1312.81V685.4H1312.2ZM1312.2 743.933V743.324H1253.67V743.933V744.543H1312.2V743.933Z" fill="#05B1A1" fill-opacity="0.5" mask="url(#path-413-inside-206_20725_57334)"/>
<mask id="path-415-inside-207_20725_57334" fill="white">
<path d="M1312.2 685.4H1370.73V743.933H1312.2V685.4Z"/>
</mask>
<path d="M1370.73 743.933V744.543H1371.34V743.933H1370.73ZM1370.73 685.4H1370.12V743.933H1370.73H1371.34V685.4H1370.73ZM1370.73 743.933V743.324H1312.2V743.933V744.543H1370.73V743.933Z" fill="#05B1A1" fill-opacity="0.5" mask="url(#path-415-inside-207_20725_57334)"/>
<mask id="path-417-inside-208_20725_57334" fill="white">
<path d="M1370.73 685.4H1429.27V743.933H1370.73V685.4Z"/>
</mask>
<path d="M1429.27 743.933V744.543H1429.88V743.933H1429.27ZM1429.27 685.4H1428.66V743.933H1429.27H1429.88V685.4H1429.27ZM1429.27 743.933V743.324H1370.73V743.933V744.543H1429.27V743.933Z" fill="#05B1A1" fill-opacity="0.5" mask="url(#path-417-inside-208_20725_57334)"/>
<mask id="path-419-inside-209_20725_57334" fill="white">
<path d="M492.733 743.933H551.266V802.467H492.733V743.933Z"/>
</mask>
<path d="M551.266 802.467V803.076H551.876V802.467H551.266ZM551.266 743.933H550.657V802.467H551.266H551.876V743.933H551.266ZM551.266 802.467V801.857H492.733V802.467V803.076H551.266V802.467Z" fill="#05B1A1" fill-opacity="0.5" mask="url(#path-419-inside-209_20725_57334)"/>
<mask id="path-421-inside-210_20725_57334" fill="white">
<path d="M551.267 743.933H609.8V802.467H551.267V743.933Z"/>
</mask>
<path d="M609.8 802.467V803.076H610.41V802.467H609.8ZM609.8 743.933H609.19V802.467H609.8H610.41V743.933H609.8ZM609.8 802.467V801.857H551.267V802.467V803.076H609.8V802.467Z" fill="#05B1A1" fill-opacity="0.5" mask="url(#path-421-inside-210_20725_57334)"/>
<mask id="path-423-inside-211_20725_57334" fill="white">
<path d="M609.8 743.933H668.333V802.467H609.8V743.933Z"/>
</mask>
<path d="M668.333 802.467V803.076H668.943V802.467H668.333ZM668.333 743.933H667.723V802.467H668.333H668.943V743.933H668.333ZM668.333 802.467V801.857H609.8V802.467V803.076H668.333V802.467Z" fill="#05B1A1" fill-opacity="0.5" mask="url(#path-423-inside-211_20725_57334)"/>
<mask id="path-425-inside-212_20725_57334" fill="white">
<path d="M668.333 743.933H726.866V802.467H668.333V743.933Z"/>
</mask>
<path d="M668.333 743.933H726.866V802.467H668.333V743.933Z" fill="#0C9E91" fill-opacity="0.8"/>
<path d="M726.866 802.467V803.076H727.476V802.467H726.866ZM726.866 743.933H726.257V802.467H726.866H727.476V743.933H726.866ZM726.866 802.467V801.857H668.333V802.467V803.076H726.866V802.467Z" fill="#05B1A1" fill-opacity="0.5" mask="url(#path-425-inside-212_20725_57334)"/>
<mask id="path-427-inside-213_20725_57334" fill="white">
<path d="M726.866 743.933H785.4V802.467H726.866V743.933Z"/>
</mask>
<path d="M785.4 802.467V803.076H786.009V802.467H785.4ZM785.4 743.933H784.79V802.467H785.4H786.009V743.933H785.4ZM785.4 802.467V801.857H726.866V802.467V803.076H785.4V802.467Z" fill="#05B1A1" fill-opacity="0.5" mask="url(#path-427-inside-213_20725_57334)"/>
<mask id="path-429-inside-214_20725_57334" fill="white">
<path d="M785.4 743.933H843.933V802.467H785.4V743.933Z"/>
</mask>
<path d="M843.933 802.467V803.076H844.543V802.467H843.933ZM843.933 743.933H843.324V802.467H843.933H844.543V743.933H843.933ZM843.933 802.467V801.857H785.4V802.467V803.076H843.933V802.467Z" fill="#05B1A1" fill-opacity="0.5" mask="url(#path-429-inside-214_20725_57334)"/>
<mask id="path-431-inside-215_20725_57334" fill="white">
<path d="M843.933 743.933H902.466V802.467H843.933V743.933Z"/>
</mask>
<path d="M902.466 802.467V803.076H903.076V802.467H902.466ZM902.466 743.933H901.857V802.467H902.466H903.076V743.933H902.466ZM902.466 802.467V801.857H843.933V802.467V803.076H902.466V802.467Z" fill="#05B1A1" fill-opacity="0.5" mask="url(#path-431-inside-215_20725_57334)"/>
<mask id="path-433-inside-216_20725_57334" fill="white">
<path d="M902.466 743.933H961V802.467H902.466V743.933Z"/>
</mask>
<path d="M961 802.467V803.076H961.609V802.467H961ZM961 743.933H960.39V802.467H961H961.609V743.933H961ZM961 802.467V801.857H902.466V802.467V803.076H961V802.467Z" fill="#05B1A1" fill-opacity="0.5" mask="url(#path-433-inside-216_20725_57334)"/>
<mask id="path-435-inside-217_20725_57334" fill="white">
<path d="M961 743.933H1019.53V802.467H961V743.933Z"/>
</mask>
<path d="M1019.53 802.467V803.076H1020.14V802.467H1019.53ZM1019.53 743.933H1018.92V802.467H1019.53H1020.14V743.933H1019.53ZM1019.53 802.467V801.857H961V802.467V803.076H1019.53V802.467Z" fill="#05B1A1" fill-opacity="0.5" mask="url(#path-435-inside-217_20725_57334)"/>
<mask id="path-437-inside-218_20725_57334" fill="white">
<path d="M1019.53 743.933H1078.07V802.467H1019.53V743.933Z"/>
</mask>
<path d="M1019.53 743.933H1078.07V802.467H1019.53V743.933Z" fill="#0C9E91" fill-opacity="0.8"/>
<path d="M1078.07 802.467V803.076H1078.68V802.467H1078.07ZM1078.07 743.933H1077.46V802.467H1078.07H1078.68V743.933H1078.07ZM1078.07 802.467V801.857H1019.53V802.467V803.076H1078.07V802.467Z" fill="#05B1A1" fill-opacity="0.5" mask="url(#path-437-inside-218_20725_57334)"/>
<mask id="path-439-inside-219_20725_57334" fill="white">
<path d="M1078.07 743.933H1136.6V802.467H1078.07V743.933Z"/>
</mask>
<path d="M1136.6 802.467V803.076H1137.21V802.467H1136.6ZM1136.6 743.933H1135.99V802.467H1136.6H1137.21V743.933H1136.6ZM1136.6 802.467V801.857H1078.07V802.467V803.076H1136.6V802.467Z" fill="#05B1A1" fill-opacity="0.5" mask="url(#path-439-inside-219_20725_57334)"/>
<mask id="path-441-inside-220_20725_57334" fill="white">
<path d="M1136.6 743.933H1195.13V802.467H1136.6V743.933Z"/>
</mask>
<path d="M1195.13 802.467V803.076H1195.74V802.467H1195.13ZM1195.13 743.933H1194.52V802.467H1195.13H1195.74V743.933H1195.13ZM1195.13 802.467V801.857H1136.6V802.467V803.076H1195.13V802.467Z" fill="#05B1A1" fill-opacity="0.5" mask="url(#path-441-inside-220_20725_57334)"/>
<mask id="path-443-inside-221_20725_57334" fill="white">
<path d="M1195.13 743.933H1253.67V802.467H1195.13V743.933Z"/>
</mask>
<path d="M1253.67 802.467V803.076H1254.28V802.467H1253.67ZM1253.67 743.933H1253.06V802.467H1253.67H1254.28V743.933H1253.67ZM1253.67 802.467V801.857H1195.13V802.467V803.076H1253.67V802.467Z" fill="#05B1A1" fill-opacity="0.5" mask="url(#path-443-inside-221_20725_57334)"/>
<mask id="path-445-inside-222_20725_57334" fill="white">
<path d="M1253.67 743.933H1312.2V802.467H1253.67V743.933Z"/>
</mask>
<path d="M1312.2 802.467V803.076H1312.81V802.467H1312.2ZM1312.2 743.933H1311.59V802.467H1312.2H1312.81V743.933H1312.2ZM1312.2 802.467V801.857H1253.67V802.467V803.076H1312.2V802.467Z" fill="#05B1A1" fill-opacity="0.5" mask="url(#path-445-inside-222_20725_57334)"/>
<mask id="path-447-inside-223_20725_57334" fill="white">
<path d="M1312.2 743.933H1370.73V802.467H1312.2V743.933Z"/>
</mask>
<path d="M1370.73 802.467V803.076H1371.34V802.467H1370.73ZM1370.73 743.933H1370.12V802.467H1370.73H1371.34V743.933H1370.73ZM1370.73 802.467V801.857H1312.2V802.467V803.076H1370.73V802.467Z" fill="#05B1A1" fill-opacity="0.5" mask="url(#path-447-inside-223_20725_57334)"/>
<mask id="path-449-inside-224_20725_57334" fill="white">
<path d="M1370.73 743.933H1429.27V802.467H1370.73V743.933Z"/>
</mask>
<path d="M1429.27 802.467V803.076H1429.88V802.467H1429.27ZM1429.27 743.933H1428.66V802.467H1429.27H1429.88V743.933H1429.27ZM1429.27 802.467V801.857H1370.73V802.467V803.076H1429.27V802.467Z" fill="#05B1A1" fill-opacity="0.5" mask="url(#path-449-inside-224_20725_57334)"/>
<mask id="path-451-inside-225_20725_57334" fill="white">
<path d="M492.733 802.467H551.266V861H492.733V802.467Z"/>
</mask>
<path d="M551.266 861V861.61H551.876V861H551.266ZM551.266 802.467H550.657V861H551.266H551.876V802.467H551.266ZM551.266 861V860.39H492.733V861V861.61H551.266V861Z" fill="#05B1A1" fill-opacity="0.5" mask="url(#path-451-inside-225_20725_57334)"/>
<mask id="path-453-inside-226_20725_57334" fill="white">
<path d="M551.267 802.467H609.8V861H551.267V802.467Z"/>
</mask>
<path d="M551.267 802.467H609.8V861H551.267V802.467Z" fill="#0C9E91" fill-opacity="0.8"/>
<path d="M609.8 861V861.61H610.41V861H609.8ZM609.8 802.467H609.19V861H609.8H610.41V802.467H609.8ZM609.8 861V860.39H551.267V861V861.61H609.8V861Z" fill="#05B1A1" fill-opacity="0.5" mask="url(#path-453-inside-226_20725_57334)"/>
<mask id="path-455-inside-227_20725_57334" fill="white">
<path d="M609.8 802.467H668.333V861H609.8V802.467Z"/>
</mask>
<path d="M668.333 861V861.61H668.943V861H668.333ZM668.333 802.467H667.723V861H668.333H668.943V802.467H668.333ZM668.333 861V860.39H609.8V861V861.61H668.333V861Z" fill="#05B1A1" fill-opacity="0.5" mask="url(#path-455-inside-227_20725_57334)"/>
<mask id="path-457-inside-228_20725_57334" fill="white">
<path d="M668.333 802.467H726.866V861H668.333V802.467Z"/>
</mask>
<path d="M726.866 861V861.61H727.476V861H726.866ZM726.866 802.467H726.257V861H726.866H727.476V802.467H726.866ZM726.866 861V860.39H668.333V861V861.61H726.866V861Z" fill="#05B1A1" fill-opacity="0.5" mask="url(#path-457-inside-228_20725_57334)"/>
<mask id="path-459-inside-229_20725_57334" fill="white">
<path d="M726.866 802.467H785.4V861H726.866V802.467Z"/>
</mask>
<path d="M785.4 861V861.61H786.009V861H785.4ZM785.4 802.467H784.79V861H785.4H786.009V802.467H785.4ZM785.4 861V860.39H726.866V861V861.61H785.4V861Z" fill="#05B1A1" fill-opacity="0.5" mask="url(#path-459-inside-229_20725_57334)"/>
<mask id="path-461-inside-230_20725_57334" fill="white">
<path d="M785.4 802.467H843.933V861H785.4V802.467Z"/>
</mask>
<path d="M843.933 861V861.61H844.543V861H843.933ZM843.933 802.467H843.324V861H843.933H844.543V802.467H843.933ZM843.933 861V860.39H785.4V861V861.61H843.933V861Z" fill="#05B1A1" fill-opacity="0.5" mask="url(#path-461-inside-230_20725_57334)"/>
<mask id="path-463-inside-231_20725_57334" fill="white">
<path d="M843.933 802.467H902.466V861H843.933V802.467Z"/>
</mask>
<path d="M902.466 861V861.61H903.076V861H902.466ZM902.466 802.467H901.857V861H902.466H903.076V802.467H902.466ZM902.466 861V860.39H843.933V861V861.61H902.466V861Z" fill="#05B1A1" fill-opacity="0.5" mask="url(#path-463-inside-231_20725_57334)"/>
<mask id="path-465-inside-232_20725_57334" fill="white">
<path d="M902.466 802.467H961V861H902.466V802.467Z"/>
</mask>
<path d="M961 861V861.61H961.609V861H961ZM961 802.467H960.39V861H961H961.609V802.467H961ZM961 861V860.39H902.466V861V861.61H961V861Z" fill="#05B1A1" fill-opacity="0.5" mask="url(#path-465-inside-232_20725_57334)"/>
<mask id="path-467-inside-233_20725_57334" fill="white">
<path d="M961 802.467H1019.53V861H961V802.467Z"/>
</mask>
<path d="M1019.53 861V861.61H1020.14V861H1019.53ZM1019.53 802.467H1018.92V861H1019.53H1020.14V802.467H1019.53ZM1019.53 861V860.39H961V861V861.61H1019.53V861Z" fill="#05B1A1" fill-opacity="0.5" mask="url(#path-467-inside-233_20725_57334)"/>
<mask id="path-469-inside-234_20725_57334" fill="white">
<path d="M1019.53 802.467H1078.07V861H1019.53V802.467Z"/>
</mask>
<path d="M1078.07 861V861.61H1078.68V861H1078.07ZM1078.07 802.467H1077.46V861H1078.07H1078.68V802.467H1078.07ZM1078.07 861V860.39H1019.53V861V861.61H1078.07V861Z" fill="#05B1A1" fill-opacity="0.5" mask="url(#path-469-inside-234_20725_57334)"/>
<mask id="path-471-inside-235_20725_57334" fill="white">
<path d="M1078.07 802.467H1136.6V861H1078.07V802.467Z"/>
</mask>
<path d="M1136.6 861V861.61H1137.21V861H1136.6ZM1136.6 802.467H1135.99V861H1136.6H1137.21V802.467H1136.6ZM1136.6 861V860.39H1078.07V861V861.61H1136.6V861Z" fill="#05B1A1" fill-opacity="0.5" mask="url(#path-471-inside-235_20725_57334)"/>
<mask id="path-473-inside-236_20725_57334" fill="white">
<path d="M1136.6 802.467H1195.13V861H1136.6V802.467Z"/>
</mask>
<path d="M1195.13 861V861.61H1195.74V861H1195.13ZM1195.13 802.467H1194.52V861H1195.13H1195.74V802.467H1195.13ZM1195.13 861V860.39H1136.6V861V861.61H1195.13V861Z" fill="#05B1A1" fill-opacity="0.5" mask="url(#path-473-inside-236_20725_57334)"/>
<mask id="path-475-inside-237_20725_57334" fill="white">
<path d="M1195.13 802.467H1253.67V861H1195.13V802.467Z"/>
</mask>
<path d="M1253.67 861V861.61H1254.28V861H1253.67ZM1253.67 802.467H1253.06V861H1253.67H1254.28V802.467H1253.67ZM1253.67 861V860.39H1195.13V861V861.61H1253.67V861Z" fill="#05B1A1" fill-opacity="0.5" mask="url(#path-475-inside-237_20725_57334)"/>
<mask id="path-477-inside-238_20725_57334" fill="white">
<path d="M1253.67 802.467H1312.2V861H1253.67V802.467Z"/>
</mask>
<path d="M1312.2 861V861.61H1312.81V861H1312.2ZM1312.2 802.467H1311.59V861H1312.2H1312.81V802.467H1312.2ZM1312.2 861V860.39H1253.67V861V861.61H1312.2V861Z" fill="#05B1A1" fill-opacity="0.5" mask="url(#path-477-inside-238_20725_57334)"/>
<mask id="path-479-inside-239_20725_57334" fill="white">
<path d="M1312.2 802.467H1370.73V861H1312.2V802.467Z"/>
</mask>
<path d="M1312.2 802.467H1370.73V861H1312.2V802.467Z" fill="#0C9E91" fill-opacity="0.8"/>
<path d="M1370.73 861V861.61H1371.34V861H1370.73ZM1370.73 802.467H1370.12V861H1370.73H1371.34V802.467H1370.73ZM1370.73 861V860.39H1312.2V861V861.61H1370.73V861Z" fill="#05B1A1" fill-opacity="0.5" mask="url(#path-479-inside-239_20725_57334)"/>
<mask id="path-481-inside-240_20725_57334" fill="white">
<path d="M1370.73 802.467H1429.27V861H1370.73V802.467Z"/>
</mask>
<path d="M1429.27 861V861.61H1429.88V861H1429.27ZM1429.27 802.467H1428.66V861H1429.27H1429.88V802.467H1429.27ZM1429.27 861V860.39H1370.73V861V861.61H1429.27V861Z" fill="#05B1A1" fill-opacity="0.5" mask="url(#path-481-inside-240_20725_57334)"/>
</g>
<rect x="375.971" y="-16.6951" width="1170.06" height="877.39" stroke="#05B1A1" stroke-opacity="0.5" stroke-width="0.609722"/>
</g>
</g>
</g>
<defs>
<radialGradient id="paint0_radial_20725_57334" cx="0" cy="0" r="1" gradientUnits="userSpaceOnUse" gradientTransform="translate(439 -0.000104666) rotate(90) scale(878 458.26)">
<stop/>
<stop offset="0.953125" stopOpacity="0"/>
</radialGradient>
<clipPath id="clip0_20725_57334">
<rect width="1922" height="910" fill="white"/>
</clipPath>
<clipPath id="clip1_20725_57334">
<rect width="1170.67" height="856" fill="white" transform="translate(376 -17)"/>
</clipPath>
<clipPath id="clip2_20725_57334">
<rect x="375.667" y="-17" width="1170.67" height="878" fill="white"/>
</clipPath>
</defs>
</svg>
