<?xml version="1.0" encoding="utf-8"?>
<!-- Generator: Adobe Illustrator 27.3.1, SVG Export Plug-In . SVG Version: 6.00 Build 0)  -->
<svg version="1.1" id="Layer_1" xmlns="http://www.w3.org/2000/svg" xmlns:xlink="http://www.w3.org/1999/xlink" x="0px" y="0px"
	 viewBox="0 0 408.1 107.7" style="enable-background:new 0 0 408.1 107.7;" xml:space="preserve">
<style type="text/css">
	.st0{fill:#0D9488;}
	.st1{fill:#FFFFFF;}
	.st2{fill:#096961;}
	.st3{fill:#E6821F;}
	.st4{fill:#FDBA72;}
</style>
<path class="st0" d="M96.6,87.1H33.2c-4,0-7.3-3.3-7.3-7.3v-47c0-4,3.3-7.3,7.3-7.3h63.4c4,0,7.3,3.3,7.3,7.3v47
	C103.9,83.8,100.6,87.1,96.6,87.1z"/>
<path class="st1" d="M89.2,76H40.6c-2.8,0-5.1-2.3-5.1-5.1V41.6c0-2.8,2.3-5.1,5.1-5.1h48.6c2.8,0,5.1,2.3,5.1,5.1v29.3
	C94.3,73.7,92,76,89.2,76z"/>
<path class="st0" d="M61.7,46.7l12.1,6.5c2.3,1.3,2.3,4.6-0.1,5.8l-12.1,5.9c-2.2,1.1-4.7-0.5-4.7-2.9V49.6
	C56.9,47.1,59.5,45.6,61.7,46.7z"/>
<g>
	<polygon class="st0" points="17.7,43 3.1,47.1 16,16.7 46.9,2.7 44.3,16.7 35.3,33.6 	"/>
	<path class="st2" d="M26.8,53.2c0,0,5.3-16.1,26-27.2l-8.5-9.3c0,0-21.3,8.2-26.6,26.3L26.8,53.2z"/>
	<polygon class="st3" points="54.9,9.7 52.8,10.8 46.5,5.3 46.9,2.7 	"/>
	<polygon class="st4" points="63.3,12.9 60.1,14.6 56.6,19.6 52.8,10.8 54.9,9.7 	"/>
</g>
<g>
	<path class="st1" d="M170.9,44.2v42.6h-8.4c0-0.3,0.1-2.8,0.2-7.4c0.1-3,0.2-6,0.2-8.7c0-6.8-0.5-11.1-1.6-13
		c-7.3,3.1-15.9,7.2-25.7,12.2l-3.8-5.7c1.5-2.8,2.2-5,2.2-6.7c0-2-0.5-3.4-1.5-4.2c-0.8-0.6-2.3-1-4.7-1.3l-2.4-5.9
		c5-5.9,11.9-8.8,20.7-8.8c3.7,0,6.9,0.7,9.5,2.2c2.3,1.3,4.6,3.4,7,6.5v-9h14.8v7.2H170.9z M146.5,45.2c-2.8,0-5.9,0.9-9.2,2.8
		c3,1.8,4.5,4.2,4.5,7.3c0,0.8-0.1,1.7-0.4,2.6l15-6.8c-0.9-1.7-2.3-3.1-4.2-4.2C150.4,45.8,148.5,45.2,146.5,45.2z"/>
	<path class="st1" d="M170.1,85.6l0.2,1h-0.2H163c-3-3.4-5.9-5.1-8.7-5.1c-1.5,0-3.7,0.5-6.7,1.4c-2.9,0.9-5.1,1.4-6.7,1.4
		c-7.6,0-13.7-3.9-18.3-11.8l4.5-6c4.2,6.3,8.8,9.4,13.8,9.4c1.4,0,3.5-0.4,6.3-1.2c2.8-0.8,4.9-1.2,6.3-1.2c3.7,0,7.1,1.4,10.3,4.1
		l7.5,8L170.1,85.6z"/>
	<path class="st1" d="M188.7,44.2V87h-8.4V44.2h-7.5V37h22.6v7.2H188.7z"/>
	<path class="st1" d="M216.8,90.2c-7.1,0-11.8-1.2-14.2-3.5c-5.1-5.1-7.7-11.4-7.7-18.9c0-4.1,1.3-8.2,3.8-12.6
		c1.8-3,4.6-6.6,8.6-11h-16.2V37h31v6.9c-4.7,1.7-9,4.7-12.8,9.1c-4.1,4.6-6.1,9.2-6.1,13.8c0,5.2,0.9,9,2.7,11.5
		c2.2,3,5.9,4.6,11.1,4.6c1.1,0,3.1-1,5.8-2.9v8.6C220.8,89.7,218.8,90.2,216.8,90.2z"/>
	<path class="st1" d="M261.3,44.2V87h-7.6c-7.4-5.7-19-10.3-34.9-13.7l-2.4-7.9l19-7.7c-2-2.3-4.8-4.1-8.6-5.5
		c-3.4-1.3-6.8-2-10.3-2.1v-5.9h-4.9V37h55v7.2H261.3z M252.9,44.2h-22.8c7.6,4.1,12.5,7.9,14.6,11.3v7.4l-12.1,5.3
		c8.1,3,14.8,6.1,20.4,9.3V44.2z M241.9,94.1c-4-1.8-7.9-3-11.8-3.8l1.6-7.2c4.6,0.6,9.2,2.3,13.7,5L241.9,94.1z"/>
	<path class="st1" d="M277.8,44.2V87h-8.4V44.2H262V37h22.6v7.2H277.8z"/>
	<path class="st1" d="M340,31.5c-10.3-6.2-18.9-9.3-25.5-9.3c-5.4,0-9.9,1.2-13.3,3.5c-3.8,2.6-5.8,6.3-6.1,11.3h6.2v7.2h-6.2v42.6
		h-8.6V44.2h-6.3V37h6.3c0.3-7.3,3.1-12.9,8.6-16.9c5-3.7,11.5-5.5,19.5-5.5c5,0,10.2,1.1,15.5,3.3c3.7,1.5,8.6,4.2,14.6,7.8
		L340,31.5z"/>
	<path class="st1" d="M311.7,47c0.3,0,0.8,0,1.5,0c3.2,0,5.9,0.8,8.2,2.4c2.5,1.8,3.8,4.1,3.8,7c0,3.6-1.6,7.1-4.7,10.5
		c-2.8,3.1-6.2,5.3-10.1,6.6l-5.5-6.6c2.5-0.9,5-2.2,7.5-4.1c3-2.3,4.5-4.5,4.5-6.5c0-1.9-3.4-2.9-10.1-2.9c-0.6,0-1.5,0.2-2.7,0.7
		l-4-7.1c1.2-1,3.1-2.7,5.5-5c3.1-3,6.8-4.6,11.1-4.6c6.2,0,11.4,2.4,15.6,7.3V37h14.9v7.2h-6.5v42.3h-8.4V57.2
		c0-0.6-0.8-2.1-2.3-4.4c-3.5-5.3-7.8-8-13.1-8C315.2,44.8,313.5,45.6,311.7,47z"/>
	<path class="st1" d="M379,44.2v0.6c5,0.3,9.5,1.7,13.3,4.2c4.5,2.9,6.8,6.6,6.8,11c0,3.8-1.5,6.9-4.6,9.2
		c-2.8,2.2-6.3,3.3-10.4,3.3c-0.3,0-1.2-0.1-2.6-0.3v-7.6c1.8,0,3.2,0,4.3,0c3.5,0,5.3-1.6,5.3-4.8c0-3.9-4-6.3-12-7.2v34.4h-7.5
		c-6.8-12.3-15-18.6-24.8-18.8l-2.4-8.3c3.5-2.3,7.9-4.9,13.2-7.8l13.1-7.1v-0.9h-28.2V37h60.6v7.2H379z M370.6,53.8
		c-2.3,1-6.5,4-12.6,9c2.5,1.5,6.7,5.5,12.6,11.8V53.8z"/>
</g>
<path class="st0" d="M83.8,105H48.3c-2.4,0-4.4-2-4.4-4.4v0c0-2.4,2-4.4,4.4-4.4h35.5c2.4,0,4.4,2,4.4,4.4v0
	C88.2,103,86.2,105,83.8,105z"/>
</svg>
