<svg width="152" height="40" viewBox="0 0 152 40" fill="none" xmlns="http://www.w3.org/2000/svg">
<path d="M35.9792 32.3491H12.3654C10.8756 32.3491 9.64648 31.1234 9.64648 29.6378V12.1819C9.64648 10.6963 10.8756 9.4707 12.3654 9.4707H35.9792C37.4691 9.4707 38.6982 10.6963 38.6982 12.1819V29.6378C38.6982 31.1234 37.4691 32.3491 35.9792 32.3491Z" fill="white"/>
<path d="M33.2236 28.227H15.1222C14.0793 28.227 13.2227 27.3728 13.2227 26.3329V15.4508C13.2227 14.4109 14.0793 13.5566 15.1222 13.5566H33.2236C34.2665 13.5566 35.1232 14.4109 35.1232 15.4508V26.3329C35.1232 27.3728 34.2665 28.227 33.2236 28.227Z" fill="#0D9488"/>
<path d="M22.9802 17.3449L27.4869 19.759C28.3436 20.2418 28.3436 21.4674 27.4497 21.9131L22.9429 24.1044C22.1235 24.5129 21.1924 23.9187 21.1924 23.0273V18.4219C21.1924 17.4934 22.1608 16.9363 22.9802 17.3449Z" fill="white"/>
<path d="M6.59218 15.9695L1.1543 17.4922L5.959 6.20158L17.4679 1.00195L16.4996 6.20158L13.1474 12.4783L6.59218 15.9695Z" fill="white"/>
<path d="M9.98116 19.7573C9.98116 19.7573 11.9552 13.7778 19.6651 9.65521L16.4992 6.20117C16.4992 6.20117 8.56582 9.24667 6.5918 15.969L9.98116 19.7573Z" fill="#BFC4C4"/>
<path d="M20.448 3.60177L19.6658 4.01031L17.3193 1.9676L17.4683 1.00195L20.448 3.60177Z" fill="#E6821F"/>
<path d="M23.5758 4.79005L22.384 5.42143L21.0804 7.27844L19.665 4.0101L20.4472 3.60156L23.5758 4.79005Z" fill="#FDBA72"/>
<path d="M63.6529 16.4163V32.238H60.5242C60.5242 32.1266 60.5615 31.1981 60.5987 29.4896C60.636 28.3754 60.6732 27.2612 60.6732 26.2584C60.6732 23.7329 60.487 22.1359 60.0773 21.4302C57.3583 22.5816 54.1552 24.1043 50.5051 25.9613L49.0898 23.8443C49.6485 22.8044 49.9092 21.9873 49.9092 21.3559C49.9092 20.6131 49.723 20.0932 49.3505 19.796C49.0525 19.5732 48.4939 19.4246 47.6 19.3132L46.7061 17.1219C48.5683 14.9307 51.1383 13.8536 54.4159 13.8536C55.794 13.8536 56.9859 14.1136 57.9543 14.6707C58.8109 15.1535 59.6676 15.9335 60.5615 17.0848V13.7422H66.0739V16.4163H63.6529ZM54.5649 16.7877C53.522 16.7877 52.3674 17.1219 51.1383 17.8276C52.2557 18.4961 52.8144 19.3875 52.8144 20.5388C52.8144 20.836 52.7771 21.1702 52.6654 21.5045L58.2522 18.979C57.917 18.3476 57.3956 17.8276 56.6879 17.4191C56.0175 17.0105 55.3098 16.7877 54.5649 16.7877Z" fill="white"/>
<path d="M63.3548 31.791L63.4293 32.1624H63.3548H60.7104C59.593 30.8997 58.5129 30.2683 57.47 30.2683C56.9113 30.2683 56.0919 30.454 54.9745 30.7883C53.8944 31.1225 53.075 31.3082 52.4791 31.3082C49.6484 31.3082 47.3764 29.8598 45.6631 26.9257L47.3391 24.6973C48.9035 27.0371 50.6168 28.1884 52.4791 28.1884C53.0005 28.1884 53.7827 28.0399 54.8255 27.7428C55.8684 27.4456 56.6506 27.2971 57.172 27.2971C58.5501 27.2971 59.8165 27.817 61.0083 28.8198L63.8018 31.791H63.3548Z" fill="white"/>
<path d="M70.2824 16.4163V32.3123H67.1538V16.4163H64.3604V13.7422H72.7779V16.4163H70.2824Z" fill="white"/>
<path d="M80.7489 33.5008C78.1045 33.5008 76.3539 33.0551 75.46 32.2009C73.5605 30.3067 72.5921 27.9669 72.5921 25.1814C72.5921 23.6586 73.0763 22.1359 74.0074 20.5017C74.6779 19.3875 75.7207 18.0505 77.2106 16.4163H71.1768V13.7422H82.7229V16.3049C80.9724 16.9362 79.3708 18.0505 77.9555 19.6846C76.4284 21.3931 75.6835 23.1015 75.6835 24.81C75.6835 26.7413 76.0187 28.1526 76.6891 29.0811C77.5085 30.1953 78.8866 30.7895 80.8234 30.7895C81.2331 30.7895 81.978 30.4181 82.9837 29.7125V32.9065C82.2388 33.3151 81.4938 33.5008 80.7489 33.5008Z" fill="white"/>
<path d="M97.3227 16.4163V32.3123H94.492C91.7358 30.1953 87.4153 28.4868 81.4932 27.2241L80.5993 24.29L87.676 21.4302C86.9311 20.576 85.8882 19.9075 84.4729 19.3875C83.2065 18.9047 81.9402 18.6447 80.6366 18.6076V16.4163H78.8115V13.7422H99.2967V16.4163H97.3227ZM94.194 16.4163H85.702C88.5327 17.939 90.3577 19.3504 91.1399 20.6131V23.3615L86.6331 25.3299C89.65 26.4441 92.1455 27.5955 94.2313 28.784V16.4163H94.194ZM90.097 34.9492C88.6072 34.2807 87.1546 33.835 85.702 33.5379L86.2979 30.8638C88.0112 31.0867 89.7245 31.718 91.4006 32.7208L90.097 34.9492Z" fill="white"/>
<path d="M103.469 16.4163V32.3123H100.34V16.4163H97.584V13.7422H106.002V16.4163H103.469Z" fill="white"/>
<path d="M126.635 11.6986C122.799 9.39588 119.596 8.24453 117.138 8.24453C115.126 8.24453 113.45 8.69021 112.184 9.54444C110.769 10.5101 110.024 11.8843 109.912 13.7413H112.221V16.4154H109.912V32.2371H106.709V16.4154H104.362V13.7413H106.709C106.821 11.03 107.863 8.95019 109.912 7.46459C111.774 6.0904 114.195 5.42188 117.175 5.42188C119.037 5.42188 120.974 5.83042 122.948 6.6475C124.326 7.2046 126.151 8.20739 128.386 9.54444L126.635 11.6986Z" fill="white"/>
<path d="M116.095 17.4562C116.207 17.4562 116.393 17.4562 116.654 17.4562C117.845 17.4562 118.851 17.7533 119.708 18.3476C120.639 19.0161 121.123 19.8703 121.123 20.9474C121.123 22.2844 120.527 23.5843 119.373 24.8471C118.33 25.9985 117.063 26.8155 115.611 27.2984L113.562 24.8471C114.493 24.5128 115.424 24.03 116.356 23.3244C117.473 22.4701 118.032 21.6531 118.032 20.9102C118.032 20.2046 116.765 19.8332 114.27 19.8332C114.046 19.8332 113.711 19.9075 113.264 20.0932L111.774 17.4562C112.221 17.0848 112.929 16.4534 113.823 15.5992C114.978 14.485 116.356 13.8907 117.957 13.8907C120.266 13.8907 122.203 14.7821 123.768 16.602V13.7422H129.317V16.4163H126.896V32.1266H123.768V21.2445C123.768 21.0217 123.47 20.4646 122.911 19.6103C121.607 17.6419 120.006 16.6391 118.032 16.6391C117.399 16.6391 116.765 16.9362 116.095 17.4562Z" fill="white"/>
<path d="M141.161 16.4163V16.6391C143.023 16.7505 144.699 17.2705 146.115 18.199C147.791 19.2761 148.648 20.6503 148.648 22.2844C148.648 23.6958 148.089 24.8471 146.934 25.7013C145.891 26.5184 144.588 26.927 143.061 26.927C142.949 26.927 142.614 26.8898 142.092 26.8155V23.9929C142.763 23.9929 143.284 23.9929 143.694 23.9929C144.997 23.9929 145.668 23.3986 145.668 22.2102C145.668 20.7617 144.178 19.8703 141.198 19.5361V32.3123H138.405C135.872 27.744 132.818 25.4042 129.168 25.3299L128.274 22.2473C129.578 21.3931 131.216 20.4274 133.191 19.3504L138.07 16.7134V16.3791H127.566V13.7422H150.137V16.4163H141.161ZM138.032 19.9817C137.176 20.3531 135.611 21.4674 133.34 23.3244C134.271 23.8815 135.835 25.3671 138.032 27.7069V19.9817Z" fill="white"/>
<path d="M31.2117 38.9969H17.9894C17.0955 38.9969 16.3506 38.2541 16.3506 37.3627C16.3506 36.4713 17.0955 35.7285 17.9894 35.7285H31.2117C32.1055 35.7285 32.8505 36.4713 32.8505 37.3627C32.8505 38.2541 32.1055 38.9969 31.2117 38.9969Z" fill="white"/>
</svg>
