<svg width="33" height="32" viewBox="0 0 33 32" fill="none" xmlns="http://www.w3.org/2000/svg">
<g clip-path="url(#clip0_14741_44596)">
<path d="M29.9359 7.40087L25.2893 2.7542C23.5266 0.990198 21.1826 0.0195312 18.6893 0.0195312H12.6693C9.6386 0.0195312 6.98527 2.0662 6.21994 4.99553C6.03327 5.70753 6.45994 6.43686 7.17194 6.62353C7.88927 6.8062 8.6146 6.3822 8.7986 5.6702C9.2586 3.9142 10.8506 2.6862 12.6693 2.6862H18.6893C18.9093 2.6862 19.1199 2.72886 19.3359 2.74886V9.35287C19.3359 11.5582 21.1306 13.3529 23.3359 13.3529H29.9373C29.9586 13.5689 30.0026 13.7822 30.0026 13.9995V25.3529C30.0026 27.5582 28.2079 29.3529 26.0026 29.3529H12.6693C11.7493 29.3529 10.8853 29.0489 10.1693 28.4769C9.59594 28.0195 8.75727 28.1089 8.2946 28.6822C7.8346 29.2582 7.9266 30.0969 8.50127 30.5569C9.67727 31.4995 11.1573 32.0195 12.6679 32.0195H26.0013C29.6773 32.0195 32.6679 29.0289 32.6679 25.3529V13.9995C32.6679 11.5075 31.6973 9.16353 29.9346 7.40087H29.9359ZM23.3359 10.6862C22.6013 10.6862 22.0026 10.0889 22.0026 9.35287V3.59686C22.5039 3.8862 22.9826 4.2182 23.4026 4.6382L28.0493 9.28487C28.4639 9.69953 28.7946 10.1809 29.0839 10.6849H23.3346L23.3359 10.6862ZM14.0026 21.3329H24.6693C25.4053 21.3329 26.0026 21.9289 26.0026 22.6662C26.0026 23.4035 25.4053 23.9995 24.6693 23.9995H14.0026C13.2666 23.9995 12.6693 23.4035 12.6693 22.6662C12.6693 21.9289 13.2666 21.3329 14.0026 21.3329ZM10.0026 25.1289V18.7955C11.2119 17.8169 12.0026 16.3395 12.0026 14.6662C12.0026 11.7249 9.6106 9.33286 6.66927 9.33286C3.72794 9.33286 1.33594 11.7249 1.33594 14.6662C1.33594 16.3395 2.1266 17.8169 3.33594 18.7955V25.1289C3.33594 25.9595 4.3906 26.3155 4.8946 25.6555L6.66927 23.3315L8.44394 25.6555C8.94794 26.3155 10.0026 25.9595 10.0026 25.1289ZM6.66927 11.9995C8.13994 11.9995 9.33594 13.1955 9.33594 14.6662C9.33594 16.1369 8.13994 17.3329 6.66927 17.3329C5.1986 17.3329 4.0026 16.1369 4.0026 14.6662C4.0026 13.1955 5.1986 11.9995 6.66927 11.9995ZM15.3359 18.6662C14.5999 18.6662 14.0026 18.0702 14.0026 17.3329C14.0026 16.5955 14.5999 15.9995 15.3359 15.9995H24.6693C25.4053 15.9995 26.0026 16.5955 26.0026 17.3329C26.0026 18.0702 25.4053 18.6662 24.6693 18.6662H15.3359Z" fill="#2768E6"/>
</g>
<defs>
<clipPath id="clip0_14741_44596">
<rect width="32" height="32" fill="white" transform="translate(0.667969)"/>
</clipPath>
</defs>
</svg>
