<svg width="16" height="16" viewBox="0 0 16 16" fill="none" xmlns="http://www.w3.org/2000/svg">
<path d="M14.6668 11.16V3.11333C14.6668 2.31333 14.0135 1.71999 13.2202 1.78666H13.1802C11.7802 1.90666 9.6535 2.61999 8.46683 3.36666L8.3535 3.43999C8.16016 3.55999 7.84016 3.55999 7.64683 3.43999L7.48016 3.33999C6.2935 2.59999 4.1735 1.89333 2.7735 1.77999C1.98016 1.71333 1.3335 2.31333 1.3335 3.10666V11.16C1.3335 11.8 1.8535 12.4 2.4935 12.48L2.68683 12.5067C4.1335 12.7 6.36683 13.4333 7.64683 14.1333L7.6735 14.1467C7.8535 14.2467 8.14016 14.2467 8.3135 14.1467C9.5935 13.44 11.8335 12.7 13.2868 12.5067L13.5068 12.48C14.1468 12.4 14.6668 11.8 14.6668 11.16Z" stroke="#475569" stroke-width="1.2" stroke-linecap="round" stroke-linejoin="round"/>
<path d="M8 3.66V13.66" stroke="#475569" stroke-width="1.2" stroke-linecap="round" stroke-linejoin="round"/>
<path d="M5.1665 5.66H3.6665" stroke="#475569" stroke-width="1.2" stroke-linecap="round" stroke-linejoin="round"/>
<path d="M5.6665 7.66H3.6665" stroke="#475569" stroke-width="1.5" stroke-linecap="round" stroke-linejoin="round"/>
</svg>
