<svg width="16" height="14" viewBox="0 0 16 14" fill="none" xmlns="http://www.w3.org/2000/svg">
<path d="M14.8917 0.0820312H1.10828C0.497208 0.0820312 0 0.579239 0 1.19031V10.5416C0 11.1526 0.497208 11.6498 1.10828 11.6498H9.14562L8.90293 13.1299C8.85727 13.4085 8.94942 13.6608 9.14948 13.8049C9.34948 13.9489 9.61787 13.9566 9.86771 13.8249L11.6018 12.9122C11.6501 12.8874 11.7835 12.8874 11.8318 12.9122L13.5659 13.8249C13.6845 13.8874 13.8074 13.9185 13.9251 13.9185C14.0553 13.9185 14.1792 13.8804 14.2842 13.8048C14.4842 13.6608 14.5763 13.4083 14.5307 13.1298L14.2881 11.6498H14.8918C15.5029 11.6498 16.0001 11.1526 16.0001 10.5415V1.19031C16 0.579176 15.5028 0.0820312 14.8917 0.0820312ZM11.7168 9.75019C10.6518 9.75019 9.78525 8.88364 9.78525 7.81861C9.78525 6.75358 10.6518 5.88703 11.7168 5.88703C12.7819 5.88703 13.6484 6.75358 13.6484 7.81861C13.6484 8.88364 12.7819 9.75019 11.7168 9.75019ZM12.2743 12.0716C11.9513 11.9015 11.4823 11.9015 11.1593 12.0716L9.93338 12.7169L10.3231 10.3395C10.7365 10.569 11.2116 10.7001 11.7169 10.7001C12.2222 10.7001 12.6973 10.5689 13.1107 10.3395L13.2625 11.2664C13.2629 11.2679 13.263 11.2695 13.2634 11.2711L13.5004 12.717L12.2743 12.0716ZM15.05 10.5416C15.05 10.6274 14.9775 10.6999 14.8917 10.6999H14.1323L13.9589 9.6417C13.9582 9.63752 13.957 9.63353 13.9562 9.62935C14.3574 9.13424 14.5984 8.5041 14.5984 7.81861C14.5984 6.22971 13.3058 4.93707 11.7169 4.93707C10.128 4.93707 8.83536 6.22971 8.83536 7.81861C8.83536 8.5041 9.0764 9.13411 9.4776 9.62935C9.47677 9.63347 9.47563 9.63752 9.47493 9.64164L9.30135 10.7007C9.29603 10.7005 9.2909 10.6999 9.28558 10.6999H1.10828C1.02247 10.6999 0.949957 10.6274 0.949957 10.5416V1.19031C0.949957 1.1045 1.02247 1.03199 1.10828 1.03199H14.8917C14.9775 1.03199 15.05 1.1045 15.05 1.19031V10.5416Z" fill="#475569"/>
<path d="M13.2138 2.81543H2.44763C2.18526 2.81543 1.97266 3.02803 1.97266 3.29041C1.97266 3.55279 2.18526 3.76539 2.44763 3.76539H13.2138C13.4762 3.76539 13.6888 3.55279 13.6888 3.29041C13.6888 3.02803 13.4762 2.81543 13.2138 2.81543Z" fill="#475569"/>
<path d="M7.00352 5.39062H2.44373C2.18135 5.39062 1.96875 5.60323 1.96875 5.8656C1.96875 6.12798 2.18135 6.34058 2.44373 6.34058H7.00352C7.2659 6.34058 7.4785 6.12798 7.4785 5.8656C7.4785 5.60323 7.2659 5.39062 7.00352 5.39062Z" fill="#475569"/>
</svg>
