<svg width="32" height="32" viewBox="0 0 32 32" fill="none" xmlns="http://www.w3.org/2000/svg">
<g clip-path="url(#clip0_14741_44603)">
<path d="M9.33333 18.6667C12.2747 18.6667 14.6667 16.2747 14.6667 13.3333C14.6667 10.392 12.2747 8 9.33333 8C6.392 8 4 10.392 4 13.3333C4 16.2747 6.392 18.6667 9.33333 18.6667ZM9.33333 10.6667C10.804 10.6667 12 11.8627 12 13.3333C12 14.804 10.804 16 9.33333 16C7.86267 16 6.66667 14.804 6.66667 13.3333C6.66667 11.8627 7.86267 10.6667 9.33333 10.6667ZM18.6667 30.6667C18.6667 31.404 18.0693 32 17.3333 32C16.5973 32 16 31.404 16 30.6667C16 26.9907 13.0093 24 9.33333 24C5.65733 24 2.66667 26.9907 2.66667 30.6667C2.66667 31.404 2.06933 32 1.33333 32C0.597333 32 0 31.404 0 30.6667C0 25.5213 4.18667 21.3333 9.33333 21.3333C14.48 21.3333 18.6667 25.5213 18.6667 30.6667ZM32 6.66667V17.3333C32 21.0093 29.0093 24 25.3333 24H20C19.264 24 18.6667 23.404 18.6667 22.6667V20C18.6667 19.2627 19.264 18.6667 20 18.6667H24C24.736 18.6667 25.3333 19.2627 25.3333 20V21.3333C27.5387 21.3333 29.3333 19.5387 29.3333 17.3333V6.66667C29.3333 4.46133 27.5387 2.66667 25.3333 2.66667H12.62C11.196 2.66667 9.868 3.43333 9.15467 4.668C8.78534 5.30533 7.97067 5.52533 7.33333 5.15333C6.69467 4.78533 6.47733 3.96933 6.84667 3.332C8.036 1.27733 10.248 0 12.6213 0H25.3347C29.0107 0 32 2.99067 32 6.66667Z" fill="#BE5D19"/>
</g>
<defs>
<clipPath id="clip0_14741_44603">
<rect width="32" height="32" fill="white"/>
</clipPath>
</defs>
</svg>
