<svg width="28" height="28" viewBox="0 0 28 28" fill="none" xmlns="http://www.w3.org/2000/svg">
<path d="M9.77734 14L12.589 16.8233L18.224 11.1766" stroke="#0CAF60" stroke-width="2" stroke-linecap="round" stroke-linejoin="round"/>
<path d="M12.5423 2.85835C13.3473 2.17002 14.6657 2.17002 15.4823 2.85835L17.3257 4.44502C17.6757 4.74835 18.329 4.99335 18.7957 4.99335H20.779C22.0157 4.99335 23.0307 6.00835 23.0307 7.24502V9.22835C23.0307 9.68335 23.2757 10.3484 23.579 10.6984L25.1657 12.5417C25.854 13.3467 25.854 14.665 25.1657 15.4817L23.579 17.325C23.2757 17.675 23.0307 18.3284 23.0307 18.795V20.7784C23.0307 22.015 22.0157 23.03 20.779 23.03H18.7957C18.3407 23.03 17.6757 23.275 17.3257 23.5784L15.4823 25.165C14.6773 25.8534 13.359 25.8534 12.5423 25.165L10.699 23.5784C10.349 23.275 9.69568 23.03 9.22901 23.03H7.21068C5.97401 23.03 4.95901 22.015 4.95901 20.7784V18.7834C4.95901 18.3284 4.71401 17.675 4.42234 17.325L2.84734 15.47C2.17068 14.665 2.17068 13.3584 2.84734 12.5534L4.42234 10.6984C4.71401 10.3484 4.95901 9.69502 4.95901 9.24002V7.23335C4.95901 5.99669 5.97401 4.98169 7.21068 4.98169H9.22901C9.68401 4.98169 10.349 4.73669 10.699 4.43335L12.5423 2.85835Z" stroke="#0CAF60" stroke-width="2" stroke-linecap="round" stroke-linejoin="round"/>
</svg>
