<svg width="28" height="28" viewBox="0 0 28 28" fill="none" xmlns="http://www.w3.org/2000/svg">
<path d="M14 27.9995C21.732 27.9995 28 21.7315 28 13.9995C28 6.26753 21.732 -0.000488281 14 -0.000488281C6.26801 -0.000488281 0 6.26753 0 13.9995C0 21.7315 6.26801 27.9995 14 27.9995Z" fill="#007AB9"/>
<path d="M22.3648 15.1259V20.8978H19.0184V15.5128C19.0184 14.1606 18.5353 13.2372 17.3236 13.2372C16.399 13.2372 15.8497 13.8589 15.6071 14.4609C15.519 14.676 15.4963 14.9747 15.4963 15.2764V20.8976H12.1497C12.1497 20.8976 12.1946 11.7771 12.1497 10.833H15.4966V12.2592C15.4898 12.2704 15.4804 12.2814 15.4744 12.2922H15.4966V12.2592C15.9413 11.5749 16.7344 10.5966 18.5126 10.5966C20.7142 10.5966 22.3648 12.0351 22.3648 15.1259ZM8.64881 5.98145C7.50407 5.98145 6.75513 6.73288 6.75513 7.72015C6.75513 8.68646 7.48235 9.45961 8.60489 9.45961H8.6266C9.79381 9.45961 10.5195 8.68646 10.5195 7.72015C10.4973 6.73288 9.79381 5.98145 8.64881 5.98145ZM6.95403 20.8978H10.2994V10.833H6.95403V20.8978Z" fill="white"/>
</svg>
