<svg width="16" height="16" viewBox="0 0 16 16" fill="none" xmlns="http://www.w3.org/2000/svg">
<path d="M4 6.66671V5.33337C4 3.12671 4.66667 1.33337 8 1.33337C11.3333 1.33337 12 3.12671 12 5.33337V6.66671" stroke="#475569" stroke-width="1.2" stroke-linecap="round" stroke-linejoin="round"/>
<path d="M8.00016 12.3333C8.92064 12.3333 9.66683 11.5871 9.66683 10.6667C9.66683 9.74619 8.92064 9 8.00016 9C7.07969 9 6.3335 9.74619 6.3335 10.6667C6.3335 11.5871 7.07969 12.3333 8.00016 12.3333Z" stroke="#475569" stroke-width="1.2" stroke-linecap="round" stroke-linejoin="round"/>
<path d="M11.3335 14.6666H4.66683C2.00016 14.6666 1.3335 14 1.3335 11.3333V9.99996C1.3335 7.33329 2.00016 6.66663 4.66683 6.66663H11.3335C14.0002 6.66663 14.6668 7.33329 14.6668 9.99996V11.3333C14.6668 14 14.0002 14.6666 11.3335 14.6666Z" stroke="#475569" stroke-width="1.2" stroke-linecap="round" stroke-linejoin="round"/>
</svg>
