<svg width="20" height="20" viewBox="0 0 20 20" fill="none" xmlns="http://www.w3.org/2000/svg">
<path d="M14.1667 17.0832H5.83341C3.33341 17.0832 1.66675 15.8332 1.66675 12.9165V7.08317C1.66675 4.1665 3.33341 2.9165 5.83341 2.9165H14.1667C16.6667 2.9165 18.3334 4.1665 18.3334 7.08317V12.9165C18.3334 15.8332 16.6667 17.0832 14.1667 17.0832Z" stroke="#475569" stroke-width="1.5" stroke-miterlimit="10" stroke-linecap="round" stroke-linejoin="round"/>
<path d="M10 12.5C11.3807 12.5 12.5 11.3807 12.5 10C12.5 8.61929 11.3807 7.5 10 7.5C8.61929 7.5 7.5 8.61929 7.5 10C7.5 11.3807 8.61929 12.5 10 12.5Z" stroke="#475569" stroke-width="1.5" stroke-miterlimit="10" stroke-linecap="round" stroke-linejoin="round"/>
<path d="M15.8333 5.8335H13.3333" stroke="#475569" stroke-width="1.5" stroke-miterlimit="10" stroke-linecap="round" stroke-linejoin="round"/>
<path d="M6.66675 14.1665H4.16675" stroke="#475569" stroke-width="1.5" stroke-miterlimit="10" stroke-linecap="round" stroke-linejoin="round"/>
</svg>
