<svg width="28" height="28" viewBox="0 0 28 28" fill="none" xmlns="http://www.w3.org/2000/svg">
<path d="M10.687 12.6816C10.5703 12.67 10.4303 12.67 10.302 12.6816C7.52531 12.5883 5.32031 10.3133 5.32031 7.51331C5.32031 4.65498 7.63031 2.33331 10.5003 2.33331C13.3586 2.33331 15.6803 4.65498 15.6803 7.51331C15.6686 10.3133 13.4636 12.5883 10.687 12.6816Z" stroke="#F9851A" stroke-width="2" stroke-linecap="round" stroke-linejoin="round"/>
<path d="M19.1439 4.66669C21.4072 4.66669 23.2272 6.49835 23.2272 8.75002C23.2272 10.955 21.4772 12.7517 19.2955 12.8334C19.2022 12.8217 19.0972 12.8217 18.9922 12.8334" stroke="#F9851A" stroke-width="2" stroke-linecap="round" stroke-linejoin="round"/>
<path d="M4.85187 16.9867C2.02854 18.8767 2.02854 21.9567 4.85187 23.835C8.06021 25.9817 13.3219 25.9817 16.5302 23.835C19.3535 21.945 19.3535 18.865 16.5302 16.9867C13.3335 14.8517 8.07187 14.8517 4.85187 16.9867Z" stroke="#F9851A" stroke-width="2" stroke-linecap="round" stroke-linejoin="round"/>
<path d="M21.3984 23.3333C22.2384 23.1583 23.0318 22.82 23.6851 22.3183C25.5051 20.9533 25.5051 18.7016 23.6851 17.3366C23.0434 16.8466 22.2618 16.52 21.4334 16.3333" stroke="#F9851A" stroke-width="2" stroke-linecap="round" stroke-linejoin="round"/>
</svg>
