<svg width="10" height="12" viewBox="0 0 10 12" fill="none" xmlns="http://www.w3.org/2000/svg">
<path d="M9.63078 7.131C9.57428 7.189 9.36093 7.437 9.1622 7.641C7.99708 8.924 4.95762 11.024 3.36678 11.665C3.12518 11.768 2.51437 11.986 2.18802 12C1.8753 12 1.5772 11.928 1.29274 11.782C0.938137 11.578 0.653676 11.257 0.497806 10.878C0.397465 10.615 0.241596 9.828 0.241596 9.814C0.0857266 8.953 -1.32078e-06 7.554 -1.05047e-06 6.008C-7.92925e-07 4.535 0.0857276 3.193 0.213346 2.319C0.227959 2.305 0.383828 1.327 0.554311 0.992C0.867024 0.38 1.47784 2.58393e-07 2.13151 3.72686e-07L2.18802 3.82565e-07C2.61374 0.0150005 3.50901 0.395001 3.50901 0.409001C5.01413 1.051 7.98344 3.048 9.17681 4.375C9.17681 4.375 9.51291 4.716 9.65903 4.929C9.88699 5.235 10 5.614 10 5.993C10 6.416 9.87238 6.81 9.63078 7.131Z" fill="white"/>
</svg>
