<svg width="33" height="32" viewBox="0 0 33 32" fill="none" xmlns="http://www.w3.org/2000/svg">
<g clipPath="url(#clip0_14741_44610)">
<path d="M8.3371 16C12.7491 16 16.3371 12.412 16.3371 8.00003C16.3371 3.58803 12.7491 2.84379e-05 8.3371 2.84379e-05C3.9251 2.84379e-05 0.337099 3.58803 0.337099 8.00003C0.337099 12.412 3.9251 16 8.3371 16ZM8.3371 2.66669C11.2784 2.66669 13.6704 5.05869 13.6704 8.00003C13.6704 9.5027 13.0411 10.8574 12.0371 11.8267C11.4424 10.3667 10.0158 9.33336 8.34376 9.33336H8.33043C6.6571 9.33336 5.2291 10.3654 4.63443 11.8254C3.6331 10.8547 3.00377 9.5027 3.00377 8.00003C3.00377 5.05869 5.39576 2.66669 8.3371 2.66669ZM6.3371 6.00003C6.3371 4.89603 7.2331 4.00003 8.3371 4.00003C9.4411 4.00003 10.3371 4.89603 10.3371 6.00003C10.3371 7.10403 9.4411 8.00003 8.3371 8.00003C7.2331 8.00003 6.3371 7.10403 6.3371 6.00003ZM31.4878 9.17203C31.3291 9.2347 31.1651 9.26269 31.0038 9.26269C30.4704 9.26269 29.9664 8.94136 29.7611 8.41336L28.2758 4.60669C23.3998 14.9427 14.5771 21.8947 2.0171 25.288C1.9011 25.3187 1.78377 25.3334 1.6691 25.3334C1.0811 25.3334 0.542432 24.9427 0.382432 24.348C0.190432 23.6374 0.610432 22.9054 1.32243 22.712C13.1344 19.5214 21.3984 13.0067 25.9224 3.33603L21.8264 4.93336C21.1371 5.20269 20.3664 4.86003 20.0998 4.17603C19.8318 3.48936 20.1718 2.71736 20.8571 2.44936L26.7251 0.160028C28.0011 -0.341305 29.4558 0.296029 29.9571 1.57603L32.2464 7.44403C32.5144 8.1307 32.1744 8.90269 31.4891 9.17069L31.4878 9.17203ZM31.0038 12V30.6667C31.0038 31.404 30.4064 32 29.6704 32C28.9344 32 28.3371 31.404 28.3371 30.6667V12C28.3371 11.2627 28.9344 10.6667 29.6704 10.6667C30.4064 10.6667 31.0038 11.2627 31.0038 12ZM24.3371 18.6667V30.6667C24.3371 31.404 23.7398 32 23.0038 32C22.2678 32 21.6704 31.404 21.6704 30.6667V18.6667C21.6704 17.9294 22.2678 17.3334 23.0038 17.3334C23.7398 17.3334 24.3371 17.9294 24.3371 18.6667ZM17.6704 24V30.6667C17.6704 31.404 17.0731 32 16.3371 32C15.6011 32 15.0038 31.404 15.0038 30.6667V24C15.0038 23.2627 15.6011 22.6667 16.3371 22.6667C17.0731 22.6667 17.6704 23.2627 17.6704 24ZM11.0038 26.6667V30.6667C11.0038 31.404 10.4064 32 9.67043 32C8.93443 32 8.3371 31.404 8.3371 30.6667V26.6667C8.3371 25.9294 8.93443 25.3334 9.67043 25.3334C10.4064 25.3334 11.0038 25.9294 11.0038 26.6667ZM4.3371 29.3334V30.6667C4.3371 31.404 3.73977 32 3.00377 32C2.26777 32 1.67043 31.404 1.67043 30.6667V29.3334C1.67043 28.596 2.26777 28 3.00377 28C3.73977 28 4.3371 28.596 4.3371 29.3334Z" fill="#8C43D2"/>
</g>
<defs>
<clipPath id="clip0_14741_44610">
<rect width="32" height="32" fill="white" transform="translate(0.335938)"/>
</clipPath>
</defs>
</svg>
