<svg width="35" height="52" viewBox="0 0 35 52" fill="none" xmlns="http://www.w3.org/2000/svg">
<path fill-rule="evenodd" clip-rule="evenodd" d="M33.7266 43.3609C33.8125 44.6367 33.9491 45.9118 33.9626 47.1886C33.9689 47.7714 34.0109 48.5745 33.1116 48.6318C32.0579 48.6986 31.3875 48.0112 31.3198 47.0822C31.0603 43.5393 30.2312 40.1084 29.2942 36.69C28.2567 32.9036 26.8562 29.2285 24.9069 25.8739C23.3236 23.15 21.363 20.5915 19.1727 18.2485C14.6536 13.4126 9.48243 9.3689 4.09612 5.57285C3.67108 5.27342 3.16274 5.0488 2.96021 4.51512C2.87296 4.28401 2.67935 4.0411 2.92767 3.78811C3.15982 3.5507 3.42733 3.6315 3.65879 3.75136C4.22576 4.04526 4.79981 4.33543 5.33013 4.68888C11.6073 8.8683 17.6068 13.3878 22.5999 19.1029C28.7004 26.086 32.4536 34.1491 33.7266 43.3609Z" fill="#0D9488"/>
<path fill-rule="evenodd" clip-rule="evenodd" d="M22.394 41.6082C22.3635 42.4598 22.5887 43.3065 22.3515 44.163C22.2655 44.4732 22.203 44.7474 21.8573 44.8354C20.5901 45.1567 19.2495 44.1399 19.0077 42.8299C17.2635 33.4052 13.2544 25.3646 4.91005 20.0154C4.21477 19.57 3.48679 19.1638 2.7393 18.8139C2.09168 18.5107 1.32912 18.0713 1.59708 17.3997C1.93635 16.5504 2.79876 17.0958 3.37301 17.3247C6.09347 18.4106 8.45552 20.0866 10.7004 21.9362C16.1203 26.4017 19.67 32.1022 21.7475 38.7598C22.0361 39.6848 22.1814 40.6546 22.394 41.6082Z" fill="#0D9488"/>
</svg>
