<svg width="28" height="28" viewBox="0 0 28 28" fill="none" xmlns="http://www.w3.org/2000/svg">
<path d="M25.6654 19.53V5.44833C25.6654 4.04833 24.522 3.01 23.1337 3.12666H23.0637C20.6137 3.33666 16.892 4.585 14.8154 5.89166L14.617 6.02C14.2787 6.23 13.7187 6.23 13.3804 6.02L13.0887 5.845C11.012 4.55 7.30203 3.31333 4.85203 3.115C3.4637 2.99833 2.33203 4.04833 2.33203 5.43666V19.53C2.33203 20.65 3.24203 21.7 4.36203 21.84L4.70036 21.8867C7.23203 22.225 11.1404 23.5083 13.3804 24.7333L13.427 24.7567C13.742 24.9317 14.2437 24.9317 14.547 24.7567C16.787 23.52 20.707 22.225 23.2504 21.8867L23.6354 21.84C24.7554 21.7 25.6654 20.65 25.6654 19.53Z" stroke="#52BDDA" stroke-width="2" stroke-linecap="round" stroke-linejoin="round"/>
<path d="M14 6.40503V23.905" stroke="#52BDDA" stroke-width="2" stroke-linecap="round" stroke-linejoin="round"/>
<path d="M9.04297 9.90503H6.41797" stroke="#52BDDA" stroke-width="2" stroke-linecap="round" stroke-linejoin="round"/>
<path d="M9.91797 13.405H6.41797" stroke="#52BDDA" stroke-width="2" stroke-linecap="round" stroke-linejoin="round"/>
</svg>
