<svg width="28" height="28" viewBox="0 0 28 28" fill="none" xmlns="http://www.w3.org/2000/svg">
<g clip-path="url(#clip0_16190_5387)">
<rect width="28" height="28" rx="14" fill="#FF0000"/>
<path d="M27.3821 4.38462C27.0553 2.66001 26.1118 1.31283 24.904 0.846154C22.7311 0 13.9858 0 13.9858 0C13.9858 0 5.24056 0.0256411 3.06772 0.871795C1.85991 1.33847 0.916418 2.68565 0.589589 4.41026C-0.0676533 9.92308 -0.322649 18.3231 0.607546 23.6154C0.934375 25.34 1.87786 26.6872 3.08567 27.1538C5.25852 28 14.0038 28 14.0038 28C14.0038 28 22.7491 28 24.9219 27.1538C26.1297 26.6872 27.0732 25.34 27.4 23.6154C28.0932 18.0949 28.3069 9.7 27.3821 4.38462Z" fill="#FF0000"/>
<path d="M10 18.2338C10 19.0111 10.848 19.4912 11.5145 19.0913L18.5708 14.8575C19.2182 14.4691 19.2182 13.5309 18.5708 13.1425L11.5145 8.9087C10.848 8.50878 10 8.9889 10 9.76619V18.2338Z" fill="white"/>
</g>
<defs>
<clipPath id="clip0_16190_5387">
<rect width="28" height="28" rx="14" fill="white"/>
</clipPath>
</defs>
</svg>
