<svg width="1920" height="909" viewBox="0 0 1920 909" fill="none" xmlns="http://www.w3.org/2000/svg">
<g clipPath="url(#clip0_20319_4595)">
<g clipPath="url(#clip1_20319_4595)">
<mask id="path-3-inside-1_20319_4595" fill="white">
<path d="M1925.48 -35.1V17.35H1873.03V-35.1H1925.48Z"/>
</mask>
<path d="M1873.03 17.35H1872.48V17.8963H1873.03V17.35ZM1925.48 17.35V16.8036H1873.03V17.35V17.8963H1925.48V17.35ZM1873.03 17.35H1873.57V-35.1H1873.03H1872.48V17.35H1873.03Z" fill="#11C7B7" fill-opacity="0.08" mask="url(#path-3-inside-1_20319_4595)"/>
<mask id="path-5-inside-2_20319_4595" fill="white">
<path d="M1925.48 17.35V69.8H1873.03V17.35L1925.48 17.35Z"/>
</mask>
<path d="M1873.03 69.8H1872.48V70.3463H1873.03V69.8ZM1925.48 69.8V69.2536H1873.03V69.8V70.3463H1925.48V69.8ZM1873.03 69.8H1873.57V17.35H1873.03H1872.48V69.8H1873.03Z" fill="#11C7B7" fill-opacity="0.08" mask="url(#path-5-inside-2_20319_4595)"/>
<mask id="path-7-inside-3_20319_4595" fill="white">
<path d="M1925.48 69.8V122.25H1873.03V69.8H1925.48Z"/>
</mask>
<path d="M1873.03 122.25H1872.48V122.796H1873.03V122.25ZM1925.48 122.25V121.704H1873.03V122.25V122.796H1925.48V122.25ZM1873.03 122.25H1873.57V69.8H1873.03H1872.48V122.25H1873.03Z" fill="#11C7B7" fill-opacity="0.08" mask="url(#path-7-inside-3_20319_4595)"/>
<mask id="path-9-inside-4_20319_4595" fill="white">
<path d="M1925.48 122.25V174.7H1873.03V122.25H1925.48Z"/>
</mask>
<path d="M1873.03 174.7H1872.48V175.246H1873.03V174.7ZM1925.48 174.7V174.154H1873.03V174.7V175.246H1925.48V174.7ZM1873.03 174.7H1873.57V122.25H1873.03H1872.48V174.7H1873.03Z" fill="#11C7B7" fill-opacity="0.08" mask="url(#path-9-inside-4_20319_4595)"/>
<mask id="path-11-inside-5_20319_4595" fill="white">
<path d="M1925.48 174.7V227.15H1873.03V174.7H1925.48Z"/>
</mask>
<path d="M1873.03 227.15H1872.48V227.696H1873.03V227.15ZM1925.48 227.15V226.604H1873.03V227.15V227.696H1925.48V227.15ZM1873.03 227.15H1873.57V174.7H1873.03H1872.48V227.15H1873.03Z" fill="#11C7B7" fill-opacity="0.08" mask="url(#path-11-inside-5_20319_4595)"/>
<mask id="path-13-inside-6_20319_4595" fill="white">
<path d="M1925.48 227.15V279.6H1873.03V227.15H1925.48Z"/>
</mask>
<path d="M1925.48 227.15V279.6H1873.03V227.15H1925.48Z" fill="#0B8E83"/>
<path d="M1873.03 279.6H1872.48V280.146H1873.03V279.6ZM1925.48 279.6V279.054H1873.03V279.6V280.146H1925.48V279.6ZM1873.03 279.6H1873.57V227.15H1873.03H1872.48V279.6H1873.03Z" fill="#11C7B7" fill-opacity="0.08" mask="url(#path-13-inside-6_20319_4595)"/>
<mask id="path-15-inside-7_20319_4595" fill="white">
<path d="M1925.48 279.6V332.05H1873.03V279.6H1925.48Z"/>
</mask>
<path d="M1873.03 332.05H1872.48V332.596H1873.03V332.05ZM1925.48 332.05V331.504H1873.03V332.05V332.596H1925.48V332.05ZM1873.03 332.05H1873.57V279.6H1873.03H1872.48V332.05H1873.03Z" fill="#11C7B7" fill-opacity="0.08" mask="url(#path-15-inside-7_20319_4595)"/>
<mask id="path-17-inside-8_20319_4595" fill="white">
<path d="M1925.48 332.05V384.5H1873.03V332.05H1925.48Z"/>
</mask>
<path d="M1873.03 384.5H1872.48V385.046H1873.03V384.5ZM1925.48 384.5V383.954H1873.03V384.5V385.046H1925.48V384.5ZM1873.03 384.5H1873.57V332.05H1873.03H1872.48V384.5H1873.03Z" fill="#11C7B7" fill-opacity="0.08" mask="url(#path-17-inside-8_20319_4595)"/>
<mask id="path-19-inside-9_20319_4595" fill="white">
<path d="M1925.48 384.5V436.95H1873.03V384.5H1925.48Z"/>
</mask>
<path d="M1873.03 436.95H1872.48V437.496H1873.03V436.95ZM1925.48 436.95V436.404H1873.03V436.95V437.496H1925.48V436.95ZM1873.03 436.95H1873.57V384.5H1873.03H1872.48V436.95H1873.03Z" fill="#11C7B7" fill-opacity="0.08" mask="url(#path-19-inside-9_20319_4595)"/>
<mask id="path-21-inside-10_20319_4595" fill="white">
<path d="M1925.48 436.95V489.4H1873.03V436.95H1925.48Z"/>
</mask>
<path d="M1925.48 436.95V489.4H1873.03V436.95H1925.48Z" fill="#0B8E83"/>
<path d="M1873.03 489.4H1872.48V489.946H1873.03V489.4ZM1925.48 489.4V488.854H1873.03V489.4V489.946H1925.48V489.4ZM1873.03 489.4H1873.57V436.95H1873.03H1872.48V489.4H1873.03Z" fill="#11C7B7" fill-opacity="0.08" mask="url(#path-21-inside-10_20319_4595)"/>
<mask id="path-23-inside-11_20319_4595" fill="white">
<path d="M1925.48 489.4V541.85H1873.03V489.4H1925.48Z"/>
</mask>
<path d="M1873.03 541.85H1872.48V542.396H1873.03V541.85ZM1925.48 541.85V541.304H1873.03V541.85V542.396H1925.48V541.85ZM1873.03 541.85H1873.57V489.4H1873.03H1872.48V541.85H1873.03Z" fill="#11C7B7" fill-opacity="0.08" mask="url(#path-23-inside-11_20319_4595)"/>
<mask id="path-25-inside-12_20319_4595" fill="white">
<path d="M1925.48 541.85V594.3H1873.03V541.85H1925.48Z"/>
</mask>
<path d="M1873.03 594.3H1872.48V594.846H1873.03V594.3ZM1925.48 594.3V593.754H1873.03V594.3V594.846H1925.48V594.3ZM1873.03 594.3H1873.57V541.85H1873.03H1872.48V594.3H1873.03Z" fill="#11C7B7" fill-opacity="0.08" mask="url(#path-25-inside-12_20319_4595)"/>
<mask id="path-27-inside-13_20319_4595" fill="white">
<path d="M1925.48 594.3V646.75H1873.03V594.3H1925.48Z"/>
</mask>
<path d="M1873.03 646.75H1872.48V647.296H1873.03V646.75ZM1925.48 646.75V646.204H1873.03V646.75V647.296H1925.48V646.75ZM1873.03 646.75H1873.57V594.3H1873.03H1872.48V646.75H1873.03Z" fill="#11C7B7" fill-opacity="0.08" mask="url(#path-27-inside-13_20319_4595)"/>
<mask id="path-29-inside-14_20319_4595" fill="white">
<path d="M1925.48 646.75V699.2H1873.03V646.75H1925.48Z"/>
</mask>
<path d="M1873.03 699.2H1872.48V699.746H1873.03V699.2ZM1925.48 699.2V698.654H1873.03V699.2V699.746H1925.48V699.2ZM1873.03 699.2H1873.57V646.75H1873.03H1872.48V699.2H1873.03Z" fill="#11C7B7" fill-opacity="0.08" mask="url(#path-29-inside-14_20319_4595)"/>
<mask id="path-31-inside-15_20319_4595" fill="white">
<path d="M1925.48 699.2V751.65H1873.03V699.2H1925.48Z"/>
</mask>
<path d="M1873.03 751.65H1872.48V752.196H1873.03V751.65ZM1925.48 751.65V751.104H1873.03V751.65V752.196H1925.48V751.65ZM1873.03 751.65H1873.57V699.2H1873.03H1872.48V751.65H1873.03Z" fill="#11C7B7" fill-opacity="0.08" mask="url(#path-31-inside-15_20319_4595)"/>
<mask id="path-33-inside-16_20319_4595" fill="white">
<path d="M1925.48 751.65V804.1H1873.03V751.65H1925.48Z"/>
</mask>
<path d="M1873.03 804.1H1872.48V804.646H1873.03V804.1ZM1925.48 804.1V803.554H1873.03V804.1V804.646H1925.48V804.1ZM1873.03 804.1H1873.57V751.65H1873.03H1872.48V804.1H1873.03Z" fill="#11C7B7" fill-opacity="0.08" mask="url(#path-33-inside-16_20319_4595)"/>
<mask id="path-35-inside-17_20319_4595" fill="white">
<path d="M1925.48 804.1V856.55H1873.03V804.1H1925.48Z"/>
</mask>
<path d="M1873.03 856.55H1872.48V857.097H1873.03V856.55ZM1925.48 856.55V856.004H1873.03V856.55V857.097H1925.48V856.55ZM1873.03 856.55H1873.57V804.1H1873.03H1872.48V856.55H1873.03Z" fill="#11C7B7" fill-opacity="0.08" mask="url(#path-35-inside-17_20319_4595)"/>
<mask id="path-37-inside-18_20319_4595" fill="white">
<path d="M1925.48 856.55V909H1873.03V856.55H1925.48Z"/>
</mask>
<path d="M1873.03 909H1872.48V909.547H1873.03V909ZM1925.48 909V908.454H1873.03V909V909.547H1925.48V909ZM1873.03 909H1873.57V856.55H1873.03H1872.48V909H1873.03Z" fill="#11C7B7" fill-opacity="0.08" mask="url(#path-37-inside-18_20319_4595)"/>
<mask id="path-39-inside-19_20319_4595" fill="white">
<path d="M1873.02 -35.1V17.35H1820.57V-35.1H1873.02Z"/>
</mask>
<path d="M1873.02 -35.1V17.35H1820.57V-35.1H1873.02Z" fill="#0B8E83"/>
<path d="M1820.57 17.35H1820.03V17.8963H1820.57V17.35ZM1873.02 17.35V16.8036H1820.57V17.35V17.8963H1873.02V17.35ZM1820.57 17.35H1821.12V-35.1H1820.57H1820.03V17.35H1820.57Z" fill="#11C7B7" fill-opacity="0.08" mask="url(#path-39-inside-19_20319_4595)"/>
<mask id="path-41-inside-20_20319_4595" fill="white">
<path d="M1873.02 17.35V69.8H1820.57V17.35L1873.02 17.35Z"/>
</mask>
<path d="M1820.57 69.8H1820.03V70.3463H1820.57V69.8ZM1873.02 69.8V69.2536H1820.57V69.8V70.3463H1873.02V69.8ZM1820.57 69.8H1821.12V17.35H1820.57H1820.03V69.8H1820.57Z" fill="#11C7B7" fill-opacity="0.08" mask="url(#path-41-inside-20_20319_4595)"/>
<mask id="path-43-inside-21_20319_4595" fill="white">
<path d="M1873.02 69.8V122.25H1820.57V69.8H1873.02Z"/>
</mask>
<path d="M1820.57 122.25H1820.03V122.796H1820.57V122.25ZM1873.02 122.25V121.704H1820.57V122.25V122.796H1873.02V122.25ZM1820.57 122.25H1821.12V69.8H1820.57H1820.03V122.25H1820.57Z" fill="#11C7B7" fill-opacity="0.08" mask="url(#path-43-inside-21_20319_4595)"/>
<mask id="path-45-inside-22_20319_4595" fill="white">
<path d="M1873.02 122.25V174.7H1820.57V122.25H1873.02Z"/>
</mask>
<path d="M1820.57 174.7H1820.03V175.246H1820.57V174.7ZM1873.02 174.7V174.154H1820.57V174.7V175.246H1873.02V174.7ZM1820.57 174.7H1821.12V122.25H1820.57H1820.03V174.7H1820.57Z" fill="#11C7B7" fill-opacity="0.08" mask="url(#path-45-inside-22_20319_4595)"/>
<mask id="path-47-inside-23_20319_4595" fill="white">
<path d="M1873.02 174.7V227.15H1820.57V174.7H1873.02Z"/>
</mask>
<path d="M1820.57 227.15H1820.03V227.696H1820.57V227.15ZM1873.02 227.15V226.604H1820.57V227.15V227.696H1873.02V227.15ZM1820.57 227.15H1821.12V174.7H1820.57H1820.03V227.15H1820.57Z" fill="#11C7B7" fill-opacity="0.08" mask="url(#path-47-inside-23_20319_4595)"/>
<mask id="path-49-inside-24_20319_4595" fill="white">
<path d="M1873.02 227.15V279.6H1820.57V227.15H1873.02Z"/>
</mask>
<path d="M1820.57 279.6H1820.03V280.146H1820.57V279.6ZM1873.02 279.6V279.054H1820.57V279.6V280.146H1873.02V279.6ZM1820.57 279.6H1821.12V227.15H1820.57H1820.03V279.6H1820.57Z" fill="#11C7B7" fill-opacity="0.08" mask="url(#path-49-inside-24_20319_4595)"/>
<mask id="path-51-inside-25_20319_4595" fill="white">
<path d="M1873.02 279.6V332.05H1820.57V279.6H1873.02Z"/>
</mask>
<path d="M1820.57 332.05H1820.03V332.596H1820.57V332.05ZM1873.02 332.05V331.504H1820.57V332.05V332.596H1873.02V332.05ZM1820.57 332.05H1821.12V279.6H1820.57H1820.03V332.05H1820.57Z" fill="#11C7B7" fill-opacity="0.08" mask="url(#path-51-inside-25_20319_4595)"/>
<mask id="path-53-inside-26_20319_4595" fill="white">
<path d="M1873.02 332.05V384.5H1820.57V332.05H1873.02Z"/>
</mask>
<path d="M1820.57 384.5H1820.03V385.046H1820.57V384.5ZM1873.02 384.5V383.954H1820.57V384.5V385.046H1873.02V384.5ZM1820.57 384.5H1821.12V332.05H1820.57H1820.03V384.5H1820.57Z" fill="#11C7B7" fill-opacity="0.08" mask="url(#path-53-inside-26_20319_4595)"/>
<mask id="path-55-inside-27_20319_4595" fill="white">
<path d="M1873.02 384.5V436.95H1820.57V384.5H1873.02Z"/>
</mask>
<path d="M1820.57 436.95H1820.03V437.496H1820.57V436.95ZM1873.02 436.95V436.404H1820.57V436.95V437.496H1873.02V436.95ZM1820.57 436.95H1821.12V384.5H1820.57H1820.03V436.95H1820.57Z" fill="#11C7B7" fill-opacity="0.08" mask="url(#path-55-inside-27_20319_4595)"/>
<mask id="path-57-inside-28_20319_4595" fill="white">
<path d="M1873.02 436.95V489.4H1820.57V436.95H1873.02Z"/>
</mask>
<path d="M1820.57 489.4H1820.03V489.946H1820.57V489.4ZM1873.02 489.4V488.854H1820.57V489.4V489.946H1873.02V489.4ZM1820.57 489.4H1821.12V436.95H1820.57H1820.03V489.4H1820.57Z" fill="#11C7B7" fill-opacity="0.08" mask="url(#path-57-inside-28_20319_4595)"/>
<mask id="path-59-inside-29_20319_4595" fill="white">
<path d="M1873.02 489.4V541.85H1820.57V489.4H1873.02Z"/>
</mask>
<path d="M1820.57 541.85H1820.03V542.396H1820.57V541.85ZM1873.02 541.85V541.304H1820.57V541.85V542.396H1873.02V541.85ZM1820.57 541.85H1821.12V489.4H1820.57H1820.03V541.85H1820.57Z" fill="#11C7B7" fill-opacity="0.08" mask="url(#path-59-inside-29_20319_4595)"/>
<mask id="path-61-inside-30_20319_4595" fill="white">
<path d="M1873.02 541.85V594.3H1820.57V541.85H1873.02Z"/>
</mask>
<path d="M1820.57 594.3H1820.03V594.846H1820.57V594.3ZM1873.02 594.3V593.754H1820.57V594.3V594.846H1873.02V594.3ZM1820.57 594.3H1821.12V541.85H1820.57H1820.03V594.3H1820.57Z" fill="#11C7B7" fill-opacity="0.08" mask="url(#path-61-inside-30_20319_4595)"/>
<mask id="path-63-inside-31_20319_4595" fill="white">
<path d="M1873.02 594.3V646.75H1820.57V594.3H1873.02Z"/>
</mask>
<path d="M1873.02 594.3V646.75H1820.57V594.3H1873.02Z" fill="#0B8E83"/>
<path d="M1820.57 646.75H1820.03V647.296H1820.57V646.75ZM1873.02 646.75V646.204H1820.57V646.75V647.296H1873.02V646.75ZM1820.57 646.75H1821.12V594.3H1820.57H1820.03V646.75H1820.57Z" fill="#11C7B7" fill-opacity="0.08" mask="url(#path-63-inside-31_20319_4595)"/>
<mask id="path-65-inside-32_20319_4595" fill="white">
<path d="M1873.02 646.75V699.2H1820.57V646.75H1873.02Z"/>
</mask>
<path d="M1820.57 699.2H1820.03V699.746H1820.57V699.2ZM1873.02 699.2V698.654H1820.57V699.2V699.746H1873.02V699.2ZM1820.57 699.2H1821.12V646.75H1820.57H1820.03V699.2H1820.57Z" fill="#11C7B7" fill-opacity="0.08" mask="url(#path-65-inside-32_20319_4595)"/>
<mask id="path-67-inside-33_20319_4595" fill="white">
<path d="M1873.02 699.2V751.65H1820.57V699.2H1873.02Z"/>
</mask>
<path d="M1820.57 751.65H1820.03V752.196H1820.57V751.65ZM1873.02 751.65V751.104H1820.57V751.65V752.196H1873.02V751.65ZM1820.57 751.65H1821.12V699.2H1820.57H1820.03V751.65H1820.57Z" fill="#11C7B7" fill-opacity="0.08" mask="url(#path-67-inside-33_20319_4595)"/>
<mask id="path-69-inside-34_20319_4595" fill="white">
<path d="M1873.02 751.65V804.1H1820.57V751.65H1873.02Z"/>
</mask>
<path d="M1820.57 804.1H1820.03V804.646H1820.57V804.1ZM1873.02 804.1V803.554H1820.57V804.1V804.646H1873.02V804.1ZM1820.57 804.1H1821.12V751.65H1820.57H1820.03V804.1H1820.57Z" fill="#11C7B7" fill-opacity="0.08" mask="url(#path-69-inside-34_20319_4595)"/>
<mask id="path-71-inside-35_20319_4595" fill="white">
<path d="M1873.02 804.1V856.55H1820.57V804.1H1873.02Z"/>
</mask>
<path d="M1820.57 856.55H1820.03V857.097H1820.57V856.55ZM1873.02 856.55V856.004H1820.57V856.55V857.097H1873.02V856.55ZM1820.57 856.55H1821.12V804.1H1820.57H1820.03V856.55H1820.57Z" fill="#11C7B7" fill-opacity="0.08" mask="url(#path-71-inside-35_20319_4595)"/>
<mask id="path-73-inside-36_20319_4595" fill="white">
<path d="M1873.02 856.55V909H1820.57V856.55H1873.02Z"/>
</mask>
<path d="M1820.57 909H1820.03V909.547H1820.57V909ZM1873.02 909V908.454H1820.57V909V909.547H1873.02V909ZM1820.57 909H1821.12V856.55H1820.57H1820.03V909H1820.57Z" fill="#11C7B7" fill-opacity="0.08" mask="url(#path-73-inside-36_20319_4595)"/>
<mask id="path-75-inside-37_20319_4595" fill="white">
<path d="M1820.57 -35.1V17.35H1768.12V-35.1H1820.57Z"/>
</mask>
<path d="M1768.12 17.35H1767.58V17.8963H1768.12V17.35ZM1820.57 17.35V16.8036H1768.12V17.35V17.8963H1820.57V17.35ZM1768.12 17.35H1768.67V-35.1H1768.12H1767.58V17.35H1768.12Z" fill="#11C7B7" fill-opacity="0.08" mask="url(#path-75-inside-37_20319_4595)"/>
<mask id="path-77-inside-38_20319_4595" fill="white">
<path d="M1820.57 17.35V69.8H1768.12V17.35L1820.57 17.35Z"/>
</mask>
<path d="M1768.12 69.8H1767.58V70.3463H1768.12V69.8ZM1820.57 69.8V69.2536H1768.12V69.8V70.3463H1820.57V69.8ZM1768.12 69.8H1768.67V17.35H1768.12H1767.58V69.8H1768.12Z" fill="#11C7B7" fill-opacity="0.08" mask="url(#path-77-inside-38_20319_4595)"/>
<mask id="path-79-inside-39_20319_4595" fill="white">
<path d="M1820.57 69.8V122.25H1768.12V69.8H1820.57Z"/>
</mask>
<path d="M1768.12 122.25H1767.58V122.796H1768.12V122.25ZM1820.57 122.25V121.704H1768.12V122.25V122.796H1820.57V122.25ZM1768.12 122.25H1768.67V69.8H1768.12H1767.58V122.25H1768.12Z" fill="#11C7B7" fill-opacity="0.08" mask="url(#path-79-inside-39_20319_4595)"/>
<mask id="path-81-inside-40_20319_4595" fill="white">
<path d="M1820.57 122.25V174.7H1768.12V122.25H1820.57Z"/>
</mask>
<path d="M1768.12 174.7H1767.58V175.246H1768.12V174.7ZM1820.57 174.7V174.154H1768.12V174.7V175.246H1820.57V174.7ZM1768.12 174.7H1768.67V122.25H1768.12H1767.58V174.7H1768.12Z" fill="#11C7B7" fill-opacity="0.08" mask="url(#path-81-inside-40_20319_4595)"/>
<mask id="path-83-inside-41_20319_4595" fill="white">
<path d="M1820.57 174.7V227.15H1768.12V174.7H1820.57Z"/>
</mask>
<path d="M1768.12 227.15H1767.58V227.696H1768.12V227.15ZM1820.57 227.15V226.604H1768.12V227.15V227.696H1820.57V227.15ZM1768.12 227.15H1768.67V174.7H1768.12H1767.58V227.15H1768.12Z" fill="#11C7B7" fill-opacity="0.08" mask="url(#path-83-inside-41_20319_4595)"/>
<mask id="path-85-inside-42_20319_4595" fill="white">
<path d="M1820.57 227.15V279.6H1768.12V227.15H1820.57Z"/>
</mask>
<path d="M1768.12 279.6H1767.58V280.146H1768.12V279.6ZM1820.57 279.6V279.054H1768.12V279.6V280.146H1820.57V279.6ZM1768.12 279.6H1768.67V227.15H1768.12H1767.58V279.6H1768.12Z" fill="#11C7B7" fill-opacity="0.08" mask="url(#path-85-inside-42_20319_4595)"/>
<mask id="path-87-inside-43_20319_4595" fill="white">
<path d="M1820.57 279.6V332.05H1768.12V279.6H1820.57Z"/>
</mask>
<path d="M1820.57 279.6V332.05H1768.12V279.6H1820.57Z" fill="#0B8E83"/>
<path d="M1768.12 332.05H1767.58V332.596H1768.12V332.05ZM1820.57 332.05V331.504H1768.12V332.05V332.596H1820.57V332.05ZM1768.12 332.05H1768.67V279.6H1768.12H1767.58V332.05H1768.12Z" fill="#11C7B7" fill-opacity="0.08" mask="url(#path-87-inside-43_20319_4595)"/>
<mask id="path-89-inside-44_20319_4595" fill="white">
<path d="M1820.57 332.05V384.5H1768.12V332.05H1820.57Z"/>
</mask>
<path d="M1768.12 384.5H1767.58V385.046H1768.12V384.5ZM1820.57 384.5V383.954H1768.12V384.5V385.046H1820.57V384.5ZM1768.12 384.5H1768.67V332.05H1768.12H1767.58V384.5H1768.12Z" fill="#11C7B7" fill-opacity="0.08" mask="url(#path-89-inside-44_20319_4595)"/>
<mask id="path-91-inside-45_20319_4595" fill="white">
<path d="M1820.57 384.5V436.95H1768.12V384.5H1820.57Z"/>
</mask>
<path d="M1768.12 436.95H1767.58V437.496H1768.12V436.95ZM1820.57 436.95V436.404H1768.12V436.95V437.496H1820.57V436.95ZM1768.12 436.95H1768.67V384.5H1768.12H1767.58V436.95H1768.12Z" fill="#11C7B7" fill-opacity="0.08" mask="url(#path-91-inside-45_20319_4595)"/>
<mask id="path-93-inside-46_20319_4595" fill="white">
<path d="M1820.57 436.95V489.4H1768.12V436.95H1820.57Z"/>
</mask>
<path d="M1768.12 489.4H1767.58V489.946H1768.12V489.4ZM1820.57 489.4V488.854H1768.12V489.4V489.946H1820.57V489.4ZM1768.12 489.4H1768.67V436.95H1768.12H1767.58V489.4H1768.12Z" fill="#11C7B7" fill-opacity="0.08" mask="url(#path-93-inside-46_20319_4595)"/>
<mask id="path-95-inside-47_20319_4595" fill="white">
<path d="M1820.57 489.4V541.85H1768.12V489.4H1820.57Z"/>
</mask>
<path d="M1768.12 541.85H1767.58V542.396H1768.12V541.85ZM1820.57 541.85V541.304H1768.12V541.85V542.396H1820.57V541.85ZM1768.12 541.85H1768.67V489.4H1768.12H1767.58V541.85H1768.12Z" fill="#11C7B7" fill-opacity="0.08" mask="url(#path-95-inside-47_20319_4595)"/>
<mask id="path-97-inside-48_20319_4595" fill="white">
<path d="M1820.57 541.85V594.3H1768.12V541.85H1820.57Z"/>
</mask>
<path d="M1768.12 594.3H1767.58V594.846H1768.12V594.3ZM1820.57 594.3V593.754H1768.12V594.3V594.846H1820.57V594.3ZM1768.12 594.3H1768.67V541.85H1768.12H1767.58V594.3H1768.12Z" fill="#11C7B7" fill-opacity="0.08" mask="url(#path-97-inside-48_20319_4595)"/>
<mask id="path-99-inside-49_20319_4595" fill="white">
<path d="M1820.57 594.3V646.75H1768.12V594.3H1820.57Z"/>
</mask>
<path d="M1768.12 646.75H1767.58V647.296H1768.12V646.75ZM1820.57 646.75V646.204H1768.12V646.75V647.296H1820.57V646.75ZM1768.12 646.75H1768.67V594.3H1768.12H1767.58V646.75H1768.12Z" fill="#11C7B7" fill-opacity="0.08" mask="url(#path-99-inside-49_20319_4595)"/>
<mask id="path-101-inside-50_20319_4595" fill="white">
<path d="M1820.57 646.75V699.2H1768.12V646.75H1820.57Z"/>
</mask>
<path d="M1768.12 699.2H1767.58V699.746H1768.12V699.2ZM1820.57 699.2V698.654H1768.12V699.2V699.746H1820.57V699.2ZM1768.12 699.2H1768.67V646.75H1768.12H1767.58V699.2H1768.12Z" fill="#11C7B7" fill-opacity="0.08" mask="url(#path-101-inside-50_20319_4595)"/>
<mask id="path-103-inside-51_20319_4595" fill="white">
<path d="M1820.57 699.2V751.65H1768.12V699.2H1820.57Z"/>
</mask>
<path d="M1768.12 751.65H1767.58V752.196H1768.12V751.65ZM1820.57 751.65V751.104H1768.12V751.65V752.196H1820.57V751.65ZM1768.12 751.65H1768.67V699.2H1768.12H1767.58V751.65H1768.12Z" fill="#11C7B7" fill-opacity="0.08" mask="url(#path-103-inside-51_20319_4595)"/>
<mask id="path-105-inside-52_20319_4595" fill="white">
<path d="M1820.57 751.65V804.1H1768.12V751.65H1820.57Z"/>
</mask>
<path d="M1768.12 804.1H1767.58V804.646H1768.12V804.1ZM1820.57 804.1V803.554H1768.12V804.1V804.646H1820.57V804.1ZM1768.12 804.1H1768.67V751.65H1768.12H1767.58V804.1H1768.12Z" fill="#11C7B7" fill-opacity="0.08" mask="url(#path-105-inside-52_20319_4595)"/>
<mask id="path-107-inside-53_20319_4595" fill="white">
<path d="M1820.57 804.1V856.55H1768.12V804.1H1820.57Z"/>
</mask>
<path d="M1820.57 804.1V856.55H1768.12V804.1H1820.57Z" fill="#0B8E83"/>
<path d="M1768.12 856.55H1767.58V857.097H1768.12V856.55ZM1820.57 856.55V856.004H1768.12V856.55V857.097H1820.57V856.55ZM1768.12 856.55H1768.67V804.1H1768.12H1767.58V856.55H1768.12Z" fill="#11C7B7" fill-opacity="0.08" mask="url(#path-107-inside-53_20319_4595)"/>
<mask id="path-109-inside-54_20319_4595" fill="white">
<path d="M1820.57 856.55V909H1768.12V856.55H1820.57Z"/>
</mask>
<path d="M1768.12 909H1767.58V909.547H1768.12V909ZM1820.57 909V908.454H1768.12V909V909.547H1820.57V909ZM1768.12 909H1768.67V856.55H1768.12H1767.58V909H1768.12Z" fill="#11C7B7" fill-opacity="0.08" mask="url(#path-109-inside-54_20319_4595)"/>
<mask id="path-111-inside-55_20319_4595" fill="white">
<path d="M1768.12 -35.0999V17.3501H1715.68V-35.0999H1768.12Z"/>
</mask>
<path d="M1715.68 17.3501H1715.13V17.8964H1715.68V17.3501ZM1768.12 17.3501V16.8037H1715.68V17.3501V17.8964H1768.12V17.3501ZM1715.68 17.3501H1716.22V-35.0999H1715.68H1715.13V17.3501H1715.68Z" fill="#11C7B7" fill-opacity="0.08" mask="url(#path-111-inside-55_20319_4595)"/>
<mask id="path-113-inside-56_20319_4595" fill="white">
<path d="M1768.12 17.3499V69.7999H1715.68V17.3499L1768.12 17.3499Z"/>
</mask>
<path d="M1715.68 69.7999H1715.13V70.3463H1715.68V69.7999ZM1768.12 69.7999V69.2536H1715.68V69.7999V70.3463H1768.12V69.7999ZM1715.68 69.7999H1716.22V17.3499H1715.68H1715.13V69.7999H1715.68Z" fill="#11C7B7" fill-opacity="0.08" mask="url(#path-113-inside-56_20319_4595)"/>
<mask id="path-115-inside-57_20319_4595" fill="white">
<path d="M1768.12 69.8001V122.25H1715.68V69.8001H1768.12Z"/>
</mask>
<path d="M1715.68 122.25H1715.13V122.796H1715.68V122.25ZM1768.12 122.25V121.704H1715.68V122.25V122.796H1768.12V122.25ZM1715.68 122.25H1716.22V69.8001H1715.68H1715.13V122.25H1715.68Z" fill="#11C7B7" fill-opacity="0.08" mask="url(#path-115-inside-57_20319_4595)"/>
<mask id="path-117-inside-58_20319_4595" fill="white">
<path d="M1768.12 122.25V174.7H1715.68V122.25H1768.12Z"/>
</mask>
<path d="M1768.12 122.25V174.7H1715.68V122.25H1768.12Z" fill="#0B8E83"/>
<path d="M1715.68 174.7H1715.13V175.246H1715.68V174.7ZM1768.12 174.7V174.154H1715.68V174.7V175.246H1768.12V174.7ZM1715.68 174.7H1716.22V122.25H1715.68H1715.13V174.7H1715.68Z" fill="#11C7B7" fill-opacity="0.08" mask="url(#path-117-inside-58_20319_4595)"/>
<mask id="path-119-inside-59_20319_4595" fill="white">
<path d="M1768.12 174.7V227.15H1715.68V174.7H1768.12Z"/>
</mask>
<path d="M1715.68 227.15H1715.13V227.696H1715.68V227.15ZM1768.12 227.15V226.604H1715.68V227.15V227.696H1768.12V227.15ZM1715.68 227.15H1716.22V174.7H1715.68H1715.13V227.15H1715.68Z" fill="#11C7B7" fill-opacity="0.08" mask="url(#path-119-inside-59_20319_4595)"/>
<mask id="path-121-inside-60_20319_4595" fill="white">
<path d="M1768.12 227.15V279.6H1715.68V227.15H1768.12Z"/>
</mask>
<path d="M1715.68 279.6H1715.13V280.146H1715.68V279.6ZM1768.12 279.6V279.054H1715.68V279.6V280.146H1768.12V279.6ZM1715.68 279.6H1716.22V227.15H1715.68H1715.13V279.6H1715.68Z" fill="#11C7B7" fill-opacity="0.08" mask="url(#path-121-inside-60_20319_4595)"/>
<mask id="path-123-inside-61_20319_4595" fill="white">
<path d="M1768.12 279.6V332.05H1715.68V279.6H1768.12Z"/>
</mask>
<path d="M1715.68 332.05H1715.13V332.597H1715.68V332.05ZM1768.12 332.05V331.504H1715.68V332.05V332.597H1768.12V332.05ZM1715.68 332.05H1716.22V279.6H1715.68H1715.13V332.05H1715.68Z" fill="#11C7B7" fill-opacity="0.08" mask="url(#path-123-inside-61_20319_4595)"/>
<mask id="path-125-inside-62_20319_4595" fill="white">
<path d="M1768.12 332.05V384.5H1715.68V332.05H1768.12Z"/>
</mask>
<path d="M1715.68 384.5H1715.13V385.046H1715.68V384.5ZM1768.12 384.5V383.954H1715.68V384.5V385.046H1768.12V384.5ZM1715.68 384.5H1716.22V332.05H1715.68H1715.13V384.5H1715.68Z" fill="#11C7B7" fill-opacity="0.08" mask="url(#path-125-inside-62_20319_4595)"/>
<mask id="path-127-inside-63_20319_4595" fill="white">
<path d="M1768.12 384.5V436.95H1715.68V384.5H1768.12Z"/>
</mask>
<path d="M1715.68 436.95H1715.13V437.496H1715.68V436.95ZM1768.12 436.95V436.404H1715.68V436.95V437.496H1768.12V436.95ZM1715.68 436.95H1716.22V384.5H1715.68H1715.13V436.95H1715.68Z" fill="#11C7B7" fill-opacity="0.08" mask="url(#path-127-inside-63_20319_4595)"/>
<mask id="path-129-inside-64_20319_4595" fill="white">
<path d="M1768.12 436.95V489.4H1715.68V436.95H1768.12Z"/>
</mask>
<path d="M1768.12 436.95V489.4H1715.68V436.95H1768.12Z" fill="#0B8E83"/>
<path d="M1715.68 489.4H1715.13V489.946H1715.68V489.4ZM1768.12 489.4V488.854H1715.68V489.4V489.946H1768.12V489.4ZM1715.68 489.4H1716.22V436.95H1715.68H1715.13V489.4H1715.68Z" fill="#11C7B7" fill-opacity="0.08" mask="url(#path-129-inside-64_20319_4595)"/>
<mask id="path-131-inside-65_20319_4595" fill="white">
<path d="M1768.12 489.4V541.85H1715.68V489.4H1768.12Z"/>
</mask>
<path d="M1715.68 541.85H1715.13V542.396H1715.68V541.85ZM1768.12 541.85V541.304H1715.68V541.85V542.396H1768.12V541.85ZM1715.68 541.85H1716.22V489.4H1715.68H1715.13V541.85H1715.68Z" fill="#11C7B7" fill-opacity="0.08" mask="url(#path-131-inside-65_20319_4595)"/>
<mask id="path-133-inside-66_20319_4595" fill="white">
<path d="M1768.12 541.85V594.3H1715.68V541.85H1768.12Z"/>
</mask>
<path d="M1715.68 594.3H1715.13V594.846H1715.68V594.3ZM1768.12 594.3V593.754H1715.68V594.3V594.846H1768.12V594.3ZM1715.68 594.3H1716.22V541.85H1715.68H1715.13V594.3H1715.68Z" fill="#11C7B7" fill-opacity="0.08" mask="url(#path-133-inside-66_20319_4595)"/>
<mask id="path-135-inside-67_20319_4595" fill="white">
<path d="M1768.12 594.3V646.75H1715.68V594.3H1768.12Z"/>
</mask>
<path d="M1715.68 646.75H1715.13V647.296H1715.68V646.75ZM1768.12 646.75V646.204H1715.68V646.75V647.296H1768.12V646.75ZM1715.68 646.75H1716.22V594.3H1715.68H1715.13V646.75H1715.68Z" fill="#11C7B7" fill-opacity="0.08" mask="url(#path-135-inside-67_20319_4595)"/>
<mask id="path-137-inside-68_20319_4595" fill="white">
<path d="M1768.12 646.75V699.2H1715.68V646.75H1768.12Z"/>
</mask>
<path d="M1715.68 699.2H1715.13V699.746H1715.68V699.2ZM1768.12 699.2V698.654H1715.68V699.2V699.746H1768.12V699.2ZM1715.68 699.2H1716.22V646.75H1715.68H1715.13V699.2H1715.68Z" fill="#11C7B7" fill-opacity="0.08" mask="url(#path-137-inside-68_20319_4595)"/>
<mask id="path-139-inside-69_20319_4595" fill="white">
<path d="M1768.12 699.2V751.65H1715.68V699.2H1768.12Z"/>
</mask>
<path d="M1715.68 751.65H1715.13V752.196H1715.68V751.65ZM1768.12 751.65V751.104H1715.68V751.65V752.196H1768.12V751.65ZM1715.68 751.65H1716.22V699.2H1715.68H1715.13V751.65H1715.68Z" fill="#11C7B7" fill-opacity="0.08" mask="url(#path-139-inside-69_20319_4595)"/>
<mask id="path-141-inside-70_20319_4595" fill="white">
<path d="M1768.12 751.65V804.1H1715.68V751.65H1768.12Z"/>
</mask>
<path d="M1715.68 804.1H1715.13V804.646H1715.68V804.1ZM1768.12 804.1V803.554H1715.68V804.1V804.646H1768.12V804.1ZM1715.68 804.1H1716.22V751.65H1715.68H1715.13V804.1H1715.68Z" fill="#11C7B7" fill-opacity="0.08" mask="url(#path-141-inside-70_20319_4595)"/>
<mask id="path-143-inside-71_20319_4595" fill="white">
<path d="M1768.12 804.1V856.55H1715.68V804.1H1768.12Z"/>
</mask>
<path d="M1715.68 856.55H1715.13V857.097H1715.68V856.55ZM1768.12 856.55V856.004H1715.68V856.55V857.097H1768.12V856.55ZM1715.68 856.55H1716.22V804.1H1715.68H1715.13V856.55H1715.68Z" fill="#11C7B7" fill-opacity="0.08" mask="url(#path-143-inside-71_20319_4595)"/>
<mask id="path-145-inside-72_20319_4595" fill="white">
<path d="M1768.12 856.55V909H1715.68V856.55H1768.12Z"/>
</mask>
<path d="M1715.68 909H1715.13V909.547H1715.68V909ZM1768.12 909V908.454H1715.68V909V909.547H1768.12V909ZM1715.68 909H1716.22V856.55H1715.68H1715.13V909H1715.68Z" fill="#11C7B7" fill-opacity="0.08" mask="url(#path-145-inside-72_20319_4595)"/>
<mask id="path-147-inside-73_20319_4595" fill="white">
<path d="M1715.68 -35.1V17.35H1663.23V-35.1H1715.68Z"/>
</mask>
<path d="M1663.23 17.35H1662.68V17.8963H1663.23V17.35ZM1715.68 17.35V16.8036H1663.23V17.35V17.8963H1715.68V17.35ZM1663.23 17.35H1663.77V-35.1H1663.23H1662.68V17.35H1663.23Z" fill="#11C7B7" fill-opacity="0.08" mask="url(#path-147-inside-73_20319_4595)"/>
<mask id="path-149-inside-74_20319_4595" fill="white">
<path d="M1715.68 17.35V69.8H1663.23V17.35L1715.68 17.35Z"/>
</mask>
<path d="M1715.68 17.35V69.8H1663.23V17.35L1715.68 17.35Z" fill="#0B8E83"/>
<path d="M1663.23 69.8H1662.68V70.3463H1663.23V69.8ZM1715.68 69.8V69.2536H1663.23V69.8V70.3463H1715.68V69.8ZM1663.23 69.8H1663.77V17.35H1663.23H1662.68V69.8H1663.23Z" fill="#11C7B7" fill-opacity="0.08" mask="url(#path-149-inside-74_20319_4595)"/>
<mask id="path-151-inside-75_20319_4595" fill="white">
<path d="M1715.68 69.8V122.25H1663.23V69.8H1715.68Z"/>
</mask>
<path d="M1663.23 122.25H1662.68V122.796H1663.23V122.25ZM1715.68 122.25V121.704H1663.23V122.25V122.796H1715.68V122.25ZM1663.23 122.25H1663.77V69.8H1663.23H1662.68V122.25H1663.23Z" fill="#11C7B7" fill-opacity="0.08" mask="url(#path-151-inside-75_20319_4595)"/>
<mask id="path-153-inside-76_20319_4595" fill="white">
<path d="M1715.68 122.25V174.7H1663.23V122.25H1715.68Z"/>
</mask>
<path d="M1663.23 174.7H1662.68V175.246H1663.23V174.7ZM1715.68 174.7V174.154H1663.23V174.7V175.246H1715.68V174.7ZM1663.23 174.7H1663.77V122.25H1663.23H1662.68V174.7H1663.23Z" fill="#11C7B7" fill-opacity="0.08" mask="url(#path-153-inside-76_20319_4595)"/>
<mask id="path-155-inside-77_20319_4595" fill="white">
<path d="M1715.68 174.7V227.15H1663.23V174.7H1715.68Z"/>
</mask>
<path d="M1663.23 227.15H1662.68V227.696H1663.23V227.15ZM1715.68 227.15V226.604H1663.23V227.15V227.696H1715.68V227.15ZM1663.23 227.15H1663.77V174.7H1663.23H1662.68V227.15H1663.23Z" fill="#11C7B7" fill-opacity="0.08" mask="url(#path-155-inside-77_20319_4595)"/>
<mask id="path-157-inside-78_20319_4595" fill="white">
<path d="M1715.68 227.15V279.6H1663.23V227.15H1715.68Z"/>
</mask>
<path d="M1663.23 279.6H1662.68V280.146H1663.23V279.6ZM1715.68 279.6V279.054H1663.23V279.6V280.146H1715.68V279.6ZM1663.23 279.6H1663.77V227.15H1663.23H1662.68V279.6H1663.23Z" fill="#11C7B7" fill-opacity="0.08" mask="url(#path-157-inside-78_20319_4595)"/>
<mask id="path-159-inside-79_20319_4595" fill="white">
<path d="M1715.68 279.6V332.05H1663.23V279.6H1715.68Z"/>
</mask>
<path d="M1663.23 332.05H1662.68V332.596H1663.23V332.05ZM1715.68 332.05V331.504H1663.23V332.05V332.596H1715.68V332.05ZM1663.23 332.05H1663.77V279.6H1663.23H1662.68V332.05H1663.23Z" fill="#11C7B7" fill-opacity="0.08" mask="url(#path-159-inside-79_20319_4595)"/>
<mask id="path-161-inside-80_20319_4595" fill="white">
<path d="M1715.68 332.05V384.5H1663.23V332.05H1715.68Z"/>
</mask>
<path d="M1663.23 384.5H1662.68V385.046H1663.23V384.5ZM1715.68 384.5V383.954H1663.23V384.5V385.046H1715.68V384.5ZM1663.23 384.5H1663.77V332.05H1663.23H1662.68V384.5H1663.23Z" fill="#11C7B7" fill-opacity="0.08" mask="url(#path-161-inside-80_20319_4595)"/>
<mask id="path-163-inside-81_20319_4595" fill="white">
<path d="M1715.68 384.5V436.95H1663.23V384.5H1715.68Z"/>
</mask>
<path d="M1663.23 436.95H1662.68V437.496H1663.23V436.95ZM1715.68 436.95V436.404H1663.23V436.95V437.496H1715.68V436.95ZM1663.23 436.95H1663.77V384.5H1663.23H1662.68V436.95H1663.23Z" fill="#11C7B7" fill-opacity="0.08" mask="url(#path-163-inside-81_20319_4595)"/>
<mask id="path-165-inside-82_20319_4595" fill="white">
<path d="M1715.68 436.95V489.4H1663.23V436.95H1715.68Z"/>
</mask>
<path d="M1663.23 489.4H1662.68V489.946H1663.23V489.4ZM1715.68 489.4V488.854H1663.23V489.4V489.946H1715.68V489.4ZM1663.23 489.4H1663.77V436.95H1663.23H1662.68V489.4H1663.23Z" fill="#11C7B7" fill-opacity="0.08" mask="url(#path-165-inside-82_20319_4595)"/>
<mask id="path-167-inside-83_20319_4595" fill="white">
<path d="M1715.68 489.4V541.85H1663.23V489.4H1715.68Z"/>
</mask>
<path d="M1663.23 541.85H1662.68V542.396H1663.23V541.85ZM1715.68 541.85V541.304H1663.23V541.85V542.396H1715.68V541.85ZM1663.23 541.85H1663.77V489.4H1663.23H1662.68V541.85H1663.23Z" fill="#11C7B7" fill-opacity="0.08" mask="url(#path-167-inside-83_20319_4595)"/>
<mask id="path-169-inside-84_20319_4595" fill="white">
<path d="M1715.68 541.85V594.3H1663.23V541.85H1715.68Z"/>
</mask>
<path d="M1663.23 594.3H1662.68V594.846H1663.23V594.3ZM1715.68 594.3V593.754H1663.23V594.3V594.846H1715.68V594.3ZM1663.23 594.3H1663.77V541.85H1663.23H1662.68V594.3H1663.23Z" fill="#11C7B7" fill-opacity="0.08" mask="url(#path-169-inside-84_20319_4595)"/>
<mask id="path-171-inside-85_20319_4595" fill="white">
<path d="M1715.68 594.3V646.75H1663.23V594.3H1715.68Z"/>
</mask>
<path d="M1663.23 646.75H1662.68V647.296H1663.23V646.75ZM1715.68 646.75V646.204H1663.23V646.75V647.296H1715.68V646.75ZM1663.23 646.75H1663.77V594.3H1663.23H1662.68V646.75H1663.23Z" fill="#11C7B7" fill-opacity="0.08" mask="url(#path-171-inside-85_20319_4595)"/>
<mask id="path-173-inside-86_20319_4595" fill="white">
<path d="M1715.68 646.75V699.2H1663.23V646.75H1715.68Z"/>
</mask>
<path d="M1663.23 699.2H1662.68V699.746H1663.23V699.2ZM1715.68 699.2V698.654H1663.23V699.2V699.746H1715.68V699.2ZM1663.23 699.2H1663.77V646.75H1663.23H1662.68V699.2H1663.23Z" fill="#11C7B7" fill-opacity="0.08" mask="url(#path-173-inside-86_20319_4595)"/>
<mask id="path-175-inside-87_20319_4595" fill="white">
<path d="M1715.68 699.2V751.65H1663.23V699.2H1715.68Z"/>
</mask>
<path d="M1715.68 699.2V751.65H1663.23V699.2H1715.68Z" fill="#0B8E83"/>
<path d="M1663.23 751.65H1662.68V752.196H1663.23V751.65ZM1715.68 751.65V751.104H1663.23V751.65V752.196H1715.68V751.65ZM1663.23 751.65H1663.77V699.2H1663.23H1662.68V751.65H1663.23Z" fill="#11C7B7" fill-opacity="0.08" mask="url(#path-175-inside-87_20319_4595)"/>
<mask id="path-177-inside-88_20319_4595" fill="white">
<path d="M1715.68 751.65V804.1H1663.23V751.65H1715.68Z"/>
</mask>
<path d="M1663.23 804.1H1662.68V804.646H1663.23V804.1ZM1715.68 804.1V803.554H1663.23V804.1V804.646H1715.68V804.1ZM1663.23 804.1H1663.77V751.65H1663.23H1662.68V804.1H1663.23Z" fill="#11C7B7" fill-opacity="0.08" mask="url(#path-177-inside-88_20319_4595)"/>
<mask id="path-179-inside-89_20319_4595" fill="white">
<path d="M1715.68 804.1V856.55H1663.23V804.1H1715.68Z"/>
</mask>
<path d="M1663.23 856.55H1662.68V857.097H1663.23V856.55ZM1715.68 856.55V856.004H1663.23V856.55V857.097H1715.68V856.55ZM1663.23 856.55H1663.77V804.1H1663.23H1662.68V856.55H1663.23Z" fill="#11C7B7" fill-opacity="0.08" mask="url(#path-179-inside-89_20319_4595)"/>
<mask id="path-181-inside-90_20319_4595" fill="white">
<path d="M1715.68 856.55V909H1663.23V856.55H1715.68Z"/>
</mask>
<path d="M1663.23 909H1662.68V909.547H1663.23V909ZM1715.68 909V908.454H1663.23V909V909.547H1715.68V909ZM1663.23 909H1663.77V856.55H1663.23H1662.68V909H1663.23Z" fill="#11C7B7" fill-opacity="0.08" mask="url(#path-181-inside-90_20319_4595)"/>
<mask id="path-183-inside-91_20319_4595" fill="white">
<path d="M1663.23 -35.1V17.35H1610.78V-35.1H1663.23Z"/>
</mask>
<path d="M1610.78 17.35H1610.23V17.8963H1610.78V17.35ZM1663.23 17.35V16.8036H1610.78V17.35V17.8963H1663.23V17.35ZM1610.78 17.35H1611.32V-35.1H1610.78H1610.23V17.35H1610.78Z" fill="#11C7B7" fill-opacity="0.08" mask="url(#path-183-inside-91_20319_4595)"/>
<mask id="path-185-inside-92_20319_4595" fill="white">
<path d="M1663.23 17.35V69.8H1610.78V17.35L1663.23 17.35Z"/>
</mask>
<path d="M1610.78 69.8H1610.23V70.3463H1610.78V69.8ZM1663.23 69.8V69.2536H1610.78V69.8V70.3463H1663.23V69.8ZM1610.78 69.8H1611.32V17.35H1610.78H1610.23V69.8H1610.78Z" fill="#11C7B7" fill-opacity="0.08" mask="url(#path-185-inside-92_20319_4595)"/>
<mask id="path-187-inside-93_20319_4595" fill="white">
<path d="M1663.23 69.8V122.25H1610.78V69.8H1663.23Z"/>
</mask>
<path d="M1610.78 122.25H1610.23V122.796H1610.78V122.25ZM1663.23 122.25V121.704H1610.78V122.25V122.796H1663.23V122.25ZM1610.78 122.25H1611.32V69.8H1610.78H1610.23V122.25H1610.78Z" fill="#11C7B7" fill-opacity="0.08" mask="url(#path-187-inside-93_20319_4595)"/>
<mask id="path-189-inside-94_20319_4595" fill="white">
<path d="M1663.23 122.25V174.7H1610.78V122.25H1663.23Z"/>
</mask>
<path d="M1610.78 174.7H1610.23V175.246H1610.78V174.7ZM1663.23 174.7V174.154H1610.78V174.7V175.246H1663.23V174.7ZM1610.78 174.7H1611.32V122.25H1610.78H1610.23V174.7H1610.78Z" fill="#11C7B7" fill-opacity="0.08" mask="url(#path-189-inside-94_20319_4595)"/>
<mask id="path-191-inside-95_20319_4595" fill="white">
<path d="M1663.23 174.7V227.15H1610.78V174.7H1663.23Z"/>
</mask>
<path d="M1610.78 227.15H1610.23V227.696H1610.78V227.15ZM1663.23 227.15V226.604H1610.78V227.15V227.696H1663.23V227.15ZM1610.78 227.15H1611.32V174.7H1610.78H1610.23V227.15H1610.78Z" fill="#11C7B7" fill-opacity="0.08" mask="url(#path-191-inside-95_20319_4595)"/>
<mask id="path-193-inside-96_20319_4595" fill="white">
<path d="M1663.23 227.15V279.6H1610.78V227.15H1663.23Z"/>
</mask>
<path d="M1610.78 279.6H1610.23V280.146H1610.78V279.6ZM1663.23 279.6V279.054H1610.78V279.6V280.146H1663.23V279.6ZM1610.78 279.6H1611.32V227.15H1610.78H1610.23V279.6H1610.78Z" fill="#11C7B7" fill-opacity="0.08" mask="url(#path-193-inside-96_20319_4595)"/>
<mask id="path-195-inside-97_20319_4595" fill="white">
<path d="M1663.23 279.6V332.05H1610.78V279.6H1663.23Z"/>
</mask>
<path d="M1663.23 279.6V332.05H1610.78V279.6H1663.23Z" fill="#0B8E83"/>
<path d="M1610.78 332.05H1610.23V332.596H1610.78V332.05ZM1663.23 332.05V331.504H1610.78V332.05V332.596H1663.23V332.05ZM1610.78 332.05H1611.32V279.6H1610.78H1610.23V332.05H1610.78Z" fill="#11C7B7" fill-opacity="0.08" mask="url(#path-195-inside-97_20319_4595)"/>
<mask id="path-197-inside-98_20319_4595" fill="white">
<path d="M1663.23 332.05V384.5H1610.78V332.05H1663.23Z"/>
</mask>
<path d="M1610.78 384.5H1610.23V385.046H1610.78V384.5ZM1663.23 384.5V383.954H1610.78V384.5V385.046H1663.23V384.5ZM1610.78 384.5H1611.32V332.05H1610.78H1610.23V384.5H1610.78Z" fill="#11C7B7" fill-opacity="0.08" mask="url(#path-197-inside-98_20319_4595)"/>
<mask id="path-199-inside-99_20319_4595" fill="white">
<path d="M1663.23 384.5V436.95H1610.78V384.5H1663.23Z"/>
</mask>
<path d="M1610.78 436.95H1610.23V437.496H1610.78V436.95ZM1663.23 436.95V436.404H1610.78V436.95V437.496H1663.23V436.95ZM1610.78 436.95H1611.32V384.5H1610.78H1610.23V436.95H1610.78Z" fill="#11C7B7" fill-opacity="0.08" mask="url(#path-199-inside-99_20319_4595)"/>
<mask id="path-201-inside-100_20319_4595" fill="white">
<path d="M1663.23 436.95V489.4H1610.78V436.95H1663.23Z"/>
</mask>
<path d="M1610.78 489.4H1610.23V489.946H1610.78V489.4ZM1663.23 489.4V488.854H1610.78V489.4V489.946H1663.23V489.4ZM1610.78 489.4H1611.32V436.95H1610.78H1610.23V489.4H1610.78Z" fill="#11C7B7" fill-opacity="0.08" mask="url(#path-201-inside-100_20319_4595)"/>
<mask id="path-203-inside-101_20319_4595" fill="white">
<path d="M1663.23 489.4V541.85H1610.78V489.4H1663.23Z"/>
</mask>
<path d="M1610.78 541.85H1610.23V542.396H1610.78V541.85ZM1663.23 541.85V541.304H1610.78V541.85V542.396H1663.23V541.85ZM1610.78 541.85H1611.32V489.4H1610.78H1610.23V541.85H1610.78Z" fill="#11C7B7" fill-opacity="0.08" mask="url(#path-203-inside-101_20319_4595)"/>
<mask id="path-205-inside-102_20319_4595" fill="white">
<path d="M1663.23 541.85V594.3H1610.78V541.85H1663.23Z"/>
</mask>
<path d="M1610.78 594.3H1610.23V594.846H1610.78V594.3ZM1663.23 594.3V593.754H1610.78V594.3V594.846H1663.23V594.3ZM1610.78 594.3H1611.32V541.85H1610.78H1610.23V594.3H1610.78Z" fill="#11C7B7" fill-opacity="0.08" mask="url(#path-205-inside-102_20319_4595)"/>
<mask id="path-207-inside-103_20319_4595" fill="white">
<path d="M1663.23 594.3V646.75H1610.78V594.3H1663.23Z"/>
</mask>
<path d="M1663.23 594.3V646.75H1610.78V594.3H1663.23Z" fill="#0B8E83"/>
<path d="M1610.78 646.75H1610.23V647.296H1610.78V646.75ZM1663.23 646.75V646.204H1610.78V646.75V647.296H1663.23V646.75ZM1610.78 646.75H1611.32V594.3H1610.78H1610.23V646.75H1610.78Z" fill="#11C7B7" fill-opacity="0.08" mask="url(#path-207-inside-103_20319_4595)"/>
<mask id="path-209-inside-104_20319_4595" fill="white">
<path d="M1663.23 646.75V699.2H1610.78V646.75H1663.23Z"/>
</mask>
<path d="M1610.78 699.2H1610.23V699.746H1610.78V699.2ZM1663.23 699.2V698.654H1610.78V699.2V699.746H1663.23V699.2ZM1610.78 699.2H1611.32V646.75H1610.78H1610.23V699.2H1610.78Z" fill="#11C7B7" fill-opacity="0.08" mask="url(#path-209-inside-104_20319_4595)"/>
<mask id="path-211-inside-105_20319_4595" fill="white">
<path d="M1663.23 699.2V751.65H1610.78V699.2H1663.23Z"/>
</mask>
<path d="M1610.78 751.65H1610.23V752.196H1610.78V751.65ZM1663.23 751.65V751.104H1610.78V751.65V752.196H1663.23V751.65ZM1610.78 751.65H1611.32V699.2H1610.78H1610.23V751.65H1610.78Z" fill="#11C7B7" fill-opacity="0.08" mask="url(#path-211-inside-105_20319_4595)"/>
<mask id="path-213-inside-106_20319_4595" fill="white">
<path d="M1663.23 751.65V804.1H1610.78V751.65H1663.23Z"/>
</mask>
<path d="M1610.78 804.1H1610.23V804.646H1610.78V804.1ZM1663.23 804.1V803.554H1610.78V804.1V804.646H1663.23V804.1ZM1610.78 804.1H1611.32V751.65H1610.78H1610.23V804.1H1610.78Z" fill="#11C7B7" fill-opacity="0.08" mask="url(#path-213-inside-106_20319_4595)"/>
<mask id="path-215-inside-107_20319_4595" fill="white">
<path d="M1663.23 804.1V856.55H1610.78V804.1H1663.23Z"/>
</mask>
<path d="M1610.78 856.55H1610.23V857.097H1610.78V856.55ZM1663.23 856.55V856.004H1610.78V856.55V857.097H1663.23V856.55ZM1610.78 856.55H1611.32V804.1H1610.78H1610.23V856.55H1610.78Z" fill="#11C7B7" fill-opacity="0.08" mask="url(#path-215-inside-107_20319_4595)"/>
<mask id="path-217-inside-108_20319_4595" fill="white">
<path d="M1663.23 856.55V909H1610.78V856.55H1663.23Z"/>
</mask>
<path d="M1610.78 909H1610.23V909.547H1610.78V909ZM1663.23 909V908.454H1610.78V909V909.547H1663.23V909ZM1610.78 909H1611.32V856.55H1610.78H1610.23V909H1610.78Z" fill="#11C7B7" fill-opacity="0.08" mask="url(#path-217-inside-108_20319_4595)"/>
<mask id="path-219-inside-109_20319_4595" fill="white">
<path d="M1610.77 -35.1V17.35H1558.32V-35.1H1610.77Z"/>
</mask>
<path d="M1558.32 17.35H1557.78V17.8963H1558.32V17.35ZM1610.77 17.35V16.8036H1558.32V17.35V17.8963H1610.77V17.35ZM1558.32 17.35H1558.87V-35.1H1558.32H1557.78V17.35H1558.32Z" fill="#11C7B7" fill-opacity="0.08" mask="url(#path-219-inside-109_20319_4595)"/>
<mask id="path-221-inside-110_20319_4595" fill="white">
<path d="M1610.77 17.35V69.8H1558.32V17.35L1610.77 17.35Z"/>
</mask>
<path d="M1558.32 69.8H1557.78V70.3463H1558.32V69.8ZM1610.77 69.8V69.2536H1558.32V69.8V70.3463H1610.77V69.8ZM1558.32 69.8H1558.87V17.35H1558.32H1557.78V69.8H1558.32Z" fill="#11C7B7" fill-opacity="0.08" mask="url(#path-221-inside-110_20319_4595)"/>
<mask id="path-223-inside-111_20319_4595" fill="white">
<path d="M1610.77 69.8V122.25H1558.32V69.8H1610.77Z"/>
</mask>
<path d="M1558.32 122.25H1557.78V122.796H1558.32V122.25ZM1610.77 122.25V121.704H1558.32V122.25V122.796H1610.77V122.25ZM1558.32 122.25H1558.87V69.8H1558.32H1557.78V122.25H1558.32Z" fill="#11C7B7" fill-opacity="0.08" mask="url(#path-223-inside-111_20319_4595)"/>
<mask id="path-225-inside-112_20319_4595" fill="white">
<path d="M1610.77 122.25V174.7H1558.32V122.25H1610.77Z"/>
</mask>
<path d="M1610.77 122.25V174.7H1558.32V122.25H1610.77Z" fill="#0B8E83"/>
<path d="M1558.32 174.7H1557.78V175.246H1558.32V174.7ZM1610.77 174.7V174.154H1558.32V174.7V175.246H1610.77V174.7ZM1558.32 174.7H1558.87V122.25H1558.32H1557.78V174.7H1558.32Z" fill="#11C7B7" fill-opacity="0.08" mask="url(#path-225-inside-112_20319_4595)"/>
<mask id="path-227-inside-113_20319_4595" fill="white">
<path d="M1610.77 174.7V227.15H1558.32V174.7H1610.77Z"/>
</mask>
<path d="M1558.32 227.15H1557.78V227.696H1558.32V227.15ZM1610.77 227.15V226.604H1558.32V227.15V227.696H1610.77V227.15ZM1558.32 227.15H1558.87V174.7H1558.32H1557.78V227.15H1558.32Z" fill="#11C7B7" fill-opacity="0.08" mask="url(#path-227-inside-113_20319_4595)"/>
<mask id="path-229-inside-114_20319_4595" fill="white">
<path d="M1610.77 227.15V279.6H1558.32V227.15H1610.77Z"/>
</mask>
<path d="M1558.32 279.6H1557.78V280.146H1558.32V279.6ZM1610.77 279.6V279.054H1558.32V279.6V280.146H1610.77V279.6ZM1558.32 279.6H1558.87V227.15H1558.32H1557.78V279.6H1558.32Z" fill="#11C7B7" fill-opacity="0.08" mask="url(#path-229-inside-114_20319_4595)"/>
<mask id="path-231-inside-115_20319_4595" fill="white">
<path d="M1610.77 279.6V332.05H1558.32V279.6H1610.77Z"/>
</mask>
<path d="M1558.32 332.05H1557.78V332.596H1558.32V332.05ZM1610.77 332.05V331.504H1558.32V332.05V332.596H1610.77V332.05ZM1558.32 332.05H1558.87V279.6H1558.32H1557.78V332.05H1558.32Z" fill="#11C7B7" fill-opacity="0.08" mask="url(#path-231-inside-115_20319_4595)"/>
<mask id="path-233-inside-116_20319_4595" fill="white">
<path d="M1610.77 332.05V384.5H1558.32V332.05H1610.77Z"/>
</mask>
<path d="M1558.32 384.5H1557.78V385.046H1558.32V384.5ZM1610.77 384.5V383.954H1558.32V384.5V385.046H1610.77V384.5ZM1558.32 384.5H1558.87V332.05H1558.32H1557.78V384.5H1558.32Z" fill="#11C7B7" fill-opacity="0.08" mask="url(#path-233-inside-116_20319_4595)"/>
<mask id="path-235-inside-117_20319_4595" fill="white">
<path d="M1610.77 384.5V436.95H1558.32V384.5H1610.77Z"/>
</mask>
<path d="M1558.32 436.95H1557.78V437.496H1558.32V436.95ZM1610.77 436.95V436.404H1558.32V436.95V437.496H1610.77V436.95ZM1558.32 436.95H1558.87V384.5H1558.32H1557.78V436.95H1558.32Z" fill="#11C7B7" fill-opacity="0.08" mask="url(#path-235-inside-117_20319_4595)"/>
<mask id="path-237-inside-118_20319_4595" fill="white">
<path d="M1610.77 436.95V489.4H1558.32V436.95H1610.77Z"/>
</mask>
<path d="M1610.77 436.95V489.4H1558.32V436.95H1610.77Z" fill="#0B8E83"/>
<path d="M1558.32 489.4H1557.78V489.946H1558.32V489.4ZM1610.77 489.4V488.854H1558.32V489.4V489.946H1610.77V489.4ZM1558.32 489.4H1558.87V436.95H1558.32H1557.78V489.4H1558.32Z" fill="#11C7B7" fill-opacity="0.08" mask="url(#path-237-inside-118_20319_4595)"/>
<mask id="path-239-inside-119_20319_4595" fill="white">
<path d="M1610.77 489.4V541.85H1558.32V489.4H1610.77Z"/>
</mask>
<path d="M1558.32 541.85H1557.78V542.396H1558.32V541.85ZM1610.77 541.85V541.304H1558.32V541.85V542.396H1610.77V541.85ZM1558.32 541.85H1558.87V489.4H1558.32H1557.78V541.85H1558.32Z" fill="#11C7B7" fill-opacity="0.08" mask="url(#path-239-inside-119_20319_4595)"/>
<mask id="path-241-inside-120_20319_4595" fill="white">
<path d="M1610.77 541.85V594.3H1558.32V541.85H1610.77Z"/>
</mask>
<path d="M1558.32 594.3H1557.78V594.846H1558.32V594.3ZM1610.77 594.3V593.754H1558.32V594.3V594.846H1610.77V594.3ZM1558.32 594.3H1558.87V541.85H1558.32H1557.78V594.3H1558.32Z" fill="#11C7B7" fill-opacity="0.08" mask="url(#path-241-inside-120_20319_4595)"/>
<mask id="path-243-inside-121_20319_4595" fill="white">
<path d="M1610.77 594.3V646.75H1558.32V594.3H1610.77Z"/>
</mask>
<path d="M1558.32 646.75H1557.78V647.296H1558.32V646.75ZM1610.77 646.75V646.204H1558.32V646.75V647.296H1610.77V646.75ZM1558.32 646.75H1558.87V594.3H1558.32H1557.78V646.75H1558.32Z" fill="#11C7B7" fill-opacity="0.08" mask="url(#path-243-inside-121_20319_4595)"/>
<mask id="path-245-inside-122_20319_4595" fill="white">
<path d="M1610.77 646.75V699.2H1558.32V646.75H1610.77Z"/>
</mask>
<path d="M1558.32 699.2H1557.78V699.746H1558.32V699.2ZM1610.77 699.2V698.654H1558.32V699.2V699.746H1610.77V699.2ZM1558.32 699.2H1558.87V646.75H1558.32H1557.78V699.2H1558.32Z" fill="#11C7B7" fill-opacity="0.08" mask="url(#path-245-inside-122_20319_4595)"/>
<mask id="path-247-inside-123_20319_4595" fill="white">
<path d="M1610.77 699.2V751.65H1558.32V699.2H1610.77Z"/>
</mask>
<path d="M1558.32 751.65H1557.78V752.196H1558.32V751.65ZM1610.77 751.65V751.104H1558.32V751.65V752.196H1610.77V751.65ZM1558.32 751.65H1558.87V699.2H1558.32H1557.78V751.65H1558.32Z" fill="#11C7B7" fill-opacity="0.08" mask="url(#path-247-inside-123_20319_4595)"/>
<mask id="path-249-inside-124_20319_4595" fill="white">
<path d="M1610.77 751.65V804.1H1558.32V751.65H1610.77Z"/>
</mask>
<path d="M1558.32 804.1H1557.78V804.646H1558.32V804.1ZM1610.77 804.1V803.554H1558.32V804.1V804.646H1610.77V804.1ZM1558.32 804.1H1558.87V751.65H1558.32H1557.78V804.1H1558.32Z" fill="#11C7B7" fill-opacity="0.08" mask="url(#path-249-inside-124_20319_4595)"/>
<mask id="path-251-inside-125_20319_4595" fill="white">
<path d="M1610.77 804.1V856.55H1558.32V804.1H1610.77Z"/>
</mask>
<path d="M1558.32 856.55H1557.78V857.097H1558.32V856.55ZM1610.77 856.55V856.004H1558.32V856.55V857.097H1610.77V856.55ZM1558.32 856.55H1558.87V804.1H1558.32H1557.78V856.55H1558.32Z" fill="#11C7B7" fill-opacity="0.08" mask="url(#path-251-inside-125_20319_4595)"/>
<mask id="path-253-inside-126_20319_4595" fill="white">
<path d="M1610.77 856.55V909H1558.32V856.55H1610.77Z"/>
</mask>
<path d="M1558.32 909H1557.78V909.547H1558.32V909ZM1610.77 909V908.454H1558.32V909V909.547H1610.77V909ZM1558.32 909H1558.87V856.55H1558.32H1557.78V909H1558.32Z" fill="#11C7B7" fill-opacity="0.08" mask="url(#path-253-inside-126_20319_4595)"/>
<mask id="path-255-inside-127_20319_4595" fill="white">
<path d="M1558.32 -35.1V17.35H1505.87V-35.1H1558.32Z"/>
</mask>
<path d="M1505.87 17.35H1505.33V17.8963H1505.87V17.35ZM1558.32 17.35V16.8036H1505.87V17.35V17.8963H1558.32V17.35ZM1505.87 17.35H1506.42V-35.1H1505.87H1505.33V17.35H1505.87Z" fill="#11C7B7" fill-opacity="0.08" mask="url(#path-255-inside-127_20319_4595)"/>
<mask id="path-257-inside-128_20319_4595" fill="white">
<path d="M1558.32 17.35V69.8H1505.87V17.35L1558.32 17.35Z"/>
</mask>
<path d="M1505.87 69.8H1505.33V70.3463H1505.87V69.8ZM1558.32 69.8V69.2536H1505.87V69.8V70.3463H1558.32V69.8ZM1505.87 69.8H1506.42V17.35H1505.87H1505.33V69.8H1505.87Z" fill="#11C7B7" fill-opacity="0.08" mask="url(#path-257-inside-128_20319_4595)"/>
<mask id="path-259-inside-129_20319_4595" fill="white">
<path d="M1558.32 69.8V122.25H1505.87V69.8H1558.32Z"/>
</mask>
<path d="M1505.87 122.25H1505.33V122.796H1505.87V122.25ZM1558.32 122.25V121.704H1505.87V122.25V122.796H1558.32V122.25ZM1505.87 122.25H1506.42V69.8H1505.87H1505.33V122.25H1505.87Z" fill="#11C7B7" fill-opacity="0.08" mask="url(#path-259-inside-129_20319_4595)"/>
<mask id="path-261-inside-130_20319_4595" fill="white">
<path d="M1558.32 122.25V174.7H1505.87V122.25H1558.32Z"/>
</mask>
<path d="M1505.87 174.7H1505.33V175.246H1505.87V174.7ZM1558.32 174.7V174.154H1505.87V174.7V175.246H1558.32V174.7ZM1505.87 174.7H1506.42V122.25H1505.87H1505.33V174.7H1505.87Z" fill="#11C7B7" fill-opacity="0.08" mask="url(#path-261-inside-130_20319_4595)"/>
<mask id="path-263-inside-131_20319_4595" fill="white">
<path d="M1558.32 174.7V227.15H1505.87V174.7H1558.32Z"/>
</mask>
<path d="M1505.87 227.15H1505.33V227.696H1505.87V227.15ZM1558.32 227.15V226.604H1505.87V227.15V227.696H1558.32V227.15ZM1505.87 227.15H1506.42V174.7H1505.87H1505.33V227.15H1505.87Z" fill="#11C7B7" fill-opacity="0.08" mask="url(#path-263-inside-131_20319_4595)"/>
<mask id="path-265-inside-132_20319_4595" fill="white">
<path d="M1558.32 227.15V279.6H1505.87V227.15H1558.32Z"/>
</mask>
<path d="M1505.87 279.6H1505.33V280.146H1505.87V279.6ZM1558.32 279.6V279.054H1505.87V279.6V280.146H1558.32V279.6ZM1505.87 279.6H1506.42V227.15H1505.87H1505.33V279.6H1505.87Z" fill="#11C7B7" fill-opacity="0.08" mask="url(#path-265-inside-132_20319_4595)"/>
<mask id="path-267-inside-133_20319_4595" fill="white">
<path d="M1558.32 279.6V332.05H1505.87V279.6H1558.32Z"/>
</mask>
<path d="M1505.87 332.05H1505.33V332.596H1505.87V332.05ZM1558.32 332.05V331.504H1505.87V332.05V332.596H1558.32V332.05ZM1505.87 332.05H1506.42V279.6H1505.87H1505.33V332.05H1505.87Z" fill="#11C7B7" fill-opacity="0.08" mask="url(#path-267-inside-133_20319_4595)"/>
<mask id="path-269-inside-134_20319_4595" fill="white">
<path d="M1558.32 332.05V384.5H1505.87V332.05H1558.32Z"/>
</mask>
<path d="M1505.87 384.5H1505.33V385.046H1505.87V384.5ZM1558.32 384.5V383.954H1505.87V384.5V385.046H1558.32V384.5ZM1505.87 384.5H1506.42V332.05H1505.87H1505.33V384.5H1505.87Z" fill="#11C7B7" fill-opacity="0.08" mask="url(#path-269-inside-134_20319_4595)"/>
<mask id="path-271-inside-135_20319_4595" fill="white">
<path d="M1558.32 384.5V436.95H1505.87V384.5H1558.32Z"/>
</mask>
<path d="M1505.87 436.95H1505.33V437.496H1505.87V436.95ZM1558.32 436.95V436.404H1505.87V436.95V437.496H1558.32V436.95ZM1505.87 436.95H1506.42V384.5H1505.87H1505.33V436.95H1505.87Z" fill="#11C7B7" fill-opacity="0.08" mask="url(#path-271-inside-135_20319_4595)"/>
<mask id="path-273-inside-136_20319_4595" fill="white">
<path d="M1558.32 436.95V489.4H1505.87V436.95H1558.32Z"/>
</mask>
<path d="M1505.87 489.4H1505.33V489.946H1505.87V489.4ZM1558.32 489.4V488.854H1505.87V489.4V489.946H1558.32V489.4ZM1505.87 489.4H1506.42V436.95H1505.87H1505.33V489.4H1505.87Z" fill="#11C7B7" fill-opacity="0.08" mask="url(#path-273-inside-136_20319_4595)"/>
<mask id="path-275-inside-137_20319_4595" fill="white">
<path d="M1558.32 489.4V541.85H1505.87V489.4H1558.32Z"/>
</mask>
<path d="M1505.87 541.85H1505.33V542.396H1505.87V541.85ZM1558.32 541.85V541.304H1505.87V541.85V542.396H1558.32V541.85ZM1505.87 541.85H1506.42V489.4H1505.87H1505.33V541.85H1505.87Z" fill="#11C7B7" fill-opacity="0.08" mask="url(#path-275-inside-137_20319_4595)"/>
<mask id="path-277-inside-138_20319_4595" fill="white">
<path d="M1558.32 541.85V594.3H1505.87V541.85H1558.32Z"/>
</mask>
<path d="M1505.87 594.3H1505.33V594.846H1505.87V594.3ZM1558.32 594.3V593.754H1505.87V594.3V594.846H1558.32V594.3ZM1505.87 594.3H1506.42V541.85H1505.87H1505.33V594.3H1505.87Z" fill="#11C7B7" fill-opacity="0.08" mask="url(#path-277-inside-138_20319_4595)"/>
<mask id="path-279-inside-139_20319_4595" fill="white">
<path d="M1558.32 594.3V646.75H1505.87V594.3H1558.32Z"/>
</mask>
<path d="M1505.87 646.75H1505.33V647.296H1505.87V646.75ZM1558.32 646.75V646.204H1505.87V646.75V647.296H1558.32V646.75ZM1505.87 646.75H1506.42V594.3H1505.87H1505.33V646.75H1505.87Z" fill="#11C7B7" fill-opacity="0.08" mask="url(#path-279-inside-139_20319_4595)"/>
<mask id="path-281-inside-140_20319_4595" fill="white">
<path d="M1558.32 646.75V699.2H1505.87V646.75H1558.32Z"/>
</mask>
<path d="M1505.87 699.2H1505.33V699.746H1505.87V699.2ZM1558.32 699.2V698.654H1505.87V699.2V699.746H1558.32V699.2ZM1505.87 699.2H1506.42V646.75H1505.87H1505.33V699.2H1505.87Z" fill="#11C7B7" fill-opacity="0.08" mask="url(#path-281-inside-140_20319_4595)"/>
<mask id="path-283-inside-141_20319_4595" fill="white">
<path d="M1558.32 699.2V751.65H1505.87V699.2H1558.32Z"/>
</mask>
<path d="M1505.87 751.65H1505.33V752.196H1505.87V751.65ZM1558.32 751.65V751.104H1505.87V751.65V752.196H1558.32V751.65ZM1505.87 751.65H1506.42V699.2H1505.87H1505.33V751.65H1505.87Z" fill="#11C7B7" fill-opacity="0.08" mask="url(#path-283-inside-141_20319_4595)"/>
<mask id="path-285-inside-142_20319_4595" fill="white">
<path d="M1558.32 751.65V804.1H1505.87V751.65H1558.32Z"/>
</mask>
<path d="M1558.32 751.65V804.1H1505.87V751.65H1558.32Z" fill="#0B8E83"/>
<path d="M1505.87 804.1H1505.33V804.646H1505.87V804.1ZM1558.32 804.1V803.554H1505.87V804.1V804.646H1558.32V804.1ZM1505.87 804.1H1506.42V751.65H1505.87H1505.33V804.1H1505.87Z" fill="#11C7B7" fill-opacity="0.08" mask="url(#path-285-inside-142_20319_4595)"/>
<mask id="path-287-inside-143_20319_4595" fill="white">
<path d="M1558.32 804.1V856.55H1505.87V804.1H1558.32Z"/>
</mask>
<path d="M1505.87 856.55H1505.33V857.097H1505.87V856.55ZM1558.32 856.55V856.004H1505.87V856.55V857.097H1558.32V856.55ZM1505.87 856.55H1506.42V804.1H1505.87H1505.33V856.55H1505.87Z" fill="#11C7B7" fill-opacity="0.08" mask="url(#path-287-inside-143_20319_4595)"/>
<mask id="path-289-inside-144_20319_4595" fill="white">
<path d="M1558.32 856.55V909H1505.87V856.55H1558.32Z"/>
</mask>
<path d="M1505.87 909H1505.33V909.547H1505.87V909ZM1558.32 909V908.454H1505.87V909V909.547H1558.32V909ZM1505.87 909H1506.42V856.55H1505.87H1505.33V909H1505.87Z" fill="#11C7B7" fill-opacity="0.08" mask="url(#path-289-inside-144_20319_4595)"/>
<mask id="path-291-inside-145_20319_4595" fill="white">
<path d="M1505.88 -35.0999V17.3501H1453.43V-35.0999H1505.88Z"/>
</mask>
<path d="M1453.43 17.3501H1452.88V17.8964H1453.43V17.3501ZM1505.88 17.3501V16.8037H1453.43V17.3501V17.8964H1505.88V17.3501ZM1453.43 17.3501H1453.97V-35.0999H1453.43H1452.88V17.3501H1453.43Z" fill="#11C7B7" fill-opacity="0.08" mask="url(#path-291-inside-145_20319_4595)"/>
<mask id="path-293-inside-146_20319_4595" fill="white">
<path d="M1505.88 17.3499V69.7999H1453.43V17.3499L1505.88 17.3499Z"/>
</mask>
<path d="M1453.43 69.7999H1452.88V70.3463H1453.43V69.7999ZM1505.88 69.7999V69.2536H1453.43V69.7999V70.3463H1505.88V69.7999ZM1453.43 69.7999H1453.97V17.3499H1453.43H1452.88V69.7999H1453.43Z" fill="#11C7B7" fill-opacity="0.08" mask="url(#path-293-inside-146_20319_4595)"/>
<mask id="path-295-inside-147_20319_4595" fill="white">
<path d="M1505.88 69.8001V122.25H1453.43V69.8001H1505.88Z"/>
</mask>
<path d="M1453.43 122.25H1452.88V122.796H1453.43V122.25ZM1505.88 122.25V121.704H1453.43V122.25V122.796H1505.88V122.25ZM1453.43 122.25H1453.97V69.8001H1453.43H1452.88V122.25H1453.43Z" fill="#11C7B7" fill-opacity="0.08" mask="url(#path-295-inside-147_20319_4595)"/>
<mask id="path-297-inside-148_20319_4595" fill="white">
<path d="M1505.88 122.25V174.7H1453.43V122.25H1505.88Z"/>
</mask>
<path d="M1453.43 174.7H1452.88V175.246H1453.43V174.7ZM1505.88 174.7V174.154H1453.43V174.7V175.246H1505.88V174.7ZM1453.43 174.7H1453.97V122.25H1453.43H1452.88V174.7H1453.43Z" fill="#11C7B7" fill-opacity="0.08" mask="url(#path-297-inside-148_20319_4595)"/>
<mask id="path-299-inside-149_20319_4595" fill="white">
<path d="M1505.88 174.7V227.15H1453.43V174.7H1505.88Z"/>
</mask>
<path d="M1505.88 174.7V227.15H1453.43V174.7H1505.88Z" fill="#0B8E83"/>
<path d="M1453.43 227.15H1452.88V227.696H1453.43V227.15ZM1505.88 227.15V226.604H1453.43V227.15V227.696H1505.88V227.15ZM1453.43 227.15H1453.97V174.7H1453.43H1452.88V227.15H1453.43Z" fill="#11C7B7" fill-opacity="0.08" mask="url(#path-299-inside-149_20319_4595)"/>
<mask id="path-301-inside-150_20319_4595" fill="white">
<path d="M1505.88 227.15V279.6H1453.43V227.15H1505.88Z"/>
</mask>
<path d="M1453.43 279.6H1452.88V280.146H1453.43V279.6ZM1505.88 279.6V279.054H1453.43V279.6V280.146H1505.88V279.6ZM1453.43 279.6H1453.97V227.15H1453.43H1452.88V279.6H1453.43Z" fill="#11C7B7" fill-opacity="0.08" mask="url(#path-301-inside-150_20319_4595)"/>
<mask id="path-303-inside-151_20319_4595" fill="white">
<path d="M1505.88 279.6V332.05H1453.43V279.6H1505.88Z"/>
</mask>
<path d="M1453.43 332.05H1452.88V332.597H1453.43V332.05ZM1505.88 332.05V331.504H1453.43V332.05V332.597H1505.88V332.05ZM1453.43 332.05H1453.97V279.6H1453.43H1452.88V332.05H1453.43Z" fill="#11C7B7" fill-opacity="0.08" mask="url(#path-303-inside-151_20319_4595)"/>
<mask id="path-305-inside-152_20319_4595" fill="white">
<path d="M1505.88 332.05V384.5H1453.43V332.05H1505.88Z"/>
</mask>
<path d="M1453.43 384.5H1452.88V385.046H1453.43V384.5ZM1505.88 384.5V383.954H1453.43V384.5V385.046H1505.88V384.5ZM1453.43 384.5H1453.97V332.05H1453.43H1452.88V384.5H1453.43Z" fill="#11C7B7" fill-opacity="0.08" mask="url(#path-305-inside-152_20319_4595)"/>
<mask id="path-307-inside-153_20319_4595" fill="white">
<path d="M1505.88 384.5V436.95H1453.43V384.5H1505.88Z"/>
</mask>
<path d="M1505.88 384.5V436.95H1453.43V384.5H1505.88Z" fill="#0B8E83"/>
<path d="M1453.43 436.95H1452.88V437.496H1453.43V436.95ZM1505.88 436.95V436.404H1453.43V436.95V437.496H1505.88V436.95ZM1453.43 436.95H1453.97V384.5H1453.43H1452.88V436.95H1453.43Z" fill="#11C7B7" fill-opacity="0.08" mask="url(#path-307-inside-153_20319_4595)"/>
<mask id="path-309-inside-154_20319_4595" fill="white">
<path d="M1505.88 436.95V489.4H1453.43V436.95H1505.88Z"/>
</mask>
<path d="M1453.43 489.4H1452.88V489.946H1453.43V489.4ZM1505.88 489.4V488.854H1453.43V489.4V489.946H1505.88V489.4ZM1453.43 489.4H1453.97V436.95H1453.43H1452.88V489.4H1453.43Z" fill="#11C7B7" fill-opacity="0.08" mask="url(#path-309-inside-154_20319_4595)"/>
<mask id="path-311-inside-155_20319_4595" fill="white">
<path d="M1505.88 489.4V541.85H1453.43V489.4H1505.88Z"/>
</mask>
<path d="M1453.43 541.85H1452.88V542.396H1453.43V541.85ZM1505.88 541.85V541.304H1453.43V541.85V542.396H1505.88V541.85ZM1453.43 541.85H1453.97V489.4H1453.43H1452.88V541.85H1453.43Z" fill="#11C7B7" fill-opacity="0.08" mask="url(#path-311-inside-155_20319_4595)"/>
<mask id="path-313-inside-156_20319_4595" fill="white">
<path d="M1505.88 541.85V594.3H1453.43V541.85H1505.88Z"/>
</mask>
<path d="M1453.43 594.3H1452.88V594.846H1453.43V594.3ZM1505.88 594.3V593.754H1453.43V594.3V594.846H1505.88V594.3ZM1453.43 594.3H1453.97V541.85H1453.43H1452.88V594.3H1453.43Z" fill="#11C7B7" fill-opacity="0.08" mask="url(#path-313-inside-156_20319_4595)"/>
<mask id="path-315-inside-157_20319_4595" fill="white">
<path d="M1505.88 594.3V646.75H1453.43V594.3H1505.88Z"/>
</mask>
<path d="M1453.43 646.75H1452.88V647.296H1453.43V646.75ZM1505.88 646.75V646.204H1453.43V646.75V647.296H1505.88V646.75ZM1453.43 646.75H1453.97V594.3H1453.43H1452.88V646.75H1453.43Z" fill="#11C7B7" fill-opacity="0.08" mask="url(#path-315-inside-157_20319_4595)"/>
<mask id="path-317-inside-158_20319_4595" fill="white">
<path d="M1505.88 646.75V699.2H1453.43V646.75H1505.88Z"/>
</mask>
<path d="M1453.43 699.2H1452.88V699.746H1453.43V699.2ZM1505.88 699.2V698.654H1453.43V699.2V699.746H1505.88V699.2ZM1453.43 699.2H1453.97V646.75H1453.43H1452.88V699.2H1453.43Z" fill="#11C7B7" fill-opacity="0.08" mask="url(#path-317-inside-158_20319_4595)"/>
<mask id="path-319-inside-159_20319_4595" fill="white">
<path d="M1505.88 699.2V751.65H1453.43V699.2H1505.88Z"/>
</mask>
<path d="M1453.43 751.65H1452.88V752.196H1453.43V751.65ZM1505.88 751.65V751.104H1453.43V751.65V752.196H1505.88V751.65ZM1453.43 751.65H1453.97V699.2H1453.43H1452.88V751.65H1453.43Z" fill="#11C7B7" fill-opacity="0.08" mask="url(#path-319-inside-159_20319_4595)"/>
<mask id="path-321-inside-160_20319_4595" fill="white">
<path d="M1505.88 751.65V804.1H1453.43V751.65H1505.88Z"/>
</mask>
<path d="M1453.43 804.1H1452.88V804.646H1453.43V804.1ZM1505.88 804.1V803.554H1453.43V804.1V804.646H1505.88V804.1ZM1453.43 804.1H1453.97V751.65H1453.43H1452.88V804.1H1453.43Z" fill="#11C7B7" fill-opacity="0.08" mask="url(#path-321-inside-160_20319_4595)"/>
<mask id="path-323-inside-161_20319_4595" fill="white">
<path d="M1505.88 804.1V856.55H1453.43V804.1H1505.88Z"/>
</mask>
<path d="M1453.43 856.55H1452.88V857.097H1453.43V856.55ZM1505.88 856.55V856.004H1453.43V856.55V857.097H1505.88V856.55ZM1453.43 856.55H1453.97V804.1H1453.43H1452.88V856.55H1453.43Z" fill="#11C7B7" fill-opacity="0.08" mask="url(#path-323-inside-161_20319_4595)"/>
<mask id="path-325-inside-162_20319_4595" fill="white">
<path d="M1505.88 856.55V909H1453.43V856.55H1505.88Z"/>
</mask>
<path d="M1453.43 909H1452.88V909.547H1453.43V909ZM1505.88 909V908.454H1453.43V909V909.547H1505.88V909ZM1453.43 909H1453.97V856.55H1453.43H1452.88V909H1453.43Z" fill="#11C7B7" fill-opacity="0.08" mask="url(#path-325-inside-162_20319_4595)"/>
<mask id="path-327-inside-163_20319_4595" fill="white">
<path d="M1453.42 -35.1V17.35H1400.97V-35.1H1453.42Z"/>
</mask>
<path d="M1453.42 -35.1V17.35H1400.97V-35.1H1453.42Z" fill="#0B8E83"/>
<path d="M1400.97 17.35H1400.43V17.8963H1400.97V17.35ZM1453.42 17.35V16.8036H1400.97V17.35V17.8963H1453.42V17.35ZM1400.97 17.35H1401.52V-35.1H1400.97H1400.43V17.35H1400.97Z" fill="#11C7B7" fill-opacity="0.08" mask="url(#path-327-inside-163_20319_4595)"/>
<mask id="path-329-inside-164_20319_4595" fill="white">
<path d="M1453.42 17.35V69.8H1400.97V17.35L1453.42 17.35Z"/>
</mask>
<path d="M1400.97 69.8H1400.43V70.3463H1400.97V69.8ZM1453.42 69.8V69.2536H1400.97V69.8V70.3463H1453.42V69.8ZM1400.97 69.8H1401.52V17.35H1400.97H1400.43V69.8H1400.97Z" fill="#11C7B7" fill-opacity="0.08" mask="url(#path-329-inside-164_20319_4595)"/>
<mask id="path-331-inside-165_20319_4595" fill="white">
<path d="M1453.42 69.8V122.25H1400.97V69.8H1453.42Z"/>
</mask>
<path d="M1400.97 122.25H1400.43V122.796H1400.97V122.25ZM1453.42 122.25V121.704H1400.97V122.25V122.796H1453.42V122.25ZM1400.97 122.25H1401.52V69.8H1400.97H1400.43V122.25H1400.97Z" fill="#11C7B7" fill-opacity="0.08" mask="url(#path-331-inside-165_20319_4595)"/>
<mask id="path-333-inside-166_20319_4595" fill="white">
<path d="M1453.42 122.25V174.7H1400.97V122.25H1453.42Z"/>
</mask>
<path d="M1400.97 174.7H1400.43V175.246H1400.97V174.7ZM1453.42 174.7V174.154H1400.97V174.7V175.246H1453.42V174.7ZM1400.97 174.7H1401.52V122.25H1400.97H1400.43V174.7H1400.97Z" fill="#11C7B7" fill-opacity="0.08" mask="url(#path-333-inside-166_20319_4595)"/>
<mask id="path-335-inside-167_20319_4595" fill="white">
<path d="M1453.42 174.7V227.15H1400.97V174.7H1453.42Z"/>
</mask>
<path d="M1400.97 227.15H1400.43V227.696H1400.97V227.15ZM1453.42 227.15V226.604H1400.97V227.15V227.696H1453.42V227.15ZM1400.97 227.15H1401.52V174.7H1400.97H1400.43V227.15H1400.97Z" fill="#11C7B7" fill-opacity="0.08" mask="url(#path-335-inside-167_20319_4595)"/>
<mask id="path-337-inside-168_20319_4595" fill="white">
<path d="M1453.42 227.15V279.6H1400.97V227.15H1453.42Z"/>
</mask>
<path d="M1400.97 279.6H1400.43V280.146H1400.97V279.6ZM1453.42 279.6V279.054H1400.97V279.6V280.146H1453.42V279.6ZM1400.97 279.6H1401.52V227.15H1400.97H1400.43V279.6H1400.97Z" fill="#11C7B7" fill-opacity="0.08" mask="url(#path-337-inside-168_20319_4595)"/>
<mask id="path-339-inside-169_20319_4595" fill="white">
<path d="M1453.42 279.6V332.05H1400.97V279.6H1453.42Z"/>
</mask>
<path d="M1400.97 332.05H1400.43V332.596H1400.97V332.05ZM1453.42 332.05V331.504H1400.97V332.05V332.596H1453.42V332.05ZM1400.97 332.05H1401.52V279.6H1400.97H1400.43V332.05H1400.97Z" fill="#11C7B7" fill-opacity="0.08" mask="url(#path-339-inside-169_20319_4595)"/>
<mask id="path-341-inside-170_20319_4595" fill="white">
<path d="M1453.42 332.05V384.5H1400.97V332.05H1453.42Z"/>
</mask>
<path d="M1400.97 384.5H1400.43V385.046H1400.97V384.5ZM1453.42 384.5V383.954H1400.97V384.5V385.046H1453.42V384.5ZM1400.97 384.5H1401.52V332.05H1400.97H1400.43V384.5H1400.97Z" fill="#11C7B7" fill-opacity="0.08" mask="url(#path-341-inside-170_20319_4595)"/>
<mask id="path-343-inside-171_20319_4595" fill="white">
<path d="M1453.42 384.5V436.95H1400.97V384.5H1453.42Z"/>
</mask>
<path d="M1400.97 436.95H1400.43V437.496H1400.97V436.95ZM1453.42 436.95V436.404H1400.97V436.95V437.496H1453.42V436.95ZM1400.97 436.95H1401.52V384.5H1400.97H1400.43V436.95H1400.97Z" fill="#11C7B7" fill-opacity="0.08" mask="url(#path-343-inside-171_20319_4595)"/>
<mask id="path-345-inside-172_20319_4595" fill="white">
<path d="M1453.42 436.95V489.4H1400.97V436.95H1453.42Z"/>
</mask>
<path d="M1400.97 489.4H1400.43V489.946H1400.97V489.4ZM1453.42 489.4V488.854H1400.97V489.4V489.946H1453.42V489.4ZM1400.97 489.4H1401.52V436.95H1400.97H1400.43V489.4H1400.97Z" fill="#11C7B7" fill-opacity="0.08" mask="url(#path-345-inside-172_20319_4595)"/>
<mask id="path-347-inside-173_20319_4595" fill="white">
<path d="M1453.42 489.4V541.85H1400.97V489.4H1453.42Z"/>
</mask>
<path d="M1400.97 541.85H1400.43V542.396H1400.97V541.85ZM1453.42 541.85V541.304H1400.97V541.85V542.396H1453.42V541.85ZM1400.97 541.85H1401.52V489.4H1400.97H1400.43V541.85H1400.97Z" fill="#11C7B7" fill-opacity="0.08" mask="url(#path-347-inside-173_20319_4595)"/>
<mask id="path-349-inside-174_20319_4595" fill="white">
<path d="M1453.42 541.85V594.3H1400.97V541.85H1453.42Z"/>
</mask>
<path d="M1400.97 594.3H1400.43V594.846H1400.97V594.3ZM1453.42 594.3V593.754H1400.97V594.3V594.846H1453.42V594.3ZM1400.97 594.3H1401.52V541.85H1400.97H1400.43V594.3H1400.97Z" fill="#11C7B7" fill-opacity="0.08" mask="url(#path-349-inside-174_20319_4595)"/>
<mask id="path-351-inside-175_20319_4595" fill="white">
<path d="M1453.42 594.3V646.75H1400.97V594.3H1453.42Z"/>
</mask>
<path d="M1453.42 594.3V646.75H1400.97V594.3H1453.42Z" fill="#0B8E83"/>
<path d="M1400.97 646.75H1400.43V647.296H1400.97V646.75ZM1453.42 646.75V646.204H1400.97V646.75V647.296H1453.42V646.75ZM1400.97 646.75H1401.52V594.3H1400.97H1400.43V646.75H1400.97Z" fill="#11C7B7" fill-opacity="0.08" mask="url(#path-351-inside-175_20319_4595)"/>
<mask id="path-353-inside-176_20319_4595" fill="white">
<path d="M1453.42 646.75V699.2H1400.97V646.75H1453.42Z"/>
</mask>
<path d="M1400.97 699.2H1400.43V699.746H1400.97V699.2ZM1453.42 699.2V698.654H1400.97V699.2V699.746H1453.42V699.2ZM1400.97 699.2H1401.52V646.75H1400.97H1400.43V699.2H1400.97Z" fill="#11C7B7" fill-opacity="0.08" mask="url(#path-353-inside-176_20319_4595)"/>
<mask id="path-355-inside-177_20319_4595" fill="white">
<path d="M1453.42 699.2V751.65H1400.97V699.2H1453.42Z"/>
</mask>
<path d="M1400.97 751.65H1400.43V752.196H1400.97V751.65ZM1453.42 751.65V751.104H1400.97V751.65V752.196H1453.42V751.65ZM1400.97 751.65H1401.52V699.2H1400.97H1400.43V751.65H1400.97Z" fill="#11C7B7" fill-opacity="0.08" mask="url(#path-355-inside-177_20319_4595)"/>
<mask id="path-357-inside-178_20319_4595" fill="white">
<path d="M1453.42 751.65V804.1H1400.97V751.65H1453.42Z"/>
</mask>
<path d="M1400.97 804.1H1400.43V804.646H1400.97V804.1ZM1453.42 804.1V803.554H1400.97V804.1V804.646H1453.42V804.1ZM1400.97 804.1H1401.52V751.65H1400.97H1400.43V804.1H1400.97Z" fill="#11C7B7" fill-opacity="0.08" mask="url(#path-357-inside-178_20319_4595)"/>
<mask id="path-359-inside-179_20319_4595" fill="white">
<path d="M1453.42 804.1V856.55H1400.97V804.1H1453.42Z"/>
</mask>
<path d="M1400.97 856.55H1400.43V857.097H1400.97V856.55ZM1453.42 856.55V856.004H1400.97V856.55V857.097H1453.42V856.55ZM1400.97 856.55H1401.52V804.1H1400.97H1400.43V856.55H1400.97Z" fill="#11C7B7" fill-opacity="0.08" mask="url(#path-359-inside-179_20319_4595)"/>
<mask id="path-361-inside-180_20319_4595" fill="white">
<path d="M1453.42 856.55V909H1400.97V856.55H1453.42Z"/>
</mask>
<path d="M1400.97 909H1400.43V909.547H1400.97V909ZM1453.42 909V908.454H1400.97V909V909.547H1453.42V909ZM1400.97 909H1401.52V856.55H1400.97H1400.43V909H1400.97Z" fill="#11C7B7" fill-opacity="0.08" mask="url(#path-361-inside-180_20319_4595)"/>
<mask id="path-363-inside-181_20319_4595" fill="white">
<path d="M1400.97 -35.1V17.35H1348.52V-35.1H1400.97Z"/>
</mask>
<path d="M1348.52 17.35H1347.98V17.8963H1348.52V17.35ZM1400.97 17.35V16.8036H1348.52V17.35V17.8963H1400.97V17.35ZM1348.52 17.35H1349.07V-35.1H1348.52H1347.98V17.35H1348.52Z" fill="#11C7B7" fill-opacity="0.08" mask="url(#path-363-inside-181_20319_4595)"/>
<mask id="path-365-inside-182_20319_4595" fill="white">
<path d="M1400.97 17.35V69.8H1348.52V17.35L1400.97 17.35Z"/>
</mask>
<path d="M1348.52 69.8H1347.98V70.3463H1348.52V69.8ZM1400.97 69.8V69.2536H1348.52V69.8V70.3463H1400.97V69.8ZM1348.52 69.8H1349.07V17.35H1348.52H1347.98V69.8H1348.52Z" fill="#11C7B7" fill-opacity="0.08" mask="url(#path-365-inside-182_20319_4595)"/>
<mask id="path-367-inside-183_20319_4595" fill="white">
<path d="M1400.97 69.8V122.25H1348.52V69.8H1400.97Z"/>
</mask>
<path d="M1348.52 122.25H1347.98V122.796H1348.52V122.25ZM1400.97 122.25V121.704H1348.52V122.25V122.796H1400.97V122.25ZM1348.52 122.25H1349.07V69.8H1348.52H1347.98V122.25H1348.52Z" fill="#11C7B7" fill-opacity="0.08" mask="url(#path-367-inside-183_20319_4595)"/>
<mask id="path-369-inside-184_20319_4595" fill="white">
<path d="M1400.97 122.25V174.7H1348.52V122.25H1400.97Z"/>
</mask>
<path d="M1348.52 174.7H1347.98V175.246H1348.52V174.7ZM1400.97 174.7V174.154H1348.52V174.7V175.246H1400.97V174.7ZM1348.52 174.7H1349.07V122.25H1348.52H1347.98V174.7H1348.52Z" fill="#11C7B7" fill-opacity="0.08" mask="url(#path-369-inside-184_20319_4595)"/>
<mask id="path-371-inside-185_20319_4595" fill="white">
<path d="M1400.97 174.7V227.15H1348.52V174.7H1400.97Z"/>
</mask>
<path d="M1348.52 227.15H1347.98V227.696H1348.52V227.15ZM1400.97 227.15V226.604H1348.52V227.15V227.696H1400.97V227.15ZM1348.52 227.15H1349.07V174.7H1348.52H1347.98V227.15H1348.52Z" fill="#11C7B7" fill-opacity="0.08" mask="url(#path-371-inside-185_20319_4595)"/>
<mask id="path-373-inside-186_20319_4595" fill="white">
<path d="M1400.97 227.15V279.6H1348.52V227.15H1400.97Z"/>
</mask>
<path d="M1348.52 279.6H1347.98V280.146H1348.52V279.6ZM1400.97 279.6V279.054H1348.52V279.6V280.146H1400.97V279.6ZM1348.52 279.6H1349.07V227.15H1348.52H1347.98V279.6H1348.52Z" fill="#11C7B7" fill-opacity="0.08" mask="url(#path-373-inside-186_20319_4595)"/>
<mask id="path-375-inside-187_20319_4595" fill="white">
<path d="M1400.97 279.6V332.05H1348.52V279.6H1400.97Z"/>
</mask>
<path d="M1400.97 279.6V332.05H1348.52V279.6H1400.97Z" fill="#0B8E83"/>
<path d="M1348.52 332.05H1347.98V332.596H1348.52V332.05ZM1400.97 332.05V331.504H1348.52V332.05V332.596H1400.97V332.05ZM1348.52 332.05H1349.07V279.6H1348.52H1347.98V332.05H1348.52Z" fill="#11C7B7" fill-opacity="0.08" mask="url(#path-375-inside-187_20319_4595)"/>
<mask id="path-377-inside-188_20319_4595" fill="white">
<path d="M1400.97 332.05V384.5H1348.52V332.05H1400.97Z"/>
</mask>
<path d="M1348.52 384.5H1347.98V385.046H1348.52V384.5ZM1400.97 384.5V383.954H1348.52V384.5V385.046H1400.97V384.5ZM1348.52 384.5H1349.07V332.05H1348.52H1347.98V384.5H1348.52Z" fill="#11C7B7" fill-opacity="0.08" mask="url(#path-377-inside-188_20319_4595)"/>
<mask id="path-379-inside-189_20319_4595" fill="white">
<path d="M1400.97 384.5V436.95H1348.52V384.5H1400.97Z"/>
</mask>
<path d="M1348.52 436.95H1347.98V437.496H1348.52V436.95ZM1400.97 436.95V436.404H1348.52V436.95V437.496H1400.97V436.95ZM1348.52 436.95H1349.07V384.5H1348.52H1347.98V436.95H1348.52Z" fill="#11C7B7" fill-opacity="0.08" mask="url(#path-379-inside-189_20319_4595)"/>
<mask id="path-381-inside-190_20319_4595" fill="white">
<path d="M1400.97 436.95V489.4H1348.52V436.95H1400.97Z"/>
</mask>
<path d="M1348.52 489.4H1347.98V489.946H1348.52V489.4ZM1400.97 489.4V488.854H1348.52V489.4V489.946H1400.97V489.4ZM1348.52 489.4H1349.07V436.95H1348.52H1347.98V489.4H1348.52Z" fill="#11C7B7" fill-opacity="0.08" mask="url(#path-381-inside-190_20319_4595)"/>
<mask id="path-383-inside-191_20319_4595" fill="white">
<path d="M1400.97 489.4V541.85H1348.52V489.4H1400.97Z"/>
</mask>
<path d="M1348.52 541.85H1347.98V542.396H1348.52V541.85ZM1400.97 541.85V541.304H1348.52V541.85V542.396H1400.97V541.85ZM1348.52 541.85H1349.07V489.4H1348.52H1347.98V541.85H1348.52Z" fill="#11C7B7" fill-opacity="0.08" mask="url(#path-383-inside-191_20319_4595)"/>
<mask id="path-385-inside-192_20319_4595" fill="white">
<path d="M1400.97 541.85V594.3H1348.52V541.85H1400.97Z"/>
</mask>
<path d="M1348.52 594.3H1347.98V594.846H1348.52V594.3ZM1400.97 594.3V593.754H1348.52V594.3V594.846H1400.97V594.3ZM1348.52 594.3H1349.07V541.85H1348.52H1347.98V594.3H1348.52Z" fill="#11C7B7" fill-opacity="0.08" mask="url(#path-385-inside-192_20319_4595)"/>
<mask id="path-387-inside-193_20319_4595" fill="white">
<path d="M1400.97 594.3V646.75H1348.52V594.3H1400.97Z"/>
</mask>
<path d="M1348.52 646.75H1347.98V647.296H1348.52V646.75ZM1400.97 646.75V646.204H1348.52V646.75V647.296H1400.97V646.75ZM1348.52 646.75H1349.07V594.3H1348.52H1347.98V646.75H1348.52Z" fill="#11C7B7" fill-opacity="0.08" mask="url(#path-387-inside-193_20319_4595)"/>
<mask id="path-389-inside-194_20319_4595" fill="white">
<path d="M1400.97 646.75V699.2H1348.52V646.75H1400.97Z"/>
</mask>
<path d="M1348.52 699.2H1347.98V699.746H1348.52V699.2ZM1400.97 699.2V698.654H1348.52V699.2V699.746H1400.97V699.2ZM1348.52 699.2H1349.07V646.75H1348.52H1347.98V699.2H1348.52Z" fill="#11C7B7" fill-opacity="0.08" mask="url(#path-389-inside-194_20319_4595)"/>
<mask id="path-391-inside-195_20319_4595" fill="white">
<path d="M1400.97 699.2V751.65H1348.52V699.2H1400.97Z"/>
</mask>
<path d="M1348.52 751.65H1347.98V752.196H1348.52V751.65ZM1400.97 751.65V751.104H1348.52V751.65V752.196H1400.97V751.65ZM1348.52 751.65H1349.07V699.2H1348.52H1347.98V751.65H1348.52Z" fill="#11C7B7" fill-opacity="0.08" mask="url(#path-391-inside-195_20319_4595)"/>
<mask id="path-393-inside-196_20319_4595" fill="white">
<path d="M1400.97 751.65V804.1H1348.52V751.65H1400.97Z"/>
</mask>
<path d="M1348.52 804.1H1347.98V804.646H1348.52V804.1ZM1400.97 804.1V803.554H1348.52V804.1V804.646H1400.97V804.1ZM1348.52 804.1H1349.07V751.65H1348.52H1347.98V804.1H1348.52Z" fill="#11C7B7" fill-opacity="0.08" mask="url(#path-393-inside-196_20319_4595)"/>
<mask id="path-395-inside-197_20319_4595" fill="white">
<path d="M1400.97 804.1V856.55H1348.52V804.1H1400.97Z"/>
</mask>
<path d="M1400.97 804.1V856.55H1348.52V804.1H1400.97Z" fill="#0B8E83"/>
<path d="M1348.52 856.55H1347.98V857.097H1348.52V856.55ZM1400.97 856.55V856.004H1348.52V856.55V857.097H1400.97V856.55ZM1348.52 856.55H1349.07V804.1H1348.52H1347.98V856.55H1348.52Z" fill="#11C7B7" fill-opacity="0.08" mask="url(#path-395-inside-197_20319_4595)"/>
<mask id="path-397-inside-198_20319_4595" fill="white">
<path d="M1400.97 856.55V909H1348.52V856.55H1400.97Z"/>
</mask>
<path d="M1348.52 909H1347.98V909.547H1348.52V909ZM1400.97 909V908.454H1348.52V909V909.547H1400.97V909ZM1348.52 909H1349.07V856.55H1348.52H1347.98V909H1348.52Z" fill="#11C7B7" fill-opacity="0.08" mask="url(#path-397-inside-198_20319_4595)"/>
<mask id="path-399-inside-199_20319_4595" fill="white">
<path d="M1348.52 -35.1V17.35H1296.07V-35.1H1348.52Z"/>
</mask>
<path d="M1296.07 17.35H1295.53V17.8963H1296.07V17.35ZM1348.52 17.35V16.8036H1296.07V17.35V17.8963H1348.52V17.35ZM1296.07 17.35H1296.62V-35.1H1296.07H1295.53V17.35H1296.07Z" fill="#11C7B7" fill-opacity="0.08" mask="url(#path-399-inside-199_20319_4595)"/>
<mask id="path-401-inside-200_20319_4595" fill="white">
<path d="M1348.52 17.35V69.8H1296.07V17.35L1348.52 17.35Z"/>
</mask>
<path d="M1296.07 69.8H1295.53V70.3463H1296.07V69.8ZM1348.52 69.8V69.2536H1296.07V69.8V70.3463H1348.52V69.8ZM1296.07 69.8H1296.62V17.35H1296.07H1295.53V69.8H1296.07Z" fill="#11C7B7" fill-opacity="0.08" mask="url(#path-401-inside-200_20319_4595)"/>
<mask id="path-403-inside-201_20319_4595" fill="white">
<path d="M1348.52 69.8V122.25H1296.07V69.8H1348.52Z"/>
</mask>
<path d="M1296.07 122.25H1295.53V122.796H1296.07V122.25ZM1348.52 122.25V121.704H1296.07V122.25V122.796H1348.52V122.25ZM1296.07 122.25H1296.62V69.8H1296.07H1295.53V122.25H1296.07Z" fill="#11C7B7" fill-opacity="0.08" mask="url(#path-403-inside-201_20319_4595)"/>
<mask id="path-405-inside-202_20319_4595" fill="white">
<path d="M1348.52 122.25V174.7H1296.07V122.25H1348.52Z"/>
</mask>
<path d="M1348.52 122.25V174.7H1296.07V122.25H1348.52Z" fill="#0B8E83"/>
<path d="M1296.07 174.7H1295.53V175.246H1296.07V174.7ZM1348.52 174.7V174.154H1296.07V174.7V175.246H1348.52V174.7ZM1296.07 174.7H1296.62V122.25H1296.07H1295.53V174.7H1296.07Z" fill="#11C7B7" fill-opacity="0.08" mask="url(#path-405-inside-202_20319_4595)"/>
<mask id="path-407-inside-203_20319_4595" fill="white">
<path d="M1348.52 174.7V227.15H1296.07V174.7H1348.52Z"/>
</mask>
<path d="M1296.07 227.15H1295.53V227.696H1296.07V227.15ZM1348.52 227.15V226.604H1296.07V227.15V227.696H1348.52V227.15ZM1296.07 227.15H1296.62V174.7H1296.07H1295.53V227.15H1296.07Z" fill="#11C7B7" fill-opacity="0.08" mask="url(#path-407-inside-203_20319_4595)"/>
<mask id="path-409-inside-204_20319_4595" fill="white">
<path d="M1348.52 227.15V279.6H1296.07V227.15H1348.52Z"/>
</mask>
<path d="M1296.07 279.6H1295.53V280.146H1296.07V279.6ZM1348.52 279.6V279.054H1296.07V279.6V280.146H1348.52V279.6ZM1296.07 279.6H1296.62V227.15H1296.07H1295.53V279.6H1296.07Z" fill="#11C7B7" fill-opacity="0.08" mask="url(#path-409-inside-204_20319_4595)"/>
<mask id="path-411-inside-205_20319_4595" fill="white">
<path d="M1348.52 279.6V332.05H1296.07V279.6H1348.52Z"/>
</mask>
<path d="M1296.07 332.05H1295.53V332.596H1296.07V332.05ZM1348.52 332.05V331.504H1296.07V332.05V332.596H1348.52V332.05ZM1296.07 332.05H1296.62V279.6H1296.07H1295.53V332.05H1296.07Z" fill="#11C7B7" fill-opacity="0.08" mask="url(#path-411-inside-205_20319_4595)"/>
<mask id="path-413-inside-206_20319_4595" fill="white">
<path d="M1348.52 332.05V384.5H1296.07V332.05H1348.52Z"/>
</mask>
<path d="M1296.07 384.5H1295.53V385.046H1296.07V384.5ZM1348.52 384.5V383.954H1296.07V384.5V385.046H1348.52V384.5ZM1296.07 384.5H1296.62V332.05H1296.07H1295.53V384.5H1296.07Z" fill="#11C7B7" fill-opacity="0.08" mask="url(#path-413-inside-206_20319_4595)"/>
<mask id="path-415-inside-207_20319_4595" fill="white">
<path d="M1348.52 384.5V436.95H1296.07V384.5H1348.52Z"/>
</mask>
<path d="M1296.07 436.95H1295.53V437.496H1296.07V436.95ZM1348.52 436.95V436.404H1296.07V436.95V437.496H1348.52V436.95ZM1296.07 436.95H1296.62V384.5H1296.07H1295.53V436.95H1296.07Z" fill="#11C7B7" fill-opacity="0.08" mask="url(#path-415-inside-207_20319_4595)"/>
<mask id="path-417-inside-208_20319_4595" fill="white">
<path d="M1348.52 436.95V489.4H1296.07V436.95H1348.52Z"/>
</mask>
<path d="M1348.52 436.95V489.4H1296.07V436.95H1348.52Z" fill="#0B8E83"/>
<path d="M1296.07 489.4H1295.53V489.946H1296.07V489.4ZM1348.52 489.4V488.854H1296.07V489.4V489.946H1348.52V489.4ZM1296.07 489.4H1296.62V436.95H1296.07H1295.53V489.4H1296.07Z" fill="#11C7B7" fill-opacity="0.08" mask="url(#path-417-inside-208_20319_4595)"/>
<mask id="path-419-inside-209_20319_4595" fill="white">
<path d="M1348.52 489.4V541.85H1296.07V489.4H1348.52Z"/>
</mask>
<path d="M1296.07 541.85H1295.53V542.396H1296.07V541.85ZM1348.52 541.85V541.304H1296.07V541.85V542.396H1348.52V541.85ZM1296.07 541.85H1296.62V489.4H1296.07H1295.53V541.85H1296.07Z" fill="#11C7B7" fill-opacity="0.08" mask="url(#path-419-inside-209_20319_4595)"/>
<mask id="path-421-inside-210_20319_4595" fill="white">
<path d="M1348.52 541.85V594.3H1296.07V541.85H1348.52Z"/>
</mask>
<path d="M1296.07 594.3H1295.53V594.846H1296.07V594.3ZM1348.52 594.3V593.754H1296.07V594.3V594.846H1348.52V594.3ZM1296.07 594.3H1296.62V541.85H1296.07H1295.53V594.3H1296.07Z" fill="#11C7B7" fill-opacity="0.08" mask="url(#path-421-inside-210_20319_4595)"/>
<mask id="path-423-inside-211_20319_4595" fill="white">
<path d="M1348.52 594.3V646.75H1296.07V594.3H1348.52Z"/>
</mask>
<path d="M1296.07 646.75H1295.53V647.296H1296.07V646.75ZM1348.52 646.75V646.204H1296.07V646.75V647.296H1348.52V646.75ZM1296.07 646.75H1296.62V594.3H1296.07H1295.53V646.75H1296.07Z" fill="#11C7B7" fill-opacity="0.08" mask="url(#path-423-inside-211_20319_4595)"/>
<mask id="path-425-inside-212_20319_4595" fill="white">
<path d="M1348.52 646.75V699.2H1296.07V646.75H1348.52Z"/>
</mask>
<path d="M1296.07 699.2H1295.53V699.746H1296.07V699.2ZM1348.52 699.2V698.654H1296.07V699.2V699.746H1348.52V699.2ZM1296.07 699.2H1296.62V646.75H1296.07H1295.53V699.2H1296.07Z" fill="#11C7B7" fill-opacity="0.08" mask="url(#path-425-inside-212_20319_4595)"/>
<mask id="path-427-inside-213_20319_4595" fill="white">
<path d="M1348.52 699.2V751.65H1296.07V699.2H1348.52Z"/>
</mask>
<path d="M1296.07 751.65H1295.53V752.196H1296.07V751.65ZM1348.52 751.65V751.104H1296.07V751.65V752.196H1348.52V751.65ZM1296.07 751.65H1296.62V699.2H1296.07H1295.53V751.65H1296.07Z" fill="#11C7B7" fill-opacity="0.08" mask="url(#path-427-inside-213_20319_4595)"/>
<mask id="path-429-inside-214_20319_4595" fill="white">
<path d="M1348.52 751.65V804.1H1296.07V751.65H1348.52Z"/>
</mask>
<path d="M1296.07 804.1H1295.53V804.646H1296.07V804.1ZM1348.52 804.1V803.554H1296.07V804.1V804.646H1348.52V804.1ZM1296.07 804.1H1296.62V751.65H1296.07H1295.53V804.1H1296.07Z" fill="#11C7B7" fill-opacity="0.08" mask="url(#path-429-inside-214_20319_4595)"/>
<mask id="path-431-inside-215_20319_4595" fill="white">
<path d="M1348.52 804.1V856.55H1296.07V804.1H1348.52Z"/>
</mask>
<path d="M1296.07 856.55H1295.53V857.097H1296.07V856.55ZM1348.52 856.55V856.004H1296.07V856.55V857.097H1348.52V856.55ZM1296.07 856.55H1296.62V804.1H1296.07H1295.53V856.55H1296.07Z" fill="#11C7B7" fill-opacity="0.08" mask="url(#path-431-inside-215_20319_4595)"/>
<mask id="path-433-inside-216_20319_4595" fill="white">
<path d="M1348.52 856.55V909H1296.07V856.55H1348.52Z"/>
</mask>
<path d="M1296.07 909H1295.53V909.547H1296.07V909ZM1348.52 909V908.454H1296.07V909V909.547H1348.52V909ZM1296.07 909H1296.62V856.55H1296.07H1295.53V909H1296.07Z" fill="#11C7B7" fill-opacity="0.08" mask="url(#path-433-inside-216_20319_4595)"/>
<mask id="path-435-inside-217_20319_4595" fill="white">
<path d="M1296.07 -35.1V17.35H1243.62V-35.1H1296.07Z"/>
</mask>
<path d="M1243.62 17.35H1243.08V17.8963H1243.62V17.35ZM1296.07 17.35V16.8036H1243.62V17.35V17.8963H1296.07V17.35ZM1243.62 17.35H1244.17V-35.1H1243.62H1243.08V17.35H1243.62Z" fill="#11C7B7" fill-opacity="0.08" mask="url(#path-435-inside-217_20319_4595)"/>
<mask id="path-437-inside-218_20319_4595" fill="white">
<path d="M1296.07 17.35V69.8H1243.62V17.35L1296.07 17.35Z"/>
</mask>
<path d="M1296.07 17.35V69.8H1243.62V17.35L1296.07 17.35Z" fill="#0B8E83"/>
<path d="M1243.62 69.8H1243.08V70.3463H1243.62V69.8ZM1296.07 69.8V69.2536H1243.62V69.8V70.3463H1296.07V69.8ZM1243.62 69.8H1244.17V17.35H1243.62H1243.08V69.8H1243.62Z" fill="#11C7B7" fill-opacity="0.08" mask="url(#path-437-inside-218_20319_4595)"/>
<mask id="path-439-inside-219_20319_4595" fill="white">
<path d="M1296.07 69.8V122.25H1243.62V69.8H1296.07Z"/>
</mask>
<path d="M1243.62 122.25H1243.08V122.796H1243.62V122.25ZM1296.07 122.25V121.704H1243.62V122.25V122.796H1296.07V122.25ZM1243.62 122.25H1244.17V69.8H1243.62H1243.08V122.25H1243.62Z" fill="#11C7B7" fill-opacity="0.08" mask="url(#path-439-inside-219_20319_4595)"/>
<mask id="path-441-inside-220_20319_4595" fill="white">
<path d="M1296.07 122.25V174.7H1243.62V122.25H1296.07Z"/>
</mask>
<path d="M1243.62 174.7H1243.08V175.246H1243.62V174.7ZM1296.07 174.7V174.154H1243.62V174.7V175.246H1296.07V174.7ZM1243.62 174.7H1244.17V122.25H1243.62H1243.08V174.7H1243.62Z" fill="#11C7B7" fill-opacity="0.08" mask="url(#path-441-inside-220_20319_4595)"/>
<mask id="path-443-inside-221_20319_4595" fill="white">
<path d="M1296.07 174.7V227.15H1243.62V174.7H1296.07Z"/>
</mask>
<path d="M1243.62 227.15H1243.08V227.696H1243.62V227.15ZM1296.07 227.15V226.604H1243.62V227.15V227.696H1296.07V227.15ZM1243.62 227.15H1244.17V174.7H1243.62H1243.08V227.15H1243.62Z" fill="#11C7B7" fill-opacity="0.08" mask="url(#path-443-inside-221_20319_4595)"/>
<mask id="path-445-inside-222_20319_4595" fill="white">
<path d="M1296.07 227.15V279.6H1243.62V227.15H1296.07Z"/>
</mask>
<path d="M1243.62 279.6H1243.08V280.146H1243.62V279.6ZM1296.07 279.6V279.054H1243.62V279.6V280.146H1296.07V279.6ZM1243.62 279.6H1244.17V227.15H1243.62H1243.08V279.6H1243.62Z" fill="#11C7B7" fill-opacity="0.08" mask="url(#path-445-inside-222_20319_4595)"/>
<mask id="path-447-inside-223_20319_4595" fill="white">
<path d="M1296.07 279.6V332.05H1243.62V279.6H1296.07Z"/>
</mask>
<path d="M1243.62 332.05H1243.08V332.596H1243.62V332.05ZM1296.07 332.05V331.504H1243.62V332.05V332.596H1296.07V332.05ZM1243.62 332.05H1244.17V279.6H1243.62H1243.08V332.05H1243.62Z" fill="#11C7B7" fill-opacity="0.08" mask="url(#path-447-inside-223_20319_4595)"/>
<mask id="path-449-inside-224_20319_4595" fill="white">
<path d="M1296.07 332.05V384.5H1243.62V332.05H1296.07Z"/>
</mask>
<path d="M1243.62 384.5H1243.08V385.046H1243.62V384.5ZM1296.07 384.5V383.954H1243.62V384.5V385.046H1296.07V384.5ZM1243.62 384.5H1244.17V332.05H1243.62H1243.08V384.5H1243.62Z" fill="#11C7B7" fill-opacity="0.08" mask="url(#path-449-inside-224_20319_4595)"/>
<mask id="path-451-inside-225_20319_4595" fill="white">
<path d="M1296.07 384.5V436.95H1243.62V384.5H1296.07Z"/>
</mask>
<path d="M1243.62 436.95H1243.08V437.496H1243.62V436.95ZM1296.07 436.95V436.404H1243.62V436.95V437.496H1296.07V436.95ZM1243.62 436.95H1244.17V384.5H1243.62H1243.08V436.95H1243.62Z" fill="#11C7B7" fill-opacity="0.08" mask="url(#path-451-inside-225_20319_4595)"/>
<mask id="path-453-inside-226_20319_4595" fill="white">
<path d="M1296.07 436.95V489.4H1243.62V436.95H1296.07Z"/>
</mask>
<path d="M1243.62 489.4H1243.08V489.946H1243.62V489.4ZM1296.07 489.4V488.854H1243.62V489.4V489.946H1296.07V489.4ZM1243.62 489.4H1244.17V436.95H1243.62H1243.08V489.4H1243.62Z" fill="#11C7B7" fill-opacity="0.08" mask="url(#path-453-inside-226_20319_4595)"/>
<mask id="path-455-inside-227_20319_4595" fill="white">
<path d="M1296.07 489.4V541.85H1243.62V489.4H1296.07Z"/>
</mask>
<path d="M1243.62 541.85H1243.08V542.396H1243.62V541.85ZM1296.07 541.85V541.304H1243.62V541.85V542.396H1296.07V541.85ZM1243.62 541.85H1244.17V489.4H1243.62H1243.08V541.85H1243.62Z" fill="#11C7B7" fill-opacity="0.08" mask="url(#path-455-inside-227_20319_4595)"/>
<mask id="path-457-inside-228_20319_4595" fill="white">
<path d="M1296.07 541.85V594.3H1243.62V541.85H1296.07Z"/>
</mask>
<path d="M1243.62 594.3H1243.08V594.846H1243.62V594.3ZM1296.07 594.3V593.754H1243.62V594.3V594.846H1296.07V594.3ZM1243.62 594.3H1244.17V541.85H1243.62H1243.08V594.3H1243.62Z" fill="#11C7B7" fill-opacity="0.08" mask="url(#path-457-inside-228_20319_4595)"/>
<mask id="path-459-inside-229_20319_4595" fill="white">
<path d="M1296.07 594.3V646.75H1243.62V594.3H1296.07Z"/>
</mask>
<path d="M1243.62 646.75H1243.08V647.296H1243.62V646.75ZM1296.07 646.75V646.204H1243.62V646.75V647.296H1296.07V646.75ZM1243.62 646.75H1244.17V594.3H1243.62H1243.08V646.75H1243.62Z" fill="#11C7B7" fill-opacity="0.08" mask="url(#path-459-inside-229_20319_4595)"/>
<mask id="path-461-inside-230_20319_4595" fill="white">
<path d="M1296.07 646.75V699.2H1243.62V646.75H1296.07Z"/>
</mask>
<path d="M1243.62 699.2H1243.08V699.746H1243.62V699.2ZM1296.07 699.2V698.654H1243.62V699.2V699.746H1296.07V699.2ZM1243.62 699.2H1244.17V646.75H1243.62H1243.08V699.2H1243.62Z" fill="#11C7B7" fill-opacity="0.08" mask="url(#path-461-inside-230_20319_4595)"/>
<mask id="path-463-inside-231_20319_4595" fill="white">
<path d="M1296.07 699.2V751.65H1243.62V699.2H1296.07Z"/>
</mask>
<path d="M1296.07 699.2V751.65H1243.62V699.2H1296.07Z" fill="#0B8E83"/>
<path d="M1243.62 751.65H1243.08V752.196H1243.62V751.65ZM1296.07 751.65V751.104H1243.62V751.65V752.196H1296.07V751.65ZM1243.62 751.65H1244.17V699.2H1243.62H1243.08V751.65H1243.62Z" fill="#11C7B7" fill-opacity="0.08" mask="url(#path-463-inside-231_20319_4595)"/>
<mask id="path-465-inside-232_20319_4595" fill="white">
<path d="M1296.07 751.65V804.1H1243.62V751.65H1296.07Z"/>
</mask>
<path d="M1243.62 804.1H1243.08V804.646H1243.62V804.1ZM1296.07 804.1V803.554H1243.62V804.1V804.646H1296.07V804.1ZM1243.62 804.1H1244.17V751.65H1243.62H1243.08V804.1H1243.62Z" fill="#11C7B7" fill-opacity="0.08" mask="url(#path-465-inside-232_20319_4595)"/>
<mask id="path-467-inside-233_20319_4595" fill="white">
<path d="M1296.07 804.1V856.55H1243.62V804.1H1296.07Z"/>
</mask>
<path d="M1243.62 856.55H1243.08V857.097H1243.62V856.55ZM1296.07 856.55V856.004H1243.62V856.55V857.097H1296.07V856.55ZM1243.62 856.55H1244.17V804.1H1243.62H1243.08V856.55H1243.62Z" fill="#11C7B7" fill-opacity="0.08" mask="url(#path-467-inside-233_20319_4595)"/>
<mask id="path-469-inside-234_20319_4595" fill="white">
<path d="M1296.07 856.55V909H1243.62V856.55H1296.07Z"/>
</mask>
<path d="M1243.62 909H1243.08V909.547H1243.62V909ZM1296.07 909V908.454H1243.62V909V909.547H1296.07V909ZM1243.62 909H1244.17V856.55H1243.62H1243.08V909H1243.62Z" fill="#11C7B7" fill-opacity="0.08" mask="url(#path-469-inside-234_20319_4595)"/>
</g>
<rect x="2030.1" y="-139.727" width="1048.45" height="786.204" transform="rotate(90 2030.1 -139.727)" stroke="#11C7B7" stroke-opacity="0.08" stroke-width="0.546354"/>
</g>
<defs>
<clipPath id="clip0_20319_4595">
<rect width="1920" height="909" fill="white"/>
</clipPath>
<clipPath id="clip1_20319_4595">
<rect x="2030.38" y="-140" width="1049" height="786.75" transform="rotate(90 2030.38 -140)" fill="white"/>
</clipPath>
</defs>
</svg>
