<svg width="677" height="871" viewBox="0 0 677 871" fill="none" xmlns="http://www.w3.org/2000/svg">
<g clipPath="url(#clip0_20271_21372)">
<mask id="path-3-inside-1_20271_21372" fill="white">
<path d="M682.475 -20.65V31.8H630.025V-20.65L682.475 -20.65Z"/>
</mask>
<path d="M630.025 31.8H629.479V32.3463H630.025V31.8ZM682.475 31.8V31.2536H630.025V31.8V32.3463H682.475V31.8ZM630.025 31.8H630.571V-20.65H630.025H629.479V31.8H630.025Z" fill="#11C7B7" fill-opacity="0.08" mask="url(#path-3-inside-1_20271_21372)"/>
<mask id="path-5-inside-2_20271_21372" fill="white">
<path d="M682.475 31.8V84.25H630.025V31.8L682.475 31.8Z"/>
</mask>
<path d="M630.025 84.25H629.479V84.7963H630.025V84.25ZM682.475 84.25V83.7036H630.025V84.25V84.7963H682.475V84.25ZM630.025 84.25H630.571V31.8H630.025H629.479V84.25H630.025Z" fill="#11C7B7" fill-opacity="0.08" mask="url(#path-5-inside-2_20271_21372)"/>
<mask id="path-7-inside-3_20271_21372" fill="white">
<path d="M682.475 84.25V136.7H630.025V84.25H682.475Z"/>
</mask>
<path d="M630.025 136.7H629.479V137.246H630.025V136.7ZM682.475 136.7V136.154H630.025V136.7V137.246H682.475V136.7ZM630.025 136.7H630.571V84.25H630.025H629.479V136.7H630.025Z" fill="#11C7B7" fill-opacity="0.08" mask="url(#path-7-inside-3_20271_21372)"/>
<mask id="path-9-inside-4_20271_21372" fill="white">
<path d="M682.475 136.7V189.15H630.025V136.7H682.475Z"/>
</mask>
<path d="M630.025 189.15H629.479V189.696H630.025V189.15ZM682.475 189.15V188.604H630.025V189.15V189.696H682.475V189.15ZM630.025 189.15H630.571V136.7H630.025H629.479V189.15H630.025Z" fill="#11C7B7" fill-opacity="0.08" mask="url(#path-9-inside-4_20271_21372)"/>
<mask id="path-11-inside-5_20271_21372" fill="white">
<path d="M682.475 189.15V241.6H630.025V189.15H682.475Z"/>
</mask>
<path d="M682.475 189.15V241.6H630.025V189.15H682.475Z" fill="#0B8E83"/>
<path d="M630.025 241.6H629.479V242.146H630.025V241.6ZM682.475 241.6V241.054H630.025V241.6V242.146H682.475V241.6ZM630.025 241.6H630.571V189.15H630.025H629.479V241.6H630.025Z" fill="#11C7B7" fill-opacity="0.08" mask="url(#path-11-inside-5_20271_21372)"/>
<mask id="path-13-inside-6_20271_21372" fill="white">
<path d="M682.475 241.6V294.05H630.025V241.6H682.475Z"/>
</mask>
<path d="M630.025 294.05H629.479V294.596H630.025V294.05ZM682.475 294.05V293.504H630.025V294.05V294.596H682.475V294.05ZM630.025 294.05H630.571V241.6H630.025H629.479V294.05H630.025Z" fill="#11C7B7" fill-opacity="0.08" mask="url(#path-13-inside-6_20271_21372)"/>
<mask id="path-15-inside-7_20271_21372" fill="white">
<path d="M682.475 294.05V346.5H630.025V294.05H682.475Z"/>
</mask>
<path d="M630.025 346.5H629.479V347.046H630.025V346.5ZM682.475 346.5V345.954H630.025V346.5V347.046H682.475V346.5ZM630.025 346.5H630.571V294.05H630.025H629.479V346.5H630.025Z" fill="#11C7B7" fill-opacity="0.08" mask="url(#path-15-inside-7_20271_21372)"/>
<mask id="path-17-inside-8_20271_21372" fill="white">
<path d="M682.475 346.5V398.95H630.025V346.5H682.475Z"/>
</mask>
<path d="M630.025 398.95H629.479V399.496H630.025V398.95ZM682.475 398.95V398.404H630.025V398.95V399.496H682.475V398.95ZM630.025 398.95H630.571V346.5H630.025H629.479V398.95H630.025Z" fill="#11C7B7" fill-opacity="0.08" mask="url(#path-17-inside-8_20271_21372)"/>
<mask id="path-19-inside-9_20271_21372" fill="white">
<path d="M682.475 398.95V451.4H630.025V398.95H682.475Z"/>
</mask>
<path d="M682.475 398.95V451.4H630.025V398.95H682.475Z" fill="#0B8E83"/>
<path d="M630.025 451.4H629.479V451.946H630.025V451.4ZM682.475 451.4V450.854H630.025V451.4V451.946H682.475V451.4ZM630.025 451.4H630.571V398.95H630.025H629.479V451.4H630.025Z" fill="#11C7B7" fill-opacity="0.08" mask="url(#path-19-inside-9_20271_21372)"/>
<mask id="path-21-inside-10_20271_21372" fill="white">
<path d="M682.475 451.4V503.85H630.025V451.4H682.475Z"/>
</mask>
<path d="M630.025 503.85H629.479V504.396H630.025V503.85ZM682.475 503.85V503.304H630.025V503.85V504.396H682.475V503.85ZM630.025 503.85H630.571V451.4H630.025H629.479V503.85H630.025Z" fill="#11C7B7" fill-opacity="0.08" mask="url(#path-21-inside-10_20271_21372)"/>
<mask id="path-23-inside-11_20271_21372" fill="white">
<path d="M682.475 503.85V556.3H630.025V503.85H682.475Z"/>
</mask>
<path d="M630.025 556.3H629.479V556.846H630.025V556.3ZM682.475 556.3V555.754H630.025V556.3V556.846H682.475V556.3ZM630.025 556.3H630.571V503.85H630.025H629.479V556.3H630.025Z" fill="#11C7B7" fill-opacity="0.08" mask="url(#path-23-inside-11_20271_21372)"/>
<mask id="path-25-inside-12_20271_21372" fill="white">
<path d="M682.475 556.3V608.75H630.025V556.3H682.475Z"/>
</mask>
<path d="M630.025 608.75H629.479V609.296H630.025V608.75ZM682.475 608.75V608.204H630.025V608.75V609.296H682.475V608.75ZM630.025 608.75H630.571V556.3H630.025H629.479V608.75H630.025Z" fill="#11C7B7" fill-opacity="0.08" mask="url(#path-25-inside-12_20271_21372)"/>
<mask id="path-27-inside-13_20271_21372" fill="white">
<path d="M682.475 608.75V661.2H630.025V608.75H682.475Z"/>
</mask>
<path d="M630.025 661.2H629.479V661.746H630.025V661.2ZM682.475 661.2V660.654H630.025V661.2V661.746H682.475V661.2ZM630.025 661.2H630.571V608.75H630.025H629.479V661.2H630.025Z" fill="#11C7B7" fill-opacity="0.08" mask="url(#path-27-inside-13_20271_21372)"/>
<mask id="path-29-inside-14_20271_21372" fill="white">
<path d="M682.475 661.2V713.65H630.025V661.2H682.475Z"/>
</mask>
<path d="M630.025 713.65H629.479V714.196H630.025V713.65ZM682.475 713.65V713.104H630.025V713.65V714.196H682.475V713.65ZM630.025 713.65H630.571V661.2H630.025H629.479V713.65H630.025Z" fill="#11C7B7" fill-opacity="0.08" mask="url(#path-29-inside-14_20271_21372)"/>
<mask id="path-31-inside-15_20271_21372" fill="white">
<path d="M682.475 713.65V766.1H630.025V713.65H682.475Z"/>
</mask>
<path d="M630.025 766.1H629.479V766.646H630.025V766.1ZM682.475 766.1V765.554H630.025V766.1V766.646H682.475V766.1ZM630.025 766.1H630.571V713.65H630.025H629.479V766.1H630.025Z" fill="#11C7B7" fill-opacity="0.08" mask="url(#path-31-inside-15_20271_21372)"/>
<mask id="path-33-inside-16_20271_21372" fill="white">
<path d="M682.475 766.1V818.55H630.025V766.1H682.475Z"/>
</mask>
<path d="M630.025 818.55H629.479V819.097H630.025V818.55ZM682.475 818.55V818.004H630.025V818.55V819.097H682.475V818.55ZM630.025 818.55H630.571V766.1H630.025H629.479V818.55H630.025Z" fill="#11C7B7" fill-opacity="0.08" mask="url(#path-33-inside-16_20271_21372)"/>
<mask id="path-35-inside-17_20271_21372" fill="white">
<path d="M682.475 818.55V871H630.025V818.55H682.475Z"/>
</mask>
<path d="M630.025 871H629.479V871.547H630.025V871ZM682.475 871V870.454H630.025V871V871.547H682.475V871ZM630.025 871H630.571V818.55H630.025H629.479V871H630.025Z" fill="#11C7B7" fill-opacity="0.08" mask="url(#path-35-inside-17_20271_21372)"/>
<mask id="path-37-inside-18_20271_21372" fill="white">
<path d="M630.025 -20.65V31.8H577.575V-20.65L630.025 -20.65Z"/>
</mask>
<path d="M577.575 31.8H577.029V32.3463H577.575V31.8ZM630.025 31.8V31.2536H577.575V31.8V32.3463H630.025V31.8ZM577.575 31.8H578.121V-20.65H577.575H577.029V31.8H577.575Z" fill="#11C7B7" fill-opacity="0.08" mask="url(#path-37-inside-18_20271_21372)"/>
<mask id="path-39-inside-19_20271_21372" fill="white">
<path d="M630.025 31.8V84.25H577.575V31.8L630.025 31.8Z"/>
</mask>
<path d="M577.575 84.25H577.029V84.7963H577.575V84.25ZM630.025 84.25V83.7036H577.575V84.25V84.7963H630.025V84.25ZM577.575 84.25H578.121V31.8H577.575H577.029V84.25H577.575Z" fill="#11C7B7" fill-opacity="0.08" mask="url(#path-39-inside-19_20271_21372)"/>
<mask id="path-41-inside-20_20271_21372" fill="white">
<path d="M630.025 84.25V136.7H577.575V84.25H630.025Z"/>
</mask>
<path d="M577.575 136.7H577.029V137.246H577.575V136.7ZM630.025 136.7V136.154H577.575V136.7V137.246H630.025V136.7ZM577.575 136.7H578.121V84.25H577.575H577.029V136.7H577.575Z" fill="#11C7B7" fill-opacity="0.08" mask="url(#path-41-inside-20_20271_21372)"/>
<mask id="path-43-inside-21_20271_21372" fill="white">
<path d="M630.025 136.7V189.15H577.575V136.7H630.025Z"/>
</mask>
<path d="M577.575 189.15H577.029V189.696H577.575V189.15ZM630.025 189.15V188.604H577.575V189.15V189.696H630.025V189.15ZM577.575 189.15H578.121V136.7H577.575H577.029V189.15H577.575Z" fill="#11C7B7" fill-opacity="0.08" mask="url(#path-43-inside-21_20271_21372)"/>
<mask id="path-45-inside-22_20271_21372" fill="white">
<path d="M630.025 189.15V241.6H577.575V189.15H630.025Z"/>
</mask>
<path d="M577.575 241.6H577.029V242.146H577.575V241.6ZM630.025 241.6V241.054H577.575V241.6V242.146H630.025V241.6ZM577.575 241.6H578.121V189.15H577.575H577.029V241.6H577.575Z" fill="#11C7B7" fill-opacity="0.08" mask="url(#path-45-inside-22_20271_21372)"/>
<mask id="path-47-inside-23_20271_21372" fill="white">
<path d="M630.025 241.6V294.05H577.575V241.6H630.025Z"/>
</mask>
<path d="M577.575 294.05H577.029V294.596H577.575V294.05ZM630.025 294.05V293.504H577.575V294.05V294.596H630.025V294.05ZM577.575 294.05H578.121V241.6H577.575H577.029V294.05H577.575Z" fill="#11C7B7" fill-opacity="0.08" mask="url(#path-47-inside-23_20271_21372)"/>
<mask id="path-49-inside-24_20271_21372" fill="white">
<path d="M630.025 294.05V346.5H577.575V294.05H630.025Z"/>
</mask>
<path d="M577.575 346.5H577.029V347.046H577.575V346.5ZM630.025 346.5V345.954H577.575V346.5V347.046H630.025V346.5ZM577.575 346.5H578.121V294.05H577.575H577.029V346.5H577.575Z" fill="#11C7B7" fill-opacity="0.08" mask="url(#path-49-inside-24_20271_21372)"/>
<mask id="path-51-inside-25_20271_21372" fill="white">
<path d="M630.025 346.5V398.95H577.575V346.5H630.025Z"/>
</mask>
<path d="M577.575 398.95H577.029V399.496H577.575V398.95ZM630.025 398.95V398.404H577.575V398.95V399.496H630.025V398.95ZM577.575 398.95H578.121V346.5H577.575H577.029V398.95H577.575Z" fill="#11C7B7" fill-opacity="0.08" mask="url(#path-51-inside-25_20271_21372)"/>
<mask id="path-53-inside-26_20271_21372" fill="white">
<path d="M630.025 398.95V451.4H577.575V398.95H630.025Z"/>
</mask>
<path d="M577.575 451.4H577.029V451.946H577.575V451.4ZM630.025 451.4V450.854H577.575V451.4V451.946H630.025V451.4ZM577.575 451.4H578.121V398.95H577.575H577.029V451.4H577.575Z" fill="#11C7B7" fill-opacity="0.08" mask="url(#path-53-inside-26_20271_21372)"/>
<mask id="path-55-inside-27_20271_21372" fill="white">
<path d="M630.025 451.4V503.85H577.575V451.4H630.025Z"/>
</mask>
<path d="M577.575 503.85H577.029V504.396H577.575V503.85ZM630.025 503.85V503.304H577.575V503.85V504.396H630.025V503.85ZM577.575 503.85H578.121V451.4H577.575H577.029V503.85H577.575Z" fill="#11C7B7" fill-opacity="0.08" mask="url(#path-55-inside-27_20271_21372)"/>
<mask id="path-57-inside-28_20271_21372" fill="white">
<path d="M630.025 503.85V556.3H577.575V503.85H630.025Z"/>
</mask>
<path d="M577.575 556.3H577.029V556.846H577.575V556.3ZM630.025 556.3V555.754H577.575V556.3V556.846H630.025V556.3ZM577.575 556.3H578.121V503.85H577.575H577.029V556.3H577.575Z" fill="#11C7B7" fill-opacity="0.08" mask="url(#path-57-inside-28_20271_21372)"/>
<mask id="path-59-inside-29_20271_21372" fill="white">
<path d="M630.025 556.3V608.75H577.575V556.3H630.025Z"/>
</mask>
<path d="M630.025 556.3V608.75H577.575V556.3H630.025Z" fill="#0B8E83"/>
<path d="M577.575 608.75H577.029V609.296H577.575V608.75ZM630.025 608.75V608.204H577.575V608.75V609.296H630.025V608.75ZM577.575 608.75H578.121V556.3H577.575H577.029V608.75H577.575Z" fill="#11C7B7" fill-opacity="0.08" mask="url(#path-59-inside-29_20271_21372)"/>
<mask id="path-61-inside-30_20271_21372" fill="white">
<path d="M630.025 608.75V661.2H577.575V608.75H630.025Z"/>
</mask>
<path d="M577.575 661.2H577.029V661.746H577.575V661.2ZM630.025 661.2V660.654H577.575V661.2V661.746H630.025V661.2ZM577.575 661.2H578.121V608.75H577.575H577.029V661.2H577.575Z" fill="#11C7B7" fill-opacity="0.08" mask="url(#path-61-inside-30_20271_21372)"/>
<mask id="path-63-inside-31_20271_21372" fill="white">
<path d="M630.025 661.2V713.65H577.575V661.2H630.025Z"/>
</mask>
<path d="M577.575 713.65H577.029V714.196H577.575V713.65ZM630.025 713.65V713.104H577.575V713.65V714.196H630.025V713.65ZM577.575 713.65H578.121V661.2H577.575H577.029V713.65H577.575Z" fill="#11C7B7" fill-opacity="0.08" mask="url(#path-63-inside-31_20271_21372)"/>
<mask id="path-65-inside-32_20271_21372" fill="white">
<path d="M630.025 713.65V766.1H577.575V713.65H630.025Z"/>
</mask>
<path d="M577.575 766.1H577.029V766.646H577.575V766.1ZM630.025 766.1V765.554H577.575V766.1V766.646H630.025V766.1ZM577.575 766.1H578.121V713.65H577.575H577.029V766.1H577.575Z" fill="#11C7B7" fill-opacity="0.08" mask="url(#path-65-inside-32_20271_21372)"/>
<mask id="path-67-inside-33_20271_21372" fill="white">
<path d="M630.025 766.1V818.55H577.575V766.1H630.025Z"/>
</mask>
<path d="M577.575 818.55H577.029V819.097H577.575V818.55ZM630.025 818.55V818.004H577.575V818.55V819.097H630.025V818.55ZM577.575 818.55H578.121V766.1H577.575H577.029V818.55H577.575Z" fill="#11C7B7" fill-opacity="0.08" mask="url(#path-67-inside-33_20271_21372)"/>
<mask id="path-69-inside-34_20271_21372" fill="white">
<path d="M630.025 818.55V871H577.575V818.55H630.025Z"/>
</mask>
<path d="M577.575 871H577.029V871.547H577.575V871ZM630.025 871V870.454H577.575V871V871.547H630.025V871ZM577.575 871H578.121V818.55H577.575H577.029V871H577.575Z" fill="#11C7B7" fill-opacity="0.08" mask="url(#path-69-inside-34_20271_21372)"/>
<mask id="path-71-inside-35_20271_21372" fill="white">
<path d="M577.575 -20.65V31.8H525.125V-20.65L577.575 -20.65Z"/>
</mask>
<path d="M525.125 31.8H524.579V32.3463H525.125V31.8ZM577.575 31.8V31.2536H525.125V31.8V32.3463H577.575V31.8ZM525.125 31.8H525.671V-20.65H525.125H524.579V31.8H525.125Z" fill="#11C7B7" fill-opacity="0.08" mask="url(#path-71-inside-35_20271_21372)"/>
<mask id="path-73-inside-36_20271_21372" fill="white">
<path d="M577.575 31.8V84.25H525.125V31.8L577.575 31.8Z"/>
</mask>
<path d="M525.125 84.25H524.579V84.7963H525.125V84.25ZM577.575 84.25V83.7036H525.125V84.25V84.7963H577.575V84.25ZM525.125 84.25H525.671V31.8H525.125H524.579V84.25H525.125Z" fill="#11C7B7" fill-opacity="0.08" mask="url(#path-73-inside-36_20271_21372)"/>
<mask id="path-75-inside-37_20271_21372" fill="white">
<path d="M577.575 84.25V136.7H525.125V84.25H577.575Z"/>
</mask>
<path d="M525.125 136.7H524.579V137.246H525.125V136.7ZM577.575 136.7V136.154H525.125V136.7V137.246H577.575V136.7ZM525.125 136.7H525.671V84.25H525.125H524.579V136.7H525.125Z" fill="#11C7B7" fill-opacity="0.08" mask="url(#path-75-inside-37_20271_21372)"/>
<mask id="path-77-inside-38_20271_21372" fill="white">
<path d="M577.575 136.7V189.15H525.125V136.7H577.575Z"/>
</mask>
<path d="M525.125 189.15H524.579V189.696H525.125V189.15ZM577.575 189.15V188.604H525.125V189.15V189.696H577.575V189.15ZM525.125 189.15H525.671V136.7H525.125H524.579V189.15H525.125Z" fill="#11C7B7" fill-opacity="0.08" mask="url(#path-77-inside-38_20271_21372)"/>
<mask id="path-79-inside-39_20271_21372" fill="white">
<path d="M577.575 189.15V241.6H525.125V189.15H577.575Z"/>
</mask>
<path d="M525.125 241.6H524.579V242.146H525.125V241.6ZM577.575 241.6V241.054H525.125V241.6V242.146H577.575V241.6ZM525.125 241.6H525.671V189.15H525.125H524.579V241.6H525.125Z" fill="#11C7B7" fill-opacity="0.08" mask="url(#path-79-inside-39_20271_21372)"/>
<mask id="path-81-inside-40_20271_21372" fill="white">
<path d="M577.575 241.6V294.05H525.125V241.6H577.575Z"/>
</mask>
<path d="M577.575 241.6V294.05H525.125V241.6H577.575Z" fill="#0B8E83"/>
<path d="M525.125 294.05H524.579V294.596H525.125V294.05ZM577.575 294.05V293.504H525.125V294.05V294.596H577.575V294.05ZM525.125 294.05H525.671V241.6H525.125H524.579V294.05H525.125Z" fill="#11C7B7" fill-opacity="0.08" mask="url(#path-81-inside-40_20271_21372)"/>
<mask id="path-83-inside-41_20271_21372" fill="white">
<path d="M577.575 294.05V346.5H525.125V294.05H577.575Z"/>
</mask>
<path d="M525.125 346.5H524.579V347.046H525.125V346.5ZM577.575 346.5V345.954H525.125V346.5V347.046H577.575V346.5ZM525.125 346.5H525.671V294.05H525.125H524.579V346.5H525.125Z" fill="#11C7B7" fill-opacity="0.08" mask="url(#path-83-inside-41_20271_21372)"/>
<mask id="path-85-inside-42_20271_21372" fill="white">
<path d="M577.575 346.5V398.95H525.125V346.5H577.575Z"/>
</mask>
<path d="M525.125 398.95H524.579V399.496H525.125V398.95ZM577.575 398.95V398.404H525.125V398.95V399.496H577.575V398.95ZM525.125 398.95H525.671V346.5H525.125H524.579V398.95H525.125Z" fill="#11C7B7" fill-opacity="0.08" mask="url(#path-85-inside-42_20271_21372)"/>
<mask id="path-87-inside-43_20271_21372" fill="white">
<path d="M577.575 398.95V451.4H525.125V398.95H577.575Z"/>
</mask>
<path d="M525.125 451.4H524.579V451.946H525.125V451.4ZM577.575 451.4V450.854H525.125V451.4V451.946H577.575V451.4ZM525.125 451.4H525.671V398.95H525.125H524.579V451.4H525.125Z" fill="#11C7B7" fill-opacity="0.08" mask="url(#path-87-inside-43_20271_21372)"/>
<mask id="path-89-inside-44_20271_21372" fill="white">
<path d="M577.575 451.4V503.85H525.125V451.4H577.575Z"/>
</mask>
<path d="M525.125 503.85H524.579V504.396H525.125V503.85ZM577.575 503.85V503.304H525.125V503.85V504.396H577.575V503.85ZM525.125 503.85H525.671V451.4H525.125H524.579V503.85H525.125Z" fill="#11C7B7" fill-opacity="0.08" mask="url(#path-89-inside-44_20271_21372)"/>
<mask id="path-91-inside-45_20271_21372" fill="white">
<path d="M577.575 503.85V556.3H525.125V503.85H577.575Z"/>
</mask>
<path d="M525.125 556.3H524.579V556.846H525.125V556.3ZM577.575 556.3V555.754H525.125V556.3V556.846H577.575V556.3ZM525.125 556.3H525.671V503.85H525.125H524.579V556.3H525.125Z" fill="#11C7B7" fill-opacity="0.08" mask="url(#path-91-inside-45_20271_21372)"/>
<mask id="path-93-inside-46_20271_21372" fill="white">
<path d="M577.575 556.3V608.75H525.125V556.3H577.575Z"/>
</mask>
<path d="M525.125 608.75H524.579V609.296H525.125V608.75ZM577.575 608.75V608.204H525.125V608.75V609.296H577.575V608.75ZM525.125 608.75H525.671V556.3H525.125H524.579V608.75H525.125Z" fill="#11C7B7" fill-opacity="0.08" mask="url(#path-93-inside-46_20271_21372)"/>
<mask id="path-95-inside-47_20271_21372" fill="white">
<path d="M577.575 608.75V661.2H525.125V608.75H577.575Z"/>
</mask>
<path d="M525.125 661.2H524.579V661.746H525.125V661.2ZM577.575 661.2V660.654H525.125V661.2V661.746H577.575V661.2ZM525.125 661.2H525.671V608.75H525.125H524.579V661.2H525.125Z" fill="#11C7B7" fill-opacity="0.08" mask="url(#path-95-inside-47_20271_21372)"/>
<mask id="path-97-inside-48_20271_21372" fill="white">
<path d="M577.575 661.2V713.65H525.125V661.2H577.575Z"/>
</mask>
<path d="M525.125 713.65H524.579V714.196H525.125V713.65ZM577.575 713.65V713.104H525.125V713.65V714.196H577.575V713.65ZM525.125 713.65H525.671V661.2H525.125H524.579V713.65H525.125Z" fill="#11C7B7" fill-opacity="0.08" mask="url(#path-97-inside-48_20271_21372)"/>
<mask id="path-99-inside-49_20271_21372" fill="white">
<path d="M577.575 713.65V766.1H525.125V713.65H577.575Z"/>
</mask>
<path d="M525.125 766.1H524.579V766.646H525.125V766.1ZM577.575 766.1V765.554H525.125V766.1V766.646H577.575V766.1ZM525.125 766.1H525.671V713.65H525.125H524.579V766.1H525.125Z" fill="#11C7B7" fill-opacity="0.08" mask="url(#path-99-inside-49_20271_21372)"/>
<mask id="path-101-inside-50_20271_21372" fill="white">
<path d="M577.575 766.1V818.55H525.125V766.1H577.575Z"/>
</mask>
<path d="M577.575 766.1V818.55H525.125V766.1H577.575Z" fill="#0B8E83"/>
<path d="M525.125 818.55H524.579V819.097H525.125V818.55ZM577.575 818.55V818.004H525.125V818.55V819.097H577.575V818.55ZM525.125 818.55H525.671V766.1H525.125H524.579V818.55H525.125Z" fill="#11C7B7" fill-opacity="0.08" mask="url(#path-101-inside-50_20271_21372)"/>
<mask id="path-103-inside-51_20271_21372" fill="white">
<path d="M577.575 818.55V871H525.125V818.55H577.575Z"/>
</mask>
<path d="M525.125 871H524.579V871.547H525.125V871ZM577.575 871V870.454H525.125V871V871.547H577.575V871ZM525.125 871H525.671V818.55H525.125H524.579V871H525.125Z" fill="#11C7B7" fill-opacity="0.08" mask="url(#path-103-inside-51_20271_21372)"/>
<mask id="path-105-inside-52_20271_21372" fill="white">
<path d="M525.125 -20.6501V31.7999H472.675V-20.6501L525.125 -20.6501Z"/>
</mask>
<path d="M472.675 31.7999H472.129V32.3463H472.675V31.7999ZM525.125 31.7999V31.2536H472.675V31.7999V32.3463H525.125V31.7999ZM472.675 31.7999H473.221V-20.6501H472.675H472.129V31.7999H472.675Z" fill="#11C7B7" fill-opacity="0.08" mask="url(#path-105-inside-52_20271_21372)"/>
<mask id="path-107-inside-53_20271_21372" fill="white">
<path d="M525.125 31.8001V84.2501H472.675V31.8001L525.125 31.8001Z"/>
</mask>
<path d="M472.675 84.2501H472.129V84.7964H472.675V84.2501ZM525.125 84.2501V83.7037H472.675V84.2501V84.7964H525.125V84.2501ZM472.675 84.2501H473.221V31.8001H472.675H472.129V84.2501H472.675Z" fill="#11C7B7" fill-opacity="0.08" mask="url(#path-107-inside-53_20271_21372)"/>
<mask id="path-109-inside-54_20271_21372" fill="white">
<path d="M525.125 84.25V136.7H472.675V84.25H525.125Z"/>
</mask>
<path d="M525.125 84.25V136.7H472.675V84.25H525.125Z" fill="#0B8E83"/>
<path d="M472.675 136.7H472.129V137.246H472.675V136.7ZM525.125 136.7V136.154H472.675V136.7V137.246H525.125V136.7ZM472.675 136.7H473.221V84.25H472.675H472.129V136.7H472.675Z" fill="#11C7B7" fill-opacity="0.08" mask="url(#path-109-inside-54_20271_21372)"/>
<mask id="path-111-inside-55_20271_21372" fill="white">
<path d="M525.125 136.7V189.15H472.675V136.7H525.125Z"/>
</mask>
<path d="M472.675 189.15H472.129V189.696H472.675V189.15ZM525.125 189.15V188.604H472.675V189.15V189.696H525.125V189.15ZM472.675 189.15H473.221V136.7H472.675H472.129V189.15H472.675Z" fill="#11C7B7" fill-opacity="0.08" mask="url(#path-111-inside-55_20271_21372)"/>
<mask id="path-113-inside-56_20271_21372" fill="white">
<path d="M525.125 189.15V241.6H472.675V189.15H525.125Z"/>
</mask>
<path d="M472.675 241.6H472.129V242.146H472.675V241.6ZM525.125 241.6V241.054H472.675V241.6V242.146H525.125V241.6ZM472.675 241.6H473.221V189.15H472.675H472.129V241.6H472.675Z" fill="#11C7B7" fill-opacity="0.08" mask="url(#path-113-inside-56_20271_21372)"/>
<mask id="path-115-inside-57_20271_21372" fill="white">
<path d="M525.125 241.6V294.05H472.675V241.6H525.125Z"/>
</mask>
<path d="M472.675 294.05H472.129V294.597H472.675V294.05ZM525.125 294.05V293.504H472.675V294.05V294.597H525.125V294.05ZM472.675 294.05H473.221V241.6H472.675H472.129V294.05H472.675Z" fill="#11C7B7" fill-opacity="0.08" mask="url(#path-115-inside-57_20271_21372)"/>
<mask id="path-117-inside-58_20271_21372" fill="white">
<path d="M525.125 294.05V346.5H472.675V294.05H525.125Z"/>
</mask>
<path d="M472.675 346.5H472.129V347.046H472.675V346.5ZM525.125 346.5V345.954H472.675V346.5V347.046H525.125V346.5ZM472.675 346.5H473.221V294.05H472.675H472.129V346.5H472.675Z" fill="#11C7B7" fill-opacity="0.08" mask="url(#path-117-inside-58_20271_21372)"/>
<mask id="path-119-inside-59_20271_21372" fill="white">
<path d="M525.125 346.5V398.95H472.675V346.5H525.125Z"/>
</mask>
<path d="M472.675 398.95H472.129V399.496H472.675V398.95ZM525.125 398.95V398.404H472.675V398.95V399.496H525.125V398.95ZM472.675 398.95H473.221V346.5H472.675H472.129V398.95H472.675Z" fill="#11C7B7" fill-opacity="0.08" mask="url(#path-119-inside-59_20271_21372)"/>
<mask id="path-121-inside-60_20271_21372" fill="white">
<path d="M525.125 398.95V451.4H472.675V398.95H525.125Z"/>
</mask>
<path d="M525.125 398.95V451.4H472.675V398.95H525.125Z" fill="#0B8E83"/>
<path d="M472.675 451.4H472.129V451.946H472.675V451.4ZM525.125 451.4V450.854H472.675V451.4V451.946H525.125V451.4ZM472.675 451.4H473.221V398.95H472.675H472.129V451.4H472.675Z" fill="#11C7B7" fill-opacity="0.08" mask="url(#path-121-inside-60_20271_21372)"/>
<mask id="path-123-inside-61_20271_21372" fill="white">
<path d="M525.125 451.4V503.85H472.675V451.4H525.125Z"/>
</mask>
<path d="M472.675 503.85H472.129V504.396H472.675V503.85ZM525.125 503.85V503.304H472.675V503.85V504.396H525.125V503.85ZM472.675 503.85H473.221V451.4H472.675H472.129V503.85H472.675Z" fill="#11C7B7" fill-opacity="0.08" mask="url(#path-123-inside-61_20271_21372)"/>
<mask id="path-125-inside-62_20271_21372" fill="white">
<path d="M525.125 503.85V556.3H472.675V503.85H525.125Z"/>
</mask>
<path d="M472.675 556.3H472.129V556.846H472.675V556.3ZM525.125 556.3V555.754H472.675V556.3V556.846H525.125V556.3ZM472.675 556.3H473.221V503.85H472.675H472.129V556.3H472.675Z" fill="#11C7B7" fill-opacity="0.08" mask="url(#path-125-inside-62_20271_21372)"/>
<mask id="path-127-inside-63_20271_21372" fill="white">
<path d="M525.125 556.3V608.75H472.675V556.3H525.125Z"/>
</mask>
<path d="M472.675 608.75H472.129V609.296H472.675V608.75ZM525.125 608.75V608.204H472.675V608.75V609.296H525.125V608.75ZM472.675 608.75H473.221V556.3H472.675H472.129V608.75H472.675Z" fill="#11C7B7" fill-opacity="0.08" mask="url(#path-127-inside-63_20271_21372)"/>
<mask id="path-129-inside-64_20271_21372" fill="white">
<path d="M525.125 608.75V661.2H472.675V608.75H525.125Z"/>
</mask>
<path d="M472.675 661.2H472.129V661.746H472.675V661.2ZM525.125 661.2V660.654H472.675V661.2V661.746H525.125V661.2ZM472.675 661.2H473.221V608.75H472.675H472.129V661.2H472.675Z" fill="#11C7B7" fill-opacity="0.08" mask="url(#path-129-inside-64_20271_21372)"/>
<mask id="path-131-inside-65_20271_21372" fill="white">
<path d="M525.125 661.2V713.65H472.675V661.2H525.125Z"/>
</mask>
<path d="M472.675 713.65H472.129V714.196H472.675V713.65ZM525.125 713.65V713.104H472.675V713.65V714.196H525.125V713.65ZM472.675 713.65H473.221V661.2H472.675H472.129V713.65H472.675Z" fill="#11C7B7" fill-opacity="0.08" mask="url(#path-131-inside-65_20271_21372)"/>
<mask id="path-133-inside-66_20271_21372" fill="white">
<path d="M525.125 713.65V766.1H472.675V713.65H525.125Z"/>
</mask>
<path d="M472.675 766.1H472.129V766.646H472.675V766.1ZM525.125 766.1V765.554H472.675V766.1V766.646H525.125V766.1ZM472.675 766.1H473.221V713.65H472.675H472.129V766.1H472.675Z" fill="#11C7B7" fill-opacity="0.08" mask="url(#path-133-inside-66_20271_21372)"/>
<mask id="path-135-inside-67_20271_21372" fill="white">
<path d="M525.125 766.1V818.55H472.675V766.1H525.125Z"/>
</mask>
<path d="M472.675 818.55H472.129V819.097H472.675V818.55ZM525.125 818.55V818.004H472.675V818.55V819.097H525.125V818.55ZM472.675 818.55H473.221V766.1H472.675H472.129V818.55H472.675Z" fill="#11C7B7" fill-opacity="0.08" mask="url(#path-135-inside-67_20271_21372)"/>
<mask id="path-137-inside-68_20271_21372" fill="white">
<path d="M525.125 818.55V871H472.675V818.55H525.125Z"/>
</mask>
<path d="M472.675 871H472.129V871.547H472.675V871ZM525.125 871V870.454H472.675V871V871.547H525.125V871ZM472.675 871H473.221V818.55H472.675H472.129V871H472.675Z" fill="#11C7B7" fill-opacity="0.08" mask="url(#path-137-inside-68_20271_21372)"/>
<mask id="path-139-inside-69_20271_21372" fill="white">
<path d="M472.675 -20.65V31.8H420.225V-20.65L472.675 -20.65Z"/>
</mask>
<path d="M472.675 -20.65V31.8H420.225V-20.65L472.675 -20.65Z" fill="#0B8E83"/>
<path d="M420.225 31.8H419.679V32.3463H420.225V31.8ZM472.675 31.8V31.2536H420.225V31.8V32.3463H472.675V31.8ZM420.225 31.8H420.771V-20.65H420.225H419.679V31.8H420.225Z" fill="#11C7B7" fill-opacity="0.08" mask="url(#path-139-inside-69_20271_21372)"/>
<mask id="path-141-inside-70_20271_21372" fill="white">
<path d="M472.675 31.8V84.25H420.225V31.8L472.675 31.8Z"/>
</mask>
<path d="M420.225 84.25H419.679V84.7963H420.225V84.25ZM472.675 84.25V83.7036H420.225V84.25V84.7963H472.675V84.25ZM420.225 84.25H420.771V31.8H420.225H419.679V84.25H420.225Z" fill="#11C7B7" fill-opacity="0.08" mask="url(#path-141-inside-70_20271_21372)"/>
<mask id="path-143-inside-71_20271_21372" fill="white">
<path d="M472.675 84.25V136.7H420.225V84.25H472.675Z"/>
</mask>
<path d="M420.225 136.7H419.679V137.246H420.225V136.7ZM472.675 136.7V136.154H420.225V136.7V137.246H472.675V136.7ZM420.225 136.7H420.771V84.25H420.225H419.679V136.7H420.225Z" fill="#11C7B7" fill-opacity="0.08" mask="url(#path-143-inside-71_20271_21372)"/>
<mask id="path-145-inside-72_20271_21372" fill="white">
<path d="M472.675 136.7V189.15H420.225V136.7H472.675Z"/>
</mask>
<path d="M420.225 189.15H419.679V189.696H420.225V189.15ZM472.675 189.15V188.604H420.225V189.15V189.696H472.675V189.15ZM420.225 189.15H420.771V136.7H420.225H419.679V189.15H420.225Z" fill="#11C7B7" fill-opacity="0.08" mask="url(#path-145-inside-72_20271_21372)"/>
<mask id="path-147-inside-73_20271_21372" fill="white">
<path d="M472.675 189.15V241.6H420.225V189.15H472.675Z"/>
</mask>
<path d="M420.225 241.6H419.679V242.146H420.225V241.6ZM472.675 241.6V241.054H420.225V241.6V242.146H472.675V241.6ZM420.225 241.6H420.771V189.15H420.225H419.679V241.6H420.225Z" fill="#11C7B7" fill-opacity="0.08" mask="url(#path-147-inside-73_20271_21372)"/>
<mask id="path-149-inside-74_20271_21372" fill="white">
<path d="M472.675 241.6V294.05H420.225V241.6H472.675Z"/>
</mask>
<path d="M420.225 294.05H419.679V294.596H420.225V294.05ZM472.675 294.05V293.504H420.225V294.05V294.596H472.675V294.05ZM420.225 294.05H420.771V241.6H420.225H419.679V294.05H420.225Z" fill="#11C7B7" fill-opacity="0.08" mask="url(#path-149-inside-74_20271_21372)"/>
<mask id="path-151-inside-75_20271_21372" fill="white">
<path d="M472.675 294.05V346.5H420.225V294.05H472.675Z"/>
</mask>
<path d="M420.225 346.5H419.679V347.046H420.225V346.5ZM472.675 346.5V345.954H420.225V346.5V347.046H472.675V346.5ZM420.225 346.5H420.771V294.05H420.225H419.679V346.5H420.225Z" fill="#11C7B7" fill-opacity="0.08" mask="url(#path-151-inside-75_20271_21372)"/>
<mask id="path-153-inside-76_20271_21372" fill="white">
<path d="M472.675 346.5V398.95H420.225V346.5H472.675Z"/>
</mask>
<path d="M420.225 398.95H419.679V399.496H420.225V398.95ZM472.675 398.95V398.404H420.225V398.95V399.496H472.675V398.95ZM420.225 398.95H420.771V346.5H420.225H419.679V398.95H420.225Z" fill="#11C7B7" fill-opacity="0.08" mask="url(#path-153-inside-76_20271_21372)"/>
<mask id="path-155-inside-77_20271_21372" fill="white">
<path d="M472.675 398.95V451.4H420.225V398.95H472.675Z"/>
</mask>
<path d="M420.225 451.4H419.679V451.946H420.225V451.4ZM472.675 451.4V450.854H420.225V451.4V451.946H472.675V451.4ZM420.225 451.4H420.771V398.95H420.225H419.679V451.4H420.225Z" fill="#11C7B7" fill-opacity="0.08" mask="url(#path-155-inside-77_20271_21372)"/>
<mask id="path-157-inside-78_20271_21372" fill="white">
<path d="M472.675 451.4V503.85H420.225V451.4H472.675Z"/>
</mask>
<path d="M420.225 503.85H419.679V504.396H420.225V503.85ZM472.675 503.85V503.304H420.225V503.85V504.396H472.675V503.85ZM420.225 503.85H420.771V451.4H420.225H419.679V503.85H420.225Z" fill="#11C7B7" fill-opacity="0.08" mask="url(#path-157-inside-78_20271_21372)"/>
<mask id="path-159-inside-79_20271_21372" fill="white">
<path d="M472.675 503.85V556.3H420.225V503.85H472.675Z"/>
</mask>
<path d="M420.225 556.3H419.679V556.846H420.225V556.3ZM472.675 556.3V555.754H420.225V556.3V556.846H472.675V556.3ZM420.225 556.3H420.771V503.85H420.225H419.679V556.3H420.225Z" fill="#11C7B7" fill-opacity="0.08" mask="url(#path-159-inside-79_20271_21372)"/>
<mask id="path-161-inside-80_20271_21372" fill="white">
<path d="M472.675 556.3V608.75H420.225V556.3H472.675Z"/>
</mask>
<path d="M420.225 608.75H419.679V609.296H420.225V608.75ZM472.675 608.75V608.204H420.225V608.75V609.296H472.675V608.75ZM420.225 608.75H420.771V556.3H420.225H419.679V608.75H420.225Z" fill="#11C7B7" fill-opacity="0.08" mask="url(#path-161-inside-80_20271_21372)"/>
<mask id="path-163-inside-81_20271_21372" fill="white">
<path d="M472.675 608.75V661.2H420.225V608.75H472.675Z"/>
</mask>
<path d="M420.225 661.2H419.679V661.746H420.225V661.2ZM472.675 661.2V660.654H420.225V661.2V661.746H472.675V661.2ZM420.225 661.2H420.771V608.75H420.225H419.679V661.2H420.225Z" fill="#11C7B7" fill-opacity="0.08" mask="url(#path-163-inside-81_20271_21372)"/>
<mask id="path-165-inside-82_20271_21372" fill="white">
<path d="M472.675 661.2V713.65H420.225V661.2H472.675Z"/>
</mask>
<path d="M472.675 661.2V713.65H420.225V661.2H472.675Z" fill="#0B8E83"/>
<path d="M420.225 713.65H419.679V714.196H420.225V713.65ZM472.675 713.65V713.104H420.225V713.65V714.196H472.675V713.65ZM420.225 713.65H420.771V661.2H420.225H419.679V713.65H420.225Z" fill="#11C7B7" fill-opacity="0.08" mask="url(#path-165-inside-82_20271_21372)"/>
<mask id="path-167-inside-83_20271_21372" fill="white">
<path d="M472.675 713.65V766.1H420.225V713.65H472.675Z"/>
</mask>
<path d="M420.225 766.1H419.679V766.646H420.225V766.1ZM472.675 766.1V765.554H420.225V766.1V766.646H472.675V766.1ZM420.225 766.1H420.771V713.65H420.225H419.679V766.1H420.225Z" fill="#11C7B7" fill-opacity="0.08" mask="url(#path-167-inside-83_20271_21372)"/>
<mask id="path-169-inside-84_20271_21372" fill="white">
<path d="M472.675 766.1V818.55H420.225V766.1H472.675Z"/>
</mask>
<path d="M420.225 818.55H419.679V819.097H420.225V818.55ZM472.675 818.55V818.004H420.225V818.55V819.097H472.675V818.55ZM420.225 818.55H420.771V766.1H420.225H419.679V818.55H420.225Z" fill="#11C7B7" fill-opacity="0.08" mask="url(#path-169-inside-84_20271_21372)"/>
<mask id="path-171-inside-85_20271_21372" fill="white">
<path d="M472.675 818.55V871H420.225V818.55H472.675Z"/>
</mask>
<path d="M420.225 871H419.679V871.547H420.225V871ZM472.675 871V870.454H420.225V871V871.547H472.675V871ZM420.225 871H420.771V818.55H420.225H419.679V871H420.225Z" fill="#11C7B7" fill-opacity="0.08" mask="url(#path-171-inside-85_20271_21372)"/>
<mask id="path-173-inside-86_20271_21372" fill="white">
<path d="M420.225 -20.65V31.8H367.775V-20.65L420.225 -20.65Z"/>
</mask>
<path d="M367.775 31.8H367.229V32.3463H367.775V31.8ZM420.225 31.8V31.2536H367.775V31.8V32.3463H420.225V31.8ZM367.775 31.8H368.321V-20.65H367.775H367.229V31.8H367.775Z" fill="#11C7B7" fill-opacity="0.08" mask="url(#path-173-inside-86_20271_21372)"/>
<mask id="path-175-inside-87_20271_21372" fill="white">
<path d="M420.225 31.8V84.25H367.775V31.8L420.225 31.8Z"/>
</mask>
<path d="M367.775 84.25H367.229V84.7963H367.775V84.25ZM420.225 84.25V83.7036H367.775V84.25V84.7963H420.225V84.25ZM367.775 84.25H368.321V31.8H367.775H367.229V84.25H367.775Z" fill="#11C7B7" fill-opacity="0.08" mask="url(#path-175-inside-87_20271_21372)"/>
<mask id="path-177-inside-88_20271_21372" fill="white">
<path d="M420.225 84.25V136.7H367.775V84.25H420.225Z"/>
</mask>
<path d="M367.775 136.7H367.229V137.246H367.775V136.7ZM420.225 136.7V136.154H367.775V136.7V137.246H420.225V136.7ZM367.775 136.7H368.321V84.25H367.775H367.229V136.7H367.775Z" fill="#11C7B7" fill-opacity="0.08" mask="url(#path-177-inside-88_20271_21372)"/>
<mask id="path-179-inside-89_20271_21372" fill="white">
<path d="M420.225 136.7V189.15H367.775V136.7H420.225Z"/>
</mask>
<path d="M367.775 189.15H367.229V189.696H367.775V189.15ZM420.225 189.15V188.604H367.775V189.15V189.696H420.225V189.15ZM367.775 189.15H368.321V136.7H367.775H367.229V189.15H367.775Z" fill="#11C7B7" fill-opacity="0.08" mask="url(#path-179-inside-89_20271_21372)"/>
<mask id="path-181-inside-90_20271_21372" fill="white">
<path d="M420.225 189.15V241.6H367.775V189.15H420.225Z"/>
</mask>
<path d="M367.775 241.6H367.229V242.146H367.775V241.6ZM420.225 241.6V241.054H367.775V241.6V242.146H420.225V241.6ZM367.775 241.6H368.321V189.15H367.775H367.229V241.6H367.775Z" fill="#11C7B7" fill-opacity="0.08" mask="url(#path-181-inside-90_20271_21372)"/>
<mask id="path-183-inside-91_20271_21372" fill="white">
<path d="M420.225 241.6V294.05H367.775V241.6H420.225Z"/>
</mask>
<path d="M420.225 241.6V294.05H367.775V241.6H420.225Z" fill="#0B8E83"/>
<path d="M367.775 294.05H367.229V294.596H367.775V294.05ZM420.225 294.05V293.504H367.775V294.05V294.596H420.225V294.05ZM367.775 294.05H368.321V241.6H367.775H367.229V294.05H367.775Z" fill="#11C7B7" fill-opacity="0.08" mask="url(#path-183-inside-91_20271_21372)"/>
<mask id="path-185-inside-92_20271_21372" fill="white">
<path d="M420.225 294.05V346.5H367.775V294.05H420.225Z"/>
</mask>
<path d="M367.775 346.5H367.229V347.046H367.775V346.5ZM420.225 346.5V345.954H367.775V346.5V347.046H420.225V346.5ZM367.775 346.5H368.321V294.05H367.775H367.229V346.5H367.775Z" fill="#11C7B7" fill-opacity="0.08" mask="url(#path-185-inside-92_20271_21372)"/>
<mask id="path-187-inside-93_20271_21372" fill="white">
<path d="M420.225 346.5V398.95H367.775V346.5H420.225Z"/>
</mask>
<path d="M367.775 398.95H367.229V399.496H367.775V398.95ZM420.225 398.95V398.404H367.775V398.95V399.496H420.225V398.95ZM367.775 398.95H368.321V346.5H367.775H367.229V398.95H367.775Z" fill="#11C7B7" fill-opacity="0.08" mask="url(#path-187-inside-93_20271_21372)"/>
<mask id="path-189-inside-94_20271_21372" fill="white">
<path d="M420.225 398.95V451.4H367.775V398.95H420.225Z"/>
</mask>
<path d="M367.775 451.4H367.229V451.946H367.775V451.4ZM420.225 451.4V450.854H367.775V451.4V451.946H420.225V451.4ZM367.775 451.4H368.321V398.95H367.775H367.229V451.4H367.775Z" fill="#11C7B7" fill-opacity="0.08" mask="url(#path-189-inside-94_20271_21372)"/>
<mask id="path-191-inside-95_20271_21372" fill="white">
<path d="M420.225 451.4V503.85H367.775V451.4H420.225Z"/>
</mask>
<path d="M367.775 503.85H367.229V504.396H367.775V503.85ZM420.225 503.85V503.304H367.775V503.85V504.396H420.225V503.85ZM367.775 503.85H368.321V451.4H367.775H367.229V503.85H367.775Z" fill="#11C7B7" fill-opacity="0.08" mask="url(#path-191-inside-95_20271_21372)"/>
<mask id="path-193-inside-96_20271_21372" fill="white">
<path d="M420.225 503.85V556.3H367.775V503.85H420.225Z"/>
</mask>
<path d="M367.775 556.3H367.229V556.846H367.775V556.3ZM420.225 556.3V555.754H367.775V556.3V556.846H420.225V556.3ZM367.775 556.3H368.321V503.85H367.775H367.229V556.3H367.775Z" fill="#11C7B7" fill-opacity="0.08" mask="url(#path-193-inside-96_20271_21372)"/>
<mask id="path-195-inside-97_20271_21372" fill="white">
<path d="M420.225 556.3V608.75H367.775V556.3H420.225Z"/>
</mask>
<path d="M420.225 556.3V608.75H367.775V556.3H420.225Z" fill="#0B8E83"/>
<path d="M367.775 608.75H367.229V609.296H367.775V608.75ZM420.225 608.75V608.204H367.775V608.75V609.296H420.225V608.75ZM367.775 608.75H368.321V556.3H367.775H367.229V608.75H367.775Z" fill="#11C7B7" fill-opacity="0.08" mask="url(#path-195-inside-97_20271_21372)"/>
<mask id="path-197-inside-98_20271_21372" fill="white">
<path d="M420.225 608.75V661.2H367.775V608.75H420.225Z"/>
</mask>
<path d="M367.775 661.2H367.229V661.746H367.775V661.2ZM420.225 661.2V660.654H367.775V661.2V661.746H420.225V661.2ZM367.775 661.2H368.321V608.75H367.775H367.229V661.2H367.775Z" fill="#11C7B7" fill-opacity="0.08" mask="url(#path-197-inside-98_20271_21372)"/>
<mask id="path-199-inside-99_20271_21372" fill="white">
<path d="M420.225 661.2V713.65H367.775V661.2H420.225Z"/>
</mask>
<path d="M367.775 713.65H367.229V714.196H367.775V713.65ZM420.225 713.65V713.104H367.775V713.65V714.196H420.225V713.65ZM367.775 713.65H368.321V661.2H367.775H367.229V713.65H367.775Z" fill="#11C7B7" fill-opacity="0.08" mask="url(#path-199-inside-99_20271_21372)"/>
<mask id="path-201-inside-100_20271_21372" fill="white">
<path d="M420.225 713.65V766.1H367.775V713.65H420.225Z"/>
</mask>
<path d="M367.775 766.1H367.229V766.646H367.775V766.1ZM420.225 766.1V765.554H367.775V766.1V766.646H420.225V766.1ZM367.775 766.1H368.321V713.65H367.775H367.229V766.1H367.775Z" fill="#11C7B7" fill-opacity="0.08" mask="url(#path-201-inside-100_20271_21372)"/>
<mask id="path-203-inside-101_20271_21372" fill="white">
<path d="M420.225 766.1V818.55H367.775V766.1H420.225Z"/>
</mask>
<path d="M367.775 818.55H367.229V819.097H367.775V818.55ZM420.225 818.55V818.004H367.775V818.55V819.097H420.225V818.55ZM367.775 818.55H368.321V766.1H367.775H367.229V818.55H367.775Z" fill="#11C7B7" fill-opacity="0.08" mask="url(#path-203-inside-101_20271_21372)"/>
<mask id="path-205-inside-102_20271_21372" fill="white">
<path d="M420.225 818.55V871H367.775V818.55H420.225Z"/>
</mask>
<path d="M367.775 871H367.229V871.547H367.775V871ZM420.225 871V870.454H367.775V871V871.547H420.225V871ZM367.775 871H368.321V818.55H367.775H367.229V871H367.775Z" fill="#11C7B7" fill-opacity="0.08" mask="url(#path-205-inside-102_20271_21372)"/>
<mask id="path-207-inside-103_20271_21372" fill="white">
<path d="M367.775 -20.65V31.8H315.325V-20.65L367.775 -20.65Z"/>
</mask>
<path d="M315.325 31.8H314.779V32.3463H315.325V31.8ZM367.775 31.8V31.2536H315.325V31.8V32.3463H367.775V31.8ZM315.325 31.8H315.871V-20.65H315.325H314.779V31.8H315.325Z" fill="#11C7B7" fill-opacity="0.08" mask="url(#path-207-inside-103_20271_21372)"/>
<mask id="path-209-inside-104_20271_21372" fill="white">
<path d="M367.775 31.8V84.25H315.325V31.8L367.775 31.8Z"/>
</mask>
<path d="M315.325 84.25H314.779V84.7963H315.325V84.25ZM367.775 84.25V83.7036H315.325V84.25V84.7963H367.775V84.25ZM315.325 84.25H315.871V31.8H315.325H314.779V84.25H315.325Z" fill="#11C7B7" fill-opacity="0.08" mask="url(#path-209-inside-104_20271_21372)"/>
<mask id="path-211-inside-105_20271_21372" fill="white">
<path d="M367.775 84.25V136.7H315.325V84.25H367.775Z"/>
</mask>
<path d="M367.775 84.25V136.7H315.325V84.25H367.775Z" fill="#0B8E83"/>
<path d="M315.325 136.7H314.779V137.246H315.325V136.7ZM367.775 136.7V136.154H315.325V136.7V137.246H367.775V136.7ZM315.325 136.7H315.871V84.25H315.325H314.779V136.7H315.325Z" fill="#11C7B7" fill-opacity="0.08" mask="url(#path-211-inside-105_20271_21372)"/>
<mask id="path-213-inside-106_20271_21372" fill="white">
<path d="M367.775 136.7V189.15H315.325V136.7H367.775Z"/>
</mask>
<path d="M315.325 189.15H314.779V189.696H315.325V189.15ZM367.775 189.15V188.604H315.325V189.15V189.696H367.775V189.15ZM315.325 189.15H315.871V136.7H315.325H314.779V189.15H315.325Z" fill="#11C7B7" fill-opacity="0.08" mask="url(#path-213-inside-106_20271_21372)"/>
<mask id="path-215-inside-107_20271_21372" fill="white">
<path d="M367.775 189.15V241.6H315.325V189.15H367.775Z"/>
</mask>
<path d="M315.325 241.6H314.779V242.146H315.325V241.6ZM367.775 241.6V241.054H315.325V241.6V242.146H367.775V241.6ZM315.325 241.6H315.871V189.15H315.325H314.779V241.6H315.325Z" fill="#11C7B7" fill-opacity="0.08" mask="url(#path-215-inside-107_20271_21372)"/>
<mask id="path-217-inside-108_20271_21372" fill="white">
<path d="M367.775 241.6V294.05H315.325V241.6H367.775Z"/>
</mask>
<path d="M315.325 294.05H314.779V294.596H315.325V294.05ZM367.775 294.05V293.504H315.325V294.05V294.596H367.775V294.05ZM315.325 294.05H315.871V241.6H315.325H314.779V294.05H315.325Z" fill="#11C7B7" fill-opacity="0.08" mask="url(#path-217-inside-108_20271_21372)"/>
<mask id="path-219-inside-109_20271_21372" fill="white">
<path d="M367.775 294.05V346.5H315.325V294.05H367.775Z"/>
</mask>
<path d="M315.325 346.5H314.779V347.046H315.325V346.5ZM367.775 346.5V345.954H315.325V346.5V347.046H367.775V346.5ZM315.325 346.5H315.871V294.05H315.325H314.779V346.5H315.325Z" fill="#11C7B7" fill-opacity="0.08" mask="url(#path-219-inside-109_20271_21372)"/>
<mask id="path-221-inside-110_20271_21372" fill="white">
<path d="M367.775 346.5V398.95H315.325V346.5H367.775Z"/>
</mask>
<path d="M315.325 398.95H314.779V399.496H315.325V398.95ZM367.775 398.95V398.404H315.325V398.95V399.496H367.775V398.95ZM315.325 398.95H315.871V346.5H315.325H314.779V398.95H315.325Z" fill="#11C7B7" fill-opacity="0.08" mask="url(#path-221-inside-110_20271_21372)"/>
<mask id="path-223-inside-111_20271_21372" fill="white">
<path d="M367.775 398.95V451.4H315.325V398.95H367.775Z"/>
</mask>
<path d="M367.775 398.95V451.4H315.325V398.95H367.775Z" fill="#0B8E83"/>
<path d="M315.325 451.4H314.779V451.946H315.325V451.4ZM367.775 451.4V450.854H315.325V451.4V451.946H367.775V451.4ZM315.325 451.4H315.871V398.95H315.325H314.779V451.4H315.325Z" fill="#11C7B7" fill-opacity="0.08" mask="url(#path-223-inside-111_20271_21372)"/>
<mask id="path-225-inside-112_20271_21372" fill="white">
<path d="M367.775 451.4V503.85H315.325V451.4H367.775Z"/>
</mask>
<path d="M315.325 503.85H314.779V504.396H315.325V503.85ZM367.775 503.85V503.304H315.325V503.85V504.396H367.775V503.85ZM315.325 503.85H315.871V451.4H315.325H314.779V503.85H315.325Z" fill="#11C7B7" fill-opacity="0.08" mask="url(#path-225-inside-112_20271_21372)"/>
<mask id="path-227-inside-113_20271_21372" fill="white">
<path d="M367.775 503.85V556.3H315.325V503.85H367.775Z"/>
</mask>
<path d="M315.325 556.3H314.779V556.846H315.325V556.3ZM367.775 556.3V555.754H315.325V556.3V556.846H367.775V556.3ZM315.325 556.3H315.871V503.85H315.325H314.779V556.3H315.325Z" fill="#11C7B7" fill-opacity="0.08" mask="url(#path-227-inside-113_20271_21372)"/>
<mask id="path-229-inside-114_20271_21372" fill="white">
<path d="M367.775 556.3V608.75H315.325V556.3H367.775Z"/>
</mask>
<path d="M315.325 608.75H314.779V609.296H315.325V608.75ZM367.775 608.75V608.204H315.325V608.75V609.296H367.775V608.75ZM315.325 608.75H315.871V556.3H315.325H314.779V608.75H315.325Z" fill="#11C7B7" fill-opacity="0.08" mask="url(#path-229-inside-114_20271_21372)"/>
<mask id="path-231-inside-115_20271_21372" fill="white">
<path d="M367.775 608.75V661.2H315.325V608.75H367.775Z"/>
</mask>
<path d="M315.325 661.2H314.779V661.746H315.325V661.2ZM367.775 661.2V660.654H315.325V661.2V661.746H367.775V661.2ZM315.325 661.2H315.871V608.75H315.325H314.779V661.2H315.325Z" fill="#11C7B7" fill-opacity="0.08" mask="url(#path-231-inside-115_20271_21372)"/>
<mask id="path-233-inside-116_20271_21372" fill="white">
<path d="M367.775 661.2V713.65H315.325V661.2H367.775Z"/>
</mask>
<path d="M315.325 713.65H314.779V714.196H315.325V713.65ZM367.775 713.65V713.104H315.325V713.65V714.196H367.775V713.65ZM315.325 713.65H315.871V661.2H315.325H314.779V713.65H315.325Z" fill="#11C7B7" fill-opacity="0.08" mask="url(#path-233-inside-116_20271_21372)"/>
<mask id="path-235-inside-117_20271_21372" fill="white">
<path d="M367.775 713.65V766.1H315.325V713.65H367.775Z"/>
</mask>
<path d="M315.325 766.1H314.779V766.646H315.325V766.1ZM367.775 766.1V765.554H315.325V766.1V766.646H367.775V766.1ZM315.325 766.1H315.871V713.65H315.325H314.779V766.1H315.325Z" fill="#11C7B7" fill-opacity="0.08" mask="url(#path-235-inside-117_20271_21372)"/>
<mask id="path-237-inside-118_20271_21372" fill="white">
<path d="M367.775 766.1V818.55H315.325V766.1H367.775Z"/>
</mask>
<path d="M315.325 818.55H314.779V819.097H315.325V818.55ZM367.775 818.55V818.004H315.325V818.55V819.097H367.775V818.55ZM315.325 818.55H315.871V766.1H315.325H314.779V818.55H315.325Z" fill="#11C7B7" fill-opacity="0.08" mask="url(#path-237-inside-118_20271_21372)"/>
<mask id="path-239-inside-119_20271_21372" fill="white">
<path d="M367.775 818.55V871H315.325V818.55H367.775Z"/>
</mask>
<path d="M315.325 871H314.779V871.547H315.325V871ZM367.775 871V870.454H315.325V871V871.547H367.775V871ZM315.325 871H315.871V818.55H315.325H314.779V871H315.325Z" fill="#11C7B7" fill-opacity="0.08" mask="url(#path-239-inside-119_20271_21372)"/>
<mask id="path-241-inside-120_20271_21372" fill="white">
<path d="M315.325 -20.65V31.8H262.875V-20.65L315.325 -20.65Z"/>
</mask>
<path d="M262.875 31.8H262.329V32.3463H262.875V31.8ZM315.325 31.8V31.2536H262.875V31.8V32.3463H315.325V31.8ZM262.875 31.8H263.421V-20.65H262.875H262.329V31.8H262.875Z" fill="#11C7B7" fill-opacity="0.08" mask="url(#path-241-inside-120_20271_21372)"/>
<mask id="path-243-inside-121_20271_21372" fill="white">
<path d="M315.325 31.8V84.25H262.875V31.8L315.325 31.8Z"/>
</mask>
<path d="M262.875 84.25H262.329V84.7963H262.875V84.25ZM315.325 84.25V83.7036H262.875V84.25V84.7963H315.325V84.25ZM262.875 84.25H263.421V31.8H262.875H262.329V84.25H262.875Z" fill="#11C7B7" fill-opacity="0.08" mask="url(#path-243-inside-121_20271_21372)"/>
<mask id="path-245-inside-122_20271_21372" fill="white">
<path d="M315.325 84.25V136.7H262.875V84.25H315.325Z"/>
</mask>
<path d="M262.875 136.7H262.329V137.246H262.875V136.7ZM315.325 136.7V136.154H262.875V136.7V137.246H315.325V136.7ZM262.875 136.7H263.421V84.25H262.875H262.329V136.7H262.875Z" fill="#11C7B7" fill-opacity="0.08" mask="url(#path-245-inside-122_20271_21372)"/>
<mask id="path-247-inside-123_20271_21372" fill="white">
<path d="M315.325 136.7V189.15H262.875V136.7H315.325Z"/>
</mask>
<path d="M262.875 189.15H262.329V189.696H262.875V189.15ZM315.325 189.15V188.604H262.875V189.15V189.696H315.325V189.15ZM262.875 189.15H263.421V136.7H262.875H262.329V189.15H262.875Z" fill="#11C7B7" fill-opacity="0.08" mask="url(#path-247-inside-123_20271_21372)"/>
<mask id="path-249-inside-124_20271_21372" fill="white">
<path d="M315.325 189.15V241.6H262.875V189.15H315.325Z"/>
</mask>
<path d="M262.875 241.6H262.329V242.146H262.875V241.6ZM315.325 241.6V241.054H262.875V241.6V242.146H315.325V241.6ZM262.875 241.6H263.421V189.15H262.875H262.329V241.6H262.875Z" fill="#11C7B7" fill-opacity="0.08" mask="url(#path-249-inside-124_20271_21372)"/>
<mask id="path-251-inside-125_20271_21372" fill="white">
<path d="M315.325 241.6V294.05H262.875V241.6H315.325Z"/>
</mask>
<path d="M262.875 294.05H262.329V294.596H262.875V294.05ZM315.325 294.05V293.504H262.875V294.05V294.596H315.325V294.05ZM262.875 294.05H263.421V241.6H262.875H262.329V294.05H262.875Z" fill="#11C7B7" fill-opacity="0.08" mask="url(#path-251-inside-125_20271_21372)"/>
<mask id="path-253-inside-126_20271_21372" fill="white">
<path d="M315.325 294.05V346.5H262.875V294.05H315.325Z"/>
</mask>
<path d="M262.875 346.5H262.329V347.046H262.875V346.5ZM315.325 346.5V345.954H262.875V346.5V347.046H315.325V346.5ZM262.875 346.5H263.421V294.05H262.875H262.329V346.5H262.875Z" fill="#11C7B7" fill-opacity="0.08" mask="url(#path-253-inside-126_20271_21372)"/>
<mask id="path-255-inside-127_20271_21372" fill="white">
<path d="M315.325 346.5V398.95H262.875V346.5H315.325Z"/>
</mask>
<path d="M262.875 398.95H262.329V399.496H262.875V398.95ZM315.325 398.95V398.404H262.875V398.95V399.496H315.325V398.95ZM262.875 398.95H263.421V346.5H262.875H262.329V398.95H262.875Z" fill="#11C7B7" fill-opacity="0.08" mask="url(#path-255-inside-127_20271_21372)"/>
<mask id="path-257-inside-128_20271_21372" fill="white">
<path d="M315.325 398.95V451.4H262.875V398.95H315.325Z"/>
</mask>
<path d="M262.875 451.4H262.329V451.946H262.875V451.4ZM315.325 451.4V450.854H262.875V451.4V451.946H315.325V451.4ZM262.875 451.4H263.421V398.95H262.875H262.329V451.4H262.875Z" fill="#11C7B7" fill-opacity="0.08" mask="url(#path-257-inside-128_20271_21372)"/>
<mask id="path-259-inside-129_20271_21372" fill="white">
<path d="M315.325 451.4V503.85H262.875V451.4H315.325Z"/>
</mask>
<path d="M262.875 503.85H262.329V504.396H262.875V503.85ZM315.325 503.85V503.304H262.875V503.85V504.396H315.325V503.85ZM262.875 503.85H263.421V451.4H262.875H262.329V503.85H262.875Z" fill="#11C7B7" fill-opacity="0.08" mask="url(#path-259-inside-129_20271_21372)"/>
<mask id="path-261-inside-130_20271_21372" fill="white">
<path d="M315.325 503.85V556.3H262.875V503.85H315.325Z"/>
</mask>
<path d="M262.875 556.3H262.329V556.846H262.875V556.3ZM315.325 556.3V555.754H262.875V556.3V556.846H315.325V556.3ZM262.875 556.3H263.421V503.85H262.875H262.329V556.3H262.875Z" fill="#11C7B7" fill-opacity="0.08" mask="url(#path-261-inside-130_20271_21372)"/>
<mask id="path-263-inside-131_20271_21372" fill="white">
<path d="M315.325 556.3V608.75H262.875V556.3H315.325Z"/>
</mask>
<path d="M262.875 608.75H262.329V609.296H262.875V608.75ZM315.325 608.75V608.204H262.875V608.75V609.296H315.325V608.75ZM262.875 608.75H263.421V556.3H262.875H262.329V608.75H262.875Z" fill="#11C7B7" fill-opacity="0.08" mask="url(#path-263-inside-131_20271_21372)"/>
<mask id="path-265-inside-132_20271_21372" fill="white">
<path d="M315.325 608.75V661.2H262.875V608.75H315.325Z"/>
</mask>
<path d="M262.875 661.2H262.329V661.746H262.875V661.2ZM315.325 661.2V660.654H262.875V661.2V661.746H315.325V661.2ZM262.875 661.2H263.421V608.75H262.875H262.329V661.2H262.875Z" fill="#11C7B7" fill-opacity="0.08" mask="url(#path-265-inside-132_20271_21372)"/>
<mask id="path-267-inside-133_20271_21372" fill="white">
<path d="M315.325 661.2V713.65H262.875V661.2H315.325Z"/>
</mask>
<path d="M262.875 713.65H262.329V714.196H262.875V713.65ZM315.325 713.65V713.104H262.875V713.65V714.196H315.325V713.65ZM262.875 713.65H263.421V661.2H262.875H262.329V713.65H262.875Z" fill="#11C7B7" fill-opacity="0.08" mask="url(#path-267-inside-133_20271_21372)"/>
<mask id="path-269-inside-134_20271_21372" fill="white">
<path d="M315.325 713.65V766.1H262.875V713.65H315.325Z"/>
</mask>
<path d="M315.325 713.65V766.1H262.875V713.65H315.325Z" fill="#0B8E83"/>
<path d="M262.875 766.1H262.329V766.646H262.875V766.1ZM315.325 766.1V765.554H262.875V766.1V766.646H315.325V766.1ZM262.875 766.1H263.421V713.65H262.875H262.329V766.1H262.875Z" fill="#11C7B7" fill-opacity="0.08" mask="url(#path-269-inside-134_20271_21372)"/>
<mask id="path-271-inside-135_20271_21372" fill="white">
<path d="M315.325 766.1V818.55H262.875V766.1H315.325Z"/>
</mask>
<path d="M262.875 818.55H262.329V819.097H262.875V818.55ZM315.325 818.55V818.004H262.875V818.55V819.097H315.325V818.55ZM262.875 818.55H263.421V766.1H262.875H262.329V818.55H262.875Z" fill="#11C7B7" fill-opacity="0.08" mask="url(#path-271-inside-135_20271_21372)"/>
<mask id="path-273-inside-136_20271_21372" fill="white">
<path d="M315.325 818.55V871H262.875V818.55H315.325Z"/>
</mask>
<path d="M262.875 871H262.329V871.547H262.875V871ZM315.325 871V870.454H262.875V871V871.547H315.325V871ZM262.875 871H263.421V818.55H262.875H262.329V871H262.875Z" fill="#11C7B7" fill-opacity="0.08" mask="url(#path-273-inside-136_20271_21372)"/>
<mask id="path-275-inside-137_20271_21372" fill="white">
<path d="M262.875 -20.6501V31.7999H210.425V-20.6501L262.875 -20.6501Z"/>
</mask>
<path d="M210.425 31.7999H209.879V32.3463H210.425V31.7999ZM262.875 31.7999V31.2536H210.425V31.7999V32.3463H262.875V31.7999ZM210.425 31.7999H210.971V-20.6501H210.425H209.879V31.7999H210.425Z" fill="#11C7B7" fill-opacity="0.08" mask="url(#path-275-inside-137_20271_21372)"/>
<mask id="path-277-inside-138_20271_21372" fill="white">
<path d="M262.875 31.8001V84.2501H210.425V31.8001L262.875 31.8001Z"/>
</mask>
<path d="M210.425 84.2501H209.879V84.7964H210.425V84.2501ZM262.875 84.2501V83.7037H210.425V84.2501V84.7964H262.875V84.2501ZM210.425 84.2501H210.971V31.8001H210.425H209.879V84.2501H210.425Z" fill="#11C7B7" fill-opacity="0.08" mask="url(#path-277-inside-138_20271_21372)"/>
<mask id="path-279-inside-139_20271_21372" fill="white">
<path d="M262.875 84.25V136.7H210.425V84.25H262.875Z"/>
</mask>
<path d="M210.425 136.7H209.879V137.246H210.425V136.7ZM262.875 136.7V136.154H210.425V136.7V137.246H262.875V136.7ZM210.425 136.7H210.971V84.25H210.425H209.879V136.7H210.425Z" fill="#11C7B7" fill-opacity="0.08" mask="url(#path-279-inside-139_20271_21372)"/>
<mask id="path-281-inside-140_20271_21372" fill="white">
<path d="M262.875 136.7V189.15H210.425V136.7H262.875Z"/>
</mask>
<path d="M262.875 136.7V189.15H210.425V136.7H262.875Z" fill="#0B8E83"/>
<path d="M210.425 189.15H209.879V189.696H210.425V189.15ZM262.875 189.15V188.604H210.425V189.15V189.696H262.875V189.15ZM210.425 189.15H210.971V136.7H210.425H209.879V189.15H210.425Z" fill="#11C7B7" fill-opacity="0.08" mask="url(#path-281-inside-140_20271_21372)"/>
<mask id="path-283-inside-141_20271_21372" fill="white">
<path d="M262.875 189.15V241.6H210.425V189.15H262.875Z"/>
</mask>
<path d="M210.425 241.6H209.879V242.146H210.425V241.6ZM262.875 241.6V241.054H210.425V241.6V242.146H262.875V241.6ZM210.425 241.6H210.971V189.15H210.425H209.879V241.6H210.425Z" fill="#11C7B7" fill-opacity="0.08" mask="url(#path-283-inside-141_20271_21372)"/>
<mask id="path-285-inside-142_20271_21372" fill="white">
<path d="M262.875 241.6V294.05H210.425V241.6H262.875Z"/>
</mask>
<path d="M210.425 294.05H209.879V294.597H210.425V294.05ZM262.875 294.05V293.504H210.425V294.05V294.597H262.875V294.05ZM210.425 294.05H210.971V241.6H210.425H209.879V294.05H210.425Z" fill="#11C7B7" fill-opacity="0.08" mask="url(#path-285-inside-142_20271_21372)"/>
<mask id="path-287-inside-143_20271_21372" fill="white">
<path d="M262.875 294.05V346.5H210.425V294.05H262.875Z"/>
</mask>
<path d="M210.425 346.5H209.879V347.046H210.425V346.5ZM262.875 346.5V345.954H210.425V346.5V347.046H262.875V346.5ZM210.425 346.5H210.971V294.05H210.425H209.879V346.5H210.425Z" fill="#11C7B7" fill-opacity="0.08" mask="url(#path-287-inside-143_20271_21372)"/>
<mask id="path-289-inside-144_20271_21372" fill="white">
<path d="M262.875 346.5V398.95H210.425V346.5H262.875Z"/>
</mask>
<path d="M262.875 346.5V398.95H210.425V346.5H262.875Z" fill="#0B8E83"/>
<path d="M210.425 398.95H209.879V399.496H210.425V398.95ZM262.875 398.95V398.404H210.425V398.95V399.496H262.875V398.95ZM210.425 398.95H210.971V346.5H210.425H209.879V398.95H210.425Z" fill="#11C7B7" fill-opacity="0.08" mask="url(#path-289-inside-144_20271_21372)"/>
<mask id="path-291-inside-145_20271_21372" fill="white">
<path d="M262.875 398.95V451.4H210.425V398.95H262.875Z"/>
</mask>
<path d="M210.425 451.4H209.879V451.946H210.425V451.4ZM262.875 451.4V450.854H210.425V451.4V451.946H262.875V451.4ZM210.425 451.4H210.971V398.95H210.425H209.879V451.4H210.425Z" fill="#11C7B7" fill-opacity="0.08" mask="url(#path-291-inside-145_20271_21372)"/>
<mask id="path-293-inside-146_20271_21372" fill="white">
<path d="M262.875 451.4V503.85H210.425V451.4H262.875Z"/>
</mask>
<path d="M210.425 503.85H209.879V504.396H210.425V503.85ZM262.875 503.85V503.304H210.425V503.85V504.396H262.875V503.85ZM210.425 503.85H210.971V451.4H210.425H209.879V503.85H210.425Z" fill="#11C7B7" fill-opacity="0.08" mask="url(#path-293-inside-146_20271_21372)"/>
<mask id="path-295-inside-147_20271_21372" fill="white">
<path d="M262.875 503.85V556.3H210.425V503.85H262.875Z"/>
</mask>
<path d="M210.425 556.3H209.879V556.846H210.425V556.3ZM262.875 556.3V555.754H210.425V556.3V556.846H262.875V556.3ZM210.425 556.3H210.971V503.85H210.425H209.879V556.3H210.425Z" fill="#11C7B7" fill-opacity="0.08" mask="url(#path-295-inside-147_20271_21372)"/>
<mask id="path-297-inside-148_20271_21372" fill="white">
<path d="M262.875 556.3V608.75H210.425V556.3H262.875Z"/>
</mask>
<path d="M210.425 608.75H209.879V609.296H210.425V608.75ZM262.875 608.75V608.204H210.425V608.75V609.296H262.875V608.75ZM210.425 608.75H210.971V556.3H210.425H209.879V608.75H210.425Z" fill="#11C7B7" fill-opacity="0.08" mask="url(#path-297-inside-148_20271_21372)"/>
<mask id="path-299-inside-149_20271_21372" fill="white">
<path d="M262.875 608.75V661.2H210.425V608.75H262.875Z"/>
</mask>
<path d="M210.425 661.2H209.879V661.746H210.425V661.2ZM262.875 661.2V660.654H210.425V661.2V661.746H262.875V661.2ZM210.425 661.2H210.971V608.75H210.425H209.879V661.2H210.425Z" fill="#11C7B7" fill-opacity="0.08" mask="url(#path-299-inside-149_20271_21372)"/>
<mask id="path-301-inside-150_20271_21372" fill="white">
<path d="M262.875 661.2V713.65H210.425V661.2H262.875Z"/>
</mask>
<path d="M210.425 713.65H209.879V714.196H210.425V713.65ZM262.875 713.65V713.104H210.425V713.65V714.196H262.875V713.65ZM210.425 713.65H210.971V661.2H210.425H209.879V713.65H210.425Z" fill="#11C7B7" fill-opacity="0.08" mask="url(#path-301-inside-150_20271_21372)"/>
<mask id="path-303-inside-151_20271_21372" fill="white">
<path d="M262.875 713.65V766.1H210.425V713.65H262.875Z"/>
</mask>
<path d="M210.425 766.1H209.879V766.646H210.425V766.1ZM262.875 766.1V765.554H210.425V766.1V766.646H262.875V766.1ZM210.425 766.1H210.971V713.65H210.425H209.879V766.1H210.425Z" fill="#11C7B7" fill-opacity="0.08" mask="url(#path-303-inside-151_20271_21372)"/>
<mask id="path-305-inside-152_20271_21372" fill="white">
<path d="M262.875 766.1V818.55H210.425V766.1H262.875Z"/>
</mask>
<path d="M210.425 818.55H209.879V819.097H210.425V818.55ZM262.875 818.55V818.004H210.425V818.55V819.097H262.875V818.55ZM210.425 818.55H210.971V766.1H210.425H209.879V818.55H210.425Z" fill="#11C7B7" fill-opacity="0.08" mask="url(#path-305-inside-152_20271_21372)"/>
<mask id="path-307-inside-153_20271_21372" fill="white">
<path d="M262.875 818.55V871H210.425V818.55H262.875Z"/>
</mask>
<path d="M210.425 871H209.879V871.547H210.425V871ZM262.875 871V870.454H210.425V871V871.547H262.875V871ZM210.425 871H210.971V818.55H210.425H209.879V871H210.425Z" fill="#11C7B7" fill-opacity="0.08" mask="url(#path-307-inside-153_20271_21372)"/>
<mask id="path-309-inside-154_20271_21372" fill="white">
<path d="M210.425 -20.65V31.8H157.975V-20.65L210.425 -20.65Z"/>
</mask>
<path d="M157.975 31.8H157.429V32.3463H157.975V31.8ZM210.425 31.8V31.2536H157.975V31.8V32.3463H210.425V31.8ZM157.975 31.8H158.521V-20.65H157.975H157.429V31.8H157.975Z" fill="#11C7B7" fill-opacity="0.08" mask="url(#path-309-inside-154_20271_21372)"/>
<mask id="path-311-inside-155_20271_21372" fill="white">
<path d="M210.425 31.8V84.25H157.975V31.8L210.425 31.8Z"/>
</mask>
<path d="M157.975 84.25H157.429V84.7963H157.975V84.25ZM210.425 84.25V83.7036H157.975V84.25V84.7963H210.425V84.25ZM157.975 84.25H158.521V31.8H157.975H157.429V84.25H157.975Z" fill="#11C7B7" fill-opacity="0.08" mask="url(#path-311-inside-155_20271_21372)"/>
<mask id="path-313-inside-156_20271_21372" fill="white">
<path d="M210.425 84.25V136.7H157.975V84.25H210.425Z"/>
</mask>
<path d="M157.975 136.7H157.429V137.246H157.975V136.7ZM210.425 136.7V136.154H157.975V136.7V137.246H210.425V136.7ZM157.975 136.7H158.521V84.25H157.975H157.429V136.7H157.975Z" fill="#11C7B7" fill-opacity="0.08" mask="url(#path-313-inside-156_20271_21372)"/>
<mask id="path-315-inside-157_20271_21372" fill="white">
<path d="M210.425 136.7V189.15H157.975V136.7H210.425Z"/>
</mask>
<path d="M157.975 189.15H157.429V189.696H157.975V189.15ZM210.425 189.15V188.604H157.975V189.15V189.696H210.425V189.15ZM157.975 189.15H158.521V136.7H157.975H157.429V189.15H157.975Z" fill="#11C7B7" fill-opacity="0.08" mask="url(#path-315-inside-157_20271_21372)"/>
<mask id="path-317-inside-158_20271_21372" fill="white">
<path d="M210.425 189.15V241.6H157.975V189.15H210.425Z"/>
</mask>
<path d="M157.975 241.6H157.429V242.146H157.975V241.6ZM210.425 241.6V241.054H157.975V241.6V242.146H210.425V241.6ZM157.975 241.6H158.521V189.15H157.975H157.429V241.6H157.975Z" fill="#11C7B7" fill-opacity="0.08" mask="url(#path-317-inside-158_20271_21372)"/>
<mask id="path-319-inside-159_20271_21372" fill="white">
<path d="M210.425 241.6V294.05H157.975V241.6H210.425Z"/>
</mask>
<path d="M157.975 294.05H157.429V294.596H157.975V294.05ZM210.425 294.05V293.504H157.975V294.05V294.596H210.425V294.05ZM157.975 294.05H158.521V241.6H157.975H157.429V294.05H157.975Z" fill="#11C7B7" fill-opacity="0.08" mask="url(#path-319-inside-159_20271_21372)"/>
<mask id="path-321-inside-160_20271_21372" fill="white">
<path d="M210.425 294.05V346.5H157.975V294.05H210.425Z"/>
</mask>
<path d="M157.975 346.5H157.429V347.046H157.975V346.5ZM210.425 346.5V345.954H157.975V346.5V347.046H210.425V346.5ZM157.975 346.5H158.521V294.05H157.975H157.429V346.5H157.975Z" fill="#11C7B7" fill-opacity="0.08" mask="url(#path-321-inside-160_20271_21372)"/>
<mask id="path-323-inside-161_20271_21372" fill="white">
<path d="M210.425 346.5V398.95H157.975V346.5H210.425Z"/>
</mask>
<path d="M157.975 398.95H157.429V399.496H157.975V398.95ZM210.425 398.95V398.404H157.975V398.95V399.496H210.425V398.95ZM157.975 398.95H158.521V346.5H157.975H157.429V398.95H157.975Z" fill="#11C7B7" fill-opacity="0.08" mask="url(#path-323-inside-161_20271_21372)"/>
<mask id="path-325-inside-162_20271_21372" fill="white">
<path d="M210.425 398.95V451.4H157.975V398.95H210.425Z"/>
</mask>
<path d="M157.975 451.4H157.429V451.946H157.975V451.4ZM210.425 451.4V450.854H157.975V451.4V451.946H210.425V451.4ZM157.975 451.4H158.521V398.95H157.975H157.429V451.4H157.975Z" fill="#11C7B7" fill-opacity="0.08" mask="url(#path-325-inside-162_20271_21372)"/>
<mask id="path-327-inside-163_20271_21372" fill="white">
<path d="M210.425 451.4V503.85H157.975V451.4H210.425Z"/>
</mask>
<path d="M157.975 503.85H157.429V504.396H157.975V503.85ZM210.425 503.85V503.304H157.975V503.85V504.396H210.425V503.85ZM157.975 503.85H158.521V451.4H157.975H157.429V503.85H157.975Z" fill="#11C7B7" fill-opacity="0.08" mask="url(#path-327-inside-163_20271_21372)"/>
<mask id="path-329-inside-164_20271_21372" fill="white">
<path d="M210.425 503.85V556.3H157.975V503.85H210.425Z"/>
</mask>
<path d="M157.975 556.3H157.429V556.846H157.975V556.3ZM210.425 556.3V555.754H157.975V556.3V556.846H210.425V556.3ZM157.975 556.3H158.521V503.85H157.975H157.429V556.3H157.975Z" fill="#11C7B7" fill-opacity="0.08" mask="url(#path-329-inside-164_20271_21372)"/>
<mask id="path-331-inside-165_20271_21372" fill="white">
<path d="M210.425 556.3V608.75H157.975V556.3H210.425Z"/>
</mask>
<path d="M210.425 556.3V608.75H157.975V556.3H210.425Z" fill="#0B8E83"/>
<path d="M157.975 608.75H157.429V609.296H157.975V608.75ZM210.425 608.75V608.204H157.975V608.75V609.296H210.425V608.75ZM157.975 608.75H158.521V556.3H157.975H157.429V608.75H157.975Z" fill="#11C7B7" fill-opacity="0.08" mask="url(#path-331-inside-165_20271_21372)"/>
<mask id="path-333-inside-166_20271_21372" fill="white">
<path d="M210.425 608.75V661.2H157.975V608.75H210.425Z"/>
</mask>
<path d="M157.975 661.2H157.429V661.746H157.975V661.2ZM210.425 661.2V660.654H157.975V661.2V661.746H210.425V661.2ZM157.975 661.2H158.521V608.75H157.975H157.429V661.2H157.975Z" fill="#11C7B7" fill-opacity="0.08" mask="url(#path-333-inside-166_20271_21372)"/>
<mask id="path-335-inside-167_20271_21372" fill="white">
<path d="M210.425 661.2V713.65H157.975V661.2H210.425Z"/>
</mask>
<path d="M157.975 713.65H157.429V714.196H157.975V713.65ZM210.425 713.65V713.104H157.975V713.65V714.196H210.425V713.65ZM157.975 713.65H158.521V661.2H157.975H157.429V713.65H157.975Z" fill="#11C7B7" fill-opacity="0.08" mask="url(#path-335-inside-167_20271_21372)"/>
<mask id="path-337-inside-168_20271_21372" fill="white">
<path d="M210.425 713.65V766.1H157.975V713.65H210.425Z"/>
</mask>
<path d="M157.975 766.1H157.429V766.646H157.975V766.1ZM210.425 766.1V765.554H157.975V766.1V766.646H210.425V766.1ZM157.975 766.1H158.521V713.65H157.975H157.429V766.1H157.975Z" fill="#11C7B7" fill-opacity="0.08" mask="url(#path-337-inside-168_20271_21372)"/>
<mask id="path-339-inside-169_20271_21372" fill="white">
<path d="M210.425 766.1V818.55H157.975V766.1H210.425Z"/>
</mask>
<path d="M157.975 818.55H157.429V819.097H157.975V818.55ZM210.425 818.55V818.004H157.975V818.55V819.097H210.425V818.55ZM157.975 818.55H158.521V766.1H157.975H157.429V818.55H157.975Z" fill="#11C7B7" fill-opacity="0.08" mask="url(#path-339-inside-169_20271_21372)"/>
<mask id="path-341-inside-170_20271_21372" fill="white">
<path d="M210.425 818.55V871H157.975V818.55H210.425Z"/>
</mask>
<path d="M157.975 871H157.429V871.547H157.975V871ZM210.425 871V870.454H157.975V871V871.547H210.425V871ZM157.975 871H158.521V818.55H157.975H157.429V871H157.975Z" fill="#11C7B7" fill-opacity="0.08" mask="url(#path-341-inside-170_20271_21372)"/>
<mask id="path-343-inside-171_20271_21372" fill="white">
<path d="M157.975 -20.65V31.8H105.525V-20.65L157.975 -20.65Z"/>
</mask>
<path d="M105.525 31.8H104.979V32.3463H105.525V31.8ZM157.975 31.8V31.2536H105.525V31.8V32.3463H157.975V31.8ZM105.525 31.8H106.071V-20.65H105.525H104.979V31.8H105.525Z" fill="#11C7B7" fill-opacity="0.08" mask="url(#path-343-inside-171_20271_21372)"/>
<mask id="path-345-inside-172_20271_21372" fill="white">
<path d="M157.975 31.8V84.25H105.525V31.8L157.975 31.8Z"/>
</mask>
<path d="M105.525 84.25H104.979V84.7963H105.525V84.25ZM157.975 84.25V83.7036H105.525V84.25V84.7963H157.975V84.25ZM105.525 84.25H106.071V31.8H105.525H104.979V84.25H105.525Z" fill="#11C7B7" fill-opacity="0.08" mask="url(#path-345-inside-172_20271_21372)"/>
<mask id="path-347-inside-173_20271_21372" fill="white">
<path d="M157.975 84.25V136.7H105.525V84.25H157.975Z"/>
</mask>
<path d="M105.525 136.7H104.979V137.246H105.525V136.7ZM157.975 136.7V136.154H105.525V136.7V137.246H157.975V136.7ZM105.525 136.7H106.071V84.25H105.525H104.979V136.7H105.525Z" fill="#11C7B7" fill-opacity="0.08" mask="url(#path-347-inside-173_20271_21372)"/>
<mask id="path-349-inside-174_20271_21372" fill="white">
<path d="M157.975 136.7V189.15H105.525V136.7H157.975Z"/>
</mask>
<path d="M105.525 189.15H104.979V189.696H105.525V189.15ZM157.975 189.15V188.604H105.525V189.15V189.696H157.975V189.15ZM105.525 189.15H106.071V136.7H105.525H104.979V189.15H105.525Z" fill="#11C7B7" fill-opacity="0.08" mask="url(#path-349-inside-174_20271_21372)"/>
<mask id="path-351-inside-175_20271_21372" fill="white">
<path d="M157.975 189.15V241.6H105.525V189.15H157.975Z"/>
</mask>
<path d="M105.525 241.6H104.979V242.146H105.525V241.6ZM157.975 241.6V241.054H105.525V241.6V242.146H157.975V241.6ZM105.525 241.6H106.071V189.15H105.525H104.979V241.6H105.525Z" fill="#11C7B7" fill-opacity="0.08" mask="url(#path-351-inside-175_20271_21372)"/>
<mask id="path-353-inside-176_20271_21372" fill="white">
<path d="M157.975 241.6V294.05H105.525V241.6H157.975Z"/>
</mask>
<path d="M157.975 241.6V294.05H105.525V241.6H157.975Z" fill="#0B8E83"/>
<path d="M105.525 294.05H104.979V294.596H105.525V294.05ZM157.975 294.05V293.504H105.525V294.05V294.596H157.975V294.05ZM105.525 294.05H106.071V241.6H105.525H104.979V294.05H105.525Z" fill="#11C7B7" fill-opacity="0.08" mask="url(#path-353-inside-176_20271_21372)"/>
<mask id="path-355-inside-177_20271_21372" fill="white">
<path d="M157.975 294.05V346.5H105.525V294.05H157.975Z"/>
</mask>
<path d="M105.525 346.5H104.979V347.046H105.525V346.5ZM157.975 346.5V345.954H105.525V346.5V347.046H157.975V346.5ZM105.525 346.5H106.071V294.05H105.525H104.979V346.5H105.525Z" fill="#11C7B7" fill-opacity="0.08" mask="url(#path-355-inside-177_20271_21372)"/>
<mask id="path-357-inside-178_20271_21372" fill="white">
<path d="M157.975 346.5V398.95H105.525V346.5H157.975Z"/>
</mask>
<path d="M105.525 398.95H104.979V399.496H105.525V398.95ZM157.975 398.95V398.404H105.525V398.95V399.496H157.975V398.95ZM105.525 398.95H106.071V346.5H105.525H104.979V398.95H105.525Z" fill="#11C7B7" fill-opacity="0.08" mask="url(#path-357-inside-178_20271_21372)"/>
<mask id="path-359-inside-179_20271_21372" fill="white">
<path d="M157.975 398.95V451.4H105.525V398.95H157.975Z"/>
</mask>
<path d="M105.525 451.4H104.979V451.946H105.525V451.4ZM157.975 451.4V450.854H105.525V451.4V451.946H157.975V451.4ZM105.525 451.4H106.071V398.95H105.525H104.979V451.4H105.525Z" fill="#11C7B7" fill-opacity="0.08" mask="url(#path-359-inside-179_20271_21372)"/>
<mask id="path-361-inside-180_20271_21372" fill="white">
<path d="M157.975 451.4V503.85H105.525V451.4H157.975Z"/>
</mask>
<path d="M105.525 503.85H104.979V504.396H105.525V503.85ZM157.975 503.85V503.304H105.525V503.85V504.396H157.975V503.85ZM105.525 503.85H106.071V451.4H105.525H104.979V503.85H105.525Z" fill="#11C7B7" fill-opacity="0.08" mask="url(#path-361-inside-180_20271_21372)"/>
<mask id="path-363-inside-181_20271_21372" fill="white">
<path d="M157.975 503.85V556.3H105.525V503.85H157.975Z"/>
</mask>
<path d="M105.525 556.3H104.979V556.846H105.525V556.3ZM157.975 556.3V555.754H105.525V556.3V556.846H157.975V556.3ZM105.525 556.3H106.071V503.85H105.525H104.979V556.3H105.525Z" fill="#11C7B7" fill-opacity="0.08" mask="url(#path-363-inside-181_20271_21372)"/>
<mask id="path-365-inside-182_20271_21372" fill="white">
<path d="M157.975 556.3V608.75H105.525V556.3H157.975Z"/>
</mask>
<path d="M105.525 608.75H104.979V609.296H105.525V608.75ZM157.975 608.75V608.204H105.525V608.75V609.296H157.975V608.75ZM105.525 608.75H106.071V556.3H105.525H104.979V608.75H105.525Z" fill="#11C7B7" fill-opacity="0.08" mask="url(#path-365-inside-182_20271_21372)"/>
<mask id="path-367-inside-183_20271_21372" fill="white">
<path d="M157.975 608.75V661.2H105.525V608.75H157.975Z"/>
</mask>
<path d="M105.525 661.2H104.979V661.746H105.525V661.2ZM157.975 661.2V660.654H105.525V661.2V661.746H157.975V661.2ZM105.525 661.2H106.071V608.75H105.525H104.979V661.2H105.525Z" fill="#11C7B7" fill-opacity="0.08" mask="url(#path-367-inside-183_20271_21372)"/>
<mask id="path-369-inside-184_20271_21372" fill="white">
<path d="M157.975 661.2V713.65H105.525V661.2H157.975Z"/>
</mask>
<path d="M105.525 713.65H104.979V714.196H105.525V713.65ZM157.975 713.65V713.104H105.525V713.65V714.196H157.975V713.65ZM105.525 713.65H106.071V661.2H105.525H104.979V713.65H105.525Z" fill="#11C7B7" fill-opacity="0.08" mask="url(#path-369-inside-184_20271_21372)"/>
<mask id="path-371-inside-185_20271_21372" fill="white">
<path d="M157.975 713.65V766.1H105.525V713.65H157.975Z"/>
</mask>
<path d="M105.525 766.1H104.979V766.646H105.525V766.1ZM157.975 766.1V765.554H105.525V766.1V766.646H157.975V766.1ZM105.525 766.1H106.071V713.65H105.525H104.979V766.1H105.525Z" fill="#11C7B7" fill-opacity="0.08" mask="url(#path-371-inside-185_20271_21372)"/>
<mask id="path-373-inside-186_20271_21372" fill="white">
<path d="M157.975 766.1V818.55H105.525V766.1H157.975Z"/>
</mask>
<path d="M157.975 766.1V818.55H105.525V766.1H157.975Z" fill="#0B8E83"/>
<path d="M105.525 818.55H104.979V819.097H105.525V818.55ZM157.975 818.55V818.004H105.525V818.55V819.097H157.975V818.55ZM105.525 818.55H106.071V766.1H105.525H104.979V818.55H105.525Z" fill="#11C7B7" fill-opacity="0.08" mask="url(#path-373-inside-186_20271_21372)"/>
<mask id="path-375-inside-187_20271_21372" fill="white">
<path d="M157.975 818.55V871H105.525V818.55H157.975Z"/>
</mask>
<path d="M105.525 871H104.979V871.547H105.525V871ZM157.975 871V870.454H105.525V871V871.547H157.975V871ZM105.525 871H106.071V818.55H105.525H104.979V871H105.525Z" fill="#11C7B7" fill-opacity="0.08" mask="url(#path-375-inside-187_20271_21372)"/>
<mask id="path-377-inside-188_20271_21372" fill="white">
<path d="M105.525 -20.65V31.8H53.0749V-20.65L105.525 -20.65Z"/>
</mask>
<path d="M53.0749 31.8H52.5286V32.3463H53.0749V31.8ZM105.525 31.8V31.2536H53.0749V31.8V32.3463H105.525V31.8ZM53.0749 31.8H53.6213V-20.65H53.0749H52.5286V31.8H53.0749Z" fill="#11C7B7" fill-opacity="0.08" mask="url(#path-377-inside-188_20271_21372)"/>
<mask id="path-379-inside-189_20271_21372" fill="white">
<path d="M105.525 31.8V84.25H53.0749V31.8L105.525 31.8Z"/>
</mask>
<path d="M53.0749 84.25H52.5286V84.7963H53.0749V84.25ZM105.525 84.25V83.7036H53.0749V84.25V84.7963H105.525V84.25ZM53.0749 84.25H53.6213V31.8H53.0749H52.5286V84.25H53.0749Z" fill="#11C7B7" fill-opacity="0.08" mask="url(#path-379-inside-189_20271_21372)"/>
<mask id="path-381-inside-190_20271_21372" fill="white">
<path d="M105.525 84.25V136.7H53.0749V84.25H105.525Z"/>
</mask>
<path d="M105.525 84.25V136.7H53.0749V84.25H105.525Z" fill="#0B8E83"/>
<path d="M53.0749 136.7H52.5286V137.246H53.0749V136.7ZM105.525 136.7V136.154H53.0749V136.7V137.246H105.525V136.7ZM53.0749 136.7H53.6213V84.25H53.0749H52.5286V136.7H53.0749Z" fill="#11C7B7" fill-opacity="0.08" mask="url(#path-381-inside-190_20271_21372)"/>
<mask id="path-383-inside-191_20271_21372" fill="white">
<path d="M105.525 136.7V189.15H53.0749V136.7H105.525Z"/>
</mask>
<path d="M53.0749 189.15H52.5286V189.696H53.0749V189.15ZM105.525 189.15V188.604H53.0749V189.15V189.696H105.525V189.15ZM53.0749 189.15H53.6213V136.7H53.0749H52.5286V189.15H53.0749Z" fill="#11C7B7" fill-opacity="0.08" mask="url(#path-383-inside-191_20271_21372)"/>
<mask id="path-385-inside-192_20271_21372" fill="white">
<path d="M105.525 189.15V241.6H53.0749V189.15H105.525Z"/>
</mask>
<path d="M53.0749 241.6H52.5286V242.146H53.0749V241.6ZM105.525 241.6V241.054H53.0749V241.6V242.146H105.525V241.6ZM53.0749 241.6H53.6213V189.15H53.0749H52.5286V241.6H53.0749Z" fill="#11C7B7" fill-opacity="0.08" mask="url(#path-385-inside-192_20271_21372)"/>
<mask id="path-387-inside-193_20271_21372" fill="white">
<path d="M105.525 241.6V294.05H53.0749V241.6H105.525Z"/>
</mask>
<path d="M53.0749 294.05H52.5286V294.596H53.0749V294.05ZM105.525 294.05V293.504H53.0749V294.05V294.596H105.525V294.05ZM53.0749 294.05H53.6213V241.6H53.0749H52.5286V294.05H53.0749Z" fill="#11C7B7" fill-opacity="0.08" mask="url(#path-387-inside-193_20271_21372)"/>
<mask id="path-389-inside-194_20271_21372" fill="white">
<path d="M105.525 294.05V346.5H53.0749V294.05H105.525Z"/>
</mask>
<path d="M53.0749 346.5H52.5286V347.046H53.0749V346.5ZM105.525 346.5V345.954H53.0749V346.5V347.046H105.525V346.5ZM53.0749 346.5H53.6213V294.05H53.0749H52.5286V346.5H53.0749Z" fill="#11C7B7" fill-opacity="0.08" mask="url(#path-389-inside-194_20271_21372)"/>
<mask id="path-391-inside-195_20271_21372" fill="white">
<path d="M105.525 346.5V398.95H53.0749V346.5H105.525Z"/>
</mask>
<path d="M53.0749 398.95H52.5286V399.496H53.0749V398.95ZM105.525 398.95V398.404H53.0749V398.95V399.496H105.525V398.95ZM53.0749 398.95H53.6213V346.5H53.0749H52.5286V398.95H53.0749Z" fill="#11C7B7" fill-opacity="0.08" mask="url(#path-391-inside-195_20271_21372)"/>
<mask id="path-393-inside-196_20271_21372" fill="white">
<path d="M105.525 398.95V451.4H53.0749V398.95H105.525Z"/>
</mask>
<path d="M105.525 398.95V451.4H53.0749V398.95H105.525Z" fill="#0B8E83"/>
<path d="M53.0749 451.4H52.5286V451.946H53.0749V451.4ZM105.525 451.4V450.854H53.0749V451.4V451.946H105.525V451.4ZM53.0749 451.4H53.6213V398.95H53.0749H52.5286V451.4H53.0749Z" fill="#11C7B7" fill-opacity="0.08" mask="url(#path-393-inside-196_20271_21372)"/>
<mask id="path-395-inside-197_20271_21372" fill="white">
<path d="M105.525 451.4V503.85H53.0749V451.4H105.525Z"/>
</mask>
<path d="M53.0749 503.85H52.5286V504.396H53.0749V503.85ZM105.525 503.85V503.304H53.0749V503.85V504.396H105.525V503.85ZM53.0749 503.85H53.6213V451.4H53.0749H52.5286V503.85H53.0749Z" fill="#11C7B7" fill-opacity="0.08" mask="url(#path-395-inside-197_20271_21372)"/>
<mask id="path-397-inside-198_20271_21372" fill="white">
<path d="M105.525 503.85V556.3H53.0749V503.85H105.525Z"/>
</mask>
<path d="M53.0749 556.3H52.5286V556.846H53.0749V556.3ZM105.525 556.3V555.754H53.0749V556.3V556.846H105.525V556.3ZM53.0749 556.3H53.6213V503.85H53.0749H52.5286V556.3H53.0749Z" fill="#11C7B7" fill-opacity="0.08" mask="url(#path-397-inside-198_20271_21372)"/>
<mask id="path-399-inside-199_20271_21372" fill="white">
<path d="M105.525 556.3V608.75H53.0749V556.3H105.525Z"/>
</mask>
<path d="M53.0749 608.75H52.5286V609.296H53.0749V608.75ZM105.525 608.75V608.204H53.0749V608.75V609.296H105.525V608.75ZM53.0749 608.75H53.6213V556.3H53.0749H52.5286V608.75H53.0749Z" fill="#11C7B7" fill-opacity="0.08" mask="url(#path-399-inside-199_20271_21372)"/>
<mask id="path-401-inside-200_20271_21372" fill="white">
<path d="M105.525 608.75V661.2H53.0749V608.75H105.525Z"/>
</mask>
<path d="M53.0749 661.2H52.5286V661.746H53.0749V661.2ZM105.525 661.2V660.654H53.0749V661.2V661.746H105.525V661.2ZM53.0749 661.2H53.6213V608.75H53.0749H52.5286V661.2H53.0749Z" fill="#11C7B7" fill-opacity="0.08" mask="url(#path-401-inside-200_20271_21372)"/>
<mask id="path-403-inside-201_20271_21372" fill="white">
<path d="M105.525 661.2V713.65H53.0749V661.2H105.525Z"/>
</mask>
<path d="M53.0749 713.65H52.5286V714.196H53.0749V713.65ZM105.525 713.65V713.104H53.0749V713.65V714.196H105.525V713.65ZM53.0749 713.65H53.6213V661.2H53.0749H52.5286V713.65H53.0749Z" fill="#11C7B7" fill-opacity="0.08" mask="url(#path-403-inside-201_20271_21372)"/>
<mask id="path-405-inside-202_20271_21372" fill="white">
<path d="M105.525 713.65V766.1H53.0749V713.65H105.525Z"/>
</mask>
<path d="M53.0749 766.1H52.5286V766.646H53.0749V766.1ZM105.525 766.1V765.554H53.0749V766.1V766.646H105.525V766.1ZM53.0749 766.1H53.6213V713.65H53.0749H52.5286V766.1H53.0749Z" fill="#11C7B7" fill-opacity="0.08" mask="url(#path-405-inside-202_20271_21372)"/>
<mask id="path-407-inside-203_20271_21372" fill="white">
<path d="M105.525 766.1V818.55H53.0749V766.1H105.525Z"/>
</mask>
<path d="M53.0749 818.55H52.5286V819.097H53.0749V818.55ZM105.525 818.55V818.004H53.0749V818.55V819.097H105.525V818.55ZM53.0749 818.55H53.6213V766.1H53.0749H52.5286V818.55H53.0749Z" fill="#11C7B7" fill-opacity="0.08" mask="url(#path-407-inside-203_20271_21372)"/>
<mask id="path-409-inside-204_20271_21372" fill="white">
<path d="M105.525 818.55V871H53.0749V818.55H105.525Z"/>
</mask>
<path d="M53.0749 871H52.5286V871.547H53.0749V871ZM105.525 871V870.454H53.0749V871V871.547H105.525V871ZM53.0749 871H53.6213V818.55H53.0749H52.5286V871H53.0749Z" fill="#11C7B7" fill-opacity="0.08" mask="url(#path-409-inside-204_20271_21372)"/>
<mask id="path-411-inside-205_20271_21372" fill="white">
<path d="M53.075 -20.65V31.8H0.624954V-20.65L53.075 -20.65Z"/>
</mask>
<path d="M53.075 -20.65V31.8H0.624954V-20.65L53.075 -20.65Z" fill="#0B8E83"/>
<path d="M0.624954 31.8H0.0786018V32.3463H0.624954V31.8ZM53.075 31.8V31.2536H0.624954V31.8V32.3463H53.075V31.8ZM0.624954 31.8H1.17131V-20.65H0.624954H0.0786018V31.8H0.624954Z" fill="#11C7B7" fill-opacity="0.08" mask="url(#path-411-inside-205_20271_21372)"/>
<mask id="path-413-inside-206_20271_21372" fill="white">
<path d="M53.075 31.8V84.25H0.624954V31.8L53.075 31.8Z"/>
</mask>
<path d="M0.624954 84.25H0.0786018V84.7963H0.624954V84.25ZM53.075 84.25V83.7036H0.624954V84.25V84.7963H53.075V84.25ZM0.624954 84.25H1.17131V31.8H0.624954H0.0786018V84.25H0.624954Z" fill="#11C7B7" fill-opacity="0.08" mask="url(#path-413-inside-206_20271_21372)"/>
<mask id="path-415-inside-207_20271_21372" fill="white">
<path d="M53.075 84.25V136.7H0.624954V84.25H53.075Z"/>
</mask>
<path d="M0.624954 136.7H0.0786018V137.246H0.624954V136.7ZM53.075 136.7V136.154H0.624954V136.7V137.246H53.075V136.7ZM0.624954 136.7H1.17131V84.25H0.624954H0.0786018V136.7H0.624954Z" fill="#11C7B7" fill-opacity="0.08" mask="url(#path-415-inside-207_20271_21372)"/>
<mask id="path-417-inside-208_20271_21372" fill="white">
<path d="M53.075 136.7V189.15H0.624954V136.7H53.075Z"/>
</mask>
<path d="M0.624954 189.15H0.0786018V189.696H0.624954V189.15ZM53.075 189.15V188.604H0.624954V189.15V189.696H53.075V189.15ZM0.624954 189.15H1.17131V136.7H0.624954H0.0786018V189.15H0.624954Z" fill="#11C7B7" fill-opacity="0.08" mask="url(#path-417-inside-208_20271_21372)"/>
<mask id="path-419-inside-209_20271_21372" fill="white">
<path d="M53.075 189.15V241.6H0.624954V189.15H53.075Z"/>
</mask>
<path d="M0.624954 241.6H0.0786018V242.146H0.624954V241.6ZM53.075 241.6V241.054H0.624954V241.6V242.146H53.075V241.6ZM0.624954 241.6H1.17131V189.15H0.624954H0.0786018V241.6H0.624954Z" fill="#11C7B7" fill-opacity="0.08" mask="url(#path-419-inside-209_20271_21372)"/>
<mask id="path-421-inside-210_20271_21372" fill="white">
<path d="M53.075 241.6V294.05H0.624954V241.6H53.075Z"/>
</mask>
<path d="M0.624954 294.05H0.0786018V294.596H0.624954V294.05ZM53.075 294.05V293.504H0.624954V294.05V294.596H53.075V294.05ZM0.624954 294.05H1.17131V241.6H0.624954H0.0786018V294.05H0.624954Z" fill="#11C7B7" fill-opacity="0.08" mask="url(#path-421-inside-210_20271_21372)"/>
<mask id="path-423-inside-211_20271_21372" fill="white">
<path d="M53.075 294.05V346.5H0.624954V294.05H53.075Z"/>
</mask>
<path d="M0.624954 346.5H0.0786018V347.046H0.624954V346.5ZM53.075 346.5V345.954H0.624954V346.5V347.046H53.075V346.5ZM0.624954 346.5H1.17131V294.05H0.624954H0.0786018V346.5H0.624954Z" fill="#11C7B7" fill-opacity="0.08" mask="url(#path-423-inside-211_20271_21372)"/>
<mask id="path-425-inside-212_20271_21372" fill="white">
<path d="M53.075 346.5V398.95H0.624954V346.5H53.075Z"/>
</mask>
<path d="M0.624954 398.95H0.0786018V399.496H0.624954V398.95ZM53.075 398.95V398.404H0.624954V398.95V399.496H53.075V398.95ZM0.624954 398.95H1.17131V346.5H0.624954H0.0786018V398.95H0.624954Z" fill="#11C7B7" fill-opacity="0.08" mask="url(#path-425-inside-212_20271_21372)"/>
<mask id="path-427-inside-213_20271_21372" fill="white">
<path d="M53.075 398.95V451.4H0.624954V398.95H53.075Z"/>
</mask>
<path d="M0.624954 451.4H0.0786018V451.946H0.624954V451.4ZM53.075 451.4V450.854H0.624954V451.4V451.946H53.075V451.4ZM0.624954 451.4H1.17131V398.95H0.624954H0.0786018V451.4H0.624954Z" fill="#11C7B7" fill-opacity="0.08" mask="url(#path-427-inside-213_20271_21372)"/>
<mask id="path-429-inside-214_20271_21372" fill="white">
<path d="M53.075 451.4V503.85H0.624954V451.4H53.075Z"/>
</mask>
<path d="M0.624954 503.85H0.0786018V504.396H0.624954V503.85ZM53.075 503.85V503.304H0.624954V503.85V504.396H53.075V503.85ZM0.624954 503.85H1.17131V451.4H0.624954H0.0786018V503.85H0.624954Z" fill="#11C7B7" fill-opacity="0.08" mask="url(#path-429-inside-214_20271_21372)"/>
<mask id="path-431-inside-215_20271_21372" fill="white">
<path d="M53.075 503.85V556.3H0.624954V503.85H53.075Z"/>
</mask>
<path d="M0.624954 556.3H0.0786018V556.846H0.624954V556.3ZM53.075 556.3V555.754H0.624954V556.3V556.846H53.075V556.3ZM0.624954 556.3H1.17131V503.85H0.624954H0.0786018V556.3H0.624954Z" fill="#11C7B7" fill-opacity="0.08" mask="url(#path-431-inside-215_20271_21372)"/>
<mask id="path-433-inside-216_20271_21372" fill="white">
<path d="M53.075 556.3V608.75H0.624954V556.3H53.075Z"/>
</mask>
<path d="M0.624954 608.75H0.0786018V609.296H0.624954V608.75ZM53.075 608.75V608.204H0.624954V608.75V609.296H53.075V608.75ZM0.624954 608.75H1.17131V556.3H0.624954H0.0786018V608.75H0.624954Z" fill="#11C7B7" fill-opacity="0.08" mask="url(#path-433-inside-216_20271_21372)"/>
<mask id="path-435-inside-217_20271_21372" fill="white">
<path d="M53.075 608.75V661.2H0.624954V608.75H53.075Z"/>
</mask>
<path d="M0.624954 661.2H0.0786018V661.746H0.624954V661.2ZM53.075 661.2V660.654H0.624954V661.2V661.746H53.075V661.2ZM0.624954 661.2H1.17131V608.75H0.624954H0.0786018V661.2H0.624954Z" fill="#11C7B7" fill-opacity="0.08" mask="url(#path-435-inside-217_20271_21372)"/>
<mask id="path-437-inside-218_20271_21372" fill="white">
<path d="M53.075 661.2V713.65H0.624954V661.2H53.075Z"/>
</mask>
<path d="M53.075 661.2V713.65H0.624954V661.2H53.075Z" fill="#0B8E83"/>
<path d="M0.624954 713.65H0.0786018V714.196H0.624954V713.65ZM53.075 713.65V713.104H0.624954V713.65V714.196H53.075V713.65ZM0.624954 713.65H1.17131V661.2H0.624954H0.0786018V713.65H0.624954Z" fill="#11C7B7" fill-opacity="0.08" mask="url(#path-437-inside-218_20271_21372)"/>
<mask id="path-439-inside-219_20271_21372" fill="white">
<path d="M53.075 713.65V766.1H0.624954V713.65H53.075Z"/>
</mask>
<path d="M0.624954 766.1H0.0786018V766.646H0.624954V766.1ZM53.075 766.1V765.554H0.624954V766.1V766.646H53.075V766.1ZM0.624954 766.1H1.17131V713.65H0.624954H0.0786018V766.1H0.624954Z" fill="#11C7B7" fill-opacity="0.08" mask="url(#path-439-inside-219_20271_21372)"/>
<mask id="path-441-inside-220_20271_21372" fill="white">
<path d="M53.075 766.1V818.55H0.624954V766.1H53.075Z"/>
</mask>
<path d="M0.624954 818.55H0.0786018V819.097H0.624954V818.55ZM53.075 818.55V818.004H0.624954V818.55V819.097H53.075V818.55ZM0.624954 818.55H1.17131V766.1H0.624954H0.0786018V818.55H0.624954Z" fill="#11C7B7" fill-opacity="0.08" mask="url(#path-441-inside-220_20271_21372)"/>
<mask id="path-443-inside-221_20271_21372" fill="white">
<path d="M53.075 818.55V871H0.624954V818.55H53.075Z"/>
</mask>
<path d="M0.624954 871H0.0786018V871.547H0.624954V871ZM53.075 871V870.454H0.624954V871V871.547H53.075V871ZM0.624954 871H1.17131V818.55H0.624954H0.0786018V871H0.624954Z" fill="#11C7B7" fill-opacity="0.08" mask="url(#path-443-inside-221_20271_21372)"/>
</g>
<rect x="787.102" y="-177.727" width="1048.45" height="786.204" transform="rotate(90 787.102 -177.727)" stroke="#11C7B7" stroke-opacity="0.08" stroke-width="0.546354"/>
<defs>
<clipPath id="clip0_20271_21372">
<rect x="787.375" y="-178" width="1049" height="786.75" transform="rotate(90 787.375 -178)" fill="white"/>
</clipPath>
</defs>
</svg>
