<svg width="104" height="110" viewBox="0 0 104 110" fill="none" xmlns="http://www.w3.org/2000/svg">
<path d="M50.5747 18.9653C50.5747 18.9653 53.8812 42.423 64.2345 52.1888C75.1304 62.4664 101.149 64.4826 101.149 64.4826C101.149 64.4826 75.1304 66.4987 64.2345 76.7764C53.8812 86.5422 50.5747 110 50.5747 110C50.5747 110 47.2682 86.5422 36.9149 76.7764C26.019 66.4987 0 64.4826 0 64.4826C0 64.4826 26.019 62.4664 36.9149 52.1888C47.2682 42.423 50.5747 18.9653 50.5747 18.9653Z" fill="#119D90"/>
<path d="M82.7115 0C82.7115 0 84.0823 9.72514 88.3746 13.7739C92.8918 18.0348 103.679 18.8707 103.679 18.8707C103.679 18.8707 92.8918 19.7065 88.3746 23.9675C84.0823 28.0162 82.7115 37.7414 82.7115 37.7414C82.7115 37.7414 81.3406 28.0162 77.0483 23.9675C72.5311 19.7065 61.744 18.8707 61.744 18.8707C61.744 18.8707 72.5311 18.0348 77.0483 13.7739C81.3406 9.72514 82.7115 0 82.7115 0Z" fill="#119D90"/>
</svg>
