<svg width="160" height="82" viewBox="0 0 160 82" fill="none" xmlns="http://www.w3.org/2000/svg">
<path d="M1.39713 80.9813C34.6868 44.9821 69.8184 46.9204 90.8174 57.1766C94.0919 58.7759 101.835 62.2321 97.0539 68.3694C93.5092 72.3915 87.5669 76.2197 79.8012 72.9578C68.6903 68.2922 56.7059 58.8753 69.4968 46.1472C83.4215 32.2909 107.271 22.5996 125.628 16.473C134.532 13.5014 145.4 10.5417 154.502 9.93724C160.545 9.53597 156.346 11.0971 151.74 13.7208C146.836 16.6391 135.871 23.1525 146.729 16.6915C151.141 14.0663 152.583 12.924 157.109 10.8597C161.616 9.18195 156.772 8.51003 155.677 8.11441C152.225 6.86714 147.605 4.27844 145.813 1.26822" stroke="url(#paint0_linear_19026_24951)" stroke-width="2" stroke-linecap="round"/>
<defs>
<linearGradient id="paint0_linear_19026_24951" x1="160.393" y1="6.36508" x2="10.1825" y2="95.7457" gradientUnits="userSpaceOnUse">
<stop stopColor="#BFC3C2"/>
<stop offset="0.702444" stopColor="#E8EEF0"/>
<stop offset="1" stopColor="white"/>
</linearGradient>
</defs>
</svg>
