<svg width="20" height="20" viewBox="0 0 20 20" fill="none" xmlns="http://www.w3.org/2000/svg">
<path fillRule="evenodd" clipRule="evenodd" d="M8.20044 4.2191C7.90092 4.97401 7.65714 5.89099 7.49242 6.92045C8.28941 6.84745 9.13147 6.80859 10.0003 6.80859C10.8692 6.80859 11.7113 6.84745 12.5083 6.92045C12.3435 5.89099 12.0998 4.97401 11.8002 4.2191C11.5124 3.49351 11.1854 2.94916 10.8547 2.59665C10.5253 2.24549 10.2364 2.12754 10.0003 2.12754C9.76429 2.12754 9.47536 2.24549 9.14595 2.59665C8.81528 2.94916 8.48832 3.49351 8.20044 4.2191ZM7.0247 3.74496C6.65097 4.6869 6.36421 5.82157 6.18845 7.07597C5.32329 7.2046 4.53375 7.37624 3.84897 7.58335C3.05219 7.82434 2.36126 8.12397 1.8554 8.4857C1.79149 8.5314 1.72841 8.5797 1.66703 8.63062C2.2254 5.15104 4.87628 2.37832 8.27608 1.66699C8.25921 1.68429 8.24249 1.70178 8.22591 1.71946C7.74859 2.22831 7.3479 2.93036 7.0247 3.74496ZM11.7246 1.66699C11.7415 1.68429 11.7582 1.70178 11.7748 1.71946C12.2521 2.22831 12.6528 2.93036 12.976 3.74496C13.3497 4.6869 13.6365 5.82157 13.8122 7.07597C14.6774 7.2046 15.4669 7.37624 16.1517 7.58335C16.9485 7.82434 17.6394 8.12397 18.1453 8.4857C18.2092 8.5314 18.2723 8.5797 18.3337 8.63062C17.7753 5.15104 15.1244 2.37832 11.7246 1.66699ZM18.3337 11.3698C18.2723 11.4207 18.2092 11.469 18.1453 11.5147C17.6394 11.8765 16.9485 12.1761 16.1517 12.4171C15.4669 12.6242 14.6774 12.7958 13.8122 12.9245C13.6365 14.1788 13.3497 15.3135 12.976 16.2555C12.6528 17.0701 12.2521 17.7721 11.7748 18.281C11.7581 18.2987 11.7413 18.3163 11.7244 18.3337C15.1244 17.6224 17.7754 14.8495 18.3337 11.3698ZM8.27633 18.3337C8.25938 18.3163 8.24257 18.2987 8.22591 18.281C7.74859 17.7721 7.3479 17.0701 7.0247 16.2555C6.65097 15.3135 6.36421 14.1788 6.18845 12.9245C5.32329 12.7958 4.53375 12.6242 3.84897 12.4171C3.05219 12.1761 2.36126 11.8765 1.8554 11.5147C1.79148 11.469 1.72838 11.4207 1.66699 11.3698C2.2253 14.8495 4.87633 17.6224 8.27633 18.3337ZM4.21284 11.1943C4.74991 11.3567 5.36785 11.4975 6.04893 11.6105C6.01038 11.087 5.99036 10.5488 5.99036 10.0002C5.99036 9.45166 6.01038 8.91341 6.04893 8.38992C5.36785 8.50292 4.74991 8.64372 4.21284 8.80616C3.48191 9.02723 2.93652 9.27779 2.588 9.52701C2.22303 9.78798 2.19144 9.95714 2.19144 10.0002C2.19144 10.0433 2.22303 10.2124 2.588 10.4734C2.93652 10.7226 3.48191 10.9732 4.21284 11.1943ZM7.25667 10.0002C7.25667 10.614 7.28322 11.2102 7.33314 11.7819C8.16557 11.8679 9.06271 11.9152 10.0003 11.9152C10.938 11.9152 11.8351 11.8679 12.6675 11.7819C12.7175 11.2102 12.744 10.614 12.744 10.0002C12.744 9.38639 12.7175 8.79025 12.6675 8.21855C11.8351 8.13249 10.938 8.08524 10.0003 8.08524C9.06271 8.08524 8.16557 8.13249 7.33314 8.21855C7.28322 8.79025 7.25667 9.38639 7.25667 10.0002ZM8.20044 15.7813C7.90092 15.0264 7.65714 14.1094 7.49242 13.08C8.28941 13.153 9.13147 13.1918 10.0003 13.1918C10.8692 13.1918 11.7113 13.153 12.5083 13.08C12.3435 14.1094 12.0998 15.0264 11.8002 15.7813C11.5124 16.5069 11.1854 17.0513 10.8547 17.4038C10.5253 17.7549 10.2364 17.8729 10.0003 17.8729C9.76429 17.8729 9.47536 17.7549 9.14595 17.4038C8.81528 17.0513 8.48832 16.5069 8.20044 15.7813ZM15.7878 11.1943C15.2508 11.3567 14.6328 11.4975 13.9518 11.6105C13.9903 11.087 14.0103 10.5488 14.0103 10.0002C14.0103 9.45166 13.9903 8.91341 13.9518 8.38993C14.6328 8.50292 15.2508 8.64372 15.7878 8.80616C16.5188 9.02723 17.0642 9.27779 17.4127 9.52701C17.7777 9.78799 17.8093 9.95714 17.8093 10.0002C17.8093 10.0433 17.7777 10.2124 17.4127 10.4734C17.0642 10.7226 16.5188 10.9732 15.7878 11.1943Z" fill="#0D9488"/>
</svg>
