<svg width="20" height="20" viewBox="0 0 20 20" fill="none" xmlns="http://www.w3.org/2000/svg">
<path d="M2.08301 9.99967C2.08301 6.26772 2.08301 4.40175 3.24237 3.24237C4.40175 2.08301 6.26772 2.08301 9.99967 2.08301C13.7316 2.08301 15.5976 2.08301 16.757 3.24237C17.9163 4.40175 17.9163 6.26772 17.9163 9.99967C17.9163 13.7316 17.9163 15.5976 16.757 16.757C15.5976 17.9163 13.7316 17.9163 9.99967 17.9163C6.26772 17.9163 4.40175 17.9163 3.24237 16.757C2.08301 15.5976 2.08301 13.7316 2.08301 9.99967Z" fill="#0D9488" stroke="#0D9488" stroke-width="1.5" stroke-linejoin="round"/>
<path d="M5.83382 8.33374V14.1665M9.16683 10.8335V14.1665M9.16683 10.8335C9.16683 9.45288 10.286 8.33374 11.6666 8.33374C13.0472 8.33374 14.1663 9.45288 14.1663 10.8335V14.1665M9.16683 10.8335V8.33374M5.8405 5.83398H5.83301" stroke="white" stroke-width="1.5" stroke-linecap="round" stroke-linejoin="round"/>
</svg>
