<svg width="20" height="20" viewBox="0 0 20 20" fill="none" xmlns="http://www.w3.org/2000/svg">
<path d="M2.08301 9.99967C2.08301 6.26772 2.08301 4.40175 3.24237 3.24237C4.40175 2.08301 6.26772 2.08301 9.99967 2.08301C13.7316 2.08301 15.5976 2.08301 16.757 3.24237C17.9163 4.40175 17.9163 6.26772 17.9163 9.99967C17.9163 13.7316 17.9163 15.5976 16.757 16.757C15.5976 17.9163 13.7316 17.9163 9.99967 17.9163C6.26772 17.9163 4.40175 17.9163 3.24237 16.757C2.08301 15.5976 2.08301 13.7316 2.08301 9.99967Z" fill="#0D9488" stroke="#0D9488" stroke-width="1.5" stroke-linejoin="round"/>
<path d="M11.3808 5.83301C10.2851 5.83301 9.39677 6.76575 9.39677 7.91634C9.39677 8.09021 9.41705 8.2591 9.45527 8.42055C8.40166 8.42055 6.8147 8.20753 5.48934 6.87968C5.3131 6.70311 4.98811 6.82116 5.00034 7.07034C5.19675 11.074 6.91138 12.2418 7.79437 12.3145C7.22419 12.8776 6.39593 13.3221 5.56249 13.5216C5.34253 13.5743 5.28819 13.8151 5.50327 13.8851C6.09964 14.079 6.95326 14.1537 7.41273 14.1663C10.6632 14.1663 13.3051 11.4305 13.3639 8.03212C13.7906 7.75459 14.064 7.15202 14.2176 6.72515C14.255 6.62119 14.0846 6.50005 13.9826 6.54252C13.6638 6.67523 13.2591 6.7067 12.9143 6.59437C12.5504 6.1295 11.9986 5.83301 11.3808 5.83301Z" fill="white"/>
</svg>
