<svg width="544" height="302" viewBox="0 0 544 302" fill="none" xmlns="http://www.w3.org/2000/svg">
<g clip-path="url(#clip0_19026_25350)">
<rect width="544" height="302" rx="10" fill="#0AA89A"/>
<path fill-rule="evenodd" clip-rule="evenodd" d="M126.059 111.863C123.414 112.673 114.753 115.304 106.812 117.708C-52.6759 165.997 -257.531 266.521 -390.528 361.759C-504.27 443.207 -601.494 532.38 -595.699 549.941C-594.378 553.94 -590.424 553.111 -578.846 546.409C-568.445 540.386 -569.297 540.068 -581.266 545.505C-593.186 550.92 -593.766 550.524 -587.596 541.181C-561.852 502.2 -416.18 388.093 -312.699 325.849C-144.158 224.472 28.5058 150.407 174.98 116.653C231.017 103.74 245.928 102.922 248.133 112.64C251.125 125.818 202.828 175.472 168.483 194.527C64.5211 252.209 -67.3424 341.063 -79.4753 361.61C-83.5149 368.453 -79.1838 375.374 -71.8967 373.72C-57.5572 370.465 44.6865 302.951 126.452 242.744C154.931 221.775 158.992 219.48 244.976 175.769C375.433 109.45 444.277 81.7338 533.393 59.6542C570.056 50.5715 573.924 50.5306 570.327 59.2704C563.078 76.8853 492.338 133.884 368.151 222.174C346.212 237.771 341.787 246.069 351.951 252.55L355.62 254.889L365.969 251.995C373.803 249.805 382.377 246.186 401.218 237.121C465.229 206.322 587.359 151.708 646.971 127.226C748.353 85.5872 860.99 47.0167 1021.61 -1.06251C1045.55 -8.22937 1064.26 -14.4297 1077.09 -19.4531C1087.75 -23.6204 1104.43 -29.6588 1114.17 -32.8708L1131.87 -38.7118L1119.48 -36.6569C1112.66 -35.5267 1098.01 -33.806 1086.91 -32.8328C1036.91 -28.4454 958.905 -6.27428 790.252 51.4895C681.549 88.7207 553.66 141.994 438.94 197.83C431.393 201.503 424.472 204.663 423.56 204.851C422.648 205.038 431.427 198.215 443.07 189.686C575.652 92.5629 604.014 62.732 584.424 41.0119C576.533 32.2645 566.455 32.0959 531.017 40.1227C445.615 59.4653 359.725 93.6624 245.684 153.727C229.108 162.457 229.162 162.47 238.685 152.082C274.429 113.088 267.146 90.3787 219.556 92.4409C211.591 92.787 139.314 107.799 126.059 111.863Z" fill="#05C2B1"/>
</g>
<defs>
<clipPath id="clip0_19026_25350">
<rect width="544" height="302" rx="10" fill="white"/>
</clipPath>
</defs>
</svg>
