<svg width="26" height="26" viewBox="0 0 26 26" fill="none" xmlns="http://www.w3.org/2000/svg">
<path d="M11.2498 14.7501L23.4998 2.50008M11.3986 15.1328L14.4647 23.0172C14.7349 23.7117 14.8699 24.059 15.0645 24.1604C15.2332 24.2483 15.4342 24.2484 15.603 24.1607C15.7977 24.0596 15.9332 23.7124 16.2041 23.0182L23.8928 3.31581C24.1374 2.6891 24.2597 2.37574 24.1928 2.17551C24.1347 2.00162 23.9982 1.86516 23.8243 1.80707C23.6241 1.74018 23.3107 1.86246 22.684 2.10703L2.98167 9.79576C2.28741 10.0667 1.94029 10.2022 1.83913 10.3969C1.75143 10.5657 1.75155 10.7666 1.83944 10.9353C1.94083 11.1299 2.28812 11.265 2.98269 11.5351L10.867 14.6012C11.008 14.6561 11.0785 14.6835 11.1379 14.7258C11.1905 14.7633 11.2365 14.8094 11.274 14.862C11.3164 14.9213 11.3438 14.9918 11.3986 15.1328Z" stroke="#0D9488" stroke-width="2" stroke-linecap="round" stroke-linejoin="round"/>
</svg>
